<svg width="256" height="250" viewBox="0 0 256 250" fill="none" xmlns="http://www.w3.org/2000/svg">
<path opacity="0.15" d="M154.822 31.7255L31.7259 154.822C14.2042 172.344 14.2042 200.752 31.7259 218.274C49.2476 235.795 77.6559 235.795 95.1777 218.274L218.274 95.1773C235.796 77.6556 235.796 49.2472 218.274 31.7255C200.752 14.2038 172.344 14.2038 154.822 31.7255Z" fill="#D7E8EF"/>
<path d="M223.602 93.3248V172.147C223.602 175.248 222.371 178.221 220.181 180.415C217.99 182.609 215.019 183.844 211.918 183.849L68.9534 183.939C67.4123 183.939 65.8862 183.634 64.463 183.043C63.0399 182.451 61.7475 181.585 60.6602 180.492C59.573 179.4 58.7122 178.104 58.1273 176.678C57.5424 175.252 57.245 173.724 57.2521 172.183L57.5751 93.9708C57.5892 90.8892 58.8185 87.9375 60.9959 85.7567C63.1733 83.576 66.1231 82.3422 69.2047 82.3233L211.828 81.5696C213.376 81.56 214.909 81.8575 216.341 82.4446C217.772 83.0318 219.073 83.897 220.168 84.9903C221.263 86.0835 222.13 87.383 222.72 88.8136C223.309 90.2442 223.609 91.7775 223.602 93.3248Z" fill="#FBF5F0"/>
<g opacity="0.3">
<path opacity="0.3" d="M124.438 132.909L152.948 102.886L156.852 106.594L128.342 136.617L124.438 132.909Z" fill="#D7E8EF"/>
<path opacity="0.3" d="M136.426 132.965L154.442 113.448L158.398 117.1L140.382 136.617L136.426 132.965Z" fill="#D7E8EF"/>
</g>
<path d="M157.308 73.7804C155.004 73.7804 152.752 73.0973 150.837 71.8174C148.921 70.5376 147.428 68.7185 146.547 66.5902C145.665 64.4619 145.435 62.12 145.884 59.8606C146.333 57.6012 147.443 55.5258 149.072 53.8968C150.701 52.2679 152.776 51.1586 155.035 50.7092C157.295 50.2597 159.637 50.4904 161.765 51.372C163.893 52.2535 165.712 53.7464 166.992 55.6619C168.272 57.5773 168.955 59.8292 168.955 62.1329C168.95 65.2205 167.722 68.1804 165.538 70.3637C163.355 72.547 160.395 73.7757 157.308 73.7804ZM157.308 55.8335C156.069 55.8335 154.858 56.2009 153.828 56.8891C152.798 57.5773 151.995 58.5556 151.521 59.7001C151.047 60.8446 150.923 62.1039 151.165 63.3189C151.406 64.5339 152.003 65.65 152.879 66.5259C153.755 67.4019 154.871 67.9984 156.086 68.2401C157.301 68.4818 158.56 68.3577 159.705 67.8837C160.849 67.4096 161.827 66.6068 162.516 65.5768C163.204 64.5468 163.571 63.3358 163.571 62.097C163.562 60.4404 162.898 58.8546 161.725 57.6849C160.552 56.5151 158.964 55.8562 157.308 55.8515V55.8335Z" fill="#175067"/>
<path d="M138.123 72.4706C140.235 72.4706 141.946 70.7591 141.946 68.6479C141.946 66.5367 140.235 64.8252 138.123 64.8252C136.012 64.8252 134.301 66.5367 134.301 68.6479C134.301 70.7591 136.012 72.4706 138.123 72.4706Z" fill="#175067"/>
<path d="M75.6137 197.524C77.7249 197.524 79.4364 195.813 79.4364 193.702C79.4364 191.59 77.7249 189.879 75.6137 189.879C73.5025 189.879 71.791 191.59 71.791 193.702C71.791 195.813 73.5025 197.524 75.6137 197.524Z" fill="#D7E8EF"/>
<path d="M93.9734 209.351C92.0673 209.351 90.204 208.786 88.6191 207.727C87.0342 206.668 85.799 205.163 85.0696 203.402C84.3401 201.641 84.1493 199.703 84.5211 197.833C84.893 195.964 85.8109 194.247 87.1587 192.899C88.5065 191.551 90.2237 190.633 92.0932 190.261C93.9627 189.889 95.9005 190.08 97.6615 190.81C99.4225 191.539 100.928 192.774 101.987 194.359C103.046 195.944 103.611 197.808 103.611 199.714C103.606 202.268 102.589 204.717 100.783 206.523C98.9765 208.329 96.528 209.346 93.9734 209.351ZM93.9734 195.46C93.1322 195.46 92.3098 195.71 91.6103 196.177C90.9109 196.644 90.3657 197.309 90.0438 198.086C89.7218 198.863 89.6376 199.718 89.8017 200.543C89.9658 201.369 90.3709 202.126 90.9658 202.721C91.5606 203.316 92.3185 203.721 93.1436 203.885C93.9687 204.049 94.8239 203.965 95.6011 203.643C96.3783 203.321 97.0426 202.776 97.51 202.077C97.9774 201.377 98.2268 200.555 98.2268 199.714C98.2268 198.586 97.7787 197.504 96.981 196.706C96.1834 195.908 95.1015 195.46 93.9734 195.46Z" fill="#175067"/>
<path d="M67.0531 186.631C65.1601 186.631 63.2857 186.257 61.5379 185.53C59.7901 184.803 58.2033 183.737 56.8689 182.394C55.5346 181.052 54.4789 179.458 53.7626 177.706C53.0464 175.954 52.6838 174.077 52.6956 172.184L53.0904 93.9716C53.0904 90.1638 54.6031 86.5119 57.2956 83.8193C59.9882 81.1268 63.6401 79.6141 67.4479 79.6141L210.072 78.8604C213.88 78.8604 217.531 80.373 220.224 83.0656C222.917 85.7581 224.429 89.41 224.429 93.2178V172.148C224.429 175.956 222.917 179.608 220.224 182.3C217.531 184.993 213.88 186.506 210.072 186.506L67.089 186.595L67.0531 186.631ZM210.036 84.3341L67.43 84.9982C65.0501 84.9982 62.7676 85.9436 61.0848 87.6264C59.402 89.3093 58.4565 91.5917 58.4565 93.9716L58.0797 172.202C58.0797 174.582 59.0251 176.864 60.7079 178.547C62.3908 180.23 64.6732 181.175 67.0531 181.175L210.036 181.086C212.416 181.086 214.698 180.14 216.381 178.457C218.064 176.775 219.009 174.492 219.009 172.112V93.3255C219.009 90.9456 218.064 88.6632 216.381 86.9803C214.698 85.2975 212.416 84.3521 210.036 84.3521V84.3341Z" fill="#175067"/>
<path d="M138.623 154.343C136.065 154.349 133.531 153.847 131.168 152.868C128.806 151.888 126.661 150.45 124.857 148.636L77.998 101.794L81.8028 97.9896L128.662 144.831C131.304 147.472 134.887 148.956 138.623 148.956C142.358 148.956 145.941 147.472 148.583 144.831L195.442 97.9717L199.247 101.776L152.388 148.636C150.585 150.45 148.439 151.888 146.077 152.868C143.714 153.847 141.18 154.349 138.623 154.343Z" fill="#175067"/>
<path d="M71.5566 164.162L106.221 124.621L110.27 128.17L75.6052 167.711L71.5566 164.162Z" fill="#175067"/>
<path d="M166.979 128.147L171.028 124.599L205.685 164.146L201.636 167.695L166.979 128.147Z" fill="#175067"/>
<path d="M206.838 88.3877H210.427V107.842H206.838V88.3877Z" fill="white"/>
<path d="M206.838 110.623H210.427V118.968H206.838V110.623Z" fill="white"/>
<path d="M206.838 121.733H210.427V124.515H206.838V121.733Z" fill="white"/>
<path d="M209.402 97.3418H212.992V120.116H209.402V97.3418Z" fill="white"/>
<path d="M209.402 123.365H212.992V133.128H209.402V123.365Z" fill="white"/>
<path d="M209.402 136.376H212.992V139.624H209.402V136.376Z" fill="white"/>
<path d="M208.149 140.846C234.088 140.846 255.116 119.818 255.116 93.8791C255.116 67.9399 234.088 46.9121 208.149 46.9121C182.209 46.9121 161.182 67.9399 161.182 93.8791C161.182 119.818 182.209 140.846 208.149 140.846Z" fill="#FBF5F0"/>
<path d="M209.785 131.983C230.828 131.983 247.886 114.924 247.886 93.8815C247.886 72.8388 230.828 55.7803 209.785 55.7803C188.742 55.7803 171.684 72.8388 171.684 93.8815C171.684 114.924 188.742 131.983 209.785 131.983Z" fill="#EFB86E"/>
<path d="M208.153 134.674C200.084 134.674 192.198 132.282 185.489 127.799C178.781 123.317 173.552 116.946 170.465 109.492C167.377 102.038 166.569 93.8359 168.143 85.9228C169.717 78.0097 173.602 70.741 179.307 65.036C185.012 59.3309 192.281 55.4458 200.194 53.8717C208.107 52.2977 216.31 53.1056 223.764 56.1931C231.218 59.2807 237.589 64.5092 242.071 71.2176C246.553 77.9261 248.946 85.813 248.946 93.8812C248.932 104.696 244.629 115.063 236.982 122.711C229.335 130.358 218.967 134.66 208.153 134.674ZM208.153 58.454C201.149 58.454 194.303 60.5307 188.48 64.4215C182.657 68.3124 178.119 73.8425 175.439 80.3127C172.759 86.7829 172.058 93.9025 173.424 100.771C174.79 107.64 178.163 113.949 183.115 118.901C188.067 123.853 194.376 127.226 201.245 128.592C208.113 129.958 215.233 129.257 221.703 126.577C228.173 123.897 233.703 119.359 237.594 113.535C241.485 107.712 243.562 100.866 243.562 93.8632C243.543 84.4796 239.806 75.486 233.169 68.8525C226.532 62.2189 217.536 58.4862 208.153 58.472V58.454Z" fill="#175067"/>
<path d="M204.704 110.895C203.997 110.893 203.308 110.673 202.73 110.266L188.965 100.629C188.379 100.22 187.98 99.5944 187.856 98.891C187.731 98.1876 187.891 97.4635 188.301 96.878C188.71 96.2925 189.335 95.8937 190.038 95.7692C190.742 95.6446 191.466 95.8046 192.051 96.214L204.291 104.739L224.266 78.1056C224.483 77.8228 224.753 77.5854 225.062 77.4071C225.37 77.2288 225.711 77.113 226.064 77.0663C226.418 77.0197 226.777 77.0431 227.121 77.1351C227.465 77.2272 227.788 77.3862 228.071 77.6031C228.354 77.8199 228.591 78.0903 228.769 78.3989C228.948 78.7074 229.063 79.0481 229.11 79.4014C229.157 79.7547 229.133 80.1137 229.041 80.458C228.949 80.8022 228.79 81.125 228.573 81.4078L207.468 109.495C207.148 109.928 206.732 110.28 206.252 110.523C205.772 110.766 205.242 110.893 204.704 110.895Z" fill="white"/>
</svg>
