<svg width="107" height="150" viewBox="0 0 107 150" fill="none" xmlns="http://www.w3.org/2000/svg">
<path opacity="0.4" d="M52.8784 131.1C82.0823 131.1 105.757 107.426 105.757 78.2221C105.757 49.0182 82.0823 25.3438 52.8784 25.3438C23.6745 25.3438 0 49.0182 0 78.2221C0 107.426 23.6745 131.1 52.8784 131.1Z" fill="#D7E8EF"/>
<path opacity="0.4" d="M54.0709 120.791C78.0999 120.791 97.5792 101.312 97.5792 77.2828C97.5792 53.2538 78.0999 33.7744 54.0709 33.7744C30.0419 33.7744 10.5625 53.2538 10.5625 77.2828C10.5625 101.312 30.0419 120.791 54.0709 120.791Z" fill="#D7E8EF"/>
<path opacity="0.4" d="M6.27081 36.6656C8.41486 36.6656 10.153 34.9276 10.153 32.7835C10.153 30.6395 8.41486 28.9014 6.27081 28.9014C4.12676 28.9014 2.38867 30.6395 2.38867 32.7835C2.38867 34.9276 4.12676 36.6656 6.27081 36.6656Z" fill="#D7E8EF"/>
<path opacity="0.4" d="M6.76705 24.5058C7.97597 24.5058 8.95598 23.5258 8.95598 22.3169C8.95598 21.1079 7.97597 20.1279 6.76705 20.1279C5.55814 20.1279 4.57812 21.1079 4.57812 22.3169C4.57812 23.5258 5.55814 24.5058 6.76705 24.5058Z" fill="#D7E8EF"/>
<path opacity="0.5" d="M75.7097 18.1729H30.0474C23.9126 18.1729 18.9395 23.146 18.9395 29.2808V138.892C18.9395 145.027 23.9126 150 30.0474 150H75.7097C81.8444 150 86.8176 145.027 86.8176 138.892V29.2808C86.8176 23.146 81.8444 18.1729 75.7097 18.1729Z" fill="#C2CED3"/>
<path d="M76.4632 14.6943H29.1407C23.6459 14.6943 19.1914 19.1488 19.1914 24.6437V135.295C19.1914 140.79 23.6459 145.245 29.1407 145.245H76.4632C81.958 145.245 86.4125 140.79 86.4125 135.295V24.6437C86.4125 19.1488 81.958 14.6943 76.4632 14.6943Z" fill="#175067"/>
<path d="M76.3993 15.1631H28.7988C27.2775 15.1608 25.7758 15.5052 24.4075 16.1701C23.0392 16.835 21.8405 17.803 20.9023 19.0006C22.6601 17.6368 24.8225 16.898 27.0473 16.9011H74.6497C77.2963 16.8933 79.8377 17.9371 81.7148 19.8029C83.5919 21.6687 84.651 24.2037 84.6593 26.8504V137.504C84.6608 139.72 83.9165 141.871 82.5461 143.612C83.7473 142.686 84.7201 141.498 85.3898 140.137C86.0594 138.777 86.408 137.281 86.4088 135.764V25.1105C86.4048 23.8001 86.1426 22.5034 85.6374 21.2943C85.1322 20.0852 84.3937 18.9875 83.4642 18.0638C82.5348 17.1401 81.4324 16.4085 80.2202 15.9108C79.008 15.4131 77.7097 15.159 76.3993 15.1631Z" fill="#D7E8EF"/>
<path d="M76.4634 146.023H29.141C26.298 146.019 23.5722 144.889 21.5614 142.879C19.5505 140.87 18.4187 138.144 18.4141 135.301V24.6439C18.4171 21.7999 19.5483 19.0733 21.5593 17.0622C23.5703 15.0512 26.297 13.9201 29.141 13.917H76.4634C79.3074 13.9201 82.0341 15.0512 84.0451 17.0622C86.0561 19.0733 87.1873 21.7999 87.1903 24.6439V49.6397H85.6352V24.6439C85.6326 22.2122 84.6654 19.8808 82.946 18.1614C81.2265 16.4419 78.8951 15.4748 76.4634 15.4722H29.141C26.7093 15.4748 24.3779 16.4419 22.6584 18.1614C20.939 19.8808 19.9718 22.2122 19.9693 24.6439V135.301C19.9723 137.733 20.9397 140.064 22.6591 141.783C24.3785 143.502 26.7096 144.469 29.141 144.471H76.4634C78.8948 144.469 81.2259 143.502 82.9453 141.783C84.6647 140.064 85.6321 137.733 85.6352 135.301V61.7079H87.1903V135.301C87.1857 138.144 86.0539 140.87 84.043 142.879C82.0322 144.889 79.3064 146.019 76.4634 146.023Z" fill="#213346"/>
<path d="M85.6348 58.1367H87.19V59.7347H85.6348V58.1367Z" fill="#213346"/>
<path d="M85.6348 52.1924H87.19V56.6772H85.6348V52.1924Z" fill="#213346"/>
<path d="M77.0524 19.6328H28.5499C25.926 19.6328 23.7988 21.76 23.7988 24.3839V134.781C23.7988 137.405 25.926 139.532 28.5499 139.532H77.0524C79.6763 139.532 81.8035 137.405 81.8035 134.781V24.3839C81.8035 21.76 79.6763 19.6328 77.0524 19.6328Z" fill="white"/>
<path d="M76.7873 19.9063H28.2752C27.4113 19.9054 26.5635 20.1403 25.8232 20.5856C25.0829 21.0309 24.4782 21.6698 24.0742 22.4334C24.7564 22.0724 25.5166 21.8842 26.2884 21.8852H74.7909C76.0509 21.8852 77.2594 22.3858 78.1504 23.2768C79.0414 24.1678 79.542 25.3763 79.542 26.6363V137.051C79.543 137.823 79.3548 138.584 78.9938 139.267C79.7575 138.863 80.3965 138.258 80.8418 137.517C81.2872 136.776 81.522 135.928 81.521 135.064V24.6574C81.521 23.4003 81.0228 22.1945 80.1356 21.304C79.2484 20.4135 78.0444 19.9109 76.7873 19.9063Z" fill="#DCE1FF"/>
<path d="M77.0516 140.114H28.5491C27.1349 140.113 25.779 139.55 24.7789 138.55C23.7789 137.55 23.2164 136.194 23.2148 134.78V24.3831C23.2169 22.9692 23.7796 21.6138 24.7796 20.6142C25.7796 19.6146 27.1352 19.0523 28.5491 19.0508H77.0516C78.4659 19.0523 79.8218 19.6148 80.8218 20.6149C81.8218 21.6149 82.3843 22.9708 82.3859 24.3851V134.78C82.3843 136.194 81.8218 137.55 80.8218 138.55C79.8218 139.55 78.4659 140.113 77.0516 140.114ZM28.5491 20.2172C27.4442 20.2187 26.385 20.6583 25.6037 21.4396C24.8224 22.2209 24.3828 23.2802 24.3812 24.3851V134.78C24.3828 135.885 24.8224 136.944 25.6037 137.726C26.385 138.507 27.4442 138.947 28.5491 138.948H77.0516C78.1567 138.947 79.2162 138.508 79.9976 137.726C80.779 136.945 81.2185 135.885 81.2195 134.78V24.3831C81.218 23.2784 80.7783 22.2194 79.9969 21.4384C79.2156 20.6574 78.1563 20.2182 77.0516 20.2172H28.5491Z" fill="#213346"/>
<path d="M39.2853 7.35376C39.9595 7.35376 40.5061 6.80717 40.5061 6.13293C40.5061 5.45869 39.9595 4.91211 39.2853 4.91211C38.611 4.91211 38.0645 5.45869 38.0645 6.13293C38.0645 6.80717 38.611 7.35376 39.2853 7.35376Z" fill="#FFC62A"/>
<path d="M81.2297 9.19872C82.9229 9.19872 84.2954 7.82617 84.2954 6.13305C84.2954 4.43993 82.9229 3.06738 81.2297 3.06738C79.5366 3.06738 78.1641 4.43993 78.1641 6.13305C78.1641 7.82617 79.5366 9.19872 81.2297 9.19872Z" fill="#D7E8EF"/>
<path d="M86.1427 15.1633C86.8169 15.1633 87.3635 14.6167 87.3635 13.9425C87.3635 13.2683 86.8169 12.7217 86.1427 12.7217C85.4685 12.7217 84.9219 13.2683 84.9219 13.9425C84.9219 14.6167 85.4685 15.1633 86.1427 15.1633Z" fill="#FFC62A"/>
<path d="M89.2072 4.28637C89.8814 4.28637 90.428 3.73979 90.428 3.06555C90.428 2.39131 89.8814 1.84473 89.2072 1.84473C88.5329 1.84473 87.9863 2.39131 87.9863 3.06555C87.9863 3.73979 88.5329 4.28637 89.2072 4.28637Z" fill="#175067"/>
<path d="M30.3782 10.8979C32.0713 10.8979 33.4438 9.52539 33.4438 7.83227C33.4438 6.13915 32.0713 4.7666 30.3782 4.7666C28.685 4.7666 27.3125 6.13915 27.3125 7.83227C27.3125 9.52539 28.685 10.8979 30.3782 10.8979Z" fill="#D7E8EF"/>
<path d="M33.4454 2.44165C34.1197 2.44165 34.6663 1.89507 34.6663 1.22082C34.6663 0.546581 34.1197 0 33.4454 0C32.7712 0 32.2246 0.546581 32.2246 1.22082C32.2246 1.89507 32.7712 2.44165 33.4454 2.44165Z" fill="#175067"/>
<path d="M21.4855 46.3313C21.3309 46.3313 21.1825 46.2699 21.0732 46.1605C20.9638 46.0511 20.9023 45.9028 20.9023 45.7481V33.2619C20.9023 33.1072 20.9638 32.9589 21.0732 32.8495C21.1825 32.7402 21.3309 32.6787 21.4855 32.6787C21.6402 32.6787 21.7886 32.7402 21.8979 32.8495C22.0073 32.9589 22.0687 33.1072 22.0687 33.2619V45.7481C22.0687 45.9028 22.0073 46.0511 21.8979 46.1605C21.7886 46.2699 21.6402 46.3313 21.4855 46.3313Z" fill="white"/>
<path d="M21.4855 50.6568C21.3309 50.6568 21.1825 50.5953 21.0732 50.486C20.9638 50.3766 20.9023 50.2283 20.9023 50.0736V48.8625C20.9023 48.7078 20.9638 48.5595 21.0732 48.4501C21.1825 48.3407 21.3309 48.2793 21.4855 48.2793C21.6402 48.2793 21.7886 48.3407 21.8979 48.4501C22.0073 48.5595 22.0687 48.7078 22.0687 48.8625V50.0736C22.0687 50.2283 22.0073 50.3766 21.8979 50.486C21.7886 50.5953 21.6402 50.6568 21.4855 50.6568Z" fill="white"/>
<path d="M36.9492 22.0488V23.6993C36.9492 24.2032 37.0485 24.7022 37.2413 25.1678C37.4342 25.6334 37.7168 26.0564 38.0732 26.4127C38.4295 26.7691 38.8525 27.0517 39.3181 27.2446C39.7837 27.4374 40.2827 27.5367 40.7866 27.5367H67.3046C67.8092 27.5377 68.309 27.4392 68.7755 27.2468C69.2419 27.0544 69.6659 26.7719 70.0231 26.4155C70.3802 26.0591 70.6636 25.6357 70.8569 25.1696C71.0503 24.7035 71.1498 24.2039 71.1498 23.6993V22.0488" fill="#DCE1FF"/>
<path d="M36.666 18.5615V20.4122C36.666 22.7994 38.3845 24.7356 40.5034 24.7356H67.0233C69.1422 24.7356 70.8607 22.7916 70.8607 20.4122V18.5615" fill="#175067"/>
<path d="M67.2002 25.1316H40.6804C39.5083 25.1306 38.3845 24.6645 37.5557 23.8357C36.7269 23.0069 36.2608 21.8831 36.2598 20.711V19.0625H37.4262V20.711C37.4272 21.5738 37.7704 22.4009 38.3804 23.011C38.9905 23.621 39.8176 23.9642 40.6804 23.9652H67.2002C68.063 23.9642 68.8901 23.621 69.5002 23.011C70.1103 22.4009 70.4535 21.5738 70.4545 20.711V19.0625H71.6209V20.711C71.6198 21.8831 71.1538 23.0069 70.325 23.8357C69.4962 24.6645 68.3723 25.1306 67.2002 25.1316Z" fill="#213346"/>
<path d="M36.0195 87.3486H69.0129V87.8677C69.0129 88.5627 68.7368 89.2292 68.2453 89.7206C67.7539 90.2121 67.0874 90.4882 66.3924 90.4882H38.64C37.945 90.4882 37.2785 90.2121 36.7871 89.7206C36.2956 89.2292 36.0195 88.5627 36.0195 87.8677V87.3447V87.3486Z" fill="#DCE1FF"/>
<path d="M67.0522 64.6006H37.3248C36.2425 64.6006 35.3652 65.4779 35.3652 66.5601V85.7414C35.3652 86.8237 36.2425 87.701 37.3248 87.701H67.0522C68.1344 87.701 69.0117 86.8237 69.0117 85.7414V66.5601C69.0117 65.4779 68.1344 64.6006 67.0522 64.6006Z" fill="#D7E8EF"/>
<path d="M52.2203 81.2242C51.624 81.2264 51.0331 81.1103 50.4819 80.8828C49.9307 80.6552 49.43 80.3206 49.0089 79.8984L38.0176 68.9071L38.8807 68.04L49.872 79.0313C50.5019 79.6612 51.3378 79.4201 52.2281 79.4201C53.1185 79.4201 53.9544 79.6573 54.5842 79.0313L65.5677 68.04L66.4231 68.8954L55.4318 79.8984C55.0107 80.3206 54.51 80.6552 53.9588 80.8828C53.4076 81.1103 52.8167 81.2264 52.2203 81.2242Z" fill="#BCBFC0"/>
<path opacity="0.6" d="M37.7737 75.8411C37.5675 75.8411 37.3697 75.7592 37.2238 75.6133C37.078 75.4675 36.9961 75.2697 36.9961 75.0635V71.8967C36.9961 71.6905 37.078 71.4927 37.2238 71.3469C37.3697 71.2011 37.5675 71.1191 37.7737 71.1191C37.9799 71.1191 38.1777 71.2011 38.3235 71.3469C38.4694 71.4927 38.5513 71.6905 38.5513 71.8967V75.0635C38.5513 75.2697 38.4694 75.4675 38.3235 75.6133C38.1777 75.7592 37.9799 75.8411 37.7737 75.8411Z" fill="white"/>
<path opacity="0.6" d="M37.7737 78.5798C37.5675 78.5798 37.3697 78.4979 37.2238 78.3521C37.078 78.2062 36.9961 78.0084 36.9961 77.8022V77.637C36.9961 77.4307 37.078 77.233 37.2238 77.0871C37.3697 76.9413 37.5675 76.8594 37.7737 76.8594C37.9799 76.8594 38.1777 76.9413 38.3235 77.0871C38.4694 77.233 38.5513 77.4307 38.5513 77.637V77.8022C38.5513 78.0084 38.4694 78.2062 38.3235 78.3521C38.1777 78.4979 37.9799 78.5798 37.7737 78.5798Z" fill="white"/>
<path d="M52.2185 80.0144C51.6247 80.016 51.0365 79.8998 50.4879 79.6726C49.9393 79.4453 49.4413 79.1115 49.0225 78.6905L38.0312 67.6973L38.8555 66.873L49.8468 77.8643C50.1581 78.1761 50.5278 78.4234 50.9347 78.5922C51.3417 78.7609 51.7779 78.8478 52.2185 78.8478C52.659 78.8478 53.0952 78.7609 53.5022 78.5922C53.9092 78.4234 54.2788 78.1761 54.5901 77.8643L65.5814 66.873L66.4057 67.6973L55.4144 78.6905C54.9956 79.1115 54.4976 79.4453 53.949 79.6726C53.4004 79.8998 52.8122 80.016 52.2185 80.0144Z" fill="#213346"/>
<path d="M35.7715 85.9551L46.9681 75.724L47.7549 76.5851L36.5583 86.8161L35.7715 85.9551Z" fill="#213346"/>
<path d="M57.1855 76.5791L57.9723 75.718L69.1689 85.9491L68.3821 86.8101L57.1855 76.5791Z" fill="#213346"/>
<path d="M31.3438 97.9033H80.9523V101.047H31.3438V97.9033Z" fill="#DCE1FF"/>
<path d="M31.3438 106.033H80.9523V109.177H31.3438V106.033Z" fill="#DCE1FF"/>
<path d="M31.3438 117.025H80.9523V120.169H31.3438V117.025Z" fill="#DCE1FF"/>
<path d="M30.7598 111.415H105.401V117.838H30.7598V111.415Z" fill="#EDE9E4"/>
<path d="M30.7598 102.982H96.7231V107.086H30.7598V102.982Z" fill="#EDE9E4"/>
<path d="M30.7598 94.5518H92.1645V98.6555H30.7598V94.5518Z" fill="#EDE9E4"/>
<path d="M30.7598 95.0293H92.1645V96.0246H30.7598V95.0293Z" fill="white"/>
<path d="M30.0977 103.7H96.7239V104.427H30.0977V103.7Z" fill="white"/>
<path d="M30.7598 111.415H105.759V113.429H30.7598V111.415Z" fill="white"/>
<path d="M92.9404 99.6705H29.9824V93.7744H92.9404V99.6705ZM31.5376 98.1153H91.3852V95.3296H31.5376V98.1153Z" fill="#213346"/>
<path d="M97.5009 108.101H29.9824V102.205H97.5009V108.101ZM31.5376 106.546H95.9458V103.76H31.5376V106.546Z" fill="#213346"/>
<path d="M106.179 118.985H29.9746V110.638H106.179V118.985ZM31.5298 117.43H104.624V112.193H31.5298V117.43Z" fill="#213346"/>
<path d="M31.3438 46.3135H80.9523V49.4569H31.3438V46.3135Z" fill="#DCE1FF"/>
<path d="M30.7598 42.96H92.1645V47.0637H30.7598V42.96Z" fill="#EDE9E4"/>
<path d="M30.7598 43.4404H92.1645V44.4357H30.7598V43.4404Z" fill="white"/>
<path d="M92.9404 48.0787H29.9824V42.1846H92.9404V48.0787ZM31.5376 46.5235H91.3852V43.7398H31.5376V46.5235Z" fill="#213346"/>
<path d="M58.2706 20.9653H48.8948C48.6886 20.9653 48.4908 20.8834 48.3449 20.7376C48.1991 20.5918 48.1172 20.394 48.1172 20.1878C48.1172 19.9815 48.1991 19.7837 48.3449 19.6379C48.4908 19.4921 48.6886 19.4102 48.8948 19.4102H58.2706C58.4769 19.4102 58.6746 19.4921 58.8205 19.6379C58.9663 19.7837 59.0482 19.9815 59.0482 20.1878C59.0482 20.394 58.9663 20.5918 58.8205 20.7376C58.6746 20.8834 58.4769 20.9653 58.2706 20.9653Z" fill="#213346"/>
<path d="M61.5196 20.9653H61.4749C61.2686 20.9653 61.0708 20.8834 60.925 20.7376C60.7792 20.5918 60.6973 20.394 60.6973 20.1878C60.6973 19.9815 60.7792 19.7837 60.925 19.6379C61.0708 19.4921 61.2686 19.4102 61.4749 19.4102H61.5196C61.7258 19.4102 61.9236 19.4921 62.0694 19.6379C62.2152 19.7837 62.2972 19.9815 62.2972 20.1878C62.2972 20.394 62.2152 20.5918 62.0694 20.7376C61.9236 20.8834 61.7258 20.9653 61.5196 20.9653Z" fill="#213346"/>
<path d="M66.3627 88.2824H37.7725C36.9476 88.2824 36.1564 87.9547 35.5731 87.3714C34.9898 86.7881 34.6621 85.997 34.6621 85.172V67.128C34.6621 66.303 34.9898 65.5119 35.5731 64.9286C36.1564 64.3453 36.9476 64.0176 37.7725 64.0176H66.3627C67.1876 64.0176 67.9788 64.3453 68.5621 64.9286C69.1454 65.5119 69.4731 66.303 69.4731 67.128V85.172C69.4731 85.997 69.1454 86.7881 68.5621 87.3714C67.9788 87.9547 67.1876 88.2824 66.3627 88.2824ZM37.7725 65.184C37.2569 65.184 36.7625 65.3888 36.3979 65.7533C36.0333 66.1179 35.8285 66.6124 35.8285 67.128V85.172C35.8285 85.6876 36.0333 86.1821 36.3979 86.5466C36.7625 86.9112 37.2569 87.116 37.7725 87.116H66.3627C66.8783 87.116 67.3727 86.9112 67.7373 86.5466C68.1019 86.1821 68.3067 85.6876 68.3067 85.172V67.128C68.3067 66.6124 68.1019 66.1179 67.7373 65.7533C67.3727 65.3888 66.8783 65.184 66.3627 65.184H37.7725Z" fill="#213346"/>
<path d="M37.3369 69.2059C40.212 69.2059 42.5429 66.8751 42.5429 63.9999C42.5429 61.1247 40.212 58.7939 37.3369 58.7939C34.4617 58.7939 32.1309 61.1247 32.1309 63.9999C32.1309 66.8751 34.4617 69.2059 37.3369 69.2059Z" fill="#FB8B24"/>
<path d="M37.338 69.7893C36.1929 69.7897 35.0733 69.4505 34.121 68.8145C33.1687 68.1785 32.4263 67.2744 31.9879 66.2165C31.5495 65.1585 31.4347 63.9944 31.658 62.8712C31.8813 61.748 32.4327 60.7163 33.2425 59.9066C34.0522 59.0968 35.084 58.5454 36.2071 58.3221C37.3303 58.0988 38.4945 58.2136 39.5524 58.652C40.6103 59.0904 41.5144 59.8327 42.1504 60.785C42.7864 61.7374 43.1256 62.8569 43.1253 64.0021C43.1232 65.5363 42.5128 67.0071 41.4279 68.092C40.3431 69.1769 38.8723 69.7873 37.338 69.7893ZM37.338 59.3793C36.4236 59.3789 35.5297 59.6497 34.7692 60.1574C34.0087 60.6651 33.4159 61.387 33.0657 62.2317C32.7155 63.0763 32.6237 64.0059 32.8019 64.9028C32.98 65.7996 33.4201 66.6235 34.0666 67.2702C34.713 67.9169 35.5367 68.3574 36.4335 68.5359C37.3303 68.7144 38.2599 68.623 39.1047 68.2732C39.9495 67.9233 40.6716 67.3308 41.1796 66.5706C41.6877 65.8103 41.9589 64.9165 41.9589 64.0021C41.9584 62.7764 41.4715 61.6009 40.6051 60.7338C39.7388 59.8667 38.5637 59.3789 37.338 59.3773V59.3793Z" fill="#EFB86E"/>
<path d="M36.4124 62.5961C36.4101 62.5361 36.4238 62.4765 36.4522 62.4236C36.4805 62.3706 36.5225 62.3262 36.5737 62.2948L37.328 61.7116C37.376 61.67 37.4375 61.6472 37.501 61.6475C37.5917 61.6473 37.6805 61.6744 37.7556 61.7252C37.7907 61.7443 37.8199 61.7724 37.8404 61.8065C37.8609 61.8407 37.8719 61.8798 37.8723 61.9196V66.0778C37.8721 66.1187 37.8603 66.1586 37.8383 66.193C37.8162 66.2275 37.7849 66.2549 37.7479 66.2722C37.6577 66.3187 37.5577 66.343 37.4563 66.343C37.3548 66.343 37.2548 66.3187 37.1647 66.2722C37.1282 66.2545 37.0976 66.2269 37.0762 66.1925C37.0549 66.1581 37.0438 66.1183 37.0441 66.0778V62.6642L36.8498 62.8702C36.8248 62.8916 36.7956 62.9075 36.7641 62.9168C36.7325 62.9262 36.6994 62.9289 36.6668 62.9247C36.6342 62.9205 36.6028 62.9095 36.5748 62.8924C36.5467 62.8753 36.5225 62.8525 36.5037 62.8255C36.4491 62.761 36.4171 62.6805 36.4124 62.5961Z" fill="white"/>
<path opacity="0.5" d="M33.8688 62.4231C33.8407 62.4229 33.8129 62.4169 33.7872 62.4056C33.7639 62.3949 33.743 62.3797 33.7256 62.3609C33.7082 62.3422 33.6947 62.3201 33.6858 62.2961C33.677 62.2721 33.6729 62.2465 33.674 62.221C33.675 62.1954 33.6811 62.1702 33.6919 62.147C33.9093 61.6523 34.2457 61.219 34.671 60.8856C35.0963 60.5522 35.5973 60.3291 36.1297 60.2361C36.1812 60.226 36.2347 60.2369 36.2782 60.2662C36.3218 60.2956 36.3519 60.341 36.362 60.3926C36.372 60.4441 36.3612 60.4976 36.3318 60.5411C36.3025 60.5847 36.257 60.6148 36.2055 60.6249C35.7328 60.7039 35.2875 60.9 34.9102 61.1955C34.5329 61.4909 34.2357 61.8762 34.0457 62.3162C34.0293 62.3488 34.0039 62.3762 33.9726 62.3951C33.9414 62.414 33.9054 62.4237 33.8688 62.4231Z" fill="white"/>
<path opacity="0.5" d="M33.5167 63.8016C33.4651 63.8016 33.4157 63.7811 33.3792 63.7446C33.3427 63.7082 33.3223 63.6587 33.3223 63.6072C33.3387 63.3274 33.3863 63.0502 33.4642 62.781C33.4781 62.7312 33.5112 62.689 33.5562 62.6637C33.6013 62.6384 33.6545 62.632 33.7043 62.6459C33.754 62.6598 33.7962 62.6929 33.8215 62.7379C33.8469 62.783 33.8533 62.8362 33.8394 62.886C33.7706 63.125 33.7276 63.3707 33.7111 63.6188C33.7081 63.6684 33.6863 63.7148 33.6502 63.7488C33.614 63.7828 33.5663 63.8017 33.5167 63.8016Z" fill="white"/>
<path d="M18.4163 35.1856C18.21 35.1856 18.0123 35.1037 17.8664 34.9578C17.7206 34.812 17.6387 34.6142 17.6387 34.408V29.7424C17.6387 29.5362 17.7206 29.3384 17.8664 29.1926C18.0123 29.0468 18.21 28.9648 18.4163 28.9648C18.6225 28.9648 18.8203 29.0468 18.9661 29.1926C19.1119 29.3384 19.1939 29.5362 19.1939 29.7424V34.408C19.1939 34.6142 19.1119 34.812 18.9661 34.9578C18.8203 35.1037 18.6225 35.1856 18.4163 35.1856Z" fill="#213346"/>
<path d="M18.4358 43.5938C18.2296 43.5938 18.0318 43.5119 17.886 43.3661C17.7401 43.2202 17.6582 43.0224 17.6582 42.8162V38.1506C17.6582 37.9444 17.7401 37.7466 17.886 37.6008C18.0318 37.455 18.2296 37.373 18.4358 37.373C18.642 37.373 18.8398 37.455 18.9856 37.6008C19.1315 37.7466 19.2134 37.9444 19.2134 38.1506V42.8162C19.2134 43.0224 19.1315 43.2202 18.9856 43.3661C18.8398 43.5119 18.642 43.5938 18.4358 43.5938Z" fill="#213346"/>
</svg>
