<svg width="150" height="150" viewBox="0 0 150 150" fill="none" xmlns="http://www.w3.org/2000/svg">
<g clip-path="url(#clip0_2329_6968)">
<rect width="150" height="150" rx="4" fill="white"/>
<path d="M85.0469 40.3438H53.4063C49.5198 40.3438 46.375 43.4886 46.375 47.375V103.625C46.375 107.511 49.5198 110.656 53.4063 110.656H95.5938C99.4802 110.656 102.625 107.511 102.625 103.625V57.9219L85.0469 40.3438ZM63.9531 68.4688C65.8895 68.4688 67.4688 70.048 67.4688 71.9844C67.4688 73.9207 65.8895 75.5 63.9531 75.5C62.0168 75.5 60.4375 73.9207 60.4375 71.9844C60.4375 70.048 62.0168 68.4688 63.9531 68.4688ZM56.9219 93.0781L67.4688 79.0156L74.5 86.0469L81.5313 75.5L92.0781 93.0781H56.9219Z" fill="#FF5F5F"/>
</g>
<defs>
<clipPath id="clip0_2329_6968">
<rect width="150" height="150" fill="white"/>
</clipPath>
</defs>
</svg>
