<svg width="150" height="150" viewBox="0 0 150 150" fill="none" xmlns="http://www.w3.org/2000/svg">
<g clip-path="url(#clip0_2329_6914)">
<rect width="150" height="150" rx="4" fill="white"/>
<g clip-path="url(#clip1_2329_6914)">
<path d="M100.642 113H48.3579C47.4414 113 46.6982 112.257 46.6982 111.34V39.6597C46.6982 38.7431 47.4412 38 48.3579 38H100.642C101.558 38 102.302 38.743 102.302 39.6597V111.34C102.302 112.257 101.559 113 100.642 113Z" fill="#F8F6F6"/>
<path d="M102.302 39.6598V111.34C102.302 112.257 101.559 113 100.642 113H97.0107C97.9276 113 98.6706 112.257 98.6706 111.34V39.6598C98.6706 38.743 97.9277 38 97.0107 38H100.642C101.559 38 102.302 38.743 102.302 39.6598V39.6598Z" fill="#EBEBEB"/>
<path d="M94.0899 72.3148H54.9086C54.6533 72.3148 54.4463 72.1079 54.4463 71.8525V63.5536C54.4463 63.2983 54.6533 63.0913 54.9086 63.0913H94.0899C94.3453 63.0913 94.5522 63.2983 94.5522 63.5536V71.8525C94.5522 72.1079 94.3453 72.3148 94.0899 72.3148Z" fill="#26A6FE"/>
<path d="M66.1984 107.413H54.9086C54.6533 107.413 54.4463 107.206 54.4463 106.95V77.997C54.4463 77.7416 54.6533 77.5347 54.9086 77.5347H66.1984C66.4538 77.5347 66.6607 77.7416 66.6607 77.997V106.95C66.6607 107.206 66.4538 107.413 66.1984 107.413Z" fill="#26A6FE"/>
<path d="M94.5524 63.5532V71.8521C94.5524 72.1079 94.3452 72.315 94.0894 72.315H91.0635C91.3191 72.315 91.5265 72.1078 91.5265 71.8521V63.5532C91.5265 63.2991 91.3192 63.0918 91.0635 63.0918H94.0896C94.3452 63.0917 94.5524 63.2989 94.5524 63.5532V63.5532Z" fill="#0593FC"/>
<path d="M66.6604 77.9966V106.951C66.6604 107.205 66.4531 107.413 66.1989 107.413H63.1729C63.427 107.413 63.6343 107.205 63.6343 106.951V77.9966C63.6343 77.7424 63.427 77.5352 63.1729 77.5352H66.1989C66.4531 77.535 66.6604 77.7423 66.6604 77.9966V77.9966Z" fill="#0593FC"/>
<path d="M54.0556 53.2556C54.6228 53.4715 55.2573 53.1869 55.4732 52.62L56.012 51.2056H59.7091L60.2417 52.6168C60.4079 53.0567 60.8258 53.3278 61.2699 53.3278C61.3987 53.3278 61.5299 53.305 61.6575 53.2568C62.2251 53.0426 62.5118 52.4086 62.2975 51.841L59.082 43.3205C59.0782 43.3104 59.0743 43.3002 59.07 43.2903C58.8695 42.8029 58.3997 42.4883 57.8729 42.4883C57.8727 42.4883 57.8722 42.4883 57.8718 42.4883C57.3444 42.4887 56.8747 42.8044 56.6749 43.2925C56.6715 43.3008 56.6681 43.3092 56.6649 43.3177L53.42 51.8378C53.2039 52.4048 53.4884 53.0396 54.0556 53.2556V53.2556ZM57.869 46.3297L58.8799 49.0083H56.8489L57.869 46.3297Z" fill="#BABABA"/>
<path d="M66.6609 53.0203C67.1367 53.0203 67.5899 52.922 68.0017 52.7452C68.1866 53.0917 68.5513 53.3276 68.9713 53.3276C69.578 53.3276 70.0699 52.8357 70.0699 52.229V46.9937C70.0699 46.3869 69.578 45.895 68.9713 45.895C68.5512 45.895 68.1866 46.131 68.0017 46.4774C67.5899 46.3006 67.1367 46.2023 66.6609 46.2023C64.7811 46.2023 63.252 47.7316 63.252 49.6113C63.252 51.491 64.7813 53.0203 66.6609 53.0203V53.0203ZM66.6609 48.3995C67.3292 48.3995 67.8727 48.9431 67.8727 49.6112C67.8727 50.2793 67.3291 50.8229 66.6609 50.8229C65.9928 50.8229 65.4492 50.2793 65.4492 49.6112C65.4492 48.9431 65.9928 48.3995 66.6609 48.3995Z" fill="#BABABA"/>
<path d="M73.9678 53.3276H94.5526C95.1594 53.3276 95.6513 52.8357 95.6513 52.229C95.6513 51.6223 95.1594 51.1304 94.5526 51.1304H73.9678C73.361 51.1304 72.8691 51.6223 72.8691 52.229C72.8691 52.8357 73.361 53.3276 73.9678 53.3276V53.3276Z" fill="#BABABA"/>
<path d="M94.5522 56.4648H54.4463C53.8396 56.4648 53.3477 56.9567 53.3477 57.5635C53.3477 58.1702 53.8396 58.6621 54.4463 58.6621H94.5522C95.159 58.6621 95.6509 58.1702 95.6509 57.5635C95.6509 56.9567 95.159 56.4648 94.5522 56.4648V56.4648Z" fill="#BABABA"/>
<path d="M94.552 76.436H80.6748C80.0681 76.436 79.5762 76.9279 79.5762 77.5347C79.5762 78.1414 80.0681 78.6333 80.6748 78.6333H94.552C95.1587 78.6333 95.6506 78.1414 95.6506 77.5347C95.6506 76.9279 95.1587 76.436 94.552 76.436Z" fill="#BABABA"/>
<path d="M94.5524 81.4155H72.3789C71.7722 81.4155 71.2803 81.9074 71.2803 82.5142C71.2803 83.1209 71.7722 83.6128 72.3789 83.6128H94.5524C95.1591 83.6128 95.651 83.1209 95.651 82.5142C95.651 81.9074 95.1591 81.4155 94.5524 81.4155Z" fill="#BABABA"/>
<path d="M94.5524 86.395H72.3789C71.7722 86.395 71.2803 86.8869 71.2803 87.4937C71.2803 88.1004 71.7722 88.5923 72.3789 88.5923H94.5524C95.1591 88.5923 95.651 88.1004 95.651 87.4937C95.651 86.8869 95.1591 86.395 94.5524 86.395Z" fill="#BABABA"/>
<path d="M94.5524 91.375H72.3789C71.7722 91.375 71.2803 91.8669 71.2803 92.4736C71.2803 93.0804 71.7722 93.5723 72.3789 93.5723H94.5524C95.1591 93.5723 95.651 93.0804 95.651 92.4736C95.651 91.8669 95.1591 91.375 94.5524 91.375Z" fill="#BABABA"/>
<path d="M94.5524 96.3545H72.3789C71.7722 96.3545 71.2803 96.8464 71.2803 97.4531C71.2803 98.0599 71.7722 98.5518 72.3789 98.5518H94.5524C95.1591 98.5518 95.651 98.0599 95.651 97.4531C95.651 96.8464 95.1591 96.3545 94.5524 96.3545Z" fill="#BABABA"/>
<path d="M94.5524 101.334H72.3789C71.7722 101.334 71.2803 101.826 71.2803 102.433C71.2803 103.04 71.7722 103.532 72.3789 103.532H94.5524C95.1591 103.532 95.651 103.04 95.651 102.433C95.651 101.826 95.1591 101.334 94.5524 101.334Z" fill="#BABABA"/>
<path d="M88.4421 106.314H72.3789C71.7722 106.314 71.2803 106.806 71.2803 107.413C71.2803 108.019 71.7722 108.511 72.3789 108.511H88.4419C89.0487 108.511 89.5406 108.019 89.5406 107.413C89.5406 106.806 89.0488 106.314 88.4421 106.314V106.314Z" fill="#BABABA"/>
</g>
</g>
<defs>
<clipPath id="clip0_2329_6914">
<rect width="150" height="150" fill="white"/>
</clipPath>
<clipPath id="clip1_2329_6914">
<rect width="75" height="75" fill="white" transform="translate(37 38)"/>
</clipPath>
</defs>
</svg>
