<svg width="150" height="150" viewBox="0 0 150 150" fill="none" xmlns="http://www.w3.org/2000/svg">
<g clip-path="url(#clip0_2329_6884)">
<rect width="150" height="150" rx="4" fill="white"/>
<path fill-rule="evenodd" clip-rule="evenodd" d="M56.2057 38H81.2902L102.547 60.1565V103.247C102.547 108.619 98.1669 113 92.7949 113H56.2057C50.8107 113 46.4531 108.619 46.4531 103.247V47.7526C46.4531 42.3575 50.8107 38 56.2057 38V38Z" fill="#B161C1"/>
<path opacity="0.302" fill-rule="evenodd" clip-rule="evenodd" d="M81.2676 38V59.9721H102.548L81.2676 38Z" fill="white"/>
<path d="M81.1984 87.2931C81.9131 86.0941 82.3973 84.5725 82.4895 83.0739C82.5356 82.1055 82.3281 81.0911 81.867 80.1458C81.1292 78.6473 79.8842 77.8172 78.6622 76.9872C77.763 76.3877 76.91 75.8114 76.3105 75.0044L76.1952 74.866C75.8494 74.3819 75.4343 73.8286 75.3652 73.3675C75.319 72.9064 74.881 72.5836 74.4429 72.6066C73.9588 72.6528 73.6129 73.0216 73.6129 73.5058V89.322C72.8751 88.8609 71.9529 88.5842 70.9384 88.5842C68.4945 88.5842 66.5117 90.1751 66.5117 92.1348C66.5117 94.0945 68.4945 95.6853 70.9384 95.6853C73.3824 95.6853 75.3882 94.0945 75.3882 92.1348V81.7827C76.7254 82.313 78.8927 83.6042 79.4921 86.6244C79.3768 86.7858 79.2845 86.9702 79.1463 87.1086C78.8235 87.4775 78.8696 88.0308 79.2385 88.3766C79.6074 88.6994 80.1607 88.6533 80.4835 88.2844C80.714 88.0077 80.9446 87.7079 81.129 87.3622C81.1522 87.3391 81.1752 87.3161 81.1984 87.2931Z" fill="white"/>
</g>
<defs>
<clipPath id="clip0_2329_6884">
<rect width="150" height="150" fill="white"/>
</clipPath>
</defs>
</svg>
