<svg width="150" height="150" viewBox="0 0 150 150" fill="none" xmlns="http://www.w3.org/2000/svg">
<g clip-path="url(#clip0_2329_6850)">
<rect width="150" height="150" rx="4" fill="white"/>
<path d="M102.303 55.7393L84.8711 38.293H49.4951C47.9424 38.293 46.6826 39.5527 46.6826 41.1055V91.0127H102.303V55.7393Z" fill="#EFF3F5"/>
<path d="M84.8711 52.9268C84.8711 54.4795 86.1309 55.7393 87.6836 55.7393H102.317L84.8711 38.293V52.9268Z" fill="#DBDFE0"/>
<path d="M46.6973 90.998V109.895C46.6973 111.447 47.957 112.707 49.5098 112.707H99.5049C101.058 112.707 102.317 111.447 102.317 109.895V90.998H46.6973Z" fill="#F20F00" fill-opacity="0.7"/>
<path d="M60.2325 87.8047C59.3389 87.8047 58.4747 87.4678 57.6836 86.8086C56.3506 85.6953 56.2481 84.4648 56.3799 83.6299C57.0245 79.8652 64.0264 76.4229 68.0987 74.7236C70.3106 69.1865 72.2295 62.668 73.4161 57.7754C71.043 52.6924 70.2081 49.1035 70.9405 47.0674C71.3067 46.0566 72.0538 45.3975 73.1084 45.1631L73.2549 45.1338L73.4014 45.1484C73.5186 45.1631 74.5586 45.3242 75.4082 46.4668C76.5069 47.9609 76.7559 50.3779 76.1407 53.6592C75.9649 54.5967 75.6719 55.9443 75.2911 57.5557C77.459 62.0674 80.5059 67.0479 82.9961 70.5049C85.0762 70.2119 87.0538 70.1094 88.7237 70.2852C91.8438 70.6074 92.503 71.9697 92.6202 72.7607C92.7959 73.918 91.9463 75.1191 90.4961 75.7344C88.4893 76.584 85.2081 76.3643 82.542 72.9072C82.4248 72.7607 82.3077 72.5996 82.1905 72.4385C78.7627 73.0098 74.7784 74.0938 70.7354 75.6025C70.3106 75.7637 69.9004 75.9248 69.4903 76.0859C66.751 82.7949 64.0704 86.6475 61.5069 87.5703C61.0967 87.7314 60.6573 87.8047 60.2325 87.8047ZM67.1172 77.0967C61.3018 79.7188 58.4161 82.3115 58.1524 83.9375C58.0938 84.2891 58.0938 84.8311 58.8409 85.4463C59.5293 86.0176 60.1885 86.1641 60.9209 85.9004C62.9571 85.168 65.125 81.6523 67.1172 77.0967ZM84.2559 72.1602C86.2334 74.4893 88.46 74.6797 89.8077 74.0938C90.5108 73.8008 90.9063 73.3027 90.8624 73.0244C90.8184 72.7314 90.1592 72.2334 88.5479 72.0723C87.3467 71.9551 85.8965 71.9844 84.2559 72.1602ZM74.6465 60.2363C73.753 63.6787 72.5372 67.8242 71.1163 71.8379C70.8672 72.5264 70.6329 73.1855 70.3838 73.8301C73.5625 72.6582 77.4004 71.5156 81.0479 70.8272C79.085 68.0293 76.668 64.1475 74.6465 60.2363ZM73.3282 46.9795C72.9913 47.0967 72.7715 47.3164 72.6397 47.6973C72.127 49.1035 72.8008 51.7549 74.1045 54.8896C74.2217 54.333 74.3243 53.8203 74.4122 53.3516C75.086 49.7041 74.4415 48.1367 73.9873 47.5361C73.7383 47.1992 73.4747 47.0381 73.3282 46.9795Z" fill="#F20F00" fill-opacity="0.7"/>
<path d="M87.7422 100.725H84.3877V97.3115H87.7422C88.3721 97.3115 88.8848 96.7988 88.8848 96.1689C88.8848 95.5391 88.3721 95.0264 87.7422 95.0264H83.2598C82.6299 95.0264 82.1172 95.5391 82.1172 96.1689V107.536C82.1172 108.166 82.6299 108.679 83.2598 108.679C83.8896 108.679 84.4023 108.166 84.4023 107.536V102.995H87.7568C88.3867 102.995 88.8994 102.482 88.8994 101.853C88.8848 101.223 88.3721 100.725 87.7422 100.725Z" fill="#EFF3F5"/>
<path d="M63.5723 95.041H61.2578C60.6279 95.041 60.1152 95.5537 60.1152 96.1836V107.551C60.1152 108.181 60.6279 108.693 61.2578 108.693C61.8877 108.693 62.4004 108.181 62.4004 107.551V103.01H63.5723C65.7695 103.01 67.5566 101.223 67.5566 99.0254C67.5566 96.8281 65.7695 95.041 63.5723 95.041ZM63.5723 100.725H62.4004V97.3115H63.5723C64.5098 97.3115 65.2715 98.0732 65.2715 99.0107C65.2715 99.9482 64.5098 100.725 63.5723 100.725Z" fill="#EFF3F5"/>
<path d="M73.3867 95.041H70.3984C69.7686 95.041 69.2559 95.5537 69.2559 96.1836V107.551C69.2559 108.181 69.7686 108.693 70.3984 108.693H73.3867C77.1514 108.693 80.2129 105.632 80.2129 101.867C80.2129 98.0879 77.1514 95.041 73.3867 95.041ZM73.3867 106.394H71.541V97.2969H73.3867C75.8916 97.2969 77.9277 99.333 77.9277 101.838C77.9424 104.357 75.8916 106.394 73.3867 106.394Z" fill="#EFF3F5"/>
</g>
<defs>
<clipPath id="clip0_2329_6850">
<rect width="150" height="150" fill="white"/>
</clipPath>
</defs>
</svg>
