<svg width="150" height="150" viewBox="0 0 150 150" fill="none" xmlns="http://www.w3.org/2000/svg">
<g clip-path="url(#clip0_2329_6839)">
<rect width="150" height="150" rx="4" fill="white"/>
<path fill-rule="evenodd" clip-rule="evenodd" d="M56.2189 38H81.2939L102.546 60.1514V103.236C102.546 108.633 98.1792 113 92.8006 113H56.2189C50.8216 113 46.4551 108.633 46.4551 103.236V47.7638C46.455 42.3666 50.8215 38 56.2189 38V38Z" fill="#CD4F2E"/>
<path opacity="0.302" fill-rule="evenodd" clip-rule="evenodd" d="M81.2754 38V59.9828H102.546L81.2754 38Z" fill="white"/>
<path d="M58.2432 91.6542V78.0298H64.034C65.4583 78.0298 66.6015 78.4233 67.4635 79.2292C68.3068 80.0163 68.7379 81.0658 68.7379 82.3963C68.7379 83.7082 68.3068 84.7764 67.4635 85.5635C66.6015 86.3506 65.4583 86.7441 64.034 86.7441H61.7101V91.6542H58.2432ZM61.7102 83.7832H63.6405C64.1652 83.7832 64.5588 83.6707 64.8587 83.4271C65.1398 83.1834 65.271 82.8274 65.271 82.3963C65.271 81.9466 65.1399 81.6092 64.8587 81.3656C64.5589 81.122 64.1653 80.9908 63.6405 80.9908H61.7102V83.7832ZM70.1997 91.6542V78.0298H75.9905C77.4148 78.0298 78.558 78.4233 79.4201 79.2292C80.2821 80.0163 80.6944 81.0658 80.6944 82.3963C80.6944 83.7082 80.2821 84.7764 79.4201 85.5635C78.558 86.3506 77.4148 86.7441 75.9905 86.7441H73.6854V91.6542H70.1997ZM73.6854 83.7832H75.597C76.1217 83.7832 76.534 83.6707 76.8152 83.4271C77.0962 83.1834 77.2462 82.8274 77.2462 82.3963C77.2462 81.9466 77.0963 81.6092 76.8152 81.3656C76.534 81.122 76.1218 80.9908 75.597 80.9908H73.6854V83.7832ZM85.6982 91.6542V80.9908H81.8189V78.0298H93.082V80.9908H89.184V91.6542H85.6982Z" fill="white"/>
</g>
<defs>
<clipPath id="clip0_2329_6839">
<rect width="150" height="150" fill="white"/>
</clipPath>
</defs>
</svg>
