<svg width="150" height="150" viewBox="0 0 150 150" fill="none" xmlns="http://www.w3.org/2000/svg">
<g clip-path="url(#clip0_2329_6865)">
<rect width="150" height="150" rx="4" fill="white"/>
<path fill-rule="evenodd" clip-rule="evenodd" d="M56.2189 38H81.2939L102.546 60.1514V103.236C102.546 108.633 98.1792 113 92.8006 113H56.2189C50.8216 113 46.4551 108.633 46.4551 103.236V47.7638C46.455 42.3666 50.8215 38 56.2189 38V38Z" fill="#3F7CEF"/>
<path opacity="0.302" fill-rule="evenodd" clip-rule="evenodd" d="M81.2754 38V59.9828H102.546L81.2754 38Z" fill="white"/>
<path d="M74.51 72.0332C67.8196 72.0332 62.3848 77.468 62.3848 84.1584C62.3848 90.8488 67.8196 96.2648 74.51 96.2648C81.2004 96.2648 86.6164 90.8487 86.6164 84.1583C86.6164 77.4679 81.1816 72.0519 74.51 72.0332ZM79.6074 84.5332C79.5137 84.7019 79.3826 84.833 79.2139 84.9268L72.2986 88.3937C71.8675 88.5998 71.3428 88.4312 71.1367 88.0002C71.0618 87.8877 71.043 87.7565 71.043 87.6066V80.6913C71.043 80.2041 71.4366 79.8293 71.9051 79.8293C72.0362 79.8293 72.1675 79.8481 72.2986 79.923L79.2139 83.3713C79.645 83.5961 79.8135 84.1021 79.6074 84.5332Z" fill="white"/>
</g>
<defs>
<clipPath id="clip0_2329_6865">
<rect width="150" height="150" fill="white"/>
</clipPath>
</defs>
</svg>
