<svg width="37" height="32" viewBox="0 0 37 32" fill="none" xmlns="http://www.w3.org/2000/svg">
<path d="M34.4615 19.0769V3.07692C34.4615 2.91026 34.4006 2.76603 34.2788 2.64423C34.1571 2.52244 34.0128 2.46154 33.8462 2.46154H3.07692C2.91026 2.46154 2.76603 2.52244 2.64423 2.64423C2.52244 2.76603 2.46154 2.91026 2.46154 3.07692V19.0769C2.46154 19.2436 2.52244 19.3878 2.64423 19.5096C2.76603 19.6314 2.91026 19.6923 3.07692 19.6923H33.8462C34.0128 19.6923 34.1571 19.6314 34.2788 19.5096C34.4006 19.3878 34.4615 19.2436 34.4615 19.0769ZM36.9231 3.07692V24C36.9231 24.8462 36.6218 25.5705 36.0192 26.1731C35.4167 26.7756 34.6923 27.0769 33.8462 27.0769H23.3846C23.3846 27.5513 23.4872 28.0481 23.6923 28.5673C23.8974 29.0865 24.1026 29.5417 24.3077 29.9327C24.5128 30.3237 24.6154 30.6026 24.6154 30.7692C24.6154 31.1026 24.4936 31.391 24.25 31.6346C24.0064 31.8782 23.7179 32 23.3846 32H13.5385C13.2051 32 12.9167 31.8782 12.6731 31.6346C12.4295 31.391 12.3077 31.1026 12.3077 30.7692C12.3077 30.5897 12.4103 30.3077 12.6154 29.9231C12.8205 29.5385 13.0256 29.0897 13.2308 28.5769C13.4359 28.0641 13.5385 27.5641 13.5385 27.0769H3.07692C2.23077 27.0769 1.50641 26.7756 0.903846 26.1731C0.301282 25.5705 0 24.8462 0 24V3.07692C0 2.23077 0.301282 1.50641 0.903846 0.903846C1.50641 0.301282 2.23077 0 3.07692 0H33.8462C34.6923 0 35.4167 0.301282 36.0192 0.903846C36.6218 1.50641 36.9231 2.23077 36.9231 3.07692Z" fill="#175067"/>
</svg>
