<svg width="16" height="26" viewBox="0 0 16 26" fill="none" xmlns="http://www.w3.org/2000/svg">
<path d="M14.2222 0.555664H1.77778C1.30628 0.555664 0.854097 0.742965 0.520699 1.07636C0.187301 1.40976 0 1.86195 0 2.33344V23.6668C0 24.1383 0.187301 24.5905 0.520699 24.9239C0.854097 25.2573 1.30628 25.4446 1.77778 25.4446H14.2222C14.6937 25.4446 15.1459 25.2573 15.4793 24.9239C15.8127 24.5905 16 24.1383 16 23.6668V2.33344C16 1.86195 15.8127 1.40976 15.4793 1.07636C15.1459 0.742965 14.6937 0.555664 14.2222 0.555664ZM8.88889 23.6668H7.11111V21.889H8.88889V23.6668ZM1.77778 20.1112V2.33344H14.2222V20.1112H1.77778Z" fill="#175067"/>
</svg>
