<svg width="25" height="16" viewBox="0 0 25 16" fill="none" xmlns="http://www.w3.org/2000/svg">
<path d="M14.3682 7.99986C14.3682 11.1724 11.7963 13.7439 8.62388 13.7439C5.45143 13.7439 2.87988 11.1723 2.87988 7.99986C2.87988 4.8276 5.45147 2.25586 8.62388 2.25586C11.7963 2.25586 14.3682 4.82773 14.3682 7.99986Z" fill="#D9222A"/>
<path d="M16.3356 2.25586C14.8515 2.25586 13.499 2.81893 12.4796 3.7428C12.2719 3.93125 12.0781 4.13439 11.8996 4.35068H13.0602C13.219 4.54386 13.3653 4.74706 13.4981 4.95906H11.4618C11.3393 5.15496 11.2288 5.35807 11.1308 5.56732H13.8288C13.9214 5.76524 14.0026 5.96828 14.0721 6.17544H10.8876C10.8208 6.37493 10.765 6.578 10.7207 6.7837H14.2388C14.3248 7.18338 14.3682 7.59109 14.3681 7.99995C14.3681 8.63787 14.264 9.25154 14.072 9.82463H10.8876C10.9568 10.0319 11.038 10.235 11.1307 10.4329H13.8288C13.7308 10.6422 13.6202 10.8453 13.4977 11.0413H11.4617C11.5944 11.2531 11.7407 11.4562 11.8996 11.6492H13.0599C12.8816 11.8659 12.6877 12.0692 12.4797 12.2576C13.4991 13.1813 14.8515 13.7441 16.3357 13.7441C19.5082 13.7441 22.08 11.1726 22.08 8.00011C22.08 4.82799 19.5082 2.25612 16.3357 2.25612" fill="#EE9F2D"/>
<path d="M21.3139 11.2017C21.3139 11.0993 21.3969 11.0161 21.4994 11.0161C21.6019 11.0161 21.6849 11.0993 21.6849 11.2017C21.6849 11.3041 21.6019 11.3873 21.4994 11.3873C21.3969 11.3873 21.3139 11.3041 21.3139 11.2017ZM21.4994 11.3428C21.5773 11.3427 21.6404 11.2796 21.6405 11.2017C21.6405 11.1239 21.5774 11.0609 21.4996 11.0608H21.4994C21.4217 11.0607 21.3586 11.1236 21.3585 11.2013V11.2017C21.3584 11.2796 21.4215 11.3427 21.4993 11.3428C21.4993 11.3428 21.4994 11.3428 21.4994 11.3428ZM21.4743 11.2833H21.4364V11.1202H21.5051C21.5195 11.1202 21.5342 11.1202 21.5469 11.1283C21.5601 11.1372 21.5676 11.153 21.5676 11.1692C21.5676 11.1875 21.5567 11.2046 21.5393 11.2112L21.5693 11.2832H21.5272L21.5023 11.2187H21.4744L21.4743 11.2833ZM21.4743 11.1908H21.4954C21.5033 11.1908 21.5116 11.1914 21.5186 11.1876C21.5249 11.1836 21.5281 11.1761 21.5281 11.1689C21.528 11.1622 21.5245 11.156 21.5189 11.1523C21.5123 11.1482 21.5017 11.1491 21.4946 11.1491H21.4743V11.1908ZM7.28235 8.62876C7.21688 8.62114 7.18811 8.61912 7.14315 8.61912C6.78968 8.61912 6.61073 8.74031 6.61073 8.9797C6.61073 9.12725 6.69806 9.22114 6.83432 9.22114C7.08837 9.22114 7.27141 8.97925 7.28235 8.62876ZM7.73582 9.68463H7.21915L7.23102 9.439C7.07339 9.63308 6.86315 9.72536 6.57739 9.72536C6.23937 9.72536 6.00766 9.46136 6.00766 9.07804C6.00766 8.50127 6.41073 8.16472 7.10261 8.16472C7.17326 8.16472 7.26395 8.17109 7.35672 8.18296C7.37605 8.10485 7.38113 8.07135 7.38113 8.02933C7.38113 7.87228 7.27246 7.81375 6.98113 7.81375C6.67608 7.81029 6.42446 7.88642 6.32113 7.9204C6.32766 7.88108 6.40753 7.38732 6.40753 7.38732C6.71832 7.29624 6.92325 7.26197 7.15393 7.26197C7.68936 7.26197 7.97301 7.50239 7.97246 7.95676C7.97352 8.07852 7.95336 8.22875 7.92193 8.42623C7.86782 8.76971 7.75169 9.5053 7.73582 9.68463ZM5.74677 9.68463H5.12318L5.48037 7.44472L4.68277 9.68463H4.25784L4.20529 7.45752L3.82984 9.68463H3.24609L3.73368 6.77084H4.63035L4.68475 8.40181L5.23169 6.77084H6.22904L5.74677 9.68463ZM17.1058 8.62876C17.0406 8.62114 17.0117 8.61912 16.9669 8.61912C16.6136 8.61912 16.4346 8.74031 16.4346 8.9797C16.4346 9.12725 16.5218 9.22114 16.658 9.22114C16.9121 9.22114 17.0953 8.97925 17.1058 8.62876ZM17.5597 9.68463H17.043L17.0547 9.439C16.8971 9.63308 16.6867 9.72536 16.4012 9.72536C16.0631 9.72536 15.8316 9.46136 15.8316 9.07804C15.8316 8.50127 16.2344 8.16472 16.9264 8.16472C16.9971 8.16472 17.0876 8.17109 17.1803 8.18296C17.1997 8.10485 17.2048 8.07135 17.2048 8.02933C17.2048 7.87228 17.0962 7.81375 16.8049 7.81375C16.4998 7.81029 16.2485 7.88642 16.1448 7.9204C16.1513 7.88108 16.2314 7.38732 16.2314 7.38732C16.5422 7.29624 16.747 7.26197 16.9775 7.26197C17.5131 7.26197 17.7968 7.50239 17.7962 7.95676C17.7973 8.07852 17.7771 8.22875 17.7457 8.42623C17.6918 8.76971 17.5754 9.5053 17.5597 9.68463ZM10.5072 9.64863C10.3366 9.70236 10.2035 9.72536 10.0592 9.72536C9.74043 9.72536 9.56645 9.54216 9.56645 9.20482C9.5619 9.10015 9.6123 8.82466 9.65192 8.57324C9.68792 8.35189 9.92229 6.95631 9.92229 6.95631H10.5422L10.4697 7.31496H10.8441L10.7596 7.88444H10.3838C10.3118 8.33509 10.2093 8.89644 10.2081 8.97084C10.2081 9.09295 10.2733 9.14629 10.4216 9.14629C10.4927 9.14629 10.5477 9.13903 10.5897 9.12389L10.5072 9.64863ZM12.4078 9.62943C12.1948 9.69451 11.9894 9.72597 11.7716 9.72543C11.0777 9.72476 10.716 9.36236 10.716 8.6684C10.716 7.85839 11.1762 7.2621 11.8008 7.2621C12.3119 7.2621 12.6383 7.59596 12.6383 8.11957C12.6383 8.2933 12.6159 8.4629 12.5619 8.70235H11.3275C11.2857 9.04607 11.5057 9.1893 11.8663 9.1893C12.0882 9.1893 12.2883 9.14357 12.5108 9.04008L12.4078 9.62943ZM12.0593 8.22463C12.0628 8.17525 12.1251 7.80168 11.7709 7.80168C11.5735 7.80168 11.4323 7.95221 11.3748 8.22463H12.0593ZM8.1099 8.06408C8.1099 8.36383 8.25525 8.57052 8.58485 8.72572C8.83739 8.8444 8.87643 8.87964 8.87643 8.98716C8.87643 9.1349 8.7651 9.20159 8.51832 9.20159C8.3323 9.20159 8.15925 9.17253 7.95966 9.10808C7.95966 9.10808 7.87765 9.63035 7.8739 9.65535C8.01566 9.68629 8.14206 9.7149 8.52283 9.72543C9.18085 9.72543 9.48472 9.4749 9.48472 8.93343C9.48472 8.60783 9.35749 8.41676 9.04513 8.27314C8.78366 8.15314 8.75368 8.12636 8.75368 8.0157C8.75368 7.88757 8.85726 7.82223 9.05886 7.82223C9.18126 7.82223 9.34846 7.83528 9.50686 7.85781L9.59566 7.30821C9.43419 7.28261 9.18939 7.26207 9.04686 7.26207C8.34923 7.2621 8.10776 7.62648 8.1099 8.06408ZM15.4408 7.32437C15.614 7.32437 15.7754 7.36984 15.998 7.48184L16.1 6.84943C16.0087 6.81356 15.6871 6.60303 15.4146 6.60303C14.9973 6.60303 14.6446 6.8101 14.3964 7.15183C14.0345 7.03196 13.8857 7.27423 13.7034 7.51557L13.5414 7.5533C13.5536 7.47384 13.5647 7.3949 13.5609 7.31503H12.9883C12.91 8.04837 12.7714 8.79112 12.6628 9.52543L12.6345 9.68466H13.2584C13.3625 9.00808 13.4196 8.5749 13.4543 8.28172L13.6892 8.15103C13.7243 8.02053 13.8341 7.97637 14.0545 7.98172C14.0249 8.14197 14.0101 8.30463 14.0103 8.4676C14.0103 9.2428 14.4285 9.72546 15.0999 9.72546C15.2728 9.72546 15.4212 9.70268 15.6509 9.6404L15.7607 8.97612C15.554 9.07791 15.3844 9.12578 15.2308 9.12578C14.8683 9.12578 14.6489 8.85816 14.6489 8.41586C14.6489 7.77423 14.9752 7.32437 15.4408 7.32437Z" fill="black"/>
<path d="M5.92642 9.51149H5.30271L5.66018 7.27187L4.86255 9.51149H4.43749L4.38495 7.28467L4.00949 9.51149H3.42578L3.91337 6.59814H4.81004L4.83525 8.40173L5.44018 6.59814H6.40872L5.92642 9.51149Z" fill="white"/>
<path d="M20.721 6.771L20.5827 7.61288C20.4122 7.38847 20.229 7.22607 19.9871 7.22607C19.6725 7.22607 19.3861 7.46463 19.1986 7.81567C18.9375 7.76152 18.6675 7.66965 18.6675 7.66965L18.6674 7.6718C18.6884 7.47551 18.6968 7.3558 18.695 7.31512H18.1222C18.0441 8.04847 17.9055 8.79122 17.7971 9.52552L17.7686 9.68476H18.3923C18.4766 9.13768 18.541 8.68344 18.5886 8.32312C18.8016 8.13061 18.9083 7.96261 19.1236 7.97381C19.0283 8.20437 18.9724 8.46991 18.9724 8.74236C18.9724 9.33477 19.2721 9.72556 19.7255 9.72556C19.954 9.72556 20.1294 9.64677 20.3004 9.46408L20.2712 9.68437H20.8611L21.3361 6.77103L20.721 6.771ZM19.9411 9.13711C19.7288 9.13711 19.6217 8.98005 19.6217 8.67004C19.6217 8.20428 19.8223 7.87404 20.1053 7.87404C20.3195 7.87404 20.4355 8.03736 20.4355 8.33832C20.4355 8.80805 20.2317 9.13711 19.9411 9.13711Z" fill="black"/>
<path d="M7.46196 8.45621C7.39662 8.44865 7.36769 8.44664 7.32289 8.44664C6.96942 8.44664 6.7906 8.56782 6.7906 8.80715C6.7906 8.95448 6.87793 9.04865 7.01393 9.04865C7.26824 9.04862 7.45131 8.80677 7.46196 8.45621ZM7.91566 9.51169H7.39899L7.41073 9.26648C7.25326 9.46021 7.04273 9.55288 6.75726 9.55288C6.41912 9.55288 6.1875 9.28888 6.1875 8.90555C6.1875 8.32853 6.59044 7.99221 7.28244 7.99221C7.3531 7.99221 7.44379 7.99861 7.53646 8.01048C7.55579 7.93237 7.56088 7.89889 7.56088 7.85662C7.56088 7.69953 7.45233 7.64129 7.161 7.64129C6.85582 7.63784 6.60433 7.71397 6.50088 7.74757C6.5074 7.70837 6.58728 7.21518 6.58728 7.21518C6.89793 7.12373 7.10312 7.08945 7.33352 7.08945C7.8691 7.08945 8.15284 7.33 8.15233 7.78398C8.15326 7.90625 8.133 8.0564 8.10164 8.25358C8.04766 8.59675 7.93144 9.33275 7.91566 9.51169ZM16.2798 6.67675L16.1777 7.30929C15.9553 7.19742 15.7937 7.15185 15.6207 7.15185C15.1551 7.15185 14.8287 7.60171 14.8287 8.24325C14.8287 8.68552 15.0481 8.95304 15.4106 8.95304C15.5642 8.95304 15.7336 8.90529 15.9403 8.80344L15.8308 9.46744C15.6009 9.53006 15.4527 9.55288 15.2796 9.55288C14.6084 9.55288 14.19 9.07019 14.19 8.29499C14.19 7.25339 14.7679 6.52539 15.5944 6.52539C15.8666 6.52542 16.1884 6.64088 16.2798 6.67675ZM17.286 8.45621C17.2207 8.44865 17.1919 8.44664 17.1469 8.44664C16.7936 8.44664 16.6146 8.56782 16.6146 8.80715C16.6146 8.95448 16.702 9.04865 16.8381 9.04865C17.0921 9.04862 17.2753 8.80677 17.286 8.45621ZM17.7397 9.51169H17.2229L17.2348 9.26648C17.0772 9.46021 16.8668 9.55288 16.5813 9.55288C16.2433 9.55288 16.0116 9.28888 16.0116 8.90555C16.0116 8.32853 16.4146 7.99221 17.1063 7.99221C17.1772 7.99221 17.2677 7.99861 17.3605 8.01048C17.3797 7.93237 17.3849 7.89889 17.3849 7.85662C17.3849 7.69953 17.2763 7.64129 16.985 7.64129C16.68 7.63784 16.4284 7.71397 16.3249 7.74757C16.3314 7.70837 16.4114 7.21518 16.4114 7.21518C16.7221 7.12373 16.9271 7.08945 17.1575 7.08945C17.6932 7.08945 17.9768 7.33 17.9762 7.78398C17.9772 7.90625 17.9571 8.0564 17.9256 8.25358C17.8718 8.59675 17.7553 9.33275 17.7397 9.51169ZM10.6872 9.47582C10.5164 9.52955 10.3833 9.55288 10.2392 9.55288C9.92043 9.55288 9.74644 9.36965 9.74644 9.0323C9.74203 8.92737 9.79246 8.65214 9.83204 8.40075C9.86788 8.17912 10.1023 6.78366 10.1023 6.78366H10.7221L10.6497 7.14245H10.9679L10.8832 7.71166H10.564C10.492 8.16261 10.3892 8.7235 10.3881 8.79806C10.3881 8.92062 10.4534 8.97349 10.6016 8.97349C10.6727 8.97349 10.7276 8.96657 10.7697 8.95137L10.6872 9.47582ZM12.5877 9.45688C12.3749 9.52193 12.1692 9.55326 11.9516 9.55288C11.2577 9.55221 10.896 9.18981 10.896 8.49582C10.896 7.68555 11.3561 7.08942 11.9808 7.08942C12.4919 7.08942 12.8183 7.42315 12.8183 7.94702C12.8183 8.12091 12.7959 8.29048 12.742 8.52981H11.5076C11.4658 8.87352 11.6858 9.01691 12.0464 9.01691C12.2681 9.01691 12.4684 8.97099 12.6908 8.86725L12.5877 9.45688ZM12.2392 8.05169C12.2429 8.00248 12.3051 7.62875 11.9508 7.62875C11.7535 7.62875 11.6123 7.77969 11.5548 8.05169H12.2392ZM8.28977 7.89153C8.28977 8.19128 8.43512 8.39771 8.76472 8.55313C9.01726 8.67182 9.0563 8.70712 9.0563 8.81464C9.0563 8.96235 8.94484 9.02901 8.69828 9.02901C8.51217 9.02901 8.33908 8.99995 8.13934 8.93553C8.13934 8.93553 8.05761 9.45781 8.05387 9.48277C8.19534 9.51371 8.32187 9.54197 8.70267 9.55288C9.36078 9.55288 9.66456 9.30235 9.66456 8.76101C9.66456 8.43525 9.53748 8.24421 9.22497 8.10062C8.96363 7.98033 8.93336 7.95393 8.93336 7.84315C8.93336 7.71515 9.03723 7.64926 9.2387 7.64926C9.36097 7.64926 9.52817 7.66273 9.68683 7.68526L9.7755 7.13553C9.61416 7.10993 9.36936 7.08942 9.22683 7.08942C8.5291 7.08942 8.28776 7.45355 8.28977 7.89153ZM21.0402 9.51169H20.4502L20.4795 9.29112C20.3084 9.47406 20.1331 9.55288 19.9045 9.55288C19.4512 9.55288 19.1516 9.16206 19.1516 8.56965C19.1516 7.78149 19.6163 7.1171 20.1663 7.1171C20.4082 7.1171 20.5912 7.21589 20.7616 7.44017L20.9 6.59832H21.5151L21.0402 9.51169ZM20.1203 8.96421C20.4107 8.96421 20.6147 8.63515 20.6147 8.16571C20.6147 7.86475 20.4986 7.70142 20.2843 7.70142C20.0015 7.70142 19.8006 8.0315 19.8006 8.49742C19.8006 8.80737 19.908 8.96421 20.1203 8.96421ZM18.3014 7.14248C18.2232 7.87582 18.0846 8.61864 17.9762 9.35249L17.9476 9.51173H18.5713C18.7944 8.06293 18.8484 7.77998 19.1982 7.81544C19.2539 7.51889 19.3576 7.25918 19.4349 7.12811C19.1737 7.07371 19.0279 7.22133 18.8369 7.50171C18.852 7.38049 18.8796 7.26277 18.8741 7.14251L18.3014 7.14248ZM13.1679 7.14248C13.0896 7.87582 12.951 8.61864 12.8426 9.35249L12.8142 9.51173H13.4382C13.661 8.06293 13.7148 7.77998 14.0644 7.81544C14.1204 7.51889 14.2241 7.25918 14.3012 7.12811C14.0402 7.07371 13.8942 7.22133 13.7034 7.50171C13.7185 7.38049 13.7458 7.26277 13.7406 7.14251L13.1679 7.14248ZM21.3142 9.32619C21.314 9.22382 21.3969 9.14075 21.4992 9.14062H21.4996C21.6019 9.14049 21.685 9.22337 21.6851 9.32568V9.32619C21.6851 9.42862 21.6021 9.51163 21.4996 9.51169C21.3972 9.51163 21.3142 9.42862 21.3142 9.32619ZM21.4996 9.46715C21.5774 9.46721 21.6405 9.40414 21.6405 9.32638V9.32625C21.6406 9.2484 21.5775 9.18526 21.4998 9.1852H21.4996C21.4217 9.18523 21.3586 9.24837 21.3586 9.32625C21.3586 9.40408 21.4218 9.46715 21.4996 9.46715ZM21.4745 9.40728H21.4365V9.24465H21.5054C21.5197 9.24465 21.5345 9.24494 21.5469 9.25278C21.5602 9.26184 21.5678 9.27733 21.5678 9.29355C21.5678 9.31195 21.557 9.32913 21.5394 9.33569L21.5695 9.40725H21.5273L21.5023 9.34296H21.4745L21.4745 9.40728ZM21.4745 9.31515H21.4954C21.5033 9.31515 21.5119 9.31576 21.5188 9.31195C21.525 9.30795 21.5282 9.3004 21.5282 9.29313C21.5279 9.28641 21.5246 9.28021 21.5191 9.2764C21.5125 9.27265 21.5017 9.27371 21.4946 9.27371H21.4745L21.4745 9.31515Z" fill="white"/>
</svg>
