<svg width="32" height="20" viewBox="0 0 32 20" fill="none" xmlns="http://www.w3.org/2000/svg">
<path d="M25.7859 17.1389H4.81445V2.77783H26.1484V17.1389H25.7859Z" fill="#1D5B99"/>
<path fill-rule="evenodd" clip-rule="evenodd" d="M25.7858 16.7763H5.17676V3.14014H25.7858V16.7763Z" fill="white"/>
<path fill-rule="evenodd" clip-rule="evenodd" d="M12.6257 12.1729L13.9641 7.75983H15.1584L13.8198 12.1729H12.6257ZM12.0918 7.76105L11.0175 9.6319C10.7442 10.122 10.5842 10.3695 10.5073 10.6789H10.491C10.51 10.2866 10.4553 9.80452 10.4502 9.53212L10.3314 7.76105H8.32123L8.30072 7.87977C8.81711 7.87977 9.12338 8.13918 9.20762 8.66989L9.59947 12.1729H10.8367L13.3384 7.76105H12.0918ZM21.3789 12.1729L21.346 11.5167L19.8549 11.5155L19.5498 12.1729H18.2533L20.6043 7.76821H22.1956L22.5936 12.1729H21.3789ZM21.2421 9.56975C21.2286 9.24358 21.2177 8.80099 21.2396 8.53296H21.222C21.1494 8.75207 20.8372 9.41 20.6999 9.73351L20.2556 10.7007H21.3026L21.2421 9.56975ZM16.4121 12.2983C15.569 12.2983 15.0094 12.0309 14.6101 11.7924L15.1789 10.9237C15.5376 11.1243 15.8191 11.3558 16.4671 11.3558C16.6753 11.3558 16.876 11.3017 16.9901 11.1042C17.1561 10.8174 16.9518 10.6627 16.4854 10.3987L16.255 10.2489C15.5635 9.77648 15.2642 9.32758 15.5898 8.54413C15.7982 8.04303 16.3475 7.66309 17.2542 7.66309C17.8791 7.66309 18.4653 7.93354 18.8066 8.19769L18.1527 8.96462C17.8194 8.69514 17.5432 8.55882 17.2271 8.55882C16.9751 8.55882 16.7835 8.65605 16.7174 8.78715C16.593 9.03357 16.7577 9.20158 17.1211 9.42712L17.395 9.60143C18.2348 10.1311 18.4346 10.6863 18.2243 11.2052C17.8621 12.099 17.1534 12.2983 16.4121 12.2983ZM22.9492 8.35792H22.8974V8.04303H23.0169C23.093 8.04303 23.1316 8.06962 23.1316 8.13359C23.1316 8.19064 23.0968 8.21432 23.0495 8.21954L23.1378 8.35792H23.0793L22.998 8.22342H22.9492V8.35792ZM23.0069 8.17911C23.0458 8.17911 23.08 8.17535 23.08 8.12971C23.08 8.09171 23.0427 8.0871 23.0118 8.0871H22.9492V8.17911H23.0069ZM23.0055 8.47967C22.8419 8.47967 22.7254 8.35719 22.7254 8.19514C22.7254 8.0241 22.8546 7.91072 23.0055 7.91072C23.1544 7.91072 23.2838 8.0241 23.2838 8.19514C23.2838 8.36629 23.1544 8.47967 23.0055 8.47967ZM23.0055 7.96013C22.8822 7.96013 22.7864 8.05675 22.7864 8.19514C22.7864 8.32442 22.87 8.43015 23.0055 8.43015C23.1271 8.43015 23.2229 8.33425 23.2229 8.19514C23.2229 8.05675 23.1271 7.96013 23.0055 7.96013Z" fill="#1D5B99"/>
<path fill-rule="evenodd" clip-rule="evenodd" d="M25.2781 13.5435H5.72021V16.1603H25.2781V13.5435Z" fill="#E7A83A"/>
<path fill-rule="evenodd" clip-rule="evenodd" d="M25.2418 3.79248H5.68396V6.4094H25.2418V3.79248ZM24.7948 15.9739H24.7431V15.659H24.8625C24.9386 15.659 24.9772 15.6856 24.9772 15.7496C24.9772 15.8065 24.9424 15.8302 24.8952 15.8354L24.9834 15.9739H24.9249L24.8436 15.8393H24.7948V15.9739ZM24.8527 15.7951C24.8915 15.7951 24.9258 15.7914 24.9258 15.7456C24.9258 15.7077 24.8885 15.7031 24.8576 15.7031H24.7949V15.7951H24.8527ZM24.8512 16.0956C24.6876 16.0956 24.5712 15.9732 24.5712 15.811C24.5712 15.6401 24.7006 15.5267 24.8512 15.5267C25.0004 15.5267 25.1296 15.6401 25.1296 15.811C25.1296 15.9822 25.0004 16.0956 24.8512 16.0956ZM24.8512 15.576C24.7279 15.576 24.6321 15.6728 24.6321 15.811C24.6321 15.9404 24.7158 16.046 24.8512 16.046C24.9729 16.046 25.0687 15.9502 25.0687 15.811C25.0687 15.6728 24.9729 15.576 24.8512 15.576Z" fill="#1D5B99"/>
</svg>
