<svg width="32" height="20" viewBox="0 0 32 20" fill="none" xmlns="http://www.w3.org/2000/svg">
<path d="M17.9604 9.99982C17.9604 13.9655 14.7456 17.1798 10.78 17.1798C6.81445 17.1798 3.60001 13.9654 3.60001 9.99982C3.60001 6.0345 6.81449 2.81982 10.78 2.81982C14.7455 2.81982 17.9604 6.03466 17.9604 9.99982Z" fill="#D9222A"/>
<path d="M20.4196 2.81982C18.5645 2.81982 16.8739 3.52366 15.5996 4.6785C15.34 4.91406 15.0977 5.16798 14.8746 5.43834H16.3253C16.5239 5.67982 16.7067 5.93382 16.8727 6.19882H14.3273C14.1742 6.4437 14.0361 6.69758 13.9136 6.95914H17.2861C17.4019 7.20654 17.5034 7.46034 17.5902 7.7193H13.6097C13.5261 7.96866 13.4564 8.2225 13.401 8.47962H17.7986C17.9061 8.97922 17.9604 9.48886 17.9603 9.99994C17.9603 10.7973 17.8301 11.5644 17.5901 12.2808H13.6096C13.6961 12.5399 13.7976 12.7937 13.9134 13.0411H17.2861C17.1635 13.3027 17.0253 13.5567 16.8722 13.8016H14.3272C14.4931 14.0664 14.6759 14.3203 14.8746 14.5615H16.3249C16.1021 14.8323 15.8597 15.0865 15.5997 15.322C16.874 16.4766 18.5644 17.1801 20.4197 17.1801C24.3853 17.1801 27.6001 13.9657 27.6001 10.0001C27.6001 6.03498 24.3853 2.82014 20.4197 2.82014" fill="#EE9F2D"/>
<path d="M26.6428 14.0023C26.6428 13.8743 26.7465 13.7702 26.8747 13.7702C27.0028 13.7702 27.1065 13.8743 27.1065 14.0023C27.1065 14.1302 27.0028 14.2343 26.8747 14.2343C26.7465 14.2343 26.6428 14.1302 26.6428 14.0023ZM26.8747 14.1786C26.972 14.1785 27.0509 14.0996 27.051 14.0023C27.051 13.905 26.9721 13.8262 26.8749 13.8261H26.8747C26.7775 13.826 26.6987 13.9046 26.6985 14.0017V14.0023C26.6984 14.0996 26.7772 14.1785 26.8745 14.1786C26.8745 14.1786 26.8746 14.1786 26.8747 14.1786ZM26.8433 14.1042H26.7959V13.9003H26.8818C26.8998 13.9003 26.9181 13.9003 26.934 13.9105C26.9505 13.9217 26.9599 13.9413 26.9599 13.9617C26.9599 13.9845 26.9463 14.0058 26.9245 14.0141L26.962 14.1041H26.9094L26.8783 14.0235H26.8434L26.8433 14.1042ZM26.8433 13.9886H26.8697C26.8795 13.9886 26.8899 13.9894 26.8987 13.9846C26.9065 13.9796 26.9105 13.9702 26.9105 13.9612C26.9103 13.9529 26.9061 13.9451 26.899 13.9405C26.8907 13.9353 26.8776 13.9365 26.8687 13.9365H26.8433V13.9886ZM9.10333 10.7861C9.02149 10.7765 8.98553 10.774 8.92933 10.774C8.48749 10.774 8.26381 10.9255 8.26381 11.2247C8.26381 11.4092 8.37297 11.5265 8.54329 11.5265C8.86085 11.5265 9.08965 11.2242 9.10333 10.7861ZM9.67017 12.1059H9.02433L9.03917 11.7989C8.84213 12.0415 8.57933 12.1568 8.22213 12.1568C7.79961 12.1568 7.50997 11.8268 7.50997 11.3477C7.50997 10.6267 8.01381 10.206 8.87865 10.206C8.96697 10.206 9.08033 10.214 9.19629 10.2288C9.22045 10.1312 9.22681 10.0893 9.22681 10.0368C9.22681 9.84047 9.09097 9.76731 8.72681 9.76731C8.34549 9.76299 8.03097 9.85815 7.90181 9.90063C7.90997 9.85147 8.00981 9.23427 8.00981 9.23427C8.39829 9.12043 8.65445 9.07759 8.94281 9.07759C9.61209 9.07759 9.96665 9.37811 9.96597 9.94607C9.96729 10.0983 9.94209 10.2861 9.90281 10.5329C9.83517 10.9623 9.69001 11.8817 9.67017 12.1059ZM7.18385 12.1059H6.40437L6.85085 9.30603L5.85385 12.1059H5.32269L5.25701 9.32203L4.78769 12.1059H4.05801L4.66749 8.46367H5.78833L5.85633 10.5024L6.54001 8.46367H7.78669L7.18385 12.1059ZM21.3827 10.7861C21.3012 10.7765 21.265 10.774 21.209 10.774C20.7673 10.774 20.5436 10.9255 20.5436 11.2247C20.5436 11.4092 20.6527 11.5265 20.8229 11.5265C21.1405 11.5265 21.3695 11.2242 21.3827 10.7861ZM21.95 12.1059H21.3042L21.3188 11.7989C21.1218 12.0415 20.8588 12.1568 20.5019 12.1568C20.0793 12.1568 19.7899 11.8268 19.7899 11.3477C19.7899 10.6267 20.2935 10.206 21.1585 10.206C21.2468 10.206 21.3599 10.214 21.4758 10.2288C21.5 10.1312 21.5063 10.0893 21.5063 10.0368C21.5063 9.84047 21.3707 9.76731 21.0065 9.76731C20.6252 9.76299 20.311 9.85815 20.1813 9.90063C20.1895 9.85147 20.2897 9.23427 20.2897 9.23427C20.6782 9.12043 20.9342 9.07759 21.2222 9.07759C21.8918 9.07759 22.2464 9.37811 22.2457 9.94607C22.247 10.0983 22.2218 10.2861 22.1825 10.5329C22.1152 10.9623 21.9697 11.8817 21.95 12.1059ZM13.1344 12.0609C12.9211 12.1281 12.7548 12.1568 12.5744 12.1568C12.1759 12.1568 11.9585 11.9278 11.9585 11.5061C11.9528 11.3753 12.0158 11.0309 12.0653 10.7167C12.1103 10.44 12.4033 8.69551 12.4033 8.69551H13.1781L13.0876 9.14383H13.5555L13.4499 9.85567H12.9802C12.8902 10.419 12.762 11.1207 12.7605 11.2137C12.7605 11.3663 12.842 11.433 13.0274 11.433C13.1162 11.433 13.185 11.4239 13.2375 11.405L13.1344 12.0609ZM15.5101 12.0369C15.2439 12.1183 14.9871 12.1576 14.7149 12.1569C13.8476 12.1561 13.3955 11.7031 13.3955 10.8356C13.3955 9.82311 13.9707 9.07775 14.7514 9.07775C15.3903 9.07775 15.7983 9.49507 15.7983 10.1496C15.7983 10.3667 15.7703 10.5787 15.7027 10.8781H14.1598C14.1076 11.3077 14.3826 11.4867 14.8333 11.4867C15.1107 11.4867 15.3608 11.4296 15.6389 11.3002L15.5101 12.0369ZM15.0746 10.2809C15.0789 10.2192 15.1568 9.75223 14.7141 9.75223C14.4672 9.75223 14.2907 9.94039 14.2189 10.2809H15.0746ZM10.1378 10.0802C10.1378 10.4549 10.3195 10.7133 10.7315 10.9073C11.0471 11.0556 11.0959 11.0997 11.0959 11.2341C11.0959 11.4187 10.9568 11.5021 10.6483 11.5021C10.4158 11.5021 10.1995 11.4658 9.94997 11.3852C9.94997 11.3852 9.84745 12.0381 9.84277 12.0693C10.02 12.108 10.178 12.1437 10.6539 12.1569C11.4765 12.1569 11.8563 11.8437 11.8563 11.1669C11.8563 10.7599 11.6973 10.5211 11.3068 10.3415C10.98 10.1915 10.9425 10.1581 10.9425 10.0197C10.9425 9.85959 11.072 9.77791 11.324 9.77791C11.477 9.77791 11.686 9.79423 11.884 9.82239L11.995 9.13539C11.7931 9.10339 11.4871 9.07771 11.309 9.07771C10.4369 9.07775 10.1351 9.53323 10.1378 10.0802ZM19.3014 9.15559C19.5179 9.15559 19.7197 9.21243 19.9979 9.35243L20.1254 8.56191C20.0112 8.51707 19.6092 8.25391 19.2687 8.25391C18.7471 8.25391 18.3061 8.51275 17.9959 8.93991C17.5435 8.79007 17.3576 9.09291 17.1296 9.39459L16.9271 9.44175C16.9424 9.34243 16.9563 9.24375 16.9516 9.14391H16.2357C16.1379 10.0606 15.9646 10.989 15.8289 11.9069L15.7935 12.1059H16.5734C16.7035 11.2602 16.7749 10.7187 16.8182 10.3523L17.1119 10.1889C17.1557 10.0258 17.293 9.97059 17.5685 9.97727C17.5315 10.1776 17.513 10.3809 17.5132 10.5846C17.5132 11.5536 18.036 12.1569 18.8752 12.1569C19.0914 12.1569 19.2769 12.1285 19.5641 12.0506L19.7013 11.2203C19.4429 11.3475 19.2309 11.4073 19.0389 11.4073C18.5857 11.4073 18.3115 11.0728 18.3115 10.5199C18.3115 9.71791 18.7194 9.15559 19.3014 9.15559Z" fill="black"/>
<path d="M7.40839 11.8897H6.62875L7.07559 9.09021L6.07855 11.8897H5.54723L5.48155 9.10621L5.01223 11.8897H4.28259L4.89207 8.24805H6.01291L6.04443 10.5025L6.80059 8.24805H8.01127L7.40839 11.8897Z" fill="white"/>
<path d="M25.9008 8.46387L25.728 9.51623C25.5148 9.23571 25.2858 9.03271 24.9835 9.03271C24.5902 9.03271 24.2322 9.33091 23.9978 9.76971C23.6715 9.70203 23.3339 9.58719 23.3339 9.58719L23.3338 9.58987C23.3601 9.34451 23.3706 9.19487 23.3682 9.14403H22.6522C22.5547 10.0607 22.3814 10.9891 22.246 11.907L22.2102 12.1061H22.9899C23.0952 11.4222 23.1758 10.8544 23.2352 10.404C23.5016 10.1634 23.6349 9.95339 23.9041 9.96739C23.7849 10.2556 23.7151 10.5875 23.7151 10.9281C23.7151 11.6686 24.0897 12.1571 24.6564 12.1571C24.9421 12.1571 25.1612 12.0586 25.3751 11.8302L25.3386 12.1056H26.076L26.6696 8.46391L25.9008 8.46387ZM24.926 11.4215C24.6606 11.4215 24.5266 11.2252 24.5266 10.8377C24.5266 10.2555 24.7775 9.84267 25.1311 9.84267C25.3989 9.84267 25.5439 10.0468 25.5439 10.423C25.544 11.0102 25.2891 11.4215 24.926 11.4215Z" fill="black"/>
<path d="M9.32761 10.5703C9.24593 10.5608 9.20977 10.5583 9.15377 10.5583C8.71193 10.5583 8.48841 10.7098 8.48841 11.0089C8.48841 11.1931 8.59757 11.3108 8.76757 11.3108C9.08545 11.3108 9.31429 11.0085 9.32761 10.5703ZM9.89473 11.8896H9.24889L9.26357 11.5831C9.06673 11.8253 8.80357 11.9411 8.44673 11.9411C8.02405 11.9411 7.73453 11.6111 7.73453 11.1319C7.73453 10.4107 8.23821 9.99026 9.10321 9.99026C9.19153 9.99026 9.30489 9.99826 9.42073 10.0131C9.44489 9.91546 9.45125 9.87362 9.45125 9.82078C9.45125 9.62442 9.31557 9.55162 8.95141 9.55162C8.56993 9.5473 8.25557 9.64246 8.12625 9.68446C8.13441 9.63546 8.23425 9.01898 8.23425 9.01898C8.62257 8.90466 8.87905 8.86182 9.16705 8.86182C9.83653 8.86182 10.1912 9.1625 10.1906 9.72998C10.1917 9.88282 10.1664 10.0705 10.1272 10.317C10.0597 10.7459 9.91445 11.6659 9.89473 11.8896ZM20.3499 8.34594L20.2223 9.13662C19.9443 8.99678 19.7423 8.93982 19.526 8.93982C18.944 8.93982 18.536 9.50214 18.536 10.3041C18.536 10.8569 18.8103 11.1913 19.2634 11.1913C19.4554 11.1913 19.6672 11.1316 19.9255 11.0043L19.7887 11.8343C19.5013 11.9126 19.316 11.9411 19.0997 11.9411C18.2606 11.9411 17.7376 11.3377 17.7376 10.3687C17.7376 9.06674 18.46 8.15674 19.4932 8.15674C19.8334 8.15678 20.2356 8.3011 20.3499 8.34594ZM21.6076 10.5703C21.526 10.5608 21.49 10.5583 21.4338 10.5583C20.9921 10.5583 20.7684 10.7098 20.7684 11.0089C20.7684 11.1931 20.8776 11.3108 21.0478 11.3108C21.3653 11.3108 21.5943 11.0085 21.6076 10.5703ZM22.1748 11.8896H21.5288L21.5436 11.5831C21.3466 11.8253 21.0836 11.9411 20.7268 11.9411C20.3042 11.9411 20.0146 11.6111 20.0146 11.1319C20.0146 10.4107 20.5184 9.99026 21.3831 9.99026C21.4716 9.99026 21.5848 9.99826 21.7007 10.0131C21.7248 9.91546 21.7312 9.87362 21.7312 9.82078C21.7312 9.62442 21.5955 9.55162 21.2314 9.55162C20.8501 9.5473 20.5356 9.64246 20.4062 9.68446C20.4144 9.63546 20.5144 9.01898 20.5144 9.01898C20.9028 8.90466 21.159 8.86182 21.447 8.86182C22.1167 8.86182 22.4712 9.1625 22.4704 9.72998C22.4717 9.88282 22.4465 10.0705 22.4072 10.317C22.3399 10.7459 22.1943 11.6659 22.1748 11.8896ZM13.3592 11.8448C13.1456 11.9119 12.9793 11.9411 12.7992 11.9411C12.4007 11.9411 12.1832 11.7121 12.1832 11.2904C12.1777 11.1592 12.2407 10.8152 12.2902 10.5009C12.335 10.2239 12.628 8.47958 12.628 8.47958H13.4027L13.3123 8.92806H13.71L13.6041 9.63958H13.2051C13.1151 10.2033 12.9866 10.9044 12.9853 10.9976C12.9853 11.1508 13.0669 11.2169 13.2521 11.2169C13.341 11.2169 13.4096 11.2082 13.4623 11.1892L13.3592 11.8448ZM15.7348 11.8211C15.4688 11.9024 15.2116 11.9416 14.9396 11.9411C14.0722 11.9403 13.6202 11.4873 13.6202 10.6198C13.6202 9.60694 14.1953 8.86178 14.9761 8.86178C15.615 8.86178 16.023 9.27894 16.023 9.93378C16.023 10.1511 15.995 10.3631 15.9276 10.6623H14.3846C14.3324 11.0919 14.6074 11.2711 15.0581 11.2711C15.3353 11.2711 15.5856 11.2137 15.8636 11.0841L15.7348 11.8211ZM15.2992 10.0646C15.3038 10.0031 15.3816 9.53594 14.9386 9.53594C14.692 9.53594 14.5155 9.72462 14.4436 10.0646H15.2992ZM10.3624 9.86442C10.3624 10.2391 10.544 10.4971 10.956 10.6914C11.2717 10.8398 11.3205 10.8839 11.3205 11.0183C11.3205 11.2029 11.1812 11.2863 10.873 11.2863C10.6404 11.2863 10.424 11.2499 10.1743 11.1694C10.1743 11.1694 10.0722 11.8223 10.0675 11.8535C10.2443 11.8921 10.4025 11.9275 10.8785 11.9411C11.7011 11.9411 12.0808 11.6279 12.0808 10.9513C12.0808 10.5441 11.922 10.3053 11.5314 10.1258C11.2047 9.97542 11.1668 9.94242 11.1668 9.80394C11.1668 9.64394 11.2967 9.56158 11.5485 9.56158C11.7014 9.56158 11.9104 9.57842 12.1087 9.60658L12.2195 8.91942C12.0178 8.88742 11.7118 8.86178 11.5337 8.86178C10.6615 8.86178 10.3598 9.31694 10.3624 9.86442ZM26.3004 11.8896H25.5628L25.5995 11.6139C25.3856 11.8426 25.1665 11.9411 24.8808 11.9411C24.3142 11.9411 23.9397 11.4526 23.9397 10.7121C23.9397 9.72686 24.5205 8.89638 25.208 8.89638C25.5104 8.89638 25.7392 9.01986 25.9522 9.30022L26.1252 8.2479H26.894L26.3004 11.8896ZM25.1505 11.2053C25.5135 11.2053 25.7685 10.7939 25.7685 10.2071C25.7685 9.83094 25.6234 9.62678 25.3555 9.62678C25.002 9.62678 24.7509 10.0394 24.7509 10.6218C24.7509 11.0092 24.8852 11.2053 25.1505 11.2053ZM22.8768 8.9281C22.7792 9.84478 22.6059 10.7733 22.4704 11.6906L22.4347 11.8897H23.2143C23.4932 10.0787 23.5606 9.72498 23.9978 9.7693C24.0675 9.39862 24.1971 9.07398 24.2938 8.91014C23.9673 8.84214 23.785 9.02666 23.5463 9.37714C23.5651 9.22562 23.5996 9.07846 23.5928 8.92814L22.8768 8.9281ZM16.46 8.9281C16.3622 9.84478 16.1889 10.7733 16.0534 11.6906L16.0178 11.8897H16.7978C17.0764 10.0787 17.1437 9.72498 17.5806 9.7693C17.6506 9.39862 17.7803 9.07398 17.8766 8.91014C17.5504 8.84214 17.3679 9.02666 17.1294 9.37714C17.1483 9.22562 17.1824 9.07846 17.1759 8.92814L16.46 8.9281ZM26.6428 11.6577C26.6427 11.5298 26.7463 11.4259 26.8742 11.4258H26.8747C27.0026 11.4256 27.1064 11.5292 27.1065 11.6571V11.6577C27.1065 11.7858 27.0027 11.8895 26.8747 11.8896C26.7466 11.8895 26.6429 11.7858 26.6428 11.6577ZM26.8747 11.8339C26.9719 11.834 27.0508 11.7552 27.0508 11.658V11.6578C27.0509 11.5605 26.9721 11.4816 26.8748 11.4815H26.8747C26.7773 11.4815 26.6984 11.5605 26.6984 11.6578C26.6984 11.7551 26.7774 11.8339 26.8747 11.8339ZM26.8433 11.7591H26.7958V11.5558H26.8819C26.8998 11.5558 26.9183 11.5562 26.9338 11.566C26.9504 11.5773 26.9599 11.5967 26.9599 11.6169C26.9599 11.6399 26.9464 11.6614 26.9244 11.6696L26.962 11.7591H26.9093L26.8781 11.6787H26.8433L26.8433 11.7591ZM26.8433 11.6439H26.8694C26.8793 11.6439 26.89 11.6447 26.8986 11.6399C26.9065 11.6349 26.9104 11.6255 26.9104 11.6164C26.9101 11.608 26.9059 11.6003 26.899 11.5955C26.8908 11.5908 26.8773 11.5921 26.8684 11.5921H26.8433L26.8433 11.6439Z" fill="white"/>
</svg>
