<svg width="129" height="100" viewBox="0 0 129 100" fill="none" xmlns="http://www.w3.org/2000/svg">
<g opacity="0.5">
<g clip-path="url(#clip0_518_7236)">
<path d="M87.6799 99.9996H7.27644C3.2642 99.9996 0 96.7354 0 92.7231V49.0645C0 45.0409 3.2642 41.7881 7.27644 41.7881H87.6686C91.6922 41.7881 94.945 45.0523 94.945 49.0645V92.7231C94.9564 96.7354 91.6922 99.9996 87.6799 99.9996Z" fill="#FBF5F0"/>
<path d="M87.3286 53.7793H43.33V57.0548H87.3286V53.7793Z" fill="#FB8B24"/>
<path d="M87.3413 69.2132L43.3427 69.1523L43.3399 71.1585L87.3385 71.2193L87.3413 69.2132Z" fill="#175067"/>
<path d="M87.3413 74.1321L43.3427 74.0713L43.3399 76.0774L87.3385 76.1383L87.3413 74.1321Z" fill="#175067"/>
<path d="M87.3301 79.0511L43.3314 78.9902L43.3286 80.9964L87.3273 81.0572L87.3301 79.0511Z" fill="#175067"/>
<path d="M87.3301 83.97L43.3314 83.9092L43.3286 85.9153L87.3273 85.9761L87.3301 83.97Z" fill="#175067"/>
<path d="M87.3187 88.889L43.3201 88.8281L43.3173 90.8342L87.3159 90.8951L87.3187 88.889Z" fill="#175067"/>
<path d="M87.3399 60.5234H58.6422V63.799H87.3399V60.5234Z" fill="#FB8B24"/>
<path opacity="0.47" d="M26.3856 99.9654H16.0037L43.33 41.7539H53.7233L26.3856 99.9654Z" fill="white"/>
<path opacity="0.47" d="M49.8017 99.9654H33.8547L61.1924 41.7539H77.128L49.8017 99.9654Z" fill="white"/>
<path d="M66.2246 42.661L63.4024 34.0585V28.1875H31.5992V33.6165H31.5765L28.709 42.695C28.029 44.8485 29.6384 47.0473 31.8939 47.0473H63.0284C65.3179 47.0473 66.9386 44.8258 66.2246 42.661ZM55.9786 34.9652C55.9786 35.8946 55.2193 36.654 54.2899 36.654H40.723C39.7937 36.654 39.0343 35.8946 39.0343 34.9652V34.3419C39.0343 33.4125 39.7937 32.6531 40.723 32.6531H54.2899C55.2193 32.6531 55.9786 33.4125 55.9786 34.3419V34.9652Z" fill="#798F9F"/>
<path d="M125.672 30.4538C125.672 30.4538 125.331 30.3744 124.731 30.2498C124.663 30.2384 124.606 30.2271 124.527 30.2044C124.357 30.1704 124.164 30.1364 123.96 30.0911C123.79 30.0571 123.62 30.0231 123.427 29.9891C123.337 29.9777 123.235 29.9551 123.144 29.9437C122.951 29.9097 122.747 29.8757 122.532 29.8417C122.475 29.8304 122.43 29.8191 122.373 29.8191C122.101 29.7737 121.818 29.7284 121.523 29.6831C121.467 29.6717 121.41 29.6604 121.342 29.6604C116.219 28.9123 107.82 28.3003 103.105 31.2018C102.097 31.8252 101.167 32.4372 100.317 33.0266L103.967 10.9819L87.2039 25.7841C87.2492 24.7528 87.2719 23.642 87.2719 22.452C87.2379 16.9096 82.2509 10.1092 78.896 6.17631C78.862 6.13097 78.8167 6.08563 78.7827 6.0403C78.59 5.81362 78.3973 5.59827 78.216 5.38292C78.182 5.33759 78.148 5.30359 78.1026 5.25825C77.9553 5.09957 77.8193 4.9409 77.6946 4.79356C77.6266 4.71422 77.5586 4.64621 77.5019 4.57821C77.3773 4.4422 77.2526 4.30619 77.1392 4.18152C76.9919 4.02284 76.8672 3.88683 76.7426 3.75083C76.6972 3.69416 76.6519 3.64882 76.6066 3.60348C76.1872 3.16146 75.9378 2.91211 75.9378 2.91211C75.9378 2.91211 78.0006 15.7082 73.7957 26.7929C73.4444 27.5749 73.195 28.1756 73.1043 28.4816L68.2307 37.2542L100.646 55.2072L105.508 46.4234C105.712 46.1854 106.086 45.6527 106.562 44.9386C113.737 35.4974 125.672 30.4538 125.672 30.4538Z" fill="#FFBE31"/>
<path d="M100.363 57.1574L66.7347 38.5356C66.0886 38.1729 65.8506 37.3569 66.2133 36.7109C66.576 36.0648 67.392 35.8268 68.0381 36.1895L101.666 54.8113C102.312 55.174 102.55 55.99 102.187 56.6361C101.825 57.2821 101.009 57.5201 100.363 57.1574Z" fill="#C49027"/>
<path d="M105.712 47.5002L72.073 28.8784C71.427 28.5157 71.189 27.6997 71.5517 27.0536C71.9144 26.4076 72.7304 26.1696 73.3765 26.5323L107.004 45.1541C107.651 45.5167 107.889 46.3328 107.526 46.9788C107.174 47.6249 106.358 47.8629 105.712 47.5002Z" fill="#C49027"/>
<path d="M82.3302 28.2663C81.9562 28.9463 81.1061 29.1843 80.4261 28.8103C79.746 28.4363 79.508 27.5862 79.8821 26.9062C80.2561 26.2262 81.1061 25.9881 81.7862 26.3622C82.4662 26.7362 82.7042 27.5862 82.3302 28.2663Z" fill="#EFB86E"/>
<path d="M103.183 39.902C103.6 39.2544 103.412 38.3918 102.765 37.9753C102.117 37.5589 101.255 37.7463 100.838 38.3938C100.422 39.0414 100.609 39.904 101.257 40.3205C101.904 40.7369 102.767 40.5496 103.183 39.902Z" fill="#EFB86E"/>
<path d="M81.9449 28.0508C81.6842 28.5155 81.1061 28.6855 80.6414 28.4248C80.1768 28.1642 80.0067 27.5861 80.2674 27.1214C80.5281 26.6567 81.1061 26.4867 81.5708 26.7474C82.0355 27.0081 82.2055 27.5861 81.9449 28.0508Z" fill="#59824E"/>
<path d="M102.845 39.6231C102.584 40.0878 102.006 40.2578 101.541 39.9971C101.077 39.7364 100.907 39.1584 101.167 38.6937C101.428 38.229 102.006 38.059 102.471 38.3197C102.935 38.5804 103.105 39.1584 102.845 39.6231Z" fill="#59824E"/>
<path d="M95.5915 32.8995C97.2587 31.8946 97.7956 29.7284 96.7907 28.0613C95.7858 26.3941 93.6196 25.8572 91.9524 26.8621C90.2852 27.867 89.7484 30.0332 90.7533 31.7003C91.7582 33.3675 93.9243 33.9044 95.5915 32.8995Z" fill="#EFB86E"/>
<path d="M94.1494 32.3421C95.5114 32.1382 96.4502 30.8687 96.2462 29.5068C96.0423 28.1448 94.7728 27.2061 93.4109 27.41C92.0489 27.614 91.1102 28.8834 91.3141 30.2454C91.5181 31.6073 92.7875 32.5461 94.1494 32.3421Z" fill="#FB8B24"/>
<path d="M77.6493 2.92379C77.1166 3.87585 75.9266 4.21587 74.9745 3.6945C74.0225 3.16181 73.6824 1.97173 74.2038 1.01968C74.7365 0.0676203 75.9266 -0.2724 76.8786 0.248964C77.8307 0.770329 78.1707 1.97173 77.6493 2.92379Z" fill="#C49027"/>
<path d="M128.199 30.9189C127.666 31.871 126.476 32.211 125.524 31.6896C124.572 31.1569 124.232 29.9669 124.753 29.0148C125.286 28.0627 126.476 27.7227 127.428 28.2441C128.38 28.7654 128.72 29.9669 128.199 30.9189Z" fill="#C49027"/>
<path d="M106.392 10.6372C106.858 9.65278 106.438 8.47687 105.453 8.01071C104.469 7.54454 103.293 7.96465 102.827 8.94904C102.361 9.93343 102.781 11.1093 103.765 11.5755C104.75 12.0417 105.925 11.6216 106.392 10.6372Z" fill="#C49027"/>
<path d="M76.3232 35.996C75.9492 36.6647 75.1105 36.9027 74.4418 36.54C73.7731 36.166 73.5351 35.3273 73.8978 34.6586C74.2718 33.9899 75.1105 33.7519 75.7792 34.1146C76.4479 34.4886 76.6859 35.3273 76.3232 35.996Z" fill="#C49027"/>
<path d="M81.3739 39.9148C82.1078 39.704 82.5319 38.938 82.3211 38.2041C82.1102 37.4701 81.3443 37.046 80.6103 37.2569C79.8764 37.4677 79.4523 38.2337 79.6631 38.9676C79.874 39.7016 80.6399 40.1257 81.3739 39.9148Z" fill="#C49027"/>
<path d="M88.0767 42.5126C87.7026 43.1813 86.8639 43.4193 86.1952 43.0566C85.5265 42.6826 85.2885 41.8439 85.6512 41.1752C86.0252 40.5065 86.8639 40.2685 87.5326 40.6312C88.2127 41.0052 88.4507 41.8439 88.0767 42.5126Z" fill="#C49027"/>
<path d="M93.959 45.7655C93.585 46.4342 92.7462 46.6723 92.0775 46.3096C91.4088 45.9355 91.1708 45.0968 91.5335 44.4281C91.9075 43.7594 92.7462 43.5214 93.4149 43.8841C94.095 44.2581 94.333 45.0968 93.959 45.7655Z" fill="#C49027"/>
<path d="M99.8413 49.0302C99.4673 49.6989 98.6286 49.9369 97.9599 49.5742C97.2911 49.2002 97.0531 48.3615 97.4158 47.6928C97.7898 47.0241 98.6286 46.786 99.2973 47.1487C99.966 47.5114 100.215 48.3615 99.8413 49.0302Z" fill="#C49027"/>
<path d="M10.0409 73.7744C9.93699 73.2129 10.3441 71.7587 10.6192 71.0624C11.2295 69.4885 12.1081 68.0323 13.2161 66.7586C13.1852 66.8597 13.1543 66.9608 13.1262 67.0618C12.9003 67.9064 12.7963 68.779 12.8174 69.6531C12.9588 68.815 13.2207 68.0018 13.5951 67.2387C13.7816 66.8682 13.9946 66.5117 14.2324 66.1719C14.4699 65.8375 14.7297 65.5195 15.01 65.2202C15.5049 64.7052 16.0723 64.2654 16.6945 63.9147C17.4085 63.5018 18.1606 63.1587 18.9404 62.89C19.3344 62.7548 19.7367 62.6451 20.1448 62.5615H13.5642C12.041 62.5638 10.5808 63.17 9.50404 64.2474C8.42723 65.3247 7.82168 66.7851 7.82019 68.3083V77.3061L10.0409 73.7744Z" fill="#EFB86E"/>
<path d="M23.3338 62.7865L23.1626 62.9381C23.1064 62.9914 23.0643 63.0392 23.0138 63.0897L22.9436 63.1655L22.879 63.2385L22.7499 63.3845C22.6713 63.4827 22.587 63.5782 22.514 63.6652C22.2137 64.0498 21.9526 64.426 21.6718 64.7882C21.13 65.5322 20.5966 66.2565 20.0042 66.9303C19.4315 67.611 18.7706 68.2124 18.039 68.7186C17.6674 68.9669 17.2666 69.1687 16.8459 69.3194C16.4164 69.4712 15.965 69.5518 15.5095 69.558C15.9742 69.6359 16.4486 69.6359 16.9132 69.558C17.3837 69.4821 17.8429 69.3482 18.2804 69.1594C18.4292 69.0948 18.5612 69.0274 18.7184 68.9544C18.3571 69.4761 17.9603 69.9723 17.5309 70.4395C16.813 71.2416 15.8401 71.7712 14.7768 71.9387C14.4051 71.9934 14.0293 72.015 13.6538 72.0033C14.0219 72.0981 14.3977 72.1602 14.7768 72.1886C15.1671 72.2122 15.5588 72.1925 15.9447 72.1296L16.1272 72.0931C14.4062 73.4463 13.1372 73.6091 12.441 73.6625H12.4045C11.9968 73.7082 11.602 73.8331 11.2422 74.0302C11.5136 73.4968 11.8037 72.9737 12.1125 72.4609C12.7934 71.3321 13.5602 70.2574 14.4062 69.2464C14.8292 68.7448 15.2709 68.2563 15.7313 67.7809C16.2001 67.3177 16.6774 66.8629 17.1827 66.4362C18.1923 65.5786 19.2797 64.8173 20.4309 64.1621C19.2474 64.7722 18.1233 65.4912 17.0733 66.3098C16.5483 66.7169 16.0485 67.152 15.5572 67.6068C15.0659 68.0616 14.6055 68.5417 14.1535 69.0358C13.2592 70.0281 12.4427 71.0878 11.7111 72.2054C11.3433 72.7669 10.9952 73.3284 10.6723 73.9264C10.5123 74.2071 10.3579 74.5159 10.2063 74.8191C10.1052 75.0241 10.0098 75.2262 9.92555 75.4368C9.43144 76.4109 8.99067 77.4778 8.99067 77.4778C8.68312 77.6698 8.41219 77.9151 8.19055 78.2021H17.3765C18.9942 78.1998 20.545 77.556 21.6887 76.4118C22.8324 75.2676 23.4755 73.7165 23.477 72.0987V62.6826L23.3338 62.7865Z" fill="#175067"/>
</g>
</g>
<defs>
<clipPath id="clip0_518_7236">
<rect width="128.448" height="100" fill="white"/>
</clipPath>
</defs>
</svg>
