<svg width="26" height="16" viewBox="0 0 26 16" fill="none" xmlns="http://www.w3.org/2000/svg">
<path d="M21.5897 13.7111H4.8125V2.22217H21.8797V13.7111H21.5897Z" fill="#1D5B99"/>
<path fill-rule="evenodd" clip-rule="evenodd" d="M21.5898 13.4211H5.10254V2.51221H21.5898V13.4211Z" fill="white"/>
<path fill-rule="evenodd" clip-rule="evenodd" d="M11.0616 9.73826L12.1323 6.20777H13.0877L12.0168 9.73826H11.0616ZM10.6345 6.20874L9.77502 7.70542C9.55632 8.09746 9.42833 8.29548 9.36686 8.54301H9.35375C9.36899 8.22915 9.3252 7.84352 9.32112 7.6256L9.22614 6.20874H7.61797L7.60156 6.30371C8.01468 6.30371 8.25969 6.51124 8.32708 6.93581L8.64056 9.73826H9.63032L11.6317 6.20874H10.6345ZM18.0641 9.73826L18.0378 9.21328L16.8449 9.21231L16.6008 9.73826H15.5636L17.4444 6.21447H18.7174L19.0359 9.73826H18.0641ZM17.9546 7.6557C17.9439 7.39476 17.9351 7.0407 17.9527 6.82627H17.9386C17.8805 7.00156 17.6308 7.5279 17.5209 7.78671L17.1655 8.56049H18.0031L17.9546 7.6557ZM14.0907 9.83858C13.4162 9.83858 12.9685 9.62464 12.649 9.43382L13.1041 8.73889C13.3911 8.89931 13.6163 9.08451 14.1346 9.08451C14.3012 9.08451 14.4618 9.04129 14.5531 8.88329C14.6859 8.65382 14.5224 8.5301 14.1493 8.31888L13.965 8.19904C13.4118 7.82108 13.1724 7.46197 13.4328 6.83521C13.5996 6.43433 14.039 6.13037 14.7643 6.13037C15.2643 6.13037 15.7332 6.34674 16.0063 6.55805L15.4831 7.1716C15.2165 6.95601 14.9955 6.84696 14.7427 6.84696C14.5411 6.84696 14.3878 6.92474 14.3349 7.02962C14.2354 7.22676 14.3671 7.36116 14.6579 7.5416L14.877 7.68105C15.5488 8.10475 15.7086 8.54894 15.5404 8.96409C15.2507 9.67912 14.6837 9.83858 14.0907 9.83858ZM19.3203 6.68624H19.2789V6.43433H19.3745C19.4354 6.43433 19.4663 6.4556 19.4663 6.50678C19.4663 6.55242 19.4384 6.57135 19.4006 6.57553L19.4712 6.68624H19.4244L19.3594 6.57864H19.3203V6.68624ZM19.3665 6.54319C19.3976 6.54319 19.425 6.54018 19.425 6.50367C19.425 6.47327 19.3952 6.46958 19.3704 6.46958H19.3203V6.54319H19.3665ZM19.3654 6.78364C19.2345 6.78364 19.1413 6.68565 19.1413 6.55601C19.1413 6.41918 19.2447 6.32848 19.3654 6.32848C19.4845 6.32848 19.588 6.41918 19.588 6.55601C19.588 6.69294 19.4845 6.78364 19.3654 6.78364ZM19.3654 6.368C19.2667 6.368 19.1901 6.4453 19.1901 6.55601C19.1901 6.65943 19.257 6.74402 19.3654 6.74402C19.4627 6.74402 19.5393 6.6673 19.5393 6.55601C19.5393 6.4453 19.4627 6.368 19.3654 6.368Z" fill="#1D5B99"/>
<path fill-rule="evenodd" clip-rule="evenodd" d="M21.1834 10.835H5.53711V12.9284H21.1834V10.835Z" fill="#E7A83A"/>
<path fill-rule="evenodd" clip-rule="evenodd" d="M21.154 3.03418H5.50781V5.12771H21.154V3.03418ZM20.7965 12.7793H20.7551V12.5274H20.8507C20.9116 12.5274 20.9424 12.5487 20.9424 12.5999C20.9424 12.6454 20.9146 12.6644 20.8768 12.6685L20.9474 12.7793H20.9006L20.8355 12.6716H20.7965V12.7793ZM20.8428 12.6363C20.8739 12.6363 20.9013 12.6333 20.9013 12.5967C20.9013 12.5664 20.8715 12.5627 20.8467 12.5627H20.7966V12.6363H20.8428ZM20.8416 12.8766C20.7107 12.8766 20.6176 12.7787 20.6176 12.649C20.6176 12.5123 20.7211 12.4216 20.8416 12.4216C20.961 12.4216 21.0643 12.5123 21.0643 12.649C21.0643 12.7859 20.961 12.8766 20.8416 12.8766ZM20.8416 12.461C20.743 12.461 20.6664 12.5384 20.6664 12.649C20.6664 12.7525 20.7333 12.837 20.8416 12.837C20.9389 12.837 21.0156 12.7604 21.0156 12.649C21.0156 12.5384 20.9389 12.461 20.8416 12.461Z" fill="#1D5B99"/>
</svg>
