<svg width="20" height="18" viewBox="0 0 20 18" fill="none" xmlns="http://www.w3.org/2000/svg">
<path d="M18.167 7.83349H4.33033L8.56533 2.74683C8.76335 2.50857 8.85863 2.20141 8.83018 1.89291C8.80174 1.58442 8.65191 1.29985 8.41366 1.10183C8.17541 0.903797 7.86825 0.808525 7.55975 0.836968C7.25125 0.865411 6.96669 1.01524 6.76866 1.25349L0.935326 8.25349C0.89608 8.30917 0.860985 8.36766 0.830325 8.42849C0.830325 8.48683 0.830326 8.52183 0.748659 8.58016C0.695778 8.71393 0.66809 8.85632 0.666992 9.00016C0.66809 9.144 0.695778 9.28639 0.748659 9.42016C0.748659 9.47849 0.748659 9.51349 0.830325 9.57183C0.860985 9.63266 0.89608 9.69115 0.935326 9.74683L6.76866 16.7468C6.87835 16.8785 7.01571 16.9844 7.17098 17.057C7.32624 17.1296 7.4956 17.1671 7.66699 17.1668C7.93959 17.1674 8.20376 17.0724 8.41366 16.8985C8.53179 16.8006 8.62945 16.6803 8.70102 16.5445C8.7726 16.4088 8.8167 16.2603 8.83078 16.1075C8.84487 15.9547 8.82868 15.8006 8.78313 15.654C8.73757 15.5075 8.66356 15.3714 8.56533 15.2535L4.33033 10.1668H18.167C18.4764 10.1668 18.7732 10.0439 18.992 9.82512C19.2107 9.60632 19.3337 9.30958 19.3337 9.00016C19.3337 8.69074 19.2107 8.39399 18.992 8.1752C18.7732 7.95641 18.4764 7.83349 18.167 7.83349Z" fill="#175067"/>
</svg>
