<svg width="28" height="28" viewBox="0 0 28 28" fill="none" xmlns="http://www.w3.org/2000/svg">
<path d="M9.67991 18.3477H11.2905C11.419 18.3477 11.542 18.2902 11.6268 18.1918L14.0002 15.3617L16.3737 18.1918C16.4557 18.2902 16.5787 18.3477 16.71 18.3477H18.3205C18.5065 18.3477 18.6076 18.1316 18.4873 17.9895L15.1432 14L18.4901 10.0105C18.6104 9.86836 18.5092 9.65234 18.3233 9.65234H16.7127C16.5842 9.65234 16.4612 9.70977 16.3764 9.8082L14.0002 12.6383L11.6268 9.8082C11.5448 9.70977 11.4217 9.65234 11.2905 9.65234H9.67991C9.49397 9.65234 9.3928 9.86836 9.51311 10.0105L12.8573 14L9.51311 17.9895C9.48616 18.0211 9.46887 18.0599 9.46329 18.1011C9.45771 18.1424 9.46408 18.1843 9.48165 18.222C9.49921 18.2598 9.52722 18.2916 9.56237 18.3139C9.59751 18.3362 9.6383 18.3479 9.67991 18.3477Z" fill="#175067"/>
<path d="M24.0625 3.0625H3.9375C3.45352 3.0625 3.0625 3.45352 3.0625 3.9375V24.0625C3.0625 24.5465 3.45352 24.9375 3.9375 24.9375H24.0625C24.5465 24.9375 24.9375 24.5465 24.9375 24.0625V3.9375C24.9375 3.45352 24.5465 3.0625 24.0625 3.0625ZM22.9688 22.9688H5.03125V5.03125H22.9688V22.9688Z" fill="#175067"/>
</svg>
