<svg width="56" height="56" viewBox="0 0 56 56" fill="none" xmlns="http://www.w3.org/2000/svg">
<rect width="56" height="56" rx="3" fill="white"/>
<path d="M41.8376 21.1875C41.5516 20.9488 41.2042 20.7952 40.8351 20.7444C40.466 20.6935 40.0901 20.7475 39.7501 20.9L33.4251 23.7125L29.7501 17.0875C29.5745 16.7782 29.32 16.521 29.0126 16.3421C28.7052 16.1631 28.3558 16.0688 28.0001 16.0688C27.6444 16.0688 27.2951 16.1631 26.9877 16.3421C26.6803 16.521 26.4258 16.7782 26.2501 17.0875L22.5751 23.7125L16.2501 20.9C15.9095 20.7477 15.5331 20.6937 15.1634 20.7441C14.7937 20.7945 14.4454 20.9474 14.158 21.1853C13.8706 21.4233 13.6555 21.7369 13.5371 22.0908C13.4186 22.4446 13.4015 22.8245 13.4876 23.1875L16.6626 36.725C16.7233 36.9871 16.8366 37.2342 16.9956 37.4512C17.1546 37.6682 17.356 37.8507 17.5876 37.9875C17.9012 38.1752 18.2597 38.2746 18.6251 38.275C18.8028 38.2747 18.9795 38.2495 19.1501 38.2C24.9374 36.6 31.0504 36.6 36.8376 38.2C37.3661 38.339 37.928 38.2625 38.4001 37.9875C38.6332 37.8524 38.8357 37.6705 38.9949 37.4532C39.1541 37.2359 39.2665 36.988 39.3251 36.725L42.5126 23.1875C42.5978 22.8244 42.5798 22.4447 42.4605 22.0912C42.3412 21.7378 42.1255 21.4248 41.8376 21.1875ZM37.3751 36.275C31.2365 34.575 24.7513 34.575 18.6126 36.275L15.4376 22.7375L21.7626 25.5375C22.2165 25.7439 22.7316 25.7709 23.2045 25.6133C23.6775 25.4556 24.0733 25.1249 24.3126 24.6875L28.0001 18.0625L31.6876 24.6875C31.9269 25.1249 32.3228 25.4556 32.7957 25.6133C33.2687 25.7709 33.7838 25.7439 34.2376 25.5375L40.5626 22.7375L37.3751 36.275ZM33.0001 32.3125C32.9726 32.559 32.8556 32.7868 32.6712 32.9526C32.4869 33.1185 32.2481 33.211 32.0001 33.2125H31.9001C29.3068 32.95 26.6935 32.95 24.1001 33.2125C23.8366 33.2406 23.5727 33.1628 23.3665 32.9964C23.1602 32.83 23.0285 32.5885 23.0001 32.325C22.9756 32.0602 23.0563 31.7964 23.2247 31.5906C23.3931 31.3848 23.6357 31.2535 23.9001 31.225C26.6259 30.9375 29.3744 30.9375 32.1001 31.225C32.3622 31.2535 32.6028 31.383 32.7709 31.5861C32.939 31.7892 33.0212 32.0498 33.0001 32.3125Z" fill="#175067"/>
</svg>
