<svg width="18" height="15" viewBox="0 0 18 15" fill="none" xmlns="http://www.w3.org/2000/svg">
<path d="M6 6.75H1.5825C1.72189 5.82176 2.05334 4.93279 2.55569 4.13987C3.05804 3.34696 3.72024 2.66754 4.5 2.145L5.8425 1.245L5.0175 0L3.675 0.9C2.54496 1.65306 1.61828 2.67342 0.977199 3.87054C0.336117 5.06766 0.000455315 6.40453 0 7.7625V12.75C0 13.1478 0.158035 13.5294 0.43934 13.8107C0.720644 14.092 1.10218 14.25 1.5 14.25H6C6.39782 14.25 6.77936 14.092 7.06066 13.8107C7.34196 13.5294 7.5 13.1478 7.5 12.75V8.25C7.5 7.85218 7.34196 7.47064 7.06066 7.18934C6.77936 6.90804 6.39782 6.75 6 6.75ZM16.5 6.75H12.0825C12.2219 5.82176 12.5533 4.93279 13.0557 4.13987C13.558 3.34696 14.2202 2.66754 15 2.145L16.3425 1.245L15.525 0L14.175 0.9C13.045 1.65306 12.1183 2.67342 11.4772 3.87054C10.8361 5.06766 10.5005 6.40453 10.5 7.7625V12.75C10.5 13.1478 10.658 13.5294 10.9393 13.8107C11.2206 14.092 11.6022 14.25 12 14.25H16.5C16.8978 14.25 17.2794 14.092 17.5607 13.8107C17.842 13.5294 18 13.1478 18 12.75V8.25C18 7.85218 17.842 7.47064 17.5607 7.18934C17.2794 6.90804 16.8978 6.75 16.5 6.75Z" fill="#ECD3B1"/>
</svg>
