<svg width="21" height="21" viewBox="0 0 21 21" fill="none" xmlns="http://www.w3.org/2000/svg">
<path fill-rule="evenodd" clip-rule="evenodd" d="M6.5625 7.4375C6.5625 6.39321 6.97734 5.39169 7.71577 4.65327C8.45419 3.91484 9.45571 3.5 10.5 3.5C11.5443 3.5 12.5458 3.91484 13.2842 4.65327C14.0227 5.39169 14.4375 6.39321 14.4375 7.4375V7.875H15.3125V7.4375C15.3125 4.77969 13.1578 2.625 10.5 2.625C7.84219 2.625 5.6875 4.77969 5.6875 7.4375V7.875H6.5625V7.4375ZM13.5625 7.875V7.4375C13.5625 7.03533 13.4833 6.63709 13.3294 6.26553C13.1755 5.89397 12.9499 5.55636 12.6655 5.27199C12.3811 4.98761 12.0435 4.76202 11.672 4.60812C11.3004 4.45421 10.9022 4.375 10.5 4.375C10.0978 4.375 9.69959 4.45421 9.32803 4.60812C8.95647 4.76202 8.61887 4.98761 8.33449 5.27199C8.05011 5.55636 7.82452 5.89397 7.67062 6.26553C7.51671 6.63709 7.4375 7.03533 7.4375 7.4375V7.875H8.3125V7.4375C8.3125 6.85734 8.54297 6.30094 8.9532 5.8907C9.36344 5.48047 9.91984 5.25 10.5 5.25C11.0802 5.25 11.6366 5.48047 12.0468 5.8907C12.457 6.30094 12.6875 6.85734 12.6875 7.4375V7.875H13.5625ZM7.4375 8.75H16.1875V17.5H4.8125V8.75H6.5625V7.875H4.8125C4.58044 7.875 4.35788 7.96719 4.19378 8.13128C4.02969 8.29538 3.9375 8.51794 3.9375 8.75V17.5C3.9375 17.7321 4.02969 17.9546 4.19378 18.1187C4.35788 18.2828 4.58044 18.375 4.8125 18.375H16.1875C16.4196 18.375 16.6421 18.2828 16.8062 18.1187C16.9703 17.9546 17.0625 17.7321 17.0625 17.5V8.75C17.0625 8.51794 16.9703 8.29538 16.8062 8.13128C16.6421 7.96719 16.4196 7.875 16.1875 7.875H7.4375V8.75Z" fill="#175067"/>
<path fill-rule="evenodd" clip-rule="evenodd" d="M14.4375 11.375H6.5625V10.5H14.4375V11.375ZM14.4375 13.5625H6.5625V12.6875H14.4375V13.5625ZM14.4375 15.75H6.5625V14.875H14.4375V15.75Z" fill="#EFB86E"/>
</svg>
