<svg width="187" height="52" viewBox="0 0 187 52" fill="none" xmlns="http://www.w3.org/2000/svg">
<path d="M41.1396 13.8398H44.861V32.814H41.1396V13.8398Z" fill="#175067"/>
<path d="M59.5565 28.4826C59.3063 30.0438 58.6849 31.2262 57.6617 32.0296C56.6385 32.8329 55.2061 33.2422 53.2923 33.2422C50.9883 33.2422 49.2565 32.6043 48.0969 31.3285C46.9373 30.0527 46.3562 28.2451 46.3537 25.9057C46.3366 24.8429 46.5085 23.7856 46.8615 22.7831C47.1685 21.9173 47.6525 21.1248 48.2826 20.4563C48.8969 19.818 49.6449 19.3236 50.4729 19.0087C51.3745 18.6728 52.3303 18.5058 53.2923 18.5161C55.417 18.5161 57.0162 19.1274 58.0899 20.3502C59.1636 21.573 59.6992 23.2214 59.6967 25.2956V26.781H50.094C50.0715 27.7256 50.3723 28.6494 50.9466 29.3996C51.4772 30.0287 52.2742 30.3432 53.3378 30.3432C54.8082 30.3432 55.676 29.723 55.9412 28.4826H59.5565ZM56.1269 24.3368C56.1765 23.5312 55.9253 22.7358 55.4221 22.1048C54.9522 21.5742 54.2246 21.309 53.2317 21.309C52.7855 21.2994 52.342 21.3806 51.9281 21.5477C51.5712 21.6962 51.2497 21.9183 50.9845 22.1995C50.7255 22.4765 50.5223 22.8007 50.3858 23.1545C50.2426 23.533 50.1619 23.9323 50.147 24.3368H56.1269Z" fill="#175067"/>
<path d="M65.0666 33.6931C65.1185 33.9918 65.2223 34.2791 65.3735 34.5419C65.504 34.7528 65.6868 34.9264 65.9041 35.0459C66.1528 35.1787 66.4238 35.2648 66.7036 35.2998C67.0805 35.3497 67.4604 35.3725 67.8405 35.368C68.4064 35.4015 68.9699 35.2699 69.4624 34.9891C69.844 34.7396 70.1444 34.3839 70.3264 33.9659C70.5211 33.5006 70.6376 33.0064 70.6713 32.5031C70.713 31.9537 70.7357 31.389 70.7357 30.8017V30.3772C70.2928 31.031 69.6831 31.5543 68.9698 31.893C68.2093 32.2501 67.3769 32.4277 66.5369 32.4122C64.5891 32.4122 63.1326 31.7806 62.1676 30.5174C61.2025 29.2543 60.7187 27.5629 60.7162 25.4432C60.7077 24.4965 60.847 23.5541 61.1292 22.6504C61.3787 21.851 61.7802 21.1072 62.3116 20.46C62.8274 19.8451 63.475 19.3542 64.2063 19.0238C65.0036 18.6684 65.8688 18.4913 66.7415 18.5046C67.4851 18.5049 68.2214 18.6503 68.9092 18.9328C69.6808 19.2705 70.3461 19.8115 70.8342 20.4979V18.9442H74.4495V30.8737C74.4587 31.9265 74.3313 32.9761 74.0705 33.9962C73.8654 34.8453 73.4774 35.6394 72.9336 36.323C72.3897 36.976 71.6841 37.4751 70.8873 37.7706C69.9035 38.1236 68.8626 38.2906 67.8178 38.2632C66.8578 38.2788 65.8991 38.1847 64.9604 37.9828C64.2591 37.8352 63.5951 37.5464 63.0089 37.134C62.5011 36.7603 62.0937 36.2669 61.8227 35.6977C61.5331 35.0638 61.3501 34.3865 61.2808 33.6931H65.0666ZM70.7509 25.4016C70.7733 24.7175 70.6798 24.0346 70.4742 23.3817C70.33 22.9341 70.0789 22.5284 69.7429 22.1994C69.4591 21.9321 69.1102 21.744 68.731 21.6537C68.3664 21.5648 67.9923 21.5203 67.6169 21.5211C67.2218 21.519 66.8298 21.591 66.4611 21.7333C66.0894 21.8803 65.7599 22.1172 65.5024 22.423C65.2058 22.7835 64.9841 23.1997 64.8506 23.647C64.6798 24.2249 64.5993 24.8257 64.6118 25.4281C64.6118 26.8984 64.8923 27.9368 65.4493 28.5507C65.7099 28.8459 66.0317 29.0809 66.3923 29.2392C66.7529 29.3976 67.1436 29.4756 67.5374 29.4677C67.9748 29.4706 68.4099 29.4028 68.8258 29.2669C69.2134 29.1407 69.5645 28.9222 69.849 28.6302C70.1519 28.3054 70.3785 27.917 70.5121 27.4934C70.6838 26.9391 70.7644 26.3606 70.7509 25.7805V25.4016Z" fill="#175067"/>
<path d="M84.6434 31.0593C84.1158 31.6627 83.4923 32.1749 82.7979 32.5752C81.9793 32.9966 81.0651 33.1977 80.1452 33.1588C79.5471 33.1617 78.9515 33.0814 78.3755 32.92C77.8422 32.7704 77.3456 32.5124 76.9165 32.1621C76.4903 31.8143 76.1494 31.3736 75.9199 30.8737C75.6547 30.2847 75.5252 29.6436 75.5409 28.9978C75.5046 28.1712 75.7272 27.3538 76.1776 26.6597C76.6046 26.0538 77.1818 25.5693 77.8525 25.2538C78.588 24.9026 79.3704 24.6601 80.1755 24.5338C81.0424 24.3935 81.9168 24.3049 82.7941 24.2685L84.5752 24.1889V23.4992C84.5752 22.6479 84.3402 22.063 83.8703 21.7447C83.3787 21.4199 82.7995 21.2533 82.2105 21.2672C80.7402 21.2672 79.8989 21.8243 79.6867 22.9384L76.2761 22.6201C76.5287 21.1674 77.1666 20.1177 78.1898 19.471C79.213 18.8242 80.5949 18.5008 82.3356 18.5008C83.2534 18.4771 84.1689 18.6051 85.0451 18.8798C85.7241 19.0968 86.3405 19.4752 86.8413 19.9825C87.3011 20.4768 87.6375 21.0728 87.8228 21.7219C88.0363 22.4697 88.1397 23.2446 88.1298 24.0222V32.8139H84.6206L84.6434 31.0593ZM84.5638 26.6218L82.9154 26.7014C82.2775 26.7196 81.643 26.7995 81.0206 26.9401C80.6281 27.0283 80.2546 27.1861 79.9178 27.4062C79.6829 27.5661 79.5019 27.7933 79.3987 28.058C79.3084 28.3227 79.2635 28.6007 79.266 28.8804C79.2564 29.0871 79.2948 29.2933 79.3783 29.4827C79.4618 29.672 79.5881 29.8395 79.7473 29.9718C80.1286 30.2568 80.5984 30.3978 81.0736 30.3697C81.9043 30.4074 82.7247 30.1747 83.4118 29.7065C83.7513 29.4545 84.033 29.1328 84.2379 28.7629C84.4632 28.324 84.5728 27.8349 84.5562 27.3418L84.5638 26.6218Z" fill="#175067"/>
<path d="M89.9824 13.8398H93.7037V20.6155C94.1854 19.9431 94.8253 19.3998 95.5669 19.0337C96.3085 18.6675 97.1289 18.4897 97.9556 18.5161C99.8883 18.5161 101.333 19.1717 102.291 20.4829C103.248 21.7941 103.725 23.5929 103.719 25.8792C103.731 26.8943 103.593 27.9056 103.31 28.8805C103.065 29.7261 102.658 30.5163 102.113 31.2073C101.606 31.851 100.957 32.3696 100.218 32.7231C99.4279 33.0896 98.565 33.2723 97.6941 33.2574C96.9555 33.2575 96.224 33.112 95.5417 32.8292C94.7753 32.4885 94.1078 31.9592 93.6014 31.2907V32.814H89.9862L89.9824 13.8398ZM93.6772 25.9929C93.6578 26.7223 93.7343 27.451 93.9046 28.1605C94.0305 28.6547 94.2826 29.1078 94.636 29.4755C94.9395 29.7662 95.3087 29.9794 95.7122 30.0969C96.0716 30.1949 96.4425 30.2446 96.815 30.2447C97.2162 30.2457 97.6135 30.1645 97.9821 30.006C98.3647 29.84 98.6986 29.5791 98.9522 29.2481C99.2555 28.8481 99.477 28.3922 99.6041 27.9066C99.7759 27.2565 99.8563 26.5856 99.8428 25.9133C99.8566 25.2244 99.7815 24.5366 99.6192 23.867C99.499 23.3837 99.2868 22.9282 98.9939 22.5255C98.7524 22.1934 98.4267 21.9318 98.0503 21.7676C97.6893 21.6206 97.3033 21.5447 96.9135 21.544C96.5065 21.5345 96.101 21.5974 95.716 21.7297C95.3579 21.8667 95.0259 22.0641 94.7345 22.3132C94.3687 22.6653 94.0987 23.1049 93.9501 23.5903C93.7628 24.2285 93.6771 24.8922 93.6962 25.5571L93.6772 25.9929Z" fill="#175067"/>
<path d="M105.235 13.8398H108.957V32.814H105.235V13.8398Z" fill="#175067"/>
<path d="M123.656 28.4826C123.403 30.0438 122.772 31.2262 121.761 32.0296C120.751 32.8329 119.294 33.2372 117.392 33.2422C115.088 33.2422 113.356 32.6043 112.196 31.3285C111.037 30.0527 110.456 28.2451 110.453 25.9057C110.436 24.8429 110.608 23.7856 110.961 22.7831C111.268 21.9173 111.752 21.1248 112.382 20.4563C112.996 19.818 113.744 19.3236 114.573 19.0087C115.474 18.6728 116.43 18.5058 117.392 18.5161C119.519 18.5161 121.118 19.1274 122.189 20.3502C123.261 21.573 123.799 23.2214 123.804 25.2956V26.781H114.194C114.171 27.7256 114.472 28.6494 115.046 29.3996C115.577 30.0287 116.374 30.3432 117.437 30.3432C118.908 30.3432 119.776 29.723 120.041 28.4826H123.656ZM120.227 24.3368C120.276 23.5312 120.025 22.7358 119.522 22.1048C119.052 21.5742 118.322 21.309 117.331 21.309C116.885 21.2994 116.442 21.3806 116.028 21.5477C115.672 21.6977 115.352 21.9211 115.088 22.2033C114.829 22.4803 114.626 22.8045 114.489 23.1582C114.346 23.5368 114.265 23.9361 114.25 24.3406L120.227 24.3368Z" fill="#175067"/>
<path d="M16.7309 28.8688C16.5907 28.1109 17.1402 26.1479 17.5116 25.2081C18.3353 23.0836 19.5213 21.118 21.0169 19.3988C20.9752 19.5352 20.9335 19.6716 20.8956 19.808C20.5907 20.9481 20.4503 22.1259 20.4788 23.3058C20.6696 22.1745 21.0231 21.0768 21.5285 20.0468C21.7803 19.5467 22.0677 19.0655 22.3887 18.6067C22.7093 18.1554 23.06 17.7262 23.4384 17.3221C24.1064 16.627 24.8724 16.0333 25.7121 15.56C26.6759 15.0027 27.6912 14.5395 28.7438 14.1768C29.2756 13.9943 29.8186 13.8462 30.3695 13.7334H21.4868C19.4307 13.7364 17.4598 14.5548 16.0063 16.009C14.5528 17.4632 13.7354 19.4345 13.7334 21.4906V33.636L16.7309 28.8688Z" fill="#EFB86E"/>
<path d="M34.6742 14.0367L34.443 14.2413C34.3672 14.3133 34.3104 14.3778 34.2421 14.446L34.1474 14.5483L34.0602 14.6468L33.8859 14.8439C33.7798 14.9765 33.6661 15.1053 33.5676 15.2228C33.1621 15.742 32.8097 16.2498 32.4308 16.7386C31.6994 17.7429 30.9794 18.7206 30.1798 19.6301C29.4067 20.549 28.5146 21.3607 27.5271 22.044C27.0254 22.3791 26.4845 22.6515 25.9165 22.8549C25.3368 23.0598 24.7275 23.1686 24.1127 23.1771C24.7399 23.2821 25.3803 23.2821 26.0075 23.1771C26.6425 23.0746 27.2624 22.8938 27.853 22.6389C28.0538 22.5518 28.2319 22.4608 28.4442 22.3623C27.9565 23.0665 27.4209 23.7363 26.8412 24.367C25.8722 25.4497 24.559 26.1645 23.1237 26.3906C22.622 26.4645 22.1147 26.4936 21.6078 26.4777C22.1047 26.6058 22.612 26.6895 23.1237 26.7279C23.6505 26.7598 24.1792 26.7331 24.7001 26.6483L24.9464 26.599C22.6234 28.4256 20.9106 28.6454 19.9708 28.7174H19.9215C19.3712 28.7791 18.8383 28.9477 18.3526 29.2138C18.719 28.4938 19.1105 27.7877 19.5274 27.0954C20.4464 25.5717 21.4815 24.1211 22.6234 22.7564C23.1944 22.0794 23.7906 21.42 24.4121 20.7783C25.0449 20.153 25.6892 19.5391 26.3713 18.9631C27.734 17.8056 29.2019 16.778 30.7558 15.8936C29.1582 16.717 27.6409 17.6875 26.2235 18.7926C25.5148 19.3421 24.8403 19.9294 24.1771 20.5433C23.514 21.1572 22.8925 21.8052 22.2824 22.4722C21.0752 23.8116 19.973 25.242 18.9855 26.7506C18.489 27.5085 18.0192 28.2664 17.5834 29.0736C17.3674 29.4525 17.1589 29.8694 16.9543 30.2786C16.8179 30.5553 16.689 30.8281 16.5753 31.1123C15.9084 32.4273 15.3134 33.8673 15.3134 33.8673C14.8983 34.1266 14.5326 34.4577 14.2334 34.845H26.6328C28.8165 34.842 30.9098 33.973 32.4536 32.4285C33.9973 30.884 34.8654 28.7903 34.8674 26.6066V13.8965L34.6742 14.0367Z" fill="#175067"/>
<path d="M125.551 19.0575H124.793V18.5156H126.961V19.0575H126.203V20.9334H125.517L125.551 19.0575Z" fill="#175067"/>
<path d="M129.413 20.9331V19.6522L128.788 20.6868H128.481L127.863 19.6788V20.9255H127.215V18.5078H127.779L128.628 19.9024L129.458 18.5078H130.019V20.9255L129.413 20.9331Z" fill="#175067"/>
<path d="M185.122 16.7594L177.321 14L169.595 16.7221C168.611 17.1808 167.753 17.4545 167.753 18.3603V22.8653C167.743 26.0295 168.625 29.1323 170.299 31.8179C171.983 34.555 174.463 36.712 177.408 38C180.567 36.9888 182.921 34.298 184.364 31.9938C186.036 29.3076 186.917 26.2051 186.908 23.0413V18.9894C186.897 17.699 186.202 17.0699 185.122 16.7594Z" fill="#89A79A"/>
<path d="M185.122 16.7594L177.321 14L169.595 16.7221C168.611 17.1808 167.753 17.4545 167.753 18.3603V22.8653C167.743 26.0295 168.625 29.1323 170.299 31.8179C171.983 34.555 174.463 36.712 177.408 38C180.567 36.9888 182.921 34.298 184.364 31.9938C186.036 29.3076 186.917 26.2051 186.908 23.0413V18.9894C186.897 17.699 186.202 17.0699 185.122 16.7594Z" fill="url(#paint0_linear_406_7441)" fill-opacity="0.2"/>
<path d="M179.4 24.0318C179.403 23.5269 179.229 23.0368 178.909 22.6468C178.588 22.2568 178.141 21.9915 177.645 21.8973C177.149 21.8031 176.635 21.8857 176.194 22.131C175.753 22.3762 175.411 22.7684 175.229 23.2394C175.083 23.614 175.044 24.022 175.118 24.4174C175.192 24.8127 175.374 25.1796 175.645 25.4765C175.916 25.7736 176.264 25.9892 176.651 26.099V29.3302H177.831V26.0985C178.282 25.9718 178.679 25.7014 178.962 25.3284C179.245 24.9554 179.399 24.5001 179.4 24.0318Z" fill="white"/>
<defs>
<linearGradient id="paint0_linear_406_7441" x1="170.273" y1="11.9837" x2="183.127" y2="40.4645" gradientUnits="userSpaceOnUse">
<stop stop-color="white"/>
<stop offset="1" stop-color="white" stop-opacity="0"/>
</linearGradient>
</defs>
</svg>
