<svg width="72" height="72" viewBox="0 0 72 72" fill="none" xmlns="http://www.w3.org/2000/svg">
<path d="M58.5 72H13.5C6.04358 72 0 65.9564 0 58.5V13.5C0 6.04358 6.04358 0 13.5 0H58.5C65.9564 0 72 6.04358 72 13.5V58.5C72 65.9564 65.9564 72 58.5 72Z" fill="#D7E8EF"/>
<path d="M49.0939 26.6298H36.1057L33.5222 23.5592C33.4352 23.4547 33.305 23.3961 33.1692 23.4004H22.6904C21.0905 23.412 19.7998 24.7122 19.7998 26.3121V45.198C19.8017 46.8034 21.1027 48.1043 22.708 48.1062H49.0939C50.6993 48.1043 52.0002 46.8034 52.0022 45.198V29.538C52.0002 27.9327 50.6993 26.6317 49.0939 26.6298Z" fill="#175067"/>
<rect x="25.2002" y="39.4377" width="10.8" height="3.6" rx="1.8" fill="white"/>
</svg>
