<svg width="15" height="18" viewBox="0 0 15 18" fill="none" xmlns="http://www.w3.org/2000/svg">
<path d="M7.158 3.57745e-05C5.82336 0.00532569 4.54517 0.539154 3.60321 1.48467C2.66126 2.43019 2.13225 3.71038 2.132 5.04504V6.53304H0.965C0.709401 6.53356 0.464407 6.63526 0.283577 6.81591C0.102748 6.99655 0.000792422 7.24144 0 7.49704V16.686C0.000792422 16.9416 0.102748 17.1865 0.283577 17.3672C0.464407 17.5478 0.709401 17.6495 0.965 17.65H13.391C13.6464 17.6492 13.8912 17.5474 14.0718 17.3668C14.2524 17.1862 14.3542 16.9415 14.355 16.686V7.49603C14.3539 7.24078 14.252 6.9963 14.0714 6.8159C13.8908 6.63551 13.6463 6.53382 13.391 6.53304H12.223V5.04504C12.2229 4.38087 12.0916 3.72326 11.8368 3.10992C11.582 2.49659 11.2086 1.93959 10.738 1.47089C10.2674 1.00218 9.70897 0.63098 9.09463 0.378578C8.48029 0.126175 7.82216 -0.00246507 7.158 3.57745e-05ZM7.17 2.89304C7.45328 2.89198 7.73398 2.94687 7.99599 3.05454C8.25801 3.16222 8.49619 3.32057 8.69687 3.52051C8.89755 3.72044 9.05678 3.95803 9.16543 4.21965C9.27408 4.48126 9.33 4.76176 9.33 5.04504V6.53304H5.025V5.04504C5.025 4.4755 5.25076 3.92919 5.65283 3.52581C6.0549 3.12243 6.60047 2.89489 7.17 2.89304ZM7.167 10.174C7.45022 10.1723 7.72602 10.2645 7.9512 10.4363C8.17639 10.6081 8.33825 10.8497 8.41142 11.1233C8.4846 11.3969 8.46496 11.6871 8.35559 11.9483C8.24621 12.2096 8.05328 12.4272 7.807 12.567V13.812C7.80052 13.9746 7.73136 14.1284 7.61402 14.2412C7.49667 14.354 7.34024 14.4169 7.1775 14.4169C7.01476 14.4169 6.85833 14.354 6.74099 14.2412C6.62364 14.1284 6.55448 13.9746 6.548 13.812V12.567C6.30327 12.4281 6.11116 12.2123 6.0014 11.9532C5.89164 11.694 5.87035 11.4059 5.94083 11.1334C6.01131 10.8609 6.16963 10.6193 6.39129 10.4459C6.61294 10.2724 6.88558 10.1769 7.167 10.174Z" fill="#667085" fill-opacity="0.5"/>
</svg>
