<svg width="18" height="18" viewBox="0 0 18 18" fill="none" xmlns="http://www.w3.org/2000/svg">
<path d="M11.5 5.875C11.5 7.36684 10.9074 8.79758 9.85248 9.85248C8.79758 10.9074 7.36684 11.5 5.875 11.5C4.38316 11.5 2.95242 10.9074 1.89752 9.85248C0.842632 8.79758 0.25 7.36684 0.25 5.875C0.25 4.38316 0.842632 2.95242 1.89752 1.89752C2.95242 0.842632 4.38316 0.25 5.875 0.25C7.36684 0.25 8.79758 0.842632 9.85248 1.89752C10.9074 2.95242 11.5 4.38316 11.5 5.875V5.875ZM6.5 3.375C6.5 3.20924 6.43415 3.05027 6.31694 2.93306C6.19973 2.81585 6.04076 2.75 5.875 2.75C5.70924 2.75 5.55027 2.81585 5.43306 2.93306C5.31585 3.05027 5.25 3.20924 5.25 3.375V5.25H3.375C3.20924 5.25 3.05027 5.31585 2.93306 5.43306C2.81585 5.55027 2.75 5.70924 2.75 5.875C2.75 6.04076 2.81585 6.19973 2.93306 6.31694C3.05027 6.43415 3.20924 6.5 3.375 6.5H5.25V8.375C5.25 8.54076 5.31585 8.69973 5.43306 8.81694C5.55027 8.93415 5.70924 9 5.875 9C6.04076 9 6.19973 8.93415 6.31694 8.81694C6.43415 8.69973 6.5 8.54076 6.5 8.375V6.5H8.375C8.54076 6.5 8.69973 6.43415 8.81694 6.31694C8.93415 6.19973 9 6.04076 9 5.875C9 5.70924 8.93415 5.55027 8.81694 5.43306C8.69973 5.31585 8.54076 5.25 8.375 5.25H6.5V3.375ZM14.625 4H12.4913C12.3689 3.56821 12.2044 3.14952 12 2.75H14.625C15.4538 2.75 16.2487 3.07924 16.8347 3.66529C17.4208 4.25134 17.75 5.0462 17.75 5.875V11.2325C17.7496 11.7296 17.5517 12.2062 17.2 12.5575L12.5575 17.2012C12.206 17.5525 11.7294 17.7499 11.2325 17.75H5.875C5.0462 17.75 4.25134 17.4208 3.66529 16.8347C3.07924 16.2487 2.75 15.4538 2.75 14.625V12C3.14625 12.2025 3.56375 12.3675 4 12.4913V14.625C4 15.1223 4.19754 15.5992 4.54917 15.9508C4.90081 16.3025 5.37772 16.5 5.875 16.5H10.25V14C10.25 13.0054 10.6451 12.0516 11.3483 11.3483C12.0516 10.6451 13.0054 10.25 14 10.25H16.5V5.875C16.5 5.37772 16.3025 4.90081 15.9508 4.54917C15.5992 4.19754 15.1223 4 14.625 4V4ZM11.5 16.44C11.5649 16.4095 11.6241 16.3681 11.675 16.3175L16.3175 11.6737C16.368 11.6233 16.4094 11.5645 16.44 11.5H14C13.337 11.5 12.7011 11.7634 12.2322 12.2322C11.7634 12.7011 11.5 13.337 11.5 14V16.44Z" fill="#175067"/>
</svg>
