<svg width="16" height="20" viewBox="0 0 16 20" fill="none" xmlns="http://www.w3.org/2000/svg">
<path d="M10.8125 0.625H2.375C1.33862 0.625 0.5 1.46362 0.5 2.5V17.5C0.5 18.5364 1.33862 19.375 2.375 19.375H13.625C14.6614 19.375 15.5 18.5364 15.5 17.5V5.3125L10.8125 0.625ZM5.1875 8.125C5.70386 8.125 6.125 8.54614 6.125 9.0625C6.125 9.57886 5.70386 10 5.1875 10C4.67114 10 4.25 9.57886 4.25 9.0625C4.25 8.54614 4.67114 8.125 5.1875 8.125ZM3.3125 14.6875L6.125 10.9375L8 12.8125L9.875 10L12.6875 14.6875H3.3125Z" fill="#FF5F5F"/>
</svg>
