<svg width="21" height="20" viewBox="0 0 21 20" fill="none" xmlns="http://www.w3.org/2000/svg">
<path d="M12.0084 0.0973313C11.9053 0.0135411 11.7695 -0.0184915 11.6398 0.010403L0.337381 2.61866C0.138461 2.66438 -0.00189607 2.84232 1.93665e-05 3.04641V17.8265C0.000100874 18.041 0.156637 18.2234 0.368639 18.256L11.6711 19.9949C11.9084 20.0314 12.1303 19.8686 12.1668 19.6313C12.1701 19.6095 12.1718 19.5875 12.1718 19.5654V0.438157C12.1723 0.305584 12.1121 0.180103 12.0084 0.0973313Z" fill="#567DF4"/>
<path d="M5.14134 12.5189H4.01522L2.60938 7.49805H3.64942L4.61056 11.2207L5.65777 7.49805H6.50415L7.55854 11.2207L8.51968 7.49805H9.55972L8.15387 12.5189H7.02776L6.08096 9.20515L5.14134 12.5189Z" fill="white"/>
<path d="M20.4317 18.2611H11.7375C11.4974 18.2611 11.3027 18.0665 11.3027 17.8264C11.3027 17.5863 11.4974 17.3917 11.7375 17.3917H19.9969V2.61159H11.7375C11.4974 2.61159 11.3027 2.41695 11.3027 2.17687C11.3027 1.93679 11.4974 1.74219 11.7375 1.74219H20.4316C20.6717 1.74219 20.8663 1.93683 20.8663 2.17691V17.8264C20.8663 18.0665 20.6717 18.2611 20.4317 18.2611Z" fill="#567DF4"/>
<path d="M18.6918 5.22003H11.7365C11.4964 5.22003 11.3018 5.02539 11.3018 4.78531C11.3018 4.54523 11.4964 4.35059 11.7365 4.35059H18.6918C18.9319 4.35059 19.1266 4.54523 19.1266 4.78531C19.1266 5.02543 18.9319 5.22003 18.6918 5.22003Z" fill="#567DF4"/>
<path d="M18.6909 7.82843H11.7355C11.4954 7.82843 11.3008 7.63379 11.3008 7.39371C11.3008 7.15363 11.4954 6.95898 11.7355 6.95898H18.6909C18.9309 6.95898 19.1256 7.15363 19.1256 7.39371C19.1256 7.63379 18.9309 7.82843 18.6909 7.82843Z" fill="#567DF4"/>
<path d="M18.6909 10.4368H11.7355C11.4954 10.4368 11.3008 10.2422 11.3008 10.0021C11.3008 9.76202 11.4954 9.56738 11.7355 9.56738H18.6909C18.9309 9.56738 19.1256 9.76202 19.1256 10.0021C19.1256 10.2422 18.9309 10.4368 18.6909 10.4368Z" fill="#567DF4"/>
<path d="M18.6909 13.0452H11.7355C11.4954 13.0452 11.3008 12.8506 11.3008 12.6105C11.3008 12.3704 11.4954 12.1758 11.7355 12.1758H18.6909C18.9309 12.1758 19.1256 12.3704 19.1256 12.6105C19.1256 12.8506 18.9309 13.0452 18.6909 13.0452Z" fill="#567DF4"/>
<path d="M18.6909 15.6536H11.7355C11.4954 15.6536 11.3008 15.459 11.3008 15.2189C11.3008 14.9788 11.4954 14.7842 11.7355 14.7842H18.6909C18.9309 14.7842 19.1256 14.9788 19.1256 15.2189C19.1256 15.459 18.9309 15.6536 18.6909 15.6536Z" fill="#567DF4"/>
</svg>
