<svg width="25" height="25" viewBox="0 0 25 25" fill="none" xmlns="http://www.w3.org/2000/svg">
<path d="M7.56275 17.4688H9.40338C9.55025 17.4688 9.69088 17.4031 9.78775 17.2906L12.5003 14.0563L15.2127 17.2906C15.3065 17.4031 15.4471 17.4688 15.5971 17.4688H17.4378C17.6503 17.4688 17.7659 17.2219 17.6284 17.0594L13.8065 12.5L17.6315 7.94063C17.769 7.77813 17.6534 7.53125 17.4409 7.53125H15.6003C15.4534 7.53125 15.3128 7.59688 15.2159 7.70938L12.5003 10.9438L9.78775 7.70938C9.694 7.59688 9.55338 7.53125 9.40338 7.53125H7.56275C7.35025 7.53125 7.23463 7.77813 7.37213 7.94063L11.194 12.5L7.37213 17.0594C7.34132 17.0956 7.32156 17.1399 7.31519 17.187C7.30882 17.2341 7.3161 17.2821 7.33617 17.3252C7.35624 17.3683 7.38826 17.4047 7.42842 17.4302C7.46858 17.4556 7.5152 17.469 7.56275 17.4688V17.4688Z" fill="#FB8B24"/>
<path d="M24 0H1C0.446875 0 0 0.446875 0 1V24C0 24.5531 0.446875 25 1 25H24C24.5531 25 25 24.5531 25 24V1C25 0.446875 24.5531 0 24 0ZM22.75 22.75H2.25V2.25H22.75V22.75Z" fill="#FB8B24"/>
</svg>
