<svg width="32" height="32" viewBox="0 0 32 32" fill="none" xmlns="http://www.w3.org/2000/svg">
<path d="M11.0628 20.9688H12.9034C13.0503 20.9688 13.1909 20.9031 13.2878 20.7906L16.0003 17.5563L18.7127 20.7906C18.8065 20.9031 18.9471 20.9688 19.0971 20.9688H20.9378C21.1503 20.9688 21.2659 20.7219 21.1284 20.5594L17.3065 16L21.1315 11.4406C21.269 11.2781 21.1534 11.0312 20.9409 11.0312H19.1003C18.9534 11.0312 18.8128 11.0969 18.7159 11.2094L16.0003 14.4438L13.2878 11.2094C13.194 11.0969 13.0534 11.0312 12.9034 11.0312H11.0628C10.8503 11.0312 10.7346 11.2781 10.8721 11.4406L14.694 16L10.8721 20.5594C10.8413 20.5956 10.8216 20.6399 10.8152 20.687C10.8088 20.7341 10.8161 20.7821 10.8362 20.8252C10.8562 20.8683 10.8883 20.9047 10.9284 20.9302C10.9686 20.9556 11.0152 20.969 11.0628 20.9688Z" fill="#FB8B24"/>
<path d="M27.5 3.5H4.5C3.94687 3.5 3.5 3.94687 3.5 4.5V27.5C3.5 28.0531 3.94687 28.5 4.5 28.5H27.5C28.0531 28.5 28.5 28.0531 28.5 27.5V4.5C28.5 3.94687 28.0531 3.5 27.5 3.5ZM26.25 26.25H5.75V5.75H26.25V26.25Z" fill="#FB8B24"/>
</svg>
