<svg width="108" height="141" viewBox="0 0 108 141" fill="none" xmlns="http://www.w3.org/2000/svg">
<g filter="url(#filter0_ddd_166_5717)">
<path d="M78.066 57.9781H29.931V29.0332C30.0279 22.8927 32.6061 17.0342 37.1101 12.7251C41.6128 8.41601 47.6783 6 53.9991 6C60.3188 6 66.3854 8.41601 70.8882 12.7251C75.391 17.0342 77.9692 22.8927 78.066 29.0332V57.9781ZM39.5939 48.5876H68.4044V29.0332C68.3294 25.3692 66.7788 21.8796 64.0856 19.3135C61.3924 16.7474 57.7708 15.3094 53.9991 15.3094C50.2274 15.3094 46.6058 16.7462 43.9126 19.3123C41.2195 21.8784 39.6689 25.3692 39.5939 29.0332V48.5876Z" fill="#44474E"/>
<path d="M28.8613 38.9441H79.1375C81.447 38.9441 83.6621 39.8459 85.2949 41.4533C86.101 42.2434 86.7417 43.1861 87.1796 44.2265C87.6175 45.2668 87.8437 46.384 87.8453 47.5127V72.2538C87.8453 81.0875 84.2782 89.5605 77.9307 95.8075C71.5832 102.054 62.9735 105.563 53.997 105.563C45.0204 105.562 36.4131 102.052 30.0668 95.805C23.7194 89.558 20.1547 81.0875 20.1547 72.2538V47.5127C20.1547 45.2395 21.0722 43.0608 22.705 41.4533C24.3486 39.8419 26.5595 38.9408 28.8613 38.9441Z" fill="#D7E8EF"/>
</g>
<path fill-rule="evenodd" clip-rule="evenodd" d="M53.884 51.4321C44.1813 51.4321 36.3147 59.2975 36.3147 69.0015C36.3147 76.6405 41.1903 83.1404 47.9977 85.5613C47.6518 85.9911 47.4635 86.5263 47.4639 87.078V119.682C47.464 120.004 47.5281 120.322 47.6526 120.619C47.7771 120.915 47.9594 121.184 48.189 121.409L52.1555 125.306C52.3824 125.529 52.6511 125.705 52.9461 125.824C53.2411 125.943 53.5567 126.003 53.8748 126C54.1929 125.997 54.5074 125.931 54.8002 125.807C55.0929 125.682 55.3583 125.501 55.581 125.274L58.8238 121.966C59.267 121.513 59.5151 120.905 59.5149 120.271V114.461C59.5149 113.838 59.274 113.238 58.8419 112.787L58.3481 112.271C57.9579 111.864 57.7328 111.326 57.7162 110.763C57.6997 110.199 57.8929 109.649 58.2585 109.22C58.6096 108.809 58.8024 108.286 58.8024 107.745C58.8024 107.204 58.6096 106.681 58.2585 106.269L58.181 106.178C57.8333 105.767 57.6453 105.245 57.6513 104.707C57.6573 104.168 57.8569 103.65 58.2137 103.247C58.572 102.842 58.7704 102.321 58.7715 101.78C58.7726 101.24 58.5764 100.718 58.2198 100.312L58.1943 100.282C57.844 99.8866 57.6506 99.3762 57.6506 98.8475C57.6506 98.3189 57.844 97.8085 58.1943 97.4126L58.313 97.2782C58.6409 96.9079 58.8174 96.4278 58.8076 95.9333C58.7977 95.4388 58.6021 94.9661 58.2597 94.6092C57.9029 94.2371 57.7062 93.7401 57.7116 93.2246C57.717 92.7091 57.9242 92.2163 58.2887 91.8519L58.8068 91.335C59.2604 90.8809 59.5151 90.2653 59.5149 89.6235V87.078C59.5149 86.5974 59.3757 86.1496 59.1348 85.7731C66.2739 83.5411 71.4545 76.8765 71.4545 69.0015C71.4545 59.2975 63.588 51.4321 53.884 51.4321ZM53.9966 57.851C53.3244 57.8407 52.6568 57.9642 52.0328 58.2144C51.4088 58.4645 50.8407 58.8363 50.3617 59.308C49.8827 59.7798 49.5024 60.3421 49.2428 60.9622C48.9832 61.5824 48.8495 62.248 48.8496 62.9203C48.8497 63.5926 48.9835 64.2582 49.2432 64.8782C49.503 65.4983 49.8835 66.0606 50.3626 66.5322C50.8417 67.0038 51.4098 67.3755 52.0339 67.6255C52.658 67.8755 53.3256 67.9988 53.9978 67.9883C55.3285 67.9676 56.5977 67.4244 57.5314 66.476C58.465 65.5275 58.9883 64.25 58.9881 62.9191C58.988 61.5882 58.4644 60.3108 57.5305 59.3625C56.5966 58.4143 55.3273 57.8714 53.9966 57.851Z" fill="#EFB86E"/>
<mask id="mask0_166_5717" style="mask-type:alpha" maskUnits="userSpaceOnUse" x="36" y="51" width="36" height="75">
<path fill-rule="evenodd" clip-rule="evenodd" d="M53.8871 51.4321C44.1843 51.4321 36.3177 59.2975 36.3177 69.0015C36.3177 76.6405 41.1933 83.1404 48.0008 85.5613C47.6549 85.9911 47.4665 86.5263 47.467 87.078V119.682C47.467 120.004 47.5312 120.322 47.6556 120.619C47.7801 120.915 47.9625 121.184 48.192 121.409L52.1586 125.306C52.3855 125.529 52.6541 125.705 52.9491 125.824C53.2441 125.943 53.5597 126.003 53.8779 126C54.196 125.997 54.5104 125.931 54.8032 125.807C55.096 125.682 55.3613 125.501 55.5841 125.274L58.8268 121.966C59.2701 121.513 59.5182 120.905 59.518 120.271V114.461C59.518 113.838 59.2771 113.238 58.845 112.787L58.3511 112.271C57.961 111.864 57.7358 111.326 57.7193 110.763C57.7027 110.199 57.896 109.649 58.2615 109.22C58.6126 108.809 58.8055 108.286 58.8055 107.745C58.8055 107.204 58.6126 106.681 58.2615 106.269L58.1841 106.178C57.8364 105.767 57.6483 105.245 57.6543 104.707C57.6603 104.168 57.86 103.65 58.2168 103.247C58.5751 102.842 58.7734 102.321 58.7746 101.78C58.7757 101.24 58.5795 100.718 58.2228 100.312L58.1974 100.282C57.8471 99.8866 57.6537 99.3762 57.6537 98.8475C57.6537 98.3189 57.8471 97.8085 58.1974 97.4126L58.316 97.2782C58.6439 96.9079 58.8205 96.4278 58.8106 95.9333C58.8007 95.4388 58.6052 94.9661 58.2627 94.6092C57.906 94.2371 57.7092 93.7401 57.7146 93.2246C57.7201 92.7091 57.9273 92.2163 58.2918 91.8519L58.8099 91.335C59.2635 90.8809 59.5181 90.2653 59.518 89.6235V87.078C59.518 86.5974 59.3788 86.1496 59.1379 85.7731C66.277 83.5411 71.4576 76.8765 71.4576 69.0015C71.4576 59.2975 63.5911 51.4321 53.8871 51.4321ZM53.9996 57.851C53.3274 57.8407 52.6599 57.9642 52.0358 58.2144C51.4118 58.4645 50.8438 58.8363 50.3648 59.308C49.8858 59.7798 49.5054 60.3421 49.2458 60.9622C48.9862 61.5824 48.8526 62.248 48.8527 62.9203C48.8527 63.5926 48.9865 64.2582 49.2463 64.8782C49.506 65.4983 49.8865 66.0606 50.3656 66.5322C50.8447 67.0038 51.4129 67.3755 52.037 67.6255C52.661 67.8755 53.3286 67.9988 54.0008 67.9883C55.3316 67.9676 56.6008 67.4244 57.5344 66.476C58.4681 65.5275 58.9913 64.25 58.9912 62.9191C58.991 61.5882 58.4675 60.3108 57.5336 59.3625C56.5997 58.4143 55.3304 57.8714 53.9996 57.851Z" fill="#7773A2"/>
</mask>
<g mask="url(#mask0_166_5717)">
<path d="M53.8847 126.818V51.3572H35.8639V126.818H53.8847Z" fill="#175067"/>
</g>
<mask id="mask1_166_5717" style="mask-type:alpha" maskUnits="userSpaceOnUse" x="47" y="84" width="13" height="42">
<path d="M58.4769 122.358L56.4289 124.447C56.0947 124.788 55.6967 125.06 55.2576 125.246C54.8184 125.433 54.3468 125.532 53.8695 125.536C53.3923 125.54 52.9189 125.451 52.4764 125.272C52.0339 125.093 51.631 124.829 51.2906 124.495L48.5502 121.803C48.2061 121.465 47.9327 121.062 47.7461 120.617C47.5595 120.172 47.4633 119.695 47.4633 119.212V88.3259C47.4633 87.3628 47.8458 86.4391 48.5268 85.7582C49.2078 85.0772 50.1315 84.6946 51.0945 84.6946H55.883C56.846 84.6946 57.7697 85.0772 58.4507 85.7582C59.1317 86.4391 59.5142 87.3628 59.5142 88.3259V89.575C59.5142 90.2722 59.2383 90.9416 58.7444 91.4342L58.2881 91.8906C57.9236 92.255 57.7164 92.7478 57.7109 93.2633C57.7055 93.7788 57.9023 94.2758 58.259 94.6479C58.9683 95.3875 58.9926 96.5483 58.3123 97.3169L58.1937 97.4512C57.8434 97.8472 57.65 98.3575 57.65 98.8862C57.65 99.4148 57.8434 99.9252 58.1937 100.321L58.2191 100.35C58.9587 101.185 58.9526 102.449 58.213 103.285C57.8564 103.689 57.6568 104.206 57.6508 104.745C57.6448 105.283 57.8328 105.805 58.1804 106.216L58.2578 106.308C58.6089 106.719 58.8018 107.243 58.8018 107.783C58.8018 108.324 58.6089 108.847 58.2578 109.259C57.8922 109.688 57.699 110.238 57.7155 110.801C57.7321 111.365 57.9573 111.902 58.3474 112.309L58.7178 112.695C59.2298 113.229 59.5142 113.94 59.5142 114.679V119.815C59.5147 120.766 59.1423 121.679 58.4769 122.358Z" fill="#C4C4C4"/>
</mask>
<g mask="url(#mask1_166_5717)">
<path d="M52.3073 96.5217V127.156C52.3073 127.592 51.9545 127.944 51.5193 127.944H51.5181C51.0829 127.944 50.7301 127.592 50.7301 127.156V96.5217C50.7301 96.0865 51.0829 95.7337 51.5181 95.7337H51.5193C51.9545 95.7337 52.3073 96.0865 52.3073 96.5217Z" fill="#EFB86E"/>
</g>
<defs>
<filter id="filter0_ddd_166_5717" x="0.154663" y="0" width="107.691" height="140.563" filterUnits="userSpaceOnUse" color-interpolation-filters="sRGB">
<feFlood flood-opacity="0" result="BackgroundImageFix"/>
<feColorMatrix in="SourceAlpha" type="matrix" values="0 0 0 0 0 0 0 0 0 0 0 0 0 0 0 0 0 0 127 0" result="hardAlpha"/>
<feOffset dy="8"/>
<feGaussianBlur stdDeviation="7"/>
<feColorMatrix type="matrix" values="0 0 0 0 0.215686 0 0 0 0 0.231373 0 0 0 0 0.258824 0 0 0 0.15 0"/>
<feBlend mode="normal" in2="BackgroundImageFix" result="effect1_dropShadow_166_5717"/>
<feColorMatrix in="SourceAlpha" type="matrix" values="0 0 0 0 0 0 0 0 0 0 0 0 0 0 0 0 0 0 127 0" result="hardAlpha"/>
<feOffset/>
<feGaussianBlur stdDeviation="2"/>
<feColorMatrix type="matrix" values="0 0 0 0 0.215686 0 0 0 0 0.231373 0 0 0 0 0.258824 0 0 0 0.07 0"/>
<feBlend mode="normal" in2="effect1_dropShadow_166_5717" result="effect2_dropShadow_166_5717"/>
<feColorMatrix in="SourceAlpha" type="matrix" values="0 0 0 0 0 0 0 0 0 0 0 0 0 0 0 0 0 0 127 0" result="hardAlpha"/>
<feOffset dy="15"/>
<feGaussianBlur stdDeviation="10"/>
<feColorMatrix type="matrix" values="0 0 0 0 0 0 0 0 0 0 0 0 0 0 0 0 0 0 0.01 0"/>
<feBlend mode="normal" in2="effect2_dropShadow_166_5717" result="effect3_dropShadow_166_5717"/>
<feBlend mode="normal" in="SourceGraphic" in2="effect3_dropShadow_166_5717" result="shape"/>
</filter>
</defs>
</svg>
