<svg width="509" height="72" viewBox="0 0 509 72" fill="none" xmlns="http://www.w3.org/2000/svg">
<path d="M56.9619 19.1621H62.1145V45.4341H56.9619V19.1621Z" fill="#175067"/>
<path d="M82.463 39.4366C82.1167 41.5984 81.2562 43.2354 79.8395 44.3478C78.4228 45.4602 76.4394 46.0269 73.7896 46.0269C70.5994 46.0269 68.2015 45.1436 66.5959 43.3771C64.9903 41.6106 64.1858 39.1078 64.1823 35.8686C64.1585 34.3971 64.3966 32.9332 64.8854 31.545C65.3105 30.3462 65.9806 29.249 66.853 28.3233C67.7036 27.4395 68.7393 26.755 69.8858 26.319C71.1342 25.8539 72.4575 25.6227 73.7896 25.6368C76.7315 25.6368 78.9457 26.4834 80.4324 28.1764C81.9191 29.8695 82.6607 32.1519 82.6572 35.0238V37.0807H69.3611C69.33 38.3884 69.7465 39.6676 70.5417 40.7064C71.2763 41.5774 72.3799 42.0129 73.8526 42.0129C75.8884 42.0129 77.09 41.1541 77.4573 39.4366H82.463ZM77.7144 33.6963C77.783 32.5808 77.4353 31.4796 76.7385 30.6058C76.0878 29.8712 75.0804 29.5039 73.7057 29.5039C73.0878 29.4907 72.4737 29.6031 71.9007 29.8345C71.4066 30.0401 70.9614 30.3476 70.5942 30.737C70.2356 31.1205 69.9541 31.5694 69.7651 32.0592C69.5668 32.5834 69.4552 33.1363 69.4346 33.6963H77.7144Z" fill="#175067"/>
<path d="M90.0925 46.6513C90.1643 47.0649 90.3082 47.4627 90.5175 47.8266C90.6982 48.1186 90.9512 48.359 91.2521 48.5245C91.5965 48.7083 91.9718 48.8274 92.3592 48.876C92.881 48.945 93.407 48.9766 93.9333 48.9705C94.7169 49.0168 95.4971 48.8346 96.179 48.4457C96.7074 48.1003 97.1233 47.6078 97.3754 47.0291C97.6449 46.3848 97.8063 45.7005 97.8528 45.0037C97.9106 44.2429 97.9421 43.4611 97.9421 42.6478V42.0601C97.3288 42.9653 96.4846 43.6899 95.4969 44.1589C94.4439 44.6533 93.2914 44.8992 92.1283 44.8778C89.4313 44.8778 87.4147 44.0033 86.0785 42.2542C84.7422 40.5052 84.0724 38.1633 84.0689 35.2284C84.0571 33.9175 84.25 32.6128 84.6408 31.3614C84.9862 30.2545 85.5421 29.2247 86.2779 28.3286C86.992 27.4772 87.8887 26.7975 88.9014 26.3399C90.0053 25.8479 91.2032 25.6026 92.4117 25.6211C93.4412 25.6215 94.4607 25.8229 95.413 26.214C96.4814 26.6816 97.4026 27.4306 98.0785 28.381V26.2297H103.084V42.7475C103.097 44.2053 102.921 45.6586 102.559 47.071C102.275 48.2467 101.738 49.3461 100.985 50.2927C100.232 51.1968 99.2552 51.8879 98.1519 52.2971C96.7897 52.7858 95.3486 53.0171 93.9018 52.9792C92.5726 53.0007 91.2452 52.8704 89.9455 52.5909C88.9744 52.3865 88.055 51.9866 87.2433 51.4156C86.5403 50.8982 85.9761 50.2151 85.601 49.4269C85.2 48.5492 84.9465 47.6114 84.8507 46.6513H90.0925ZM97.963 35.1707C97.9941 34.2236 97.8646 33.278 97.58 32.374C97.3802 31.7543 97.0327 31.1924 96.5673 30.737C96.1745 30.3669 95.6914 30.1064 95.1664 29.9814C94.6614 29.8583 94.1435 29.7967 93.6237 29.7977C93.0766 29.7949 92.5338 29.8946 92.0234 30.0916C91.5086 30.2951 91.0525 30.6232 90.6959 31.0465C90.2852 31.5457 89.9784 32.1219 89.7934 32.7413C89.5569 33.5415 89.4454 34.3733 89.4628 35.2075C89.4628 37.2433 89.8511 38.681 90.6224 39.531C90.9833 39.9398 91.4288 40.2651 91.9281 40.4844C92.4274 40.7037 92.9684 40.8117 93.5136 40.8008C94.1193 40.8048 94.7217 40.7109 95.2975 40.5227C95.8342 40.348 96.3204 40.0454 96.7142 39.6412C97.1337 39.1914 97.4474 38.6536 97.6325 38.0671C97.8702 37.2996 97.9818 36.4987 97.963 35.6954V35.1707Z" fill="#175067"/>
<path d="M117.199 43.0049C116.468 43.8403 115.605 44.5495 114.643 45.1037C113.51 45.6872 112.244 45.9657 110.97 45.9117C110.142 45.9158 109.317 45.8046 108.52 45.5812C107.782 45.374 107.094 45.0167 106.5 44.5318C105.91 44.0502 105.438 43.44 105.12 42.7478C104.753 41.9322 104.573 41.0446 104.595 40.1505C104.545 39.0059 104.853 37.8742 105.477 36.9131C106.068 36.0741 106.867 35.4032 107.796 34.9664C108.814 34.4802 109.898 34.1444 111.012 33.9695C112.212 33.7752 113.423 33.6525 114.638 33.6022L117.104 33.492V32.537C117.104 31.3582 116.779 30.5484 116.128 30.1076C115.447 29.658 114.646 29.4273 113.83 29.4465C111.794 29.4465 110.629 30.2178 110.335 31.7605L105.613 31.3197C105.963 29.3083 106.846 27.8549 108.263 26.9594C109.68 26.0639 111.593 25.6162 114.003 25.6162C115.274 25.5833 116.542 25.7606 117.755 26.1409C118.695 26.4414 119.548 26.9653 120.242 27.6678C120.878 28.3521 121.344 29.1774 121.601 30.0762C121.896 31.1115 122.04 32.1844 122.026 33.2611V45.4343H117.167L117.199 43.0049ZM117.088 36.8606L114.806 36.9708C113.923 36.996 113.044 37.1067 112.182 37.3013C111.639 37.4234 111.122 37.642 110.655 37.9467C110.33 38.168 110.08 38.4827 109.937 38.8492C109.812 39.2157 109.75 39.6006 109.753 39.9878C109.74 40.2741 109.793 40.5596 109.908 40.8218C110.024 41.084 110.199 41.3158 110.419 41.499C110.947 41.8937 111.598 42.0889 112.256 42.0499C113.406 42.1021 114.542 41.78 115.493 41.1317C115.963 40.7828 116.353 40.3373 116.637 39.8252C116.949 39.2175 117.101 38.5402 117.078 37.8575L117.088 36.8606Z" fill="#175067"/>
<path d="M124.592 19.1621H129.744V28.5438C130.411 27.6128 131.297 26.8606 132.324 26.3536C133.351 25.8465 134.487 25.6004 135.632 25.637C138.308 25.637 140.308 26.5447 141.634 28.3602C142.96 30.1757 143.619 32.6663 143.612 35.832C143.629 37.2375 143.438 38.6378 143.046 39.9876C142.706 41.1585 142.143 42.2525 141.388 43.2093C140.685 44.1006 139.788 44.8187 138.764 45.3082C137.67 45.8156 136.475 46.0686 135.27 46.048C134.247 46.0481 133.234 45.8467 132.289 45.4551C131.228 44.9833 130.304 44.2504 129.603 43.3248V45.4341H124.597L124.592 19.1621ZM129.708 35.9894C129.681 36.9993 129.787 38.0084 130.022 38.9907C130.197 39.675 130.546 40.3023 131.035 40.8114C131.455 41.214 131.967 41.5092 132.525 41.6719C133.023 41.8075 133.536 41.8763 134.052 41.8766C134.608 41.878 135.158 41.7655 135.668 41.546C136.198 41.3161 136.66 40.955 137.012 40.4966C137.432 39.9428 137.738 39.3116 137.914 38.6392C138.152 37.739 138.263 36.8101 138.245 35.8792C138.264 34.9254 138.16 33.973 137.935 33.0458C137.769 32.3767 137.475 31.746 137.069 31.1884C136.735 30.7285 136.284 30.3663 135.763 30.1389C135.263 29.9355 134.728 29.8304 134.189 29.8294C133.625 29.8163 133.064 29.9034 132.531 30.0865C132.035 30.2762 131.575 30.5496 131.172 30.8945C130.665 31.382 130.291 31.9906 130.085 32.6628C129.826 33.5465 129.708 34.4654 129.734 35.386L129.708 35.9894Z" fill="#175067"/>
<path d="M145.711 19.1621H150.864V45.4341H145.711V19.1621Z" fill="#175067"/>
<path d="M171.217 39.4366C170.867 41.5984 169.993 43.2354 168.593 44.3478C167.194 45.4602 165.178 46.0199 162.544 46.0269C159.353 46.0269 156.955 45.1436 155.35 43.3771C153.744 41.6106 152.94 39.1078 152.936 35.8686C152.912 34.3971 153.15 32.9332 153.639 31.545C154.064 30.3462 154.734 29.249 155.607 28.3233C156.457 27.4395 157.493 26.755 158.64 26.319C159.888 25.8539 161.211 25.6227 162.544 25.6368C165.489 25.6368 167.703 26.4834 169.186 28.1764C170.669 29.8695 171.415 32.1519 171.422 35.0238V37.0807H158.115C158.084 38.3884 158.5 39.6676 159.296 40.7064C160.03 41.5774 161.134 42.0129 162.606 42.0129C164.642 42.0129 165.844 41.1541 166.211 39.4366H171.217ZM166.468 33.6963C166.537 32.5808 166.189 31.4796 165.492 30.6058C164.842 29.8712 163.831 29.5039 162.46 29.5039C161.842 29.4907 161.228 29.6031 160.655 29.8345C160.162 30.0422 159.718 30.3516 159.353 30.7422C158.995 31.1257 158.713 31.5746 158.524 32.0645C158.326 32.5886 158.214 33.1416 158.194 33.7016L166.468 33.6963Z" fill="#175067"/>
<path d="M23.166 39.9718C22.9719 38.9224 23.7327 36.2045 24.2469 34.9032C25.3875 31.9615 27.0297 29.2399 29.1005 26.8595C29.0427 27.0484 28.985 27.2373 28.9325 27.4262C28.5103 29.0047 28.316 30.6356 28.3554 32.2692C28.6196 30.7028 29.1091 29.1829 29.8088 27.7567C30.1574 27.0644 30.5555 26.398 30.9999 25.7628C31.4438 25.1379 31.9294 24.5436 32.4533 23.9841C33.3782 23.0217 34.4388 22.1997 35.6016 21.5442C36.9361 20.7726 38.3418 20.1312 39.7992 19.629C40.5356 19.3764 41.2875 19.1714 42.0502 19.0151H29.7511C26.9042 19.0193 24.1753 20.1524 22.1627 22.1659C20.1502 24.1795 19.0184 26.909 19.0156 29.7558V46.5726L23.166 39.9718Z" fill="#EFB86E"/>
<path d="M48.0106 19.4349L47.6905 19.7182C47.5856 19.8179 47.5069 19.9071 47.4124 20.0016L47.2812 20.1432L47.1606 20.2796L46.9192 20.5525C46.7723 20.7361 46.6149 20.9145 46.4785 21.0772C45.917 21.796 45.429 22.4991 44.9043 23.176C43.8917 24.5665 42.8947 25.9202 41.7876 27.1795C40.7172 28.4518 39.482 29.5758 38.1147 30.5219C37.42 30.9859 36.6711 31.363 35.8847 31.6448C35.082 31.9284 34.2383 32.0791 33.3871 32.0908C34.2555 32.2363 35.1421 32.2363 36.0106 32.0908C36.8899 31.9488 37.7482 31.6986 38.5659 31.3457C38.844 31.225 39.0906 31.0991 39.3844 30.9626C38.7092 31.9377 37.9676 32.8651 37.1649 33.7383C35.8232 35.2374 34.005 36.2272 32.0176 36.5402C31.3229 36.6425 30.6206 36.6829 29.9188 36.6609C30.6068 36.8382 31.3091 36.9541 32.0176 37.0072C32.747 37.0515 33.4791 37.0145 34.2004 36.8971L34.5414 36.8288C31.325 39.3579 28.9533 39.6622 27.652 39.7619H27.5838C26.8219 39.8474 26.084 40.0809 25.4116 40.4493C25.9188 39.4524 26.461 38.4747 27.0381 37.5162C28.3107 35.4065 29.7439 33.3979 31.325 31.5083C32.1155 30.5709 32.9411 29.6579 33.8016 28.7694C34.6778 27.9036 35.5698 27.0536 36.5143 26.256C38.4011 24.6533 40.4336 23.2305 42.5852 22.0059C40.3732 23.1461 38.2723 24.4899 36.3097 26.0199C35.3285 26.7807 34.3945 27.594 33.4763 28.444C32.558 29.2941 31.6975 30.1913 30.8527 31.1148C29.1813 32.9693 27.6552 34.9498 26.2878 37.0387C25.6004 38.0881 24.9498 39.1375 24.3464 40.2552C24.0473 40.7799 23.7587 41.357 23.4754 41.9237C23.2865 42.3068 23.1081 42.6845 22.9507 43.0781C22.0272 44.8988 21.2034 46.8927 21.2034 46.8927C20.6286 47.2517 20.1223 47.71 19.708 48.2464H36.8764C39.9 48.2422 42.7984 47.0389 44.9359 44.9004C47.0734 42.7619 48.2754 39.8629 48.2782 36.8393V19.2407L48.0106 19.4349Z" fill="#175067"/>
<path d="M173.84 26.3871H172.791V25.6367H175.792V26.3871H174.743V28.9843H173.793L173.84 26.3871Z" fill="#175067"/>
<path d="M179.187 28.9846V27.2111L178.321 28.6435H177.896L177.041 27.2478V28.9741H176.144V25.6265H176.925L178.101 27.5574L179.25 25.6265H180.026V28.9741L179.187 28.9846Z" fill="#175067"/>
<line x1="211.042" y1="22.4448" x2="211.042" y2="49.5548" stroke="#B0B2C6" stroke-width="2"/>
<path d="M264.628 22.9208L253.586 19.0151L242.651 22.868C241.257 23.5173 240.042 23.9047 240.042 25.1868V31.5633C240.029 36.0419 241.278 40.4337 243.646 44.2349C246.03 48.109 249.541 51.1621 253.708 52.9851C258.18 51.5539 261.512 47.7453 263.554 44.4839C265.92 40.6817 267.168 36.2904 267.155 31.8123V26.0773C267.14 24.2507 266.156 23.3603 264.628 22.9208Z" fill="#89A79A"/>
<path d="M264.628 22.9208L253.586 19.0151L242.651 22.868C241.257 23.5173 240.042 23.9047 240.042 25.1868V31.5633C240.029 36.0419 241.278 40.4337 243.646 44.2349C246.03 48.109 249.541 51.1621 253.708 52.9851C258.18 51.5539 261.512 47.7453 263.554 44.4839C265.92 40.6817 267.168 36.2904 267.155 31.8123V26.0773C267.14 24.2507 266.156 23.3603 264.628 22.9208Z" fill="url(#paint0_linear_166_7428)" fill-opacity="0.2"/>
<path d="M256.527 33.2135C256.532 32.4989 256.286 31.8052 255.832 31.2531C255.378 30.7011 254.745 30.3258 254.043 30.1924C253.341 30.059 252.614 30.176 251.99 30.5231C251.365 30.8701 250.882 31.4253 250.624 32.0919C250.417 32.6221 250.362 33.1997 250.467 33.7593C250.571 34.3189 250.829 34.8381 251.213 35.2584C251.596 35.6789 252.089 35.9841 252.637 36.1395V40.713H254.306V36.1388C254.944 35.9594 255.507 35.5767 255.907 35.0487C256.308 34.5208 256.526 33.8764 256.527 33.2135Z" fill="white"/>
<path d="M295.335 31.3V34.8H300.035V37.02H295.335V40.72H300.635V43H292.535V29.02H300.635V31.3H295.335ZM307.8 40.42L310.6 31.92H313.58L309.48 43H306.08L302 31.92H305L307.8 40.42ZM325.452 37.22C325.452 37.62 325.426 37.98 325.372 38.3H317.272C317.339 39.1 317.619 39.7267 318.112 40.18C318.606 40.6333 319.212 40.86 319.932 40.86C320.972 40.86 321.712 40.4133 322.152 39.52H325.172C324.852 40.5867 324.239 41.4667 323.332 42.16C322.426 42.84 321.312 43.18 319.992 43.18C318.926 43.18 317.966 42.9467 317.112 42.48C316.272 42 315.612 41.3267 315.132 40.46C314.666 39.5933 314.432 38.5933 314.432 37.46C314.432 36.3133 314.666 35.3067 315.132 34.44C315.599 33.5733 316.252 32.9067 317.092 32.44C317.932 31.9733 318.899 31.74 319.992 31.74C321.046 31.74 321.986 31.9667 322.812 32.42C323.652 32.8733 324.299 33.52 324.752 34.36C325.219 35.1867 325.452 36.14 325.452 37.22ZM322.552 36.42C322.539 35.7 322.279 35.1267 321.772 34.7C321.266 34.26 320.646 34.04 319.912 34.04C319.219 34.04 318.632 34.2533 318.152 34.68C317.686 35.0933 317.399 35.6733 317.292 36.42H322.552ZM330.296 33.64C330.656 33.0533 331.123 32.5933 331.696 32.26C332.283 31.9267 332.95 31.76 333.696 31.76V34.7H332.956C332.076 34.7 331.41 34.9067 330.956 35.32C330.516 35.7333 330.296 36.4533 330.296 37.48V43H327.496V31.92H330.296V33.64ZM346.182 31.92L339.322 48.24H336.342L338.742 42.72L334.302 31.92H337.442L340.302 39.66L343.202 31.92H346.182ZM350.952 34.22V39.58C350.952 39.9533 351.038 40.2267 351.212 40.4C351.398 40.56 351.705 40.64 352.132 40.64H353.432V43H351.672C349.312 43 348.132 41.8533 348.132 39.56V34.22H346.812V31.92H348.132V29.18H350.952V31.92H353.432V34.22H350.952ZM361.685 31.76C362.525 31.76 363.272 31.9467 363.925 32.32C364.579 32.68 365.085 33.22 365.445 33.94C365.819 34.6467 366.005 35.5 366.005 36.5V43H363.205V36.88C363.205 36 362.985 35.3267 362.545 34.86C362.105 34.38 361.505 34.14 360.745 34.14C359.972 34.14 359.359 34.38 358.905 34.86C358.465 35.3267 358.245 36 358.245 36.88V43H355.445V28.2H358.245V33.3C358.605 32.82 359.085 32.4467 359.685 32.18C360.285 31.9 360.952 31.76 361.685 31.76ZM370.088 30.6C369.595 30.6 369.181 30.4467 368.848 30.14C368.528 29.82 368.368 29.4267 368.368 28.96C368.368 28.4933 368.528 28.1067 368.848 27.8C369.181 27.48 369.595 27.32 370.088 27.32C370.581 27.32 370.988 27.48 371.308 27.8C371.641 28.1067 371.808 28.4933 371.808 28.96C371.808 29.4267 371.641 29.82 371.308 30.14C370.988 30.4467 370.581 30.6 370.088 30.6ZM371.468 31.92V43H368.668V31.92H371.468ZM380.374 31.76C381.694 31.76 382.761 32.18 383.574 33.02C384.388 33.8467 384.794 35.0067 384.794 36.5V43H381.994V36.88C381.994 36 381.774 35.3267 381.334 34.86C380.894 34.38 380.294 34.14 379.534 34.14C378.761 34.14 378.148 34.38 377.694 34.86C377.254 35.3267 377.034 36 377.034 36.88V43H374.234V31.92H377.034V33.3C377.408 32.82 377.881 32.4467 378.454 32.18C379.041 31.9 379.681 31.76 380.374 31.76ZM391.797 31.74C392.624 31.74 393.35 31.9067 393.977 32.24C394.604 32.56 395.097 32.98 395.457 33.5V31.92H398.277V43.08C398.277 44.1067 398.07 45.02 397.657 45.82C397.244 46.6333 396.624 47.2733 395.797 47.74C394.97 48.22 393.97 48.46 392.797 48.46C391.224 48.46 389.93 48.0933 388.917 47.36C387.917 46.6267 387.35 45.6267 387.217 44.36H389.997C390.144 44.8667 390.457 45.2667 390.937 45.56C391.43 45.8667 392.024 46.02 392.717 46.02C393.53 46.02 394.19 45.7733 394.697 45.28C395.204 44.8 395.457 44.0667 395.457 43.08V41.36C395.097 41.88 394.597 42.3133 393.957 42.66C393.33 43.0067 392.61 43.18 391.797 43.18C390.864 43.18 390.01 42.94 389.237 42.46C388.464 41.98 387.85 41.3067 387.397 40.44C386.957 39.56 386.737 38.5533 386.737 37.42C386.737 36.3 386.957 35.3067 387.397 34.44C387.85 33.5733 388.457 32.9067 389.217 32.44C389.99 31.9733 390.85 31.74 391.797 31.74ZM395.457 37.46C395.457 36.78 395.324 36.2 395.057 35.72C394.79 35.2267 394.43 34.8533 393.977 34.6C393.524 34.3333 393.037 34.2 392.517 34.2C391.997 34.2 391.517 34.3267 391.077 34.58C390.637 34.8333 390.277 35.2067 389.997 35.7C389.73 36.18 389.597 36.7533 389.597 37.42C389.597 38.0867 389.73 38.6733 389.997 39.18C390.277 39.6733 390.637 40.0533 391.077 40.32C391.53 40.5867 392.01 40.72 392.517 40.72C393.037 40.72 393.524 40.5933 393.977 40.34C394.43 40.0733 394.79 39.7 395.057 39.22C395.324 38.7267 395.457 38.14 395.457 37.46ZM408.577 31.3V34.8H413.277V37.02H408.577V40.72H413.877V43H405.777V29.02H413.877V31.3H408.577ZM422.562 31.76C423.882 31.76 424.949 32.18 425.762 33.02C426.575 33.8467 426.982 35.0067 426.982 36.5V43H424.182V36.88C424.182 36 423.962 35.3267 423.522 34.86C423.082 34.38 422.482 34.14 421.722 34.14C420.949 34.14 420.335 34.38 419.882 34.86C419.442 35.3267 419.222 36 419.222 36.88V43H416.422V31.92H419.222V33.3C419.595 32.82 420.069 32.4467 420.642 32.18C421.229 31.9 421.869 31.76 422.562 31.76ZM428.925 37.46C428.925 36.3133 429.158 35.3133 429.625 34.46C430.091 33.5933 430.738 32.9267 431.565 32.46C432.391 31.98 433.338 31.74 434.405 31.74C435.778 31.74 436.911 32.0867 437.805 32.78C438.711 33.46 439.318 34.42 439.625 35.66H436.605C436.445 35.18 436.171 34.8067 435.785 34.54C435.411 34.26 434.945 34.12 434.385 34.12C433.585 34.12 432.951 34.4133 432.485 35C432.018 35.5733 431.785 36.3933 431.785 37.46C431.785 38.5133 432.018 39.3333 432.485 39.92C432.951 40.4933 433.585 40.78 434.385 40.78C435.518 40.78 436.258 40.2733 436.605 39.26H439.625C439.318 40.46 438.711 41.4133 437.805 42.12C436.898 42.8267 435.765 43.18 434.405 43.18C433.338 43.18 432.391 42.9467 431.565 42.48C430.738 42 430.091 41.3333 429.625 40.48C429.158 39.6133 428.925 38.6067 428.925 37.46ZM444.476 33.64C444.836 33.0533 445.303 32.5933 445.876 32.26C446.463 31.9267 447.129 31.76 447.876 31.76V34.7H447.136C446.256 34.7 445.589 34.9067 445.136 35.32C444.696 35.7333 444.476 36.4533 444.476 37.48V43H441.676V31.92H444.476V33.64ZM460.362 31.92L453.502 48.24H450.522L452.922 42.72L448.482 31.92H451.622L454.482 39.66L457.382 31.92H460.362ZM464.671 33.52C465.031 33.0133 465.525 32.5933 466.151 32.26C466.791 31.9133 467.518 31.74 468.331 31.74C469.278 31.74 470.131 31.9733 470.891 32.44C471.665 32.9067 472.271 33.5733 472.711 34.44C473.165 35.2933 473.391 36.2867 473.391 37.42C473.391 38.5533 473.165 39.56 472.711 40.44C472.271 41.3067 471.665 41.98 470.891 42.46C470.131 42.94 469.278 43.18 468.331 43.18C467.518 43.18 466.798 43.0133 466.171 42.68C465.558 42.3467 465.058 41.9267 464.671 41.42V48.28H461.871V31.92H464.671V33.52ZM470.531 37.42C470.531 36.7533 470.391 36.18 470.111 35.7C469.845 35.2067 469.485 34.8333 469.031 34.58C468.591 34.3267 468.111 34.2 467.591 34.2C467.085 34.2 466.605 34.3333 466.151 34.6C465.711 34.8533 465.351 35.2267 465.071 35.72C464.805 36.2133 464.671 36.7933 464.671 37.46C464.671 38.1267 464.805 38.7067 465.071 39.2C465.351 39.6933 465.711 40.0733 466.151 40.34C466.605 40.5933 467.085 40.72 467.591 40.72C468.111 40.72 468.591 40.5867 469.031 40.32C469.485 40.0533 469.845 39.6733 470.111 39.18C470.391 38.6867 470.531 38.1 470.531 37.42ZM478.686 34.22V39.58C478.686 39.9533 478.773 40.2267 478.946 40.4C479.133 40.56 479.439 40.64 479.866 40.64H481.166V43H479.406C477.046 43 475.866 41.8533 475.866 39.56V34.22H474.546V31.92H475.866V29.18H478.686V31.92H481.166V34.22H478.686ZM493.48 37.22C493.48 37.62 493.453 37.98 493.4 38.3H485.3C485.366 39.1 485.646 39.7267 486.14 40.18C486.633 40.6333 487.24 40.86 487.96 40.86C489 40.86 489.74 40.4133 490.18 39.52H493.2C492.88 40.5867 492.266 41.4667 491.36 42.16C490.453 42.84 489.34 43.18 488.02 43.18C486.953 43.18 485.993 42.9467 485.14 42.48C484.3 42 483.64 41.3267 483.16 40.46C482.693 39.5933 482.46 38.5933 482.46 37.46C482.46 36.3133 482.693 35.3067 483.16 34.44C483.626 33.5733 484.28 32.9067 485.12 32.44C485.96 31.9733 486.926 31.74 488.02 31.74C489.073 31.74 490.013 31.9667 490.84 32.42C491.68 32.8733 492.326 33.52 492.78 34.36C493.246 35.1867 493.48 36.14 493.48 37.22ZM490.58 36.42C490.566 35.7 490.306 35.1267 489.8 34.7C489.293 34.26 488.673 34.04 487.94 34.04C487.246 34.04 486.66 34.2533 486.18 34.68C485.713 35.0933 485.426 35.6733 485.32 36.42H490.58ZM494.804 37.42C494.804 36.3 495.024 35.3067 495.464 34.44C495.917 33.5733 496.53 32.9067 497.304 32.44C498.077 31.9733 498.937 31.74 499.884 31.74C500.604 31.74 501.29 31.9 501.944 32.22C502.597 32.5267 503.117 32.94 503.504 33.46V28.2H506.344V43H503.504V41.36C503.157 41.9067 502.67 42.3467 502.044 42.68C501.417 43.0133 500.69 43.18 499.864 43.18C498.93 43.18 498.077 42.94 497.304 42.46C496.53 41.98 495.917 41.3067 495.464 40.44C495.024 39.56 494.804 38.5533 494.804 37.42ZM503.524 37.46C503.524 36.78 503.39 36.2 503.124 35.72C502.857 35.2267 502.497 34.8533 502.044 34.6C501.59 34.3333 501.104 34.2 500.584 34.2C500.064 34.2 499.584 34.3267 499.144 34.58C498.704 34.8333 498.344 35.2067 498.064 35.7C497.797 36.18 497.664 36.7533 497.664 37.42C497.664 38.0867 497.797 38.6733 498.064 39.18C498.344 39.6733 498.704 40.0533 499.144 40.32C499.597 40.5867 500.077 40.72 500.584 40.72C501.104 40.72 501.59 40.5933 502.044 40.34C502.497 40.0733 502.857 39.7 503.124 39.22C503.39 38.7267 503.524 38.14 503.524 37.46Z" fill="#89A79A"/>
<defs>
<linearGradient id="paint0_linear_166_7428" x1="243.61" y1="16.1612" x2="261.804" y2="56.4734" gradientUnits="userSpaceOnUse">
<stop stop-color="white"/>
<stop offset="1" stop-color="white" stop-opacity="0"/>
</linearGradient>
</defs>
</svg>
