<svg width="428" height="72" viewBox="0 0 428 72" fill="none" xmlns="http://www.w3.org/2000/svg">
<path d="M57.3848 19.1624H62.5374V45.4343H57.3848V19.1624Z" fill="#175067"/>
<path d="M82.8854 39.4368C82.5391 41.5986 81.6786 43.2357 80.2619 44.3481C78.8451 45.4604 76.8617 46.0271 74.212 46.0271C71.0218 46.0271 68.6239 45.1439 67.0183 43.3774C65.4127 41.6109 64.6081 39.108 64.6046 35.8688C64.5809 34.3974 64.819 32.9334 65.3078 31.5453C65.7329 30.3464 66.403 29.2492 67.2754 28.3236C68.1259 27.4397 69.1617 26.7552 70.3082 26.3192C71.5565 25.8541 72.8799 25.6229 74.212 25.6371C77.1538 25.6371 79.3681 26.4836 80.8548 28.1767C82.3414 29.8697 83.083 32.1522 83.0795 35.0241V37.0809H69.7835C69.7524 38.3887 70.1689 39.6679 70.9641 40.7066C71.6987 41.5776 72.8023 42.0131 74.275 42.0131C76.3108 42.0131 77.5124 41.1544 77.8797 39.4368H82.8854ZM78.1368 33.6966C78.2054 32.5811 77.8576 31.4798 77.1608 30.606C76.5102 29.8715 75.5028 29.5042 74.128 29.5042C73.5102 29.4909 72.8961 29.6034 72.3231 29.8347C71.8289 30.0403 71.3837 30.3478 71.0166 30.7372C70.658 31.1207 70.3765 31.5696 70.1875 32.0595C69.9892 32.5836 69.8776 33.1365 69.8569 33.6966H78.1368Z" fill="#175067"/>
<path d="M90.5146 46.6515C90.5864 47.0651 90.7303 47.4629 90.9396 47.8268C91.1203 48.1188 91.3733 48.3592 91.6742 48.5247C92.0187 48.7086 92.3939 48.8277 92.7813 48.8763C93.3031 48.9453 93.8291 48.9769 94.3554 48.9707C95.139 49.0171 95.9192 48.8348 96.6012 48.446C97.1295 48.1005 97.5454 47.6081 97.7975 47.0293C98.0671 46.3851 98.2284 45.7007 98.275 45.0039C98.3327 44.2431 98.3642 43.4613 98.3642 42.648V42.0603C97.751 42.9655 96.9067 43.6902 95.919 44.1592C94.866 44.6535 93.7135 44.8994 92.5504 44.878C89.8535 44.878 87.8368 44.0035 86.5006 42.2545C85.1643 40.5055 84.4945 38.1635 84.491 35.2287C84.4792 33.9177 84.6721 32.613 85.0629 31.3616C85.4083 30.2547 85.9642 29.225 86.7 28.3288C87.4142 27.4774 88.3108 26.7978 89.3235 26.3402C90.4274 25.8482 91.6253 25.6029 92.8338 25.6213C93.8633 25.6217 94.8828 25.8231 95.8351 26.2142C96.9035 26.6818 97.8248 27.4309 98.5006 28.3813V26.23H103.506V42.7477C103.519 44.2055 103.343 45.6588 102.982 47.0713C102.698 48.2469 102.16 49.3464 101.407 50.293C100.654 51.1971 99.6774 51.8881 98.574 52.2973C97.2118 52.786 95.7707 53.0174 94.324 52.9795C92.9947 53.001 91.6674 52.8707 90.3677 52.5912C89.3965 52.3868 88.4771 51.9869 87.6654 51.4158C86.9624 50.8985 86.3983 50.2153 86.0231 49.4272C85.6222 48.5495 85.3686 47.6117 85.2728 46.6515H90.5146ZM98.3852 35.171C98.4162 34.2238 98.2867 33.2782 98.0021 32.3743C97.8024 31.7545 97.4548 31.1927 96.9895 30.7372C96.5966 30.3671 96.1135 30.1066 95.5885 29.9816C95.0835 29.8586 94.5656 29.7969 94.0458 29.798C93.4987 29.7952 92.9559 29.8948 92.4455 30.0918C91.9308 30.2953 91.4746 30.6234 91.118 31.0468C90.7073 31.546 90.4005 32.1222 90.2155 32.7416C89.9791 33.5417 89.8676 34.3735 89.8849 35.2077C89.8849 37.2436 90.2732 38.6812 91.0445 39.5313C91.4054 39.94 91.851 40.2654 92.3502 40.4846C92.8495 40.7039 93.3905 40.8119 93.9357 40.8011C94.5414 40.805 95.1438 40.7111 95.7197 40.523C96.2563 40.3482 96.7425 40.0457 97.1364 39.6414C97.5558 39.1917 97.8696 38.6539 98.0546 38.0673C98.2923 37.2998 98.4039 36.4989 98.3852 35.6957V35.171Z" fill="#175067"/>
<path d="M117.621 43.0049C116.89 43.8403 116.027 44.5495 115.065 45.1037C113.932 45.6872 112.666 45.9657 111.392 45.9117C110.564 45.9158 109.74 45.8046 108.942 45.5812C108.204 45.374 107.516 45.0167 106.922 44.5318C106.332 44.0502 105.86 43.44 105.542 42.7478C105.175 41.9322 104.995 41.0446 105.017 40.1505C104.967 39.0059 105.275 37.8742 105.899 36.9131C106.49 36.0741 107.289 35.4032 108.218 34.9664C109.236 34.4802 110.32 34.1444 111.434 33.9695C112.635 33.7752 113.845 33.6525 115.06 33.6022L117.526 33.492V32.537C117.526 31.3582 117.201 30.5484 116.55 30.1076C115.87 29.658 115.068 29.4273 114.252 29.4465C112.216 29.4465 111.051 30.2178 110.758 31.7605L106.035 31.3197C106.385 29.3083 107.268 27.8549 108.685 26.9594C110.102 26.0639 112.015 25.6162 114.425 25.6162C115.696 25.5833 116.964 25.7606 118.177 26.1409C119.117 26.4414 119.97 26.9653 120.664 27.6678C121.301 28.3521 121.766 29.1774 122.023 30.0762C122.319 31.1115 122.462 32.1844 122.448 33.2611V45.4343H117.589L117.621 43.0049ZM117.51 36.8606L115.228 36.9708C114.345 36.996 113.466 37.1067 112.604 37.3013C112.061 37.4234 111.544 37.642 111.078 37.9467C110.752 38.168 110.502 38.4827 110.359 38.8492C110.234 39.2157 110.172 39.6006 110.175 39.9878C110.162 40.2741 110.215 40.5596 110.331 40.8218C110.446 41.084 110.621 41.3158 110.841 41.499C111.369 41.8937 112.02 42.0889 112.678 42.0499C113.828 42.1021 114.964 41.78 115.915 41.1317C116.385 40.7828 116.776 40.3373 117.059 39.8252C117.371 39.2175 117.523 38.5402 117.5 37.8575L117.51 36.8606Z" fill="#175067"/>
<path d="M125.014 19.1624H130.167V28.5441C130.833 27.6131 131.719 26.8608 132.746 26.3538C133.773 25.8468 134.909 25.6007 136.054 25.6372C138.73 25.6372 140.731 26.545 142.056 28.3604C143.382 30.1759 144.041 32.6665 144.034 35.8322C144.051 37.2378 143.86 38.638 143.468 39.9879C143.128 41.1587 142.565 42.2528 141.81 43.2096C141.107 44.1009 140.21 44.8189 139.186 45.3084C138.092 45.8159 136.897 46.0688 135.692 46.0482C134.669 46.0484 133.656 45.8469 132.711 45.4553C131.65 44.9835 130.726 44.2506 130.025 43.325V45.4343H125.019L125.014 19.1624ZM130.13 35.9896C130.103 36.9995 130.209 38.0086 130.445 38.991C130.619 39.6752 130.968 40.3026 131.457 40.8117C131.878 41.2143 132.389 41.5095 132.947 41.6722C133.445 41.8078 133.959 41.8766 134.474 41.8768C135.03 41.8782 135.58 41.7657 136.09 41.5463C136.62 41.3164 137.082 40.9552 137.434 40.4969C137.854 39.943 138.16 39.3118 138.336 38.6394C138.574 37.7393 138.685 36.8103 138.667 35.8795C138.686 34.9256 138.582 33.9733 138.357 33.0461C138.191 32.377 137.897 31.7463 137.491 31.1886C137.157 30.7288 136.706 30.3665 136.185 30.1392C135.685 29.9358 135.15 29.8306 134.611 29.8296C134.047 29.8166 133.486 29.9036 132.953 30.0867C132.457 30.2765 131.997 30.5498 131.594 30.8948C131.087 31.3823 130.713 31.9908 130.508 32.663C130.248 33.5467 130.13 34.4657 130.156 35.3862L130.13 35.9896Z" fill="#175067"/>
<path d="M146.133 19.1624H151.286V45.4343H146.133V19.1624Z" fill="#175067"/>
<path d="M171.639 39.4368C171.289 41.5986 170.415 43.2357 169.016 44.3481C167.617 45.4604 165.6 46.0201 162.966 46.0271C159.776 46.0271 157.378 45.1439 155.772 43.3774C154.167 41.6109 153.362 39.108 153.359 35.8688C153.335 34.3974 153.573 32.9334 154.062 31.5453C154.487 30.3464 155.157 29.2492 156.029 28.3236C156.88 27.4397 157.916 26.7552 159.062 26.3192C160.31 25.8541 161.634 25.6229 162.966 25.6371C165.911 25.6371 168.125 26.4836 169.609 28.1767C171.092 29.8697 171.837 32.1522 171.844 35.0241V37.0809H158.537C158.506 38.3887 158.923 39.6679 159.718 40.7066C160.453 41.5776 161.556 42.0131 163.029 42.0131C165.065 42.0131 166.266 41.1544 166.634 39.4368H171.639ZM166.891 33.6966C166.959 32.5811 166.612 31.4798 165.915 30.606C165.264 29.8715 164.253 29.5042 162.882 29.5042C162.264 29.4909 161.65 29.6034 161.077 29.8347C160.584 30.0425 160.141 30.3518 159.776 30.7425C159.417 31.126 159.136 31.5749 158.947 32.0647C158.748 32.5889 158.637 33.1418 158.616 33.7018L166.891 33.6966Z" fill="#175067"/>
<path d="M23.5884 39.9721C23.3943 38.9227 24.1551 36.2047 24.6693 34.9034C25.8099 31.9617 27.4521 29.2402 29.5228 26.8597C29.4651 27.0486 29.4074 27.2375 29.3549 27.4264C28.9327 29.005 28.7383 30.6358 28.7777 32.2694C29.0419 30.703 29.5315 29.1831 30.2312 27.757C30.5798 27.0646 30.9779 26.3983 31.4222 25.7631C31.8662 25.1382 32.3517 24.5439 32.8757 23.9843C33.8005 23.0219 34.8612 22.1999 36.0239 21.5445C37.3584 20.7728 38.7641 20.1315 40.2216 19.6293C40.958 19.3767 41.7098 19.1716 42.4725 19.0154H30.1734C27.3266 19.0195 24.5976 20.1527 22.5851 22.1662C20.5725 24.1797 19.4408 26.9092 19.438 29.7561V46.5729L23.5884 39.9721Z" fill="#EFB86E"/>
<path d="M48.433 19.4351L48.1129 19.7185C48.0079 19.8181 47.9292 19.9073 47.8348 20.0018L47.7036 20.1435L47.5829 20.2799L47.3416 20.5527C47.1946 20.7364 47.0372 20.9148 46.9008 21.0774C46.3394 21.7963 45.8514 22.4994 45.3267 23.1763C44.314 24.5667 43.3171 25.9205 42.21 27.1798C41.1395 28.4521 39.9044 29.5761 38.537 30.5221C37.8424 30.9862 37.0935 31.3633 36.307 31.645C35.5043 31.9287 34.6607 32.0793 33.8094 32.091C34.6779 32.2365 35.5645 32.2365 36.433 32.091C37.3122 31.9491 38.1705 31.6988 38.9883 31.3459C39.2664 31.2252 39.513 31.0993 39.8068 30.9629C39.1315 31.9379 38.39 32.8654 37.5873 33.7386C36.2456 35.2377 34.4273 36.2274 32.44 36.5405C31.7453 36.6428 31.0429 36.6832 30.3411 36.6612C31.0291 36.8385 31.7315 36.9544 32.44 37.0075C33.1694 37.0517 33.9015 37.0148 34.6227 36.8973L34.9638 36.8291C31.7473 39.3582 29.3757 39.6625 28.0744 39.7622H28.0062C27.2443 39.8477 26.5064 40.0812 25.8339 40.4495C26.3411 39.4526 26.8833 38.4749 27.4605 37.5164C28.733 35.4067 30.1662 33.3981 31.7473 31.5086C32.5379 30.5711 33.3634 29.6581 34.2239 28.7696C35.1002 27.9038 35.9922 27.0538 36.9367 26.2563C38.8235 24.6536 40.8559 23.2307 43.0075 22.0062C40.7955 23.1463 38.6946 24.4901 36.732 26.0202C35.7508 26.781 34.8169 27.5943 33.8986 28.4443C32.9804 29.2943 32.1199 30.1916 31.2751 31.115C29.6037 32.9696 28.0775 34.9501 26.7102 37.039C26.0228 38.0884 25.3722 39.1378 24.7688 40.2554C24.4697 40.7801 24.1811 41.3573 23.8978 41.924C23.7089 42.307 23.5305 42.6848 23.3731 43.0783C22.4496 44.899 21.6258 46.8929 21.6258 46.8929C21.051 47.2519 20.5446 47.7103 20.1304 48.2466H37.2987C40.3223 48.2425 43.2208 47.0392 45.3583 44.9007C47.4958 42.7622 48.6978 39.8632 48.7006 36.8396V19.241L48.433 19.4351Z" fill="#175067"/>
<path d="M174.263 26.3875H173.213V25.6372H176.214V26.3875H175.165V28.9848H174.215L174.263 26.3875Z" fill="#175067"/>
<path d="M179.609 28.9848V27.2113L178.744 28.6438H178.319L177.463 27.248V28.9743H176.566V25.6267H177.348L178.523 27.5576L179.672 25.6267H180.449V28.9743L179.609 28.9848Z" fill="#175067"/>
<line x1="211.464" y1="22.4451" x2="211.464" y2="49.5551" stroke="#B0B2C6" stroke-width="2"/>
<path d="M265.05 22.9205L254.008 19.0149L243.073 22.8677C241.68 23.517 240.464 23.9044 240.464 25.1866V31.5631C240.451 36.0417 241.7 40.4334 244.068 44.2346C246.452 48.1088 249.963 51.1619 254.131 52.9849C258.603 51.5536 261.935 47.745 263.977 44.4837C266.343 40.6815 267.59 36.2901 267.577 31.8121V26.077C267.562 24.2505 266.578 23.36 265.05 22.9205V22.9205Z" fill="#89A79A"/>
<path d="M265.05 22.9205L254.008 19.0149L243.073 22.8677C241.68 23.517 240.464 23.9044 240.464 25.1866V31.5631C240.451 36.0417 241.7 40.4334 244.068 44.2346C246.452 48.1088 249.963 51.1619 254.131 52.9849C258.603 51.5536 261.935 47.745 263.977 44.4837C266.343 40.6815 267.59 36.2901 267.577 31.8121V26.077C267.562 24.2505 266.578 23.36 265.05 22.9205V22.9205Z" fill="url(#paint0_linear_166_7299)" fill-opacity="0.2"/>
<path d="M256.949 33.2135C256.954 32.4989 256.708 31.8052 256.254 31.2531C255.8 30.7011 255.167 30.3258 254.465 30.1924C253.763 30.059 253.036 30.176 252.412 30.5231C251.787 30.8701 251.304 31.4253 251.046 32.0919C250.839 32.6221 250.785 33.1997 250.889 33.7593C250.993 34.3189 251.251 34.8381 251.635 35.2584C252.019 35.6789 252.511 35.9841 253.059 36.1395V40.713H254.728V36.1388C255.367 35.9594 255.929 35.5767 256.33 35.0487C256.73 34.5208 256.948 33.8764 256.949 33.2135V33.2135Z" fill="white"/>
<path d="M297.777 43.14C296.804 43.14 295.924 42.9733 295.137 42.64C294.364 42.3067 293.75 41.8267 293.297 41.2C292.844 40.5733 292.61 39.8333 292.597 38.98H295.597C295.637 39.5533 295.837 40.0067 296.197 40.34C296.57 40.6733 297.077 40.84 297.717 40.84C298.37 40.84 298.884 40.6867 299.257 40.38C299.63 40.06 299.817 39.6467 299.817 39.14C299.817 38.7267 299.69 38.3867 299.437 38.12C299.184 37.8533 298.864 37.6467 298.477 37.5C298.104 37.34 297.584 37.1667 296.917 36.98C296.01 36.7133 295.27 36.4533 294.697 36.2C294.137 35.9333 293.65 35.54 293.237 35.02C292.837 34.4867 292.637 33.78 292.637 32.9C292.637 32.0733 292.844 31.3533 293.257 30.74C293.67 30.1267 294.25 29.66 294.997 29.34C295.744 29.0067 296.597 28.84 297.557 28.84C298.997 28.84 300.164 29.1933 301.057 29.9C301.964 30.5933 302.464 31.5667 302.557 32.82H299.477C299.45 32.34 299.244 31.9467 298.857 31.64C298.484 31.32 297.984 31.16 297.357 31.16C296.81 31.16 296.37 31.3 296.037 31.58C295.717 31.86 295.557 32.2667 295.557 32.8C295.557 33.1733 295.677 33.4867 295.917 33.74C296.17 33.98 296.477 34.18 296.837 34.34C297.21 34.4867 297.73 34.66 298.397 34.86C299.304 35.1267 300.044 35.3933 300.617 35.66C301.19 35.9267 301.684 36.3267 302.097 36.86C302.51 37.3933 302.717 38.0933 302.717 38.96C302.717 39.7067 302.524 40.4 302.137 41.04C301.75 41.68 301.184 42.1933 300.437 42.58C299.69 42.9533 298.804 43.14 297.777 43.14ZM315.445 37.22C315.445 37.62 315.418 37.98 315.365 38.3H307.265C307.331 39.1 307.611 39.7267 308.105 40.18C308.598 40.6333 309.205 40.86 309.925 40.86C310.965 40.86 311.705 40.4133 312.145 39.52H315.165C314.845 40.5867 314.231 41.4667 313.325 42.16C312.418 42.84 311.305 43.18 309.985 43.18C308.918 43.18 307.958 42.9467 307.105 42.48C306.265 42 305.605 41.3267 305.125 40.46C304.658 39.5933 304.425 38.5933 304.425 37.46C304.425 36.3133 304.658 35.3067 305.125 34.44C305.591 33.5733 306.245 32.9067 307.085 32.44C307.925 31.9733 308.891 31.74 309.985 31.74C311.038 31.74 311.978 31.9667 312.805 32.42C313.645 32.8733 314.291 33.52 314.745 34.36C315.211 35.1867 315.445 36.14 315.445 37.22ZM312.545 36.42C312.531 35.7 312.271 35.1267 311.765 34.7C311.258 34.26 310.638 34.04 309.905 34.04C309.211 34.04 308.625 34.2533 308.145 34.68C307.678 35.0933 307.391 35.6733 307.285 36.42H312.545ZM316.768 37.46C316.768 36.3133 317.002 35.3133 317.468 34.46C317.935 33.5933 318.582 32.9267 319.408 32.46C320.235 31.98 321.182 31.74 322.248 31.74C323.622 31.74 324.755 32.0867 325.648 32.78C326.555 33.46 327.162 34.42 327.468 35.66H324.448C324.288 35.18 324.015 34.8067 323.628 34.54C323.255 34.26 322.788 34.12 322.228 34.12C321.428 34.12 320.795 34.4133 320.328 35C319.862 35.5733 319.628 36.3933 319.628 37.46C319.628 38.5133 319.862 39.3333 320.328 39.92C320.795 40.4933 321.428 40.78 322.228 40.78C323.362 40.78 324.102 40.2733 324.448 39.26H327.468C327.162 40.46 326.555 41.4133 325.648 42.12C324.742 42.8267 323.608 43.18 322.248 43.18C321.182 43.18 320.235 42.9467 319.408 42.48C318.582 42 317.935 41.3333 317.468 40.48C317.002 39.6133 316.768 38.6067 316.768 37.46ZM339.98 31.92V43H337.16V41.6C336.8 42.08 336.326 42.46 335.74 42.74C335.166 43.0067 334.54 43.14 333.86 43.14C332.993 43.14 332.226 42.96 331.56 42.6C330.893 42.2267 330.366 41.6867 329.98 40.98C329.606 40.26 329.42 39.4067 329.42 38.42V31.92H332.22V38.02C332.22 38.9 332.44 39.58 332.88 40.06C333.32 40.5267 333.92 40.76 334.68 40.76C335.453 40.76 336.06 40.5267 336.5 40.06C336.94 39.58 337.16 38.9 337.16 38.02V31.92H339.98ZM345.542 33.64C345.902 33.0533 346.369 32.5933 346.942 32.26C347.529 31.9267 348.196 31.76 348.942 31.76V34.7H348.202C347.322 34.7 346.656 34.9067 346.202 35.32C345.762 35.7333 345.542 36.4533 345.542 37.48V43H342.742V31.92H345.542V33.64ZM361.128 37.22C361.128 37.62 361.102 37.98 361.048 38.3H352.948C353.015 39.1 353.295 39.7267 353.788 40.18C354.282 40.6333 354.888 40.86 355.608 40.86C356.648 40.86 357.388 40.4133 357.828 39.52H360.848C360.528 40.5867 359.915 41.4667 359.008 42.16C358.102 42.84 356.988 43.18 355.668 43.18C354.602 43.18 353.642 42.9467 352.788 42.48C351.948 42 351.288 41.3267 350.808 40.46C350.342 39.5933 350.108 38.5933 350.108 37.46C350.108 36.3133 350.342 35.3067 350.808 34.44C351.275 33.5733 351.928 32.9067 352.768 32.44C353.608 31.9733 354.575 31.74 355.668 31.74C356.722 31.74 357.662 31.9667 358.488 32.42C359.328 32.8733 359.975 33.52 360.428 34.36C360.895 35.1867 361.128 36.14 361.128 37.22ZM358.228 36.42C358.215 35.7 357.955 35.1267 357.448 34.7C356.942 34.26 356.322 34.04 355.588 34.04C354.895 34.04 354.308 34.2533 353.828 34.68C353.362 35.0933 353.075 35.6733 352.968 36.42H358.228ZM367.258 36C367.258 34.6267 367.564 33.4 368.178 32.32C368.804 31.2267 369.651 30.38 370.718 29.78C371.798 29.1667 373.004 28.86 374.338 28.86C375.898 28.86 377.264 29.26 378.438 30.06C379.611 30.86 380.431 31.9667 380.898 33.38H377.678C377.358 32.7133 376.904 32.2133 376.318 31.88C375.744 31.5467 375.078 31.38 374.318 31.38C373.504 31.38 372.778 31.5733 372.138 31.96C371.511 32.3333 371.018 32.8667 370.658 33.56C370.311 34.2533 370.138 35.0667 370.138 36C370.138 36.92 370.311 37.7333 370.658 38.44C371.018 39.1333 371.511 39.6733 372.138 40.06C372.778 40.4333 373.504 40.62 374.318 40.62C375.078 40.62 375.744 40.4533 376.318 40.12C376.904 39.7733 377.358 39.2667 377.678 38.6H380.898C380.431 40.0267 379.611 41.14 378.438 41.94C377.278 42.7267 375.911 43.12 374.338 43.12C373.004 43.12 371.798 42.82 370.718 42.22C369.651 41.6067 368.804 40.76 368.178 39.68C367.564 38.6 367.258 37.3733 367.258 36ZM386.089 28.2V43H383.289V28.2H386.089ZM393.776 43.18C392.709 43.18 391.749 42.9467 390.896 42.48C390.042 42 389.369 41.3267 388.876 40.46C388.396 39.5933 388.156 38.5933 388.156 37.46C388.156 36.3267 388.402 35.3267 388.896 34.46C389.402 33.5933 390.089 32.9267 390.956 32.46C391.822 31.98 392.789 31.74 393.856 31.74C394.922 31.74 395.889 31.98 396.756 32.46C397.622 32.9267 398.302 33.5933 398.796 34.46C399.302 35.3267 399.556 36.3267 399.556 37.46C399.556 38.5933 399.296 39.5933 398.776 40.46C398.269 41.3267 397.576 42 396.696 42.48C395.829 42.9467 394.856 43.18 393.776 43.18ZM393.776 40.74C394.282 40.74 394.756 40.62 395.196 40.38C395.649 40.1267 396.009 39.7533 396.276 39.26C396.542 38.7667 396.676 38.1667 396.676 37.46C396.676 36.4067 396.396 35.6 395.836 35.04C395.289 34.4667 394.616 34.18 393.816 34.18C393.016 34.18 392.342 34.4667 391.796 35.04C391.262 35.6 390.996 36.4067 390.996 37.46C390.996 38.5133 391.256 39.3267 391.776 39.9C392.309 40.46 392.976 40.74 393.776 40.74ZM412.069 31.92V43H409.249V41.6C408.889 42.08 408.416 42.46 407.829 42.74C407.256 43.0067 406.629 43.14 405.949 43.14C405.083 43.14 404.316 42.96 403.649 42.6C402.983 42.2267 402.456 41.6867 402.069 40.98C401.696 40.26 401.509 39.4067 401.509 38.42V31.92H404.309V38.02C404.309 38.9 404.529 39.58 404.969 40.06C405.409 40.5267 406.009 40.76 406.769 40.76C407.543 40.76 408.149 40.5267 408.589 40.06C409.029 39.58 409.249 38.9 409.249 38.02V31.92H412.069ZM414.112 37.42C414.112 36.3 414.332 35.3067 414.772 34.44C415.225 33.5733 415.839 32.9067 416.612 32.44C417.385 31.9733 418.245 31.74 419.192 31.74C419.912 31.74 420.599 31.9 421.252 32.22C421.905 32.5267 422.425 32.94 422.812 33.46V28.2H425.652V43H422.812V41.36C422.465 41.9067 421.979 42.3467 421.352 42.68C420.725 43.0133 419.999 43.18 419.172 43.18C418.239 43.18 417.385 42.94 416.612 42.46C415.839 41.98 415.225 41.3067 414.772 40.44C414.332 39.56 414.112 38.5533 414.112 37.42ZM422.832 37.46C422.832 36.78 422.699 36.2 422.432 35.72C422.165 35.2267 421.805 34.8533 421.352 34.6C420.899 34.3333 420.412 34.2 419.892 34.2C419.372 34.2 418.892 34.3267 418.452 34.58C418.012 34.8333 417.652 35.2067 417.372 35.7C417.105 36.18 416.972 36.7533 416.972 37.42C416.972 38.0867 417.105 38.6733 417.372 39.18C417.652 39.6733 418.012 40.0533 418.452 40.32C418.905 40.5867 419.385 40.72 419.892 40.72C420.412 40.72 420.899 40.5933 421.352 40.34C421.805 40.0733 422.165 39.7 422.432 39.22C422.699 38.7267 422.832 38.14 422.832 37.46Z" fill="#89A79A"/>
<defs>
<linearGradient id="paint0_linear_166_7299" x1="244.032" y1="16.1609" x2="262.226" y2="56.4731" gradientUnits="userSpaceOnUse">
<stop stop-color="white"/>
<stop offset="1" stop-color="white" stop-opacity="0"/>
</linearGradient>
</defs>
</svg>
