<svg width="12" height="14" viewBox="0 0 12 14" fill="none" xmlns="http://www.w3.org/2000/svg">
<path d="M11 14H1C0.734865 13.9997 0.480665 13.8943 0.293186 13.7068C0.105707 13.5193 0.000264738 13.2651 0 13V1C0.000264738 0.734865 0.105707 0.480665 0.293186 0.293186C0.480665 0.105707 0.734865 0.000264738 1 0H11C11.2651 0.000264738 11.5193 0.105707 11.7068 0.293186C11.8943 0.480665 11.9997 0.734865 12 1V13C11.9997 13.2651 11.8943 13.5193 11.7068 13.7068C11.5193 13.8943 11.2651 13.9997 11 14ZM1 1V13H11V1H1Z" fill="#737373"/>
<path d="M2.5 5.5H8V6.5H2.5V5.5ZM2.5 8H6V9H2.5V8Z" fill="#737373"/>
</svg>
