<svg width="15" height="13" viewBox="0 0 15 13" fill="none" xmlns="http://www.w3.org/2000/svg">
<path d="M10.6673 5.33268C11.6398 5.33268 12.5724 5.71899 13.26 6.40662C13.9477 7.09426 14.334 8.02689 14.334 8.99935C14.334 9.97181 13.9477 10.9044 13.26 11.5921C12.5724 12.2797 11.6398 12.666 10.6673 12.666C9.69486 12.666 8.76223 12.2797 8.07459 11.5921C7.38696 10.9044 7.00065 9.97181 7.00065 8.99935C7.00065 8.02689 7.38696 7.09426 8.07459 6.40662C8.76223 5.71899 9.69486 5.33268 10.6673 5.33268ZM10.6673 6.66602L10.6073 6.67068C10.5407 6.68285 10.4794 6.71501 10.4315 6.76289C10.3836 6.81076 10.3515 6.87208 10.3393 6.93868L10.334 6.99935V8.66602H8.66599L8.60598 8.67135C8.53938 8.68352 8.47806 8.71568 8.43019 8.76355C8.38231 8.81143 8.35015 8.87275 8.33798 8.93935L8.33265 8.99935L8.33798 9.05935C8.35015 9.12595 8.38231 9.18727 8.43019 9.23515C8.47806 9.28302 8.53938 9.31518 8.60598 9.32735L8.66599 9.33268H10.334V11.0013L10.3393 11.0613C10.3515 11.128 10.3836 11.1893 10.4315 11.2371C10.4794 11.285 10.5407 11.3172 10.6073 11.3293L10.6673 11.3347L10.7273 11.3293C10.7939 11.3172 10.8552 11.285 10.9031 11.2371C10.951 11.1893 10.9832 11.128 10.9953 11.0613L11.0007 11.0013V9.33268L12.67 9.33335L12.73 9.32802C12.7966 9.31585 12.8579 9.28369 12.9058 9.23581C12.9537 9.18794 12.9858 9.12662 12.998 9.06002L13.0033 9.00002L12.998 8.94002C12.9858 8.87332 12.9535 8.81194 12.9055 8.76405C12.8575 8.71617 12.796 8.68406 12.7293 8.67202L12.6693 8.66668H11.0007V7.00002L10.9953 6.94002C10.9833 6.87329 10.9512 6.81183 10.9033 6.76382C10.8554 6.71582 10.794 6.68356 10.7273 6.67135L10.6673 6.66602ZM4.47198 0.666016C4.77865 0.666016 5.07732 0.760016 5.32798 0.934016L5.43198 1.01402L7.01532 2.33268H12.1673C12.5292 2.33256 12.8789 2.46327 13.152 2.70071C13.4251 2.93815 13.6031 3.2663 13.6533 3.62468L13.664 3.73002L13.6673 3.83268V5.87268C13.37 5.58715 13.0335 5.34539 12.668 5.15468L12.6673 3.83268C12.6673 3.71186 12.6236 3.59512 12.5441 3.50406C12.4647 3.413 12.355 3.35378 12.2353 3.33735L12.1673 3.33268H7.01465L5.43198 4.65202C5.19682 4.84771 4.90744 4.96681 4.60265 4.99335L4.47198 4.99935L1.33398 4.99868V9.83268C1.33398 10.086 1.52198 10.2953 1.76598 10.328L1.83398 10.3327H6.54332C6.65798 10.6887 6.81798 11.0247 7.01598 11.3333L1.83398 11.3327C1.4539 11.3327 1.08797 11.1885 0.810149 10.9291C0.532327 10.6697 0.363332 10.3145 0.337318 9.93535L0.333984 9.83268V2.16602C0.333938 1.78593 0.478181 1.42 0.737564 1.14218C0.996947 0.864359 1.35212 0.695364 1.73132 0.669349L1.83398 0.666016H4.47198ZM4.47198 1.66602H1.83398C1.71316 1.66602 1.59642 1.70978 1.50536 1.78919C1.4143 1.86861 1.35508 1.97831 1.33865 2.09802L1.33398 2.16602V3.99868L4.47198 3.99935C4.56506 3.99924 4.65626 3.97315 4.73532 3.92402L4.79198 3.88402L6.05265 2.83202L4.79265 1.78202C4.72092 1.72215 4.63385 1.68358 4.54132 1.67068L4.47198 1.66602Z" fill="#737373"/>
</svg>
