<svg width="12" height="14" viewBox="0 0 12 14" fill="none" xmlns="http://www.w3.org/2000/svg">
<path d="M2 1.07862e-08C1.60218 1.07862e-08 1.22064 0.158035 0.93934 0.43934C0.658035 0.720644 0.5 1.10218 0.5 1.5V12.5C0.5 12.8978 0.658035 13.2794 0.93934 13.5607C1.22064 13.842 1.60218 14 2 14H10C10.3978 14 10.7794 13.842 11.0607 13.5607C11.342 13.2794 11.5 12.8978 11.5 12.5V4.414C11.4998 4.01638 11.3417 3.63512 11.0605 3.354L8.1465 0.439C7.86518 0.157859 7.48372 -4.76506e-05 7.086 1.07862e-08H2ZM1.5 1.5C1.5 1.36739 1.55268 1.24021 1.64645 1.14645C1.74021 1.05268 1.86739 1 2 1H6.5V3.5C6.5 3.89782 6.65804 4.27936 6.93934 4.56066C7.22064 4.84196 7.60218 5 8 5H10.5V12.5C10.5 12.6326 10.4473 12.7598 10.3536 12.8536C10.2598 12.9473 10.1326 13 10 13H2C1.86739 13 1.74021 12.9473 1.64645 12.8536C1.55268 12.7598 1.5 12.6326 1.5 12.5V1.5ZM10.293 4H8C7.86739 4 7.74021 3.94732 7.64645 3.85355C7.55268 3.75979 7.5 3.63261 7.5 3.5V1.207L10.293 4Z" fill="#175067"/>
</svg>
