<svg width="20" height="18" viewBox="0 0 20 18" fill="none" xmlns="http://www.w3.org/2000/svg">
<path d="M18.3337 14.8333V6.5C18.3337 6.05797 18.1581 5.63405 17.8455 5.32149C17.5329 5.00893 17.109 4.83333 16.667 4.83333H11.0303C10.7207 4.83332 10.4173 4.74709 10.154 4.5843C9.89065 4.42151 9.67787 4.18859 9.53949 3.91167L8.79449 2.42167C8.65605 2.14461 8.44314 1.91162 8.17966 1.74882C7.91618 1.58602 7.61254 1.49986 7.30282 1.5H3.33366C2.89163 1.5 2.46771 1.67559 2.15515 1.98816C1.84259 2.30072 1.66699 2.72464 1.66699 3.16667V14.8333C1.66699 15.2754 1.84259 15.6993 2.15515 16.0118C2.46771 16.3244 2.89163 16.5 3.33366 16.5H16.667C17.109 16.5 17.5329 16.3244 17.8455 16.0118C18.1581 15.6993 18.3337 15.2754 18.3337 14.8333Z" stroke="#FBF5F0" stroke-width="2" stroke-linecap="round" stroke-linejoin="round"/>
<path d="M10 8.16675V10.6667M10 10.6667V13.1667M10 10.6667H12.5M10 10.6667H7.5" stroke="#FBF5F0" stroke-width="2" stroke-linecap="round"/>
</svg>
