<svg width="18" height="15" viewBox="0 0 18 15" fill="none" xmlns="http://www.w3.org/2000/svg">
<path d="M12.9167 5.83333C14.1322 5.83333 15.298 6.31622 16.1576 7.17576C17.0171 8.0353 17.5 9.20109 17.5 10.4167C17.5 11.6322 17.0171 12.798 16.1576 13.6576C15.298 14.5171 14.1322 15 12.9167 15C11.7011 15 10.5353 14.5171 9.67576 13.6576C8.81622 12.798 8.33333 11.6322 8.33333 10.4167C8.33333 9.20109 8.81622 8.0353 9.67576 7.17576C10.5353 6.31622 11.7011 5.83333 12.9167 5.83333ZM12.9167 7.5L12.8417 7.50583C12.7584 7.52104 12.6818 7.56124 12.6219 7.62109C12.5621 7.68093 12.5219 7.75758 12.5067 7.84083L12.5 7.91667V10H10.415L10.34 10.0067C10.2567 10.0219 10.1801 10.0621 10.1203 10.1219C10.0604 10.1818 10.0202 10.2584 10.005 10.3417L9.99833 10.4167L10.005 10.4917C10.0202 10.5749 10.0604 10.6516 10.1203 10.7114C10.1801 10.7713 10.2567 10.8115 10.34 10.8267L10.415 10.8333H12.5V12.9192L12.5067 12.9942C12.5219 13.0774 12.5621 13.1541 12.6219 13.2139C12.6818 13.2738 12.7584 13.314 12.8417 13.3292L12.9167 13.3358L12.9917 13.3292C13.0749 13.314 13.1516 13.2738 13.2114 13.2139C13.2713 13.1541 13.3115 13.0774 13.3267 12.9942L13.3333 12.9192V10.8333L15.42 10.8342L15.495 10.8275C15.5783 10.8123 15.6549 10.7721 15.7147 10.7122C15.7746 10.6524 15.8148 10.5758 15.83 10.4925L15.8367 10.4175L15.83 10.3425C15.8147 10.2591 15.7744 10.1824 15.7144 10.1225C15.6544 10.0627 15.5776 10.0226 15.4942 10.0075L15.4192 10.0008H13.3333V7.9175L13.3267 7.8425C13.3116 7.75909 13.2715 7.68226 13.2116 7.62226C13.1518 7.56225 13.075 7.52193 12.9917 7.50667L12.9167 7.5ZM5.1725 0C5.55583 0 5.92917 0.1175 6.2425 0.335L6.3725 0.435L8.35167 2.08333H14.7917C15.244 2.08319 15.6812 2.24657 16.0225 2.54337C16.3639 2.84016 16.5864 3.25036 16.6492 3.69833L16.6625 3.83L16.6667 3.95833V6.50833C16.295 6.15142 15.8744 5.84922 15.4175 5.61083L15.4167 3.95833C15.4167 3.8073 15.362 3.66138 15.2627 3.54756C15.1634 3.43373 15.0263 3.35971 14.8767 3.33917L14.7917 3.33333H8.35083L6.3725 4.9825C6.07854 5.22711 5.71681 5.37599 5.33583 5.40917L5.1725 5.41667L1.25 5.41583V11.4583C1.25 11.775 1.485 12.0367 1.79 12.0775L1.875 12.0833H7.76167C7.905 12.5283 8.105 12.9483 8.3525 13.3342L1.875 13.3333C1.39989 13.3334 0.942482 13.1531 0.595205 12.8289C0.247929 12.5046 0.0366851 12.0607 0.00416678 11.5867L1.41656e-08 11.4583V1.875C-5.83516e-05 1.39989 0.180246 0.942482 0.504474 0.595206C0.828703 0.247929 1.27268 0.0366851 1.74667 0.00416676L1.875 0H5.1725ZM5.1725 1.25H1.875C1.72397 1.25001 1.57805 1.3047 1.46422 1.40397C1.3504 1.50324 1.27637 1.64037 1.25583 1.79L1.25 1.875V4.16583L5.1725 4.16667C5.28885 4.16653 5.40285 4.13392 5.50167 4.0725L5.5725 4.0225L7.14833 2.7075L5.57333 1.395C5.48367 1.32017 5.37483 1.27196 5.25917 1.25583L5.1725 1.25Z" fill="#737373"/>
</svg>
