<svg width="14" height="18" viewBox="0 0 14 18" fill="none" xmlns="http://www.w3.org/2000/svg">
<path d="M1.875 1.34827e-08C1.37772 1.34827e-08 0.900806 0.197544 0.549175 0.549175C0.197544 0.900806 0 1.37772 0 1.875V15.625C0 16.1223 0.197544 16.5992 0.549175 16.9508C0.900806 17.3025 1.37772 17.5 1.875 17.5H11.875C12.3723 17.5 12.8492 17.3025 13.2008 16.9508C13.5525 16.5992 13.75 16.1223 13.75 15.625V5.5175C13.7497 5.02048 13.5521 4.5439 13.2006 4.1925L9.55812 0.54875C9.20647 0.197324 8.72965 -5.95632e-05 8.2325 1.34827e-08H1.875ZM1.25 1.875C1.25 1.70924 1.31585 1.55027 1.43306 1.43306C1.55027 1.31585 1.70924 1.25 1.875 1.25H7.5V4.375C7.5 4.87228 7.69754 5.34919 8.04917 5.70083C8.40081 6.05246 8.87772 6.25 9.375 6.25H12.5V15.625C12.5 15.7908 12.4342 15.9497 12.3169 16.0669C12.1997 16.1842 12.0408 16.25 11.875 16.25H1.875C1.70924 16.25 1.55027 16.1842 1.43306 16.0669C1.31585 15.9497 1.25 15.7908 1.25 15.625V1.875ZM12.2413 5H9.375C9.20924 5 9.05027 4.93415 8.93306 4.81694C8.81585 4.69973 8.75 4.54076 8.75 4.375V1.50875L12.2413 5Z" fill="#175067"/>
</svg>
