<svg width="15" height="18" viewBox="0 0 15 18" fill="none" xmlns="http://www.w3.org/2000/svg">
<path d="M13.75 17.5H1.25C0.918581 17.4997 0.600831 17.3679 0.366482 17.1335C0.132133 16.8992 0.000330923 16.5814 0 16.25V1.25C0.000330923 0.918581 0.132133 0.600831 0.366482 0.366482C0.600831 0.132133 0.918581 0.000330923 1.25 0H13.75C14.0814 0.000330923 14.3992 0.132133 14.6335 0.366482C14.8679 0.600831 14.9997 0.918581 15 1.25V16.25C14.9997 16.5814 14.8679 16.8992 14.6335 17.1335C14.3992 17.3679 14.0814 17.4997 13.75 17.5ZM1.25 1.25V16.25H13.75V1.25H1.25Z" fill="#737373"/>
<path d="M3.125 6.875H10V8.125H3.125V6.875ZM3.125 10H7.5V11.25H3.125V10Z" fill="#737373"/>
</svg>
