<svg width="211" height="167" viewBox="0 0 211 167" fill="none" xmlns="http://www.w3.org/2000/svg">
<g opacity="0.5">
<path d="M0.0172421 27.5255C-0.0283664 27.1231 0.0167864 26.7155 0.149381 26.3328C0.281976 25.9501 0.498644 25.6019 0.78346 25.314C1.06828 25.026 1.414 24.8055 1.79523 24.6687C2.17645 24.5318 2.5835 24.4822 2.98643 24.5234H5.595C6.17932 24.4602 6.76766 24.5989 7.26227 24.9163C7.75689 25.2338 8.12798 25.7109 8.31391 26.2685C8.43563 26.6382 8.47318 27.0307 8.42085 27.4175V33.167C8.46665 33.5553 8.42438 33.9489 8.2972 34.3186C8.17002 34.6883 7.96118 35.0246 7.6862 35.3026C7.41122 35.5805 7.07715 35.7929 6.70882 35.924C6.34048 36.0552 5.94735 36.1016 5.55859 36.06H2.98757C2.39093 36.1368 1.78591 36.0082 1.27209 35.6954C0.758264 35.3825 0.366257 34.9041 0.160582 34.3387C0.0248678 33.964 -0.0241395 33.5634 0.0172421 33.167V27.5244V27.5255ZM3.63943 33.7096H4.76226C5.41412 33.7096 5.81228 33.7096 5.81228 32.6608V27.7781C5.81228 27.0546 5.48692 26.7656 4.87147 26.7656H3.53135C3.39697 26.754 3.26167 26.7724 3.13534 26.8197C3.009 26.867 2.8948 26.9419 2.80107 27.0389C2.70733 27.1359 2.63642 27.2526 2.59351 27.3805C2.55059 27.5083 2.53676 27.6442 2.553 27.7781V32.5515C2.5894 33.6004 3.20485 33.7096 3.67583 33.7096H3.63943V33.7096ZM13.2409 25.7884L15.3057 24.5222H17.8767V36.06H15.4866V27.0182L13.4218 27.4527L13.2398 25.7884H13.2409ZM23.0905 27.5255C23.022 26.9189 23.1604 26.3069 23.4834 25.7888C23.8064 25.2707 24.2949 24.8769 24.8697 24.6712C25.2508 24.5347 25.6581 24.4835 26.0608 24.5234H28.6694C29.2579 24.4518 29.8532 24.5854 30.3547 24.9017C30.8562 25.2179 31.2333 25.6974 31.4224 26.2594C31.5464 26.6325 31.5828 27.0284 31.5305 27.4175V33.1681C31.5996 33.7532 31.4679 34.3443 31.157 34.8447C30.8462 35.3451 30.3746 35.725 29.8195 35.9223C29.4509 36.0543 29.0573 36.1009 28.6694 36.0611H26.0608C25.4641 36.1379 24.8591 36.0093 24.3453 35.6965C23.8315 35.3836 23.4395 34.9052 23.2338 34.3399C23.0981 33.9651 23.0491 33.5645 23.0905 33.1681V27.5255V27.5255ZM26.7127 33.7096H27.873C28.5237 33.7096 28.8855 33.7096 28.8855 32.6619V27.7792C28.8855 27.0557 28.5601 26.7667 27.9811 26.7667H26.641C26.5065 26.7549 26.3712 26.7732 26.2447 26.8204C26.1183 26.8676 26.004 26.9425 25.9102 27.0395C25.8164 27.1366 25.7455 27.2534 25.7027 27.3814C25.6599 27.5093 25.6462 27.6453 25.6626 27.7792V32.5527C25.6117 32.707 25.6033 32.8721 25.6384 33.0308C25.6735 33.1894 25.7507 33.3357 25.8619 33.4541C25.9731 33.5726 26.1142 33.6588 26.2704 33.7038C26.4265 33.7488 26.5919 33.7508 26.7491 33.7096H26.7127V33.7096ZM36.6395 27.5233C36.571 26.9166 36.7095 26.3046 37.0325 25.7865C37.3554 25.2684 37.8439 24.8746 38.4188 24.669C38.7999 24.5325 39.2071 24.4813 39.6099 24.5211H42.2184C42.805 24.4474 43.399 24.5807 43.8978 24.898C44.3966 25.2154 44.7691 25.6968 44.951 26.2594C45.0704 26.6325 45.1023 27.0284 45.0431 27.4152V33.1659C45.1215 33.748 44.9976 34.3394 44.6921 34.8411C44.3867 35.3429 43.9182 35.7245 43.3651 35.9223C42.9982 36.0541 42.6061 36.1007 42.2184 36.0588H39.6099C39.0132 36.1361 38.408 36.0077 37.894 35.6948C37.3801 35.3819 36.9882 34.9032 36.7829 34.3376C36.6471 33.9629 36.5981 33.5623 36.6395 33.1659V27.5233V27.5233ZM40.2617 33.7085H41.4221C42.0364 33.7085 42.4346 33.7085 42.4346 32.6596V27.7758C42.4346 27.0523 42.1092 26.7633 41.4938 26.7633H40.19C40.0556 26.7515 39.9202 26.7698 39.7938 26.817C39.6673 26.8642 39.5531 26.9391 39.4593 27.0361C39.3655 27.1332 39.2946 27.25 39.2518 27.3779C39.2089 27.5059 39.1952 27.6419 39.2117 27.7758V32.5493C39.2481 33.5982 39.8271 33.7074 40.2981 33.7074H40.2617V33.7085ZM49.8587 25.7884L51.9599 24.5222H54.4956V36.06H51.9235V27.0182L49.8587 27.4527V25.7884V25.7884ZM59.4238 25.7884L61.4886 24.5222H64.0607V36.06H61.4886V27.0182L59.4238 27.4527V25.7884V25.7884ZM82.4982 25.7884L84.5982 24.5222H87.1704V36.06H84.5629V27.0182L82.4982 27.4527V25.7884V25.7884ZM92.3499 27.5255C92.28 26.9139 92.4205 26.2967 92.7482 25.7756C93.076 25.2545 93.5715 24.8606 94.1531 24.6587C94.5399 24.5245 94.9506 24.4778 95.3567 24.5245H97.9288C98.319 24.477 98.7148 24.5193 99.0861 24.6483C99.4574 24.7772 99.7943 24.9894 100.071 25.2685C100.348 25.5475 100.557 25.8864 100.681 26.2591C100.806 26.6317 100.843 27.0281 100.79 27.4175V33.1681C100.836 33.5561 100.793 33.9493 100.666 34.3186C100.539 34.6879 100.33 35.0238 100.055 35.3012C99.7803 35.5791 99.4465 35.7917 99.0785 35.9232C98.7104 36.0548 98.3175 36.1019 97.9288 36.0611H95.1758C94.579 36.1378 93.9739 36.0091 93.46 35.6963C92.946 35.3835 92.5537 34.9052 92.3477 34.3399C92.2122 33.9651 92.1636 33.5644 92.2055 33.1681L92.3499 27.5255V27.5255ZM95.9721 33.7096H97.095C97.7468 33.7096 98.1461 33.7096 98.1461 32.6619V27.7792C98.1461 27.0557 97.8196 26.7667 97.2042 26.7667H95.8641C95.7296 26.7549 95.5942 26.7732 95.4678 26.8204C95.3414 26.8676 95.2271 26.9425 95.1333 27.0395C95.0395 27.1366 94.9686 27.2534 94.9258 27.3814C94.8829 27.5093 94.8692 27.6453 94.8857 27.7792V32.5527C94.9585 33.6016 95.574 33.7096 96.0449 33.7096H95.9721V33.7096ZM11.3059 7.05633C11.2285 6.44535 11.3615 5.82624 11.6831 5.301C12.0046 4.77575 12.4955 4.37571 13.0748 4.16677C13.4591 4.02791 13.8697 3.97736 14.2762 4.01888H16.8836C17.472 3.94727 18.0671 4.08072 18.5686 4.39675C19.0701 4.71277 19.4473 5.19203 19.6367 5.75375C19.7618 6.12689 19.7982 6.52278 19.7459 6.91185V12.6625C19.8149 13.2477 19.683 13.8389 19.3719 14.3393C19.0609 14.8397 18.589 15.2196 18.0337 15.4167C17.6661 15.5488 17.2733 15.5962 16.8847 15.5555H14.2762C13.6794 15.6326 13.0741 15.5041 12.56 15.1913C12.046 14.8784 11.6538 14.3998 11.4481 13.8343C11.3127 13.4595 11.2641 13.0588 11.3059 12.6625V7.05633ZM14.928 13.204H16.0873C16.7391 13.204 17.1009 13.204 17.1009 12.1915V7.38168C17.1009 6.65816 16.7755 6.3692 16.1589 6.3692H14.8552C14.7208 6.35756 14.5856 6.37605 14.4592 6.42332C14.3329 6.47059 14.2187 6.54546 14.1249 6.64246C14.0312 6.73947 13.9603 6.85616 13.9174 6.98404C13.8745 7.11193 13.8606 7.24777 13.8769 7.38168V12.1563C13.839 12.2716 13.8247 12.3934 13.835 12.5144C13.8453 12.6354 13.8799 12.753 13.9367 12.8603C13.9935 12.9676 14.0714 13.0623 14.1657 13.1387C14.26 13.2152 14.3688 13.2718 14.4855 13.3053C14.6414 13.3508 14.8063 13.3531 14.9633 13.3132L14.928 13.204ZM38.776 7.05633C38.7075 6.44263 38.848 5.82377 39.1748 5.29982C39.5016 4.77587 39.9956 4.37747 40.5768 4.16904C40.9636 4.02912 41.3743 3.97792 41.7827 4.01888H44.4629C45.0514 3.94727 45.6465 4.08072 46.148 4.39675C46.6495 4.71277 47.0267 5.19203 47.216 5.75375C47.34 6.12689 47.3775 6.52278 47.3241 6.91185V12.6625C47.3696 13.0493 47.3275 13.4429 47.2012 13.8115C47.0085 14.3685 46.6331 14.844 46.1359 15.1606C45.6388 15.4772 45.0492 15.6164 44.4629 15.5555H41.8555C41.2587 15.6324 40.6535 15.5038 40.1395 15.191C39.6255 14.8782 39.2333 14.3997 39.0274 13.8343C38.8921 13.4594 38.8434 13.0588 38.8852 12.6625L38.776 7.05633V7.05633ZM42.3982 13.204H43.5574C44.2093 13.204 44.6074 13.204 44.6074 12.1915V7.38168C44.6074 6.65816 44.2821 6.3692 43.6666 6.3692H42.3254C42.191 6.35756 42.0557 6.37605 41.9293 6.42332C41.803 6.47059 41.6888 6.54546 41.5951 6.64246C41.5013 6.73947 41.4304 6.85616 41.3875 6.98404C41.3446 7.11193 41.3308 7.24777 41.347 7.38168V12.1563C41.3091 12.2716 41.2948 12.3934 41.3051 12.5144C41.3154 12.6354 41.35 12.753 41.4068 12.8603C41.4636 12.9676 41.5415 13.0623 41.6358 13.1387C41.7301 13.2152 41.8389 13.2718 41.9556 13.3053C42.1115 13.3508 42.2776 13.3531 42.4334 13.3132L42.3993 13.204H42.3982ZM51.9997 5.31918L54.1009 4.01774H56.6719V15.5532H54.0645V6.51368L51.9997 6.94825V5.32145V5.31918ZM15.4855 47.4532L17.5867 46.1507H20.1577V57.6873H17.5503V48.6466L15.4855 49.1164V47.4532ZM25.2633 49.1858C25.1858 48.575 25.3188 47.9559 25.6404 47.4309C25.962 46.9058 26.453 46.506 27.0323 46.2974C27.4166 46.1586 27.8272 46.108 28.2336 46.1495H30.8422C31.4262 46.0869 32.014 46.2258 32.5081 46.5432C33.0023 46.8607 33.373 47.3375 33.5589 47.8946C33.6817 48.2632 33.7181 48.6568 33.6669 49.0425V54.792C33.7128 55.1799 33.6706 55.573 33.5436 55.9423C33.4165 56.3116 33.2079 56.6475 32.9332 56.9251C32.6579 57.2026 32.3239 57.4149 31.9557 57.5464C31.5876 57.6779 31.1947 57.7253 30.8058 57.685H28.2348C27.638 57.7621 27.0327 57.6336 26.5186 57.3208C26.0046 57.0079 25.6124 56.5293 25.4067 55.9638C25.2708 55.5891 25.2218 55.1884 25.2633 54.792V49.187V49.1858ZM28.8855 55.3347H29.9731C30.6249 55.3347 31.0231 55.1538 31.0231 54.3222V49.4759C31.0231 48.716 30.6966 48.427 30.0811 48.427H28.741C28.6048 48.4209 28.4688 48.4444 28.3425 48.4959C28.2162 48.5474 28.1026 48.6258 28.0096 48.7255C27.9166 48.8253 27.8463 48.944 27.8037 49.0736C27.761 49.2032 27.747 49.3404 27.7627 49.4759V54.213C27.8355 55.2266 28.4509 55.3347 28.9231 55.3347H28.8855ZM38.487 47.4532L40.5518 46.1507H43.1228V57.6873H40.5518V48.6466L38.487 49.1164V47.4532ZM48.0863 47.4532L50.1863 46.1507H52.7585V57.6873H50.1499V48.6466L48.0863 49.1164V47.4532V47.4532ZM57.574 47.4532L59.6752 46.1507H62.2474V57.6873H59.6388V48.6466L57.574 49.1164V47.4532V47.4532ZM67.4281 49.187C67.3596 48.5733 67.5001 47.9544 67.8269 47.4305C68.1537 46.9065 68.6477 46.5081 69.2289 46.2997C69.6144 46.1607 70.0259 46.1094 70.4337 46.1495H73.0059C73.3962 46.1019 73.7923 46.1441 74.1637 46.2731C74.5352 46.402 74.8723 46.6143 75.1491 46.8935C75.4258 47.1725 75.6345 47.5115 75.759 47.8842C75.8835 48.2569 75.9204 48.6532 75.867 49.0425V54.7932C75.9363 55.3782 75.8047 55.9694 75.4938 56.4699C75.1829 56.9703 74.7112 57.3502 74.156 57.5473C73.7879 57.6795 73.3948 57.7269 73.0059 57.6861H70.4337C69.8351 57.7601 69.229 57.6308 68.7127 57.3191C68.1963 57.0074 67.7996 56.5313 67.5862 55.9672C67.446 55.5927 67.392 55.1914 67.4281 54.7932V49.187V49.187ZM71.0503 55.3347H72.2084C72.8602 55.3347 73.2595 55.1549 73.2595 54.3222V49.4759C73.2595 48.7171 72.933 48.4282 72.3176 48.4282H70.9775C70.7695 48.4093 70.5614 48.4626 70.388 48.579C70.2146 48.6954 70.0866 48.8679 70.0253 49.0675C69.9853 49.2002 69.9764 49.3403 69.9991 49.4771V54.2141C69.9573 54.3661 69.9558 54.5264 69.9947 54.6792C70.0336 54.832 70.1116 54.972 70.221 55.0855C70.3305 55.1993 70.4681 55.2822 70.6199 55.3259C70.7716 55.3697 70.9322 55.3727 71.0855 55.3347H71.0503V55.3347ZM80.6871 47.4532L82.7882 46.1507H85.3593V57.6873H82.7518V48.6466L80.6871 49.1164V47.4532ZM90.5389 49.187C90.4606 48.5759 90.5933 47.9564 90.915 47.431C91.2367 46.9055 91.7281 46.5056 92.3079 46.2974C92.6921 46.1586 93.1027 46.108 93.5092 46.1495H96.1178C96.5079 46.102 96.9038 46.1444 97.275 46.2733C97.6463 46.4023 97.9832 46.6144 98.2599 46.8935C98.5367 47.1725 98.7455 47.5115 98.8701 47.8841C98.9948 48.2568 99.032 48.6531 98.9789 49.0425V54.7932C99.0482 55.3782 98.9166 55.9694 98.6057 56.4699C98.2948 56.9703 97.8231 57.3502 97.2679 57.5473C96.8998 57.6795 96.5067 57.7269 96.1178 57.6861H93.5092C93.1134 57.7372 92.7113 57.6982 92.3327 57.5722C91.9541 57.4461 91.6088 57.2362 91.3227 56.9581C91.037 56.6799 90.818 56.3405 90.6823 55.9656C90.5465 55.5906 90.4975 55.1898 90.5389 54.7932V49.187V49.187ZM94.1611 55.3358H95.1758C95.8277 55.3358 96.2258 55.1549 96.2258 54.3222V49.4759C96.2258 48.7171 95.9005 48.4282 95.2839 48.4282H93.9802C93.7704 48.4109 93.5608 48.4642 93.3848 48.5796C93.2088 48.695 93.0764 48.866 93.0086 49.0652C92.9642 49.1973 92.9498 49.3376 92.9665 49.4759V54.2141C93.111 55.2266 93.7265 55.3358 94.1975 55.3358H94.1611V55.3358ZM9.54368 67.9202C9.48557 67.3087 9.63151 66.6952 9.95872 66.1753C10.2859 65.6555 10.776 65.2586 11.3525 65.0465C11.7349 64.9044 12.1439 64.8485 12.5504 64.8827H15.1214C15.5154 64.834 15.9152 64.8768 16.2899 65.0078C16.6646 65.1388 17.0041 65.3545 17.2818 65.6381C17.5591 65.9214 17.7669 66.2652 17.8887 66.6425C18.0105 67.0197 18.043 67.4201 17.9837 67.8121V73.5264C18.0515 74.1135 17.9199 74.7064 17.61 75.2097C17.3001 75.713 16.8298 76.0974 16.275 76.301C15.907 76.4373 15.5134 76.4901 15.1226 76.4557H12.514C11.9144 76.5235 11.3094 76.3872 10.7967 76.0689C10.284 75.7507 9.8935 75.269 9.68816 74.7015C9.55262 74.3256 9.50324 73.924 9.54368 73.5264V67.9202V67.9202ZM13.1659 74.0679H14.3251C14.977 74.0679 15.3399 74.0679 15.3399 73.0554V68.2819C15.3399 67.5584 15.0498 67.233 14.4343 67.233H13.0931C12.955 67.2198 12.8157 67.2386 12.6861 67.2879C12.5565 67.3372 12.44 67.4158 12.3456 67.5175C12.2515 67.6189 12.1818 67.7405 12.142 67.873C12.1021 68.0055 12.0932 68.1454 12.1158 68.2819V73.0554C12.0946 73.1998 12.1088 73.3472 12.1571 73.4849C12.2055 73.6227 12.2866 73.7466 12.3934 73.846C12.5003 73.9452 12.6295 74.0172 12.7701 74.0558C12.9107 74.0944 13.0586 74.0986 13.2011 74.0679H13.167H13.1659ZM22.7298 66.1853L24.831 64.8839H27.402V76.4569H24.7946V67.5595L22.731 68.0305V66.1853H22.7298ZM32.3279 66.1853L34.4291 64.8839H37.0002V76.4569H34.3927V67.5595L32.3279 68.0305V66.1853ZM42.2173 67.9224C42.1726 67.5185 42.2182 67.1096 42.3507 66.7254C42.4831 66.3412 42.6993 65.9912 42.9834 65.7006C43.2676 65.41 43.6127 65.1861 43.9939 65.0451C44.375 64.904 44.7827 64.8494 45.1876 64.885H47.795C48.1861 64.8412 48.582 64.888 48.9521 65.0217C49.3222 65.1555 49.6565 65.3726 49.9292 65.6563C50.2028 65.9385 50.4075 66.2801 50.5275 66.6544C50.6475 67.0287 50.6794 67.4257 50.6209 67.8144V73.5286C50.6658 73.9178 50.6233 74.3121 50.4963 74.6827C50.3694 75.0533 50.1612 75.3909 49.8871 75.6708C49.6128 75.9512 49.2797 76.1672 48.9119 76.3033C48.544 76.4395 48.1505 76.4923 47.7598 76.458H45.1887C44.7913 76.5029 44.3889 76.4583 44.011 76.3275C43.633 76.1968 43.2891 75.9832 43.0043 75.7024C42.7196 75.4215 42.5012 75.0806 42.3652 74.7045C42.2293 74.3284 42.1791 73.9266 42.2184 73.5286V67.9224H42.2173ZM45.8395 74.0702H46.9623C47.6142 74.0702 48.0135 74.0702 48.0135 73.0577V68.2842C48.0135 67.5607 47.687 67.2353 47.0715 67.2353H45.7314C45.5949 67.2287 45.4587 67.2519 45.3321 67.3034C45.2056 67.3549 45.0918 67.4334 44.9988 67.5334C44.9063 67.6336 44.8365 67.7525 44.7941 67.882C44.7517 68.0116 44.7377 68.1488 44.753 68.2842V73.0577C44.7894 73.9621 45.4049 74.0702 45.8759 74.0702H45.8395ZM55.7265 67.9202C55.6826 67.5134 55.7296 67.1019 55.8641 66.7155C55.9987 66.329 56.2175 65.9774 56.5047 65.6859C56.7931 65.3948 57.1428 65.1716 57.5283 65.0327C57.9138 64.8938 58.3254 64.8425 58.7333 64.8827H61.3054C61.6992 64.8341 62.0989 64.8769 62.4734 65.0079C62.8479 65.1389 63.1871 65.3546 63.4646 65.6381C63.7424 65.9211 63.9505 66.2648 64.0723 66.6422C64.1942 67.0196 64.2264 67.4201 64.1665 67.8121V73.5264C64.2115 73.9155 64.1689 74.3098 64.042 74.6804C63.915 75.0511 63.7069 75.3886 63.4328 75.6685C63.1585 75.949 62.8254 76.165 62.4576 76.3012C62.0897 76.4373 61.6962 76.4901 61.3054 76.4557H58.6969C58.2993 76.5015 57.8965 76.4575 57.5181 76.327C57.1398 76.1966 56.7955 75.983 56.5105 75.702C56.2256 75.421 56.0073 75.0797 55.8716 74.7032C55.7359 74.3267 55.6863 73.9245 55.7265 73.5264V67.9202V67.9202ZM59.3487 74.0679H60.508C61.1609 74.0679 61.5591 74.0679 61.5591 73.0554V68.2819C61.5591 67.5584 61.2326 67.233 60.6172 67.233H59.277C59.139 67.2198 58.9999 67.2385 58.8702 67.2876C58.7406 67.3368 58.624 67.4151 58.5294 67.5164C58.4349 67.6178 58.3649 67.7396 58.3249 67.8723C58.2849 68.005 58.2759 68.1452 58.2987 68.2819V73.0554C58.2787 73.1999 58.2935 73.347 58.342 73.4846C58.3905 73.6221 58.4712 73.7461 58.5774 73.846C58.6843 73.9452 58.8135 74.0172 58.9541 74.0558C59.0947 74.0944 59.2426 74.0986 59.3851 74.0679H59.3487V74.0679ZM69.2756 67.9202C69.2071 67.3065 69.3476 66.6876 69.6744 66.1637C70.0012 65.6397 70.4952 65.2413 71.0764 65.0329C71.4618 64.8936 71.8734 64.8423 72.2812 64.8827H74.8533C75.2471 64.8341 75.6468 64.8769 76.0213 65.0079C76.3958 65.1389 76.735 65.3546 77.0126 65.6381C77.2893 65.9218 77.4967 66.2656 77.6185 66.6428C77.7403 67.0199 77.7731 67.4201 77.7145 67.8121V73.5264C77.76 73.9154 77.7167 74.309 77.5893 74.6799C77.4631 75.0512 77.2554 75.3895 76.9814 75.67C76.7073 75.9505 76.374 76.1662 76.0058 76.301C75.6383 76.4375 75.2447 76.4899 74.8533 76.4557H72.2459C71.8483 76.5015 71.4456 76.4575 71.0672 76.327C70.6889 76.1966 70.3445 75.983 70.0596 75.702C69.7747 75.421 69.5563 75.0797 69.4206 74.7032C69.285 74.3267 69.2354 73.9245 69.2756 73.5264V67.9202V67.9202ZM72.8978 74.0679H74.057C74.6725 74.0679 75.0706 74.0679 75.0706 73.0554V68.2819C75.0706 67.5584 74.7453 67.233 74.1287 67.233H72.825C72.687 67.2198 72.5478 67.2385 72.4181 67.2876C72.2885 67.3368 72.1719 67.4151 72.0774 67.5164C71.9828 67.6178 71.9128 67.7396 71.8728 67.8723C71.8328 68.005 71.8238 68.1452 71.8466 68.2819V73.0554C71.8266 73.1999 71.8414 73.347 71.8899 73.4846C71.9384 73.6221 72.0191 73.7461 72.1253 73.846C72.2325 73.9452 72.3619 74.0171 72.5027 74.0557C72.6434 74.0943 72.7915 74.0985 72.9342 74.0679H72.8978V74.0679ZM82.4982 66.1853L84.5982 64.8839H87.1704V76.4569H84.5629V67.5595L82.4982 68.0305V66.1853ZM92.3488 67.9202C92.3049 67.5134 92.3519 67.1019 92.4864 66.7155C92.621 66.329 92.8398 65.9774 93.1269 65.6859C93.4154 65.3948 93.765 65.1716 94.1506 65.0327C94.5361 64.8938 94.9477 64.8425 95.3556 64.8827H97.9277C98.3215 64.8341 98.7211 64.8769 99.0956 65.0079C99.4701 65.1389 99.8094 65.3546 100.087 65.6381C100.365 65.9211 100.573 66.2648 100.695 66.6422C100.816 67.0196 100.849 67.4201 100.789 67.8121V73.5264C100.834 73.9155 100.791 74.3098 100.664 74.6804C100.537 75.0511 100.329 75.3886 100.055 75.6685C99.781 75.9492 99.4479 76.1654 99.08 76.3015C98.7121 76.4377 98.3185 76.4903 97.9277 76.4557H95.1747C94.7768 76.5001 94.3741 76.4554 93.9957 76.3247C93.6173 76.1941 93.2727 75.9808 92.987 75.7004C92.7026 75.4194 92.4847 75.0783 92.3493 74.7021C92.2138 74.3259 92.1643 73.9242 92.2043 73.5264L92.3488 67.9202V67.9202ZM95.971 74.0679H97.095C97.7468 74.0679 98.145 74.0679 98.145 73.0554V68.2819C98.145 67.5584 97.8185 67.233 97.203 67.233H95.8629C95.7268 67.2273 95.591 67.251 95.4649 67.3027C95.3388 67.3544 95.2254 67.4327 95.1324 67.5324C95.0395 67.632 94.9692 67.7506 94.9264 67.88C94.8836 68.0094 94.8694 68.1465 94.8846 68.2819V73.0554C94.9574 73.9598 95.5728 74.0679 96.0438 74.0679H95.971ZM103.25 27.5437C103.203 27.1416 103.249 26.7342 103.381 26.3518C103.514 25.9694 103.731 25.6217 104.016 25.3345C104.302 25.047 104.647 24.8267 105.029 24.6895C105.41 24.5524 105.817 24.5018 106.22 24.5416H108.828C109.219 24.4942 109.615 24.5367 109.986 24.6659C110.357 24.795 110.694 25.0074 110.971 25.2867C111.247 25.5657 111.456 25.9046 111.581 26.2773C111.705 26.6499 111.743 27.0463 111.689 27.4357V33.1852C111.735 33.5731 111.693 33.9664 111.566 34.3357C111.439 34.705 111.23 35.0408 110.955 35.3182C110.68 35.5962 110.346 35.8088 109.978 35.9403C109.61 36.0718 109.217 36.1189 108.828 36.0782H106.22C105.824 36.1292 105.422 36.0903 105.043 35.9642C104.665 35.8381 104.319 35.6282 104.033 35.3501C103.747 35.0724 103.527 34.7332 103.392 34.3581C103.256 33.983 103.207 33.5819 103.25 33.1852V27.5437V27.5437ZM106.872 33.7278H108.031C108.683 33.7278 109.046 33.7278 109.046 32.679V27.7986C109.046 27.075 108.719 26.7861 108.14 26.7861H106.8C106.666 26.7742 106.53 26.7926 106.404 26.8398C106.277 26.887 106.163 26.9618 106.069 27.0589C105.975 27.1559 105.905 27.2727 105.862 27.4007C105.819 27.5287 105.805 27.6646 105.822 27.7986V32.572C105.77 32.726 105.762 32.891 105.797 33.0495C105.832 33.208 105.909 33.354 106.021 33.4719C106.132 33.59 106.273 33.6762 106.429 33.7214C106.585 33.7666 106.751 33.7692 106.908 33.729H106.872V33.7278ZM116.796 27.5415C116.752 27.1391 116.797 26.7318 116.93 26.3494C117.063 25.9669 117.28 25.6191 117.565 25.3313C117.85 25.0435 118.195 24.823 118.576 24.686C118.957 24.5489 119.364 24.4988 119.767 24.5393H122.375C122.962 24.4654 123.556 24.5986 124.055 24.9159C124.554 25.2333 124.926 25.7149 125.108 26.2776C125.227 26.6507 125.259 27.0455 125.2 27.4334V33.1829C125.279 33.7652 125.156 34.357 124.85 34.8589C124.544 35.3608 124.075 35.7423 123.522 35.9394C123.155 36.071 122.763 36.1177 122.375 36.0759H119.767C119.371 36.1269 118.969 36.088 118.59 35.9619C118.211 35.8358 117.866 35.6259 117.58 35.3478C117.294 35.0696 117.075 34.7303 116.94 34.3553C116.804 33.9804 116.755 33.5795 116.796 33.1829V27.5415V27.5415ZM120.418 33.7256H121.578C122.193 33.7256 122.592 33.7256 122.592 32.6767V27.7952C122.592 27.0716 122.266 26.7827 121.651 26.7827H120.347C120.212 26.7708 120.077 26.7892 119.951 26.8364C119.824 26.8836 119.71 26.9584 119.616 27.0555C119.522 27.1525 119.451 27.2693 119.409 27.3973C119.366 27.5253 119.352 27.6612 119.368 27.7952V32.5686C119.405 33.6175 119.984 33.7256 120.455 33.7256H120.418ZM130.017 25.8066L132.118 24.5404H134.654V36.077H132.081V27.0364L130.017 27.4698V25.8077V25.8066ZM139.582 25.8066L141.646 24.5404H144.219V36.077H141.646V27.0364L139.582 27.4698V25.8077V25.8066ZM149.433 27.5437C149.389 27.1382 149.436 26.7277 149.571 26.3427C149.706 25.9577 149.926 25.6082 150.215 25.3198C150.504 25.0315 150.854 24.8119 151.239 24.6771C151.624 24.5424 152.035 24.4961 152.44 24.5416H155.012C155.403 24.4942 155.799 24.5367 156.17 24.6659C156.541 24.795 156.878 25.0074 157.155 25.2867C157.431 25.5657 157.64 25.9046 157.765 26.2773C157.889 26.6499 157.927 27.0463 157.873 27.4357V33.1852C157.919 33.5731 157.877 33.9664 157.75 34.3357C157.623 34.705 157.414 35.0408 157.139 35.3182C156.864 35.5962 156.53 35.8088 156.162 35.9403C155.794 36.0718 155.401 36.1189 155.012 36.0782H152.404C152.008 36.1292 151.606 36.0903 151.227 35.9642C150.849 35.8381 150.503 35.6282 150.217 35.3501C149.931 35.0724 149.711 34.7332 149.576 34.3581C149.44 33.983 149.391 33.5819 149.433 33.1852V27.5437V27.5437ZM153.056 33.7278H154.215C154.83 33.7278 155.23 33.7278 155.23 32.679V27.7986C155.23 27.075 154.903 26.7861 154.288 26.7861H152.984C152.85 26.7742 152.714 26.7926 152.588 26.8398C152.461 26.887 152.347 26.9618 152.253 27.0589C152.159 27.1559 152.089 27.2727 152.046 27.4007C152.003 27.5287 151.989 27.6646 152.006 27.7986V32.572C151.954 32.7261 151.946 32.8912 151.981 33.0497C152.016 33.2081 152.094 33.3541 152.206 33.4719C152.317 33.5906 152.458 33.6772 152.614 33.7225C152.77 33.7678 152.935 33.77 153.092 33.729H153.056V33.7278ZM162.656 25.8066L164.757 24.5404H167.329V36.077H164.721V27.0364L162.656 27.4698V25.8077V25.8066ZM172.508 27.5437C172.438 26.9321 172.579 26.315 172.906 25.794C173.234 25.2729 173.729 24.8789 174.311 24.6769C174.697 24.542 175.108 24.4958 175.515 24.5416H178.087C178.477 24.4937 178.873 24.5359 179.244 24.665C179.615 24.794 179.952 25.0064 180.228 25.2859C180.504 25.5654 180.713 25.9045 180.838 26.2772C180.962 26.6498 181 27.0462 180.948 27.4357V33.1852C180.994 33.5731 180.951 33.9664 180.824 34.3357C180.697 34.705 180.488 35.0408 180.213 35.3182C179.938 35.5962 179.604 35.8088 179.236 35.9403C178.868 36.0718 178.475 36.1189 178.087 36.0782H175.334C174.737 36.1549 174.132 36.0264 173.618 35.7138C173.104 35.4013 172.712 34.9232 172.506 34.3581C172.37 33.9833 172.321 33.5826 172.363 33.1863L172.508 27.5437V27.5437ZM176.13 33.7278H177.253C177.905 33.7278 178.304 33.7278 178.304 32.679V27.7986C178.304 27.075 177.978 26.7861 177.362 26.7861H176.022C175.888 26.7742 175.752 26.7926 175.626 26.8398C175.499 26.887 175.385 26.9618 175.291 27.0589C175.197 27.1559 175.126 27.2727 175.084 27.4007C175.041 27.5287 175.027 27.6646 175.044 27.7986V32.572C175.116 33.6209 175.732 33.729 176.203 33.729H176.13V33.7278ZM105.422 7.07339C105.345 6.46236 105.477 5.84306 105.799 5.31773C106.121 4.79239 106.612 4.39242 107.191 4.18383C107.576 4.04501 107.986 3.99447 108.393 4.03594H111.001C111.388 3.99417 111.78 4.04087 112.146 4.17253C112.513 4.30419 112.845 4.51737 113.117 4.79597C113.389 5.07457 113.594 5.41133 113.717 5.78082C113.84 6.15031 113.877 6.54288 113.826 6.92891V12.6796C113.872 13.0675 113.829 13.4608 113.702 13.8301C113.575 14.1994 113.366 14.5352 113.091 14.8126C112.816 15.0905 112.483 15.3031 112.114 15.4347C111.746 15.5662 111.354 15.6133 110.965 15.5726H108.393C107.997 15.6236 107.595 15.5846 107.216 15.4586C106.838 15.3325 106.492 15.1226 106.206 14.8445C105.92 14.5663 105.702 14.227 105.566 13.852C105.43 13.4771 105.381 13.0762 105.422 12.6796V7.07339V7.07339ZM109.045 13.2211H110.131C110.784 13.2211 111.182 13.2211 111.182 12.2086V7.39875C111.182 6.67522 110.856 6.38627 110.24 6.38627H108.9C108.766 6.37441 108.63 6.39275 108.504 6.43995C108.377 6.48715 108.263 6.56201 108.169 6.65906C108.076 6.75612 108.005 6.8729 107.962 7.00088C107.919 7.12886 107.905 7.2648 107.922 7.39875V12.1733C107.995 13.113 108.61 13.3303 109.081 13.3303L109.045 13.2211ZM118.934 7.07453C118.865 6.46065 119.005 5.84152 119.332 5.31734C119.659 4.79315 120.153 4.39458 120.735 4.18611C121.121 4.04701 121.532 3.99571 121.941 4.03594H124.621C125.209 3.96424 125.804 4.09781 126.306 4.41409C126.807 4.73037 127.184 5.20999 127.373 5.77195C127.498 6.14395 127.535 6.54098 127.482 6.93005V12.6796C127.528 13.0674 127.486 13.4606 127.359 13.8299C127.232 14.1992 127.023 14.5351 126.748 14.8126C126.473 15.0906 126.139 15.3034 125.771 15.4351C125.403 15.5668 125.01 15.6142 124.621 15.5737H122.013C121.417 15.6508 120.811 15.5223 120.297 15.2095C119.783 14.8966 119.391 14.418 119.185 13.8525C119.05 13.4777 119.001 13.077 119.043 12.6807L118.934 7.07453V7.07453ZM122.556 13.2222H123.715C124.367 13.2222 124.765 13.2222 124.765 12.2097V7.40103C124.765 6.6775 124.44 6.38854 123.825 6.38854H122.483C122.349 6.37665 122.214 6.39498 122.087 6.44218C121.961 6.48939 121.846 6.56427 121.753 6.66135C121.659 6.75843 121.588 6.87524 121.546 7.00323C121.503 7.13122 121.489 7.26714 121.506 7.40103V12.1745C121.454 12.3286 121.446 12.4939 121.481 12.6526C121.516 12.8113 121.593 12.9575 121.705 13.0755C121.817 13.1936 121.958 13.2798 122.114 13.325C122.27 13.3702 122.435 13.3728 122.592 13.3326L122.556 13.2234V13.2222ZM141.719 5.33738L143.819 4.0348H146.355V15.5726H143.748V6.53074L141.683 6.96418L141.719 5.33738V5.33738ZM151.28 5.33738L153.345 4.0348H155.917V15.5726H153.345V6.53074L151.28 6.96418V5.33738ZM105.422 49.204C105.344 48.5929 105.477 47.9735 105.798 47.448C106.12 46.9226 106.612 46.5227 107.191 46.3145C107.576 46.1757 107.986 46.1251 108.393 46.1666H111.001C111.388 46.1248 111.78 46.1715 112.146 46.3032C112.513 46.4348 112.845 46.648 113.117 46.9266C113.389 47.2052 113.594 47.542 113.717 47.9115C113.84 48.281 113.877 48.6735 113.826 49.0596V54.8102C113.872 55.1981 113.829 55.5914 113.702 55.9607C113.575 56.33 113.366 56.6658 113.091 56.9433C112.816 57.2207 112.482 57.433 112.114 57.5645C111.746 57.696 111.354 57.7434 110.965 57.7032H108.393C107.997 57.7542 107.595 57.7153 107.216 57.5892C106.838 57.4631 106.492 57.2532 106.206 56.9751C105.92 56.6969 105.702 56.3576 105.566 55.9827C105.43 55.6077 105.381 55.2069 105.422 54.8102V49.204V49.204ZM109.045 55.3529H110.131C110.784 55.3529 111.182 55.172 111.182 54.3404V49.4941C111.182 48.7342 110.856 48.4452 110.24 48.4452H108.9C108.695 48.4365 108.492 48.4948 108.323 48.6114C108.154 48.728 108.027 48.8965 107.963 49.0914C107.92 49.221 107.906 49.3585 107.922 49.4941V54.2312C107.995 55.2437 108.61 55.3529 109.081 55.3529H109.045ZM118.644 47.4714L120.709 46.1689H123.281V57.7055H120.709V48.6648L118.644 49.1346V47.4714ZM128.244 47.4714L130.345 46.1689H132.918V57.7055H130.309V48.6648L128.244 49.1346V47.4714ZM137.732 47.4714L139.833 46.1689H142.405V57.7055H139.797V48.6648L137.732 49.1346V47.4714ZM147.587 49.2052C147.519 48.5915 147.659 47.9726 147.986 47.4487C148.313 46.9247 148.807 46.5263 149.388 46.3179C149.773 46.1789 150.185 46.1276 150.593 46.1677H153.165C153.753 46.0962 154.348 46.2297 154.849 46.5457C155.351 46.8617 155.728 47.341 155.917 47.9026C156.042 48.2757 156.079 48.6716 156.026 49.0607V54.8102C156.072 55.1981 156.03 55.5913 155.903 55.9606C155.776 56.3299 155.567 56.6658 155.292 56.9433C155.018 57.2217 154.684 57.4347 154.315 57.5664C153.947 57.6982 153.554 57.7453 153.165 57.7043H150.593C150.196 57.754 149.793 57.7143 149.413 57.5881C149.034 57.4619 148.687 57.2524 148.399 56.9749C148.111 56.6975 147.888 56.3591 147.748 55.9845C147.607 55.61 147.552 55.2087 147.587 54.8102V49.2052ZM151.209 55.3529H152.367C153.019 55.3529 153.419 55.172 153.419 54.3404V49.4941C153.419 48.7353 153.092 48.4452 152.477 48.4452H151.136C150.999 48.4325 150.86 48.4515 150.73 48.5008C150.601 48.5501 150.484 48.6284 150.39 48.7296C150.296 48.8309 150.226 48.9525 150.185 49.085C150.145 49.2175 150.136 49.3575 150.158 49.4941V54.2323C150.116 54.3843 150.115 54.5446 150.154 54.6974C150.193 54.8502 150.271 54.9902 150.38 55.1037C150.49 55.2166 150.628 55.2989 150.779 55.3426C150.931 55.3863 151.091 55.3898 151.245 55.3529H151.209V55.3529ZM160.845 47.4714L162.946 46.1689H165.517V57.7055H162.91V48.6648L160.845 49.1346V47.4714ZM170.697 49.2052C170.619 48.5941 170.752 47.9748 171.073 47.4495C171.395 46.9242 171.886 46.5242 172.466 46.3156C172.85 46.1768 173.261 46.1262 173.667 46.1677H176.276C176.864 46.0962 177.459 46.2297 177.96 46.5457C178.461 46.8617 178.838 47.341 179.028 47.9026C179.153 48.2757 179.189 48.6716 179.137 49.0607V54.8102C179.183 55.1982 179.14 55.5914 179.013 55.9608C178.886 56.3301 178.677 56.6659 178.402 56.9433C178.127 57.2218 177.794 57.4349 177.426 57.5666C177.058 57.6984 176.664 57.7455 176.276 57.7043H173.667C173.271 57.7552 172.869 57.7161 172.49 57.5898C172.112 57.4636 171.767 57.2534 171.481 56.9751C171.195 56.6971 170.976 56.3578 170.84 55.9828C170.704 55.6078 170.655 55.2069 170.697 54.8102V49.2052V49.2052ZM174.319 55.3529H175.334C175.986 55.3529 176.384 55.172 176.384 54.3404V49.4941C176.384 48.7353 176.058 48.4452 175.442 48.4452H174.138C173.928 48.428 173.719 48.4812 173.543 48.5967C173.367 48.7121 173.234 48.883 173.167 49.0823C173.122 49.2147 173.108 49.3554 173.124 49.4941V54.2323C173.269 55.2448 173.884 55.3529 174.355 55.3529H174.319V55.3529ZM102.889 66.2035L104.99 64.9021H107.562V76.4739H104.954V67.5777L102.889 68.0476V66.2035V66.2035ZM112.486 66.2035L114.587 64.9021H117.158V76.4739H114.551V67.5777L112.486 68.0476V66.2035V66.2035ZM122.375 67.9406C122.33 67.537 122.376 67.1283 122.508 66.7444C122.641 66.3605 122.857 66.0109 123.142 65.7211C123.426 65.4311 123.771 65.2073 124.152 65.0657C124.533 64.9241 124.941 64.8683 125.346 64.9021H127.953C128.542 64.8387 129.135 64.98 129.633 65.3024C130.13 65.6247 130.502 66.1084 130.684 66.6722C130.804 67.0465 130.837 67.4435 130.779 67.8314V73.5457C130.846 74.133 130.715 74.726 130.405 75.2294C130.095 75.7328 129.625 76.1174 129.07 76.3215C128.701 76.458 128.308 76.5103 127.918 76.4751H125.346C124.948 76.5204 124.545 76.4761 124.167 76.3455C123.789 76.2149 123.445 76.0013 123.16 75.7204C122.875 75.4395 122.657 75.0983 122.521 74.722C122.385 74.3457 122.335 73.9438 122.375 73.5457V67.9406V67.9406ZM125.997 74.0884H127.12C127.772 74.0884 128.17 74.0884 128.17 73.0759V68.3024C128.17 67.5789 127.845 67.2535 127.229 67.2535H125.888C125.752 67.2467 125.616 67.2698 125.489 67.3212C125.363 67.3725 125.249 67.4509 125.156 67.5508C125.063 67.6507 124.992 67.7697 124.95 67.8995C124.908 68.0294 124.895 68.1669 124.911 68.3024V73.0759C124.947 73.9803 125.563 74.0884 126.034 74.0884H125.997V74.0884ZM135.884 67.9384C135.84 67.5316 135.887 67.12 136.022 66.7335C136.156 66.3471 136.375 65.9954 136.663 65.7041C136.951 65.4132 137.301 65.1902 137.686 65.0511C138.072 64.912 138.483 64.8603 138.891 64.8998H141.463C141.857 64.8512 142.257 64.8941 142.631 65.0251C143.006 65.1561 143.345 65.3717 143.623 65.6552C143.9 65.9386 144.107 66.2825 144.229 66.6597C144.351 67.0369 144.383 67.4372 144.324 67.8292V73.5434C144.392 74.1307 144.26 74.7237 143.951 75.2271C143.641 75.7305 143.171 76.1152 142.616 76.3192C142.247 76.4557 141.854 76.5081 141.463 76.4728H138.855C138.457 76.5179 138.055 76.4734 137.677 76.3428C137.299 76.2121 136.955 75.9985 136.67 75.7176C136.385 75.4368 136.167 75.0957 136.031 74.7195C135.895 74.3433 135.845 73.9415 135.884 73.5434V67.9384V67.9384ZM139.507 74.0861H140.666C141.318 74.0861 141.717 74.0861 141.717 73.0736V68.3001C141.717 67.5766 141.391 67.2512 140.775 67.2512H139.435C139.297 67.2376 139.157 67.2559 139.028 67.3049C138.898 67.3539 138.781 67.4322 138.686 67.5336C138.592 67.6351 138.522 67.7571 138.482 67.89C138.442 68.023 138.433 68.1633 138.457 68.3001V73.0736C138.435 73.2181 138.449 73.3656 138.498 73.5035C138.546 73.6413 138.627 73.7654 138.734 73.865C138.841 73.9646 138.97 74.0367 139.111 74.0753C139.252 74.1138 139.4 74.1175 139.543 74.0861H139.507ZM149.433 67.9384C149.388 67.5316 149.434 67.1197 149.568 66.7331C149.703 66.3464 149.922 65.9948 150.21 65.7041C150.499 65.4132 150.849 65.1902 151.234 65.0511C151.62 64.912 152.031 64.8603 152.439 64.8998H155.011C155.405 64.8512 155.805 64.8941 156.179 65.0251C156.554 65.1561 156.893 65.3717 157.17 65.6552C157.448 65.9386 157.655 66.2825 157.777 66.6597C157.899 67.0369 157.931 67.4372 157.872 67.8292V73.5434C157.918 73.9325 157.875 74.3273 157.747 74.6981C157.621 75.0694 157.413 75.4077 157.139 75.6882C156.865 75.9687 156.532 76.1844 156.164 76.3192C155.796 76.4557 155.403 76.5081 155.011 76.4728H152.403C152.005 76.5186 151.602 76.4746 151.224 76.344C150.845 76.2135 150.501 75.9998 150.216 75.7186C149.932 75.4373 149.714 75.096 149.578 74.7197C149.443 74.3433 149.393 73.9414 149.433 73.5434V67.9384V67.9384ZM153.056 74.0861H154.215C154.83 74.0861 155.229 74.0861 155.229 73.0736V68.3001C155.229 67.5766 154.903 67.2512 154.287 67.2512H152.983C152.845 67.238 152.706 67.2567 152.576 67.3059C152.446 67.355 152.33 67.4333 152.235 67.5346C152.141 67.636 152.071 67.7578 152.031 67.8905C151.991 68.0232 151.982 68.1634 152.004 68.3001V73.0736C151.983 73.2181 151.997 73.3656 152.046 73.5035C152.094 73.6413 152.175 73.7654 152.282 73.865C152.389 73.9646 152.518 74.0367 152.659 74.0753C152.8 74.1138 152.948 74.1175 153.091 74.0861H153.056ZM162.656 66.2035L164.757 64.9021H167.329V76.4739H164.721V67.5777L162.656 68.0476V66.2035ZM33.2619 106.297L35.3631 105.031H37.9341V116.567H35.3267V107.525L33.2619 107.96V106.297ZM43.149 108.033C43.0803 107.426 43.2187 106.814 43.5417 106.296C43.8646 105.778 44.3533 105.384 44.9282 105.178C45.3093 105.041 45.7162 104.99 46.1193 105.031H48.7267C49.1141 104.989 49.5059 105.035 49.8726 105.167C50.2393 105.298 50.5713 105.512 50.8435 105.79C51.1156 106.069 51.3209 106.406 51.4438 106.776C51.5666 107.146 51.6038 107.538 51.5526 107.925V113.674C51.5985 114.062 51.5562 114.455 51.429 114.825C51.3017 115.194 51.0928 115.53 50.8177 115.807C50.5426 116.085 50.2088 116.297 49.8408 116.428C49.4729 116.56 49.0801 116.607 48.6915 116.567H46.1193C45.7236 116.618 45.3213 116.579 44.9427 116.453C44.5641 116.327 44.2189 116.117 43.9328 115.839C43.6475 115.561 43.4288 115.221 43.2931 114.846C43.1574 114.471 43.1081 114.071 43.149 113.674V108.033V108.033ZM46.7712 114.217H47.894C48.5459 114.217 48.944 114.217 48.944 113.168V108.286C48.944 107.563 48.6187 107.273 48.0032 107.273H46.6631C46.5287 107.261 46.3933 107.28 46.267 107.327C46.1407 107.375 46.0265 107.45 45.9328 107.547C45.8391 107.644 45.7682 107.761 45.7253 107.889C45.6824 108.017 45.6685 108.152 45.6847 108.286V113.06C45.7212 114.109 46.3366 114.217 46.8076 114.217H46.7712ZM56.3716 106.297L58.4363 105.031H61.0074V116.567H58.6172V107.525L56.5524 107.96L56.3716 106.297ZM66.2222 108.034C66.177 107.631 66.2225 107.224 66.3553 106.841C66.4881 106.459 66.7049 106.111 66.9897 105.823C67.2746 105.535 67.6203 105.314 68.0015 105.177C68.3826 105.041 68.7896 104.991 69.1925 105.032H71.8011C72.1915 104.983 72.5878 105.025 72.9594 105.154C73.331 105.283 73.668 105.496 73.9444 105.776C74.2201 106.055 74.4281 106.394 74.5525 106.767C74.677 107.139 74.7145 107.535 74.6622 107.925V113.675C74.7081 114.063 74.6659 114.456 74.5389 114.826C74.4119 115.195 74.2032 115.531 73.9285 115.808C73.6531 116.086 73.3191 116.298 72.951 116.43C72.5829 116.561 72.1899 116.608 71.8011 116.568H69.1925C68.7968 116.619 68.3946 116.58 68.016 116.454C67.6374 116.328 67.2922 116.118 67.006 115.84C66.7203 115.562 66.5014 115.223 66.3656 114.848C66.2299 114.473 66.1808 114.072 66.2222 113.675V108.034V108.034ZM69.8444 114.218H71.0036C71.6555 114.218 72.0184 114.218 72.0184 113.169V108.286C72.0184 107.563 71.6919 107.274 71.1128 107.274H69.7727C69.5702 107.258 69.368 107.31 69.1981 107.421C69.0282 107.532 68.9002 107.697 68.8342 107.889C68.791 108.017 68.7773 108.153 68.7944 108.286V113.061C68.7428 113.215 68.7341 113.38 68.7694 113.539C68.8047 113.697 68.8825 113.843 68.9946 113.961C69.1056 114.079 69.2464 114.166 69.4024 114.211C69.5583 114.256 69.7236 114.259 69.8808 114.218H69.8444ZM79.7701 108.032C79.7019 107.425 79.8404 106.813 80.1633 106.295C80.4863 105.777 80.9747 105.383 81.5494 105.177C81.9304 105.04 82.3374 104.989 82.7405 105.029H85.349C85.7376 104.981 86.1322 105.022 86.5019 105.152C86.8716 105.281 87.2064 105.494 87.48 105.774C87.7536 106.054 87.9586 106.394 88.079 106.767C88.1993 107.14 88.2318 107.535 88.1738 107.922V113.673C88.2254 114.059 88.1886 114.452 88.0659 114.822C87.9433 115.192 87.7381 115.529 87.466 115.807C87.1938 116.086 86.8617 116.299 86.495 116.431C86.1282 116.562 85.7363 116.608 85.349 116.566H82.7405C82.3447 116.617 81.9425 116.578 81.564 116.452C81.1854 116.326 80.8401 116.116 80.554 115.838C80.2683 115.56 80.0493 115.22 79.9135 114.845C79.7778 114.47 79.7288 114.07 79.7701 113.673V108.032V108.032ZM83.3923 114.216H84.5516C85.167 114.216 85.5663 114.216 85.5663 113.167V108.284C85.5663 107.562 85.2398 107.272 84.6244 107.272H83.3207C83.1181 107.256 82.916 107.307 82.7461 107.419C82.5762 107.53 82.4481 107.695 82.3821 107.887C82.3389 108.015 82.3253 108.15 82.3423 108.284V113.059C82.3787 114.108 82.9578 114.216 83.4287 114.216H83.3923V114.216ZM92.9904 106.297L95.0916 105.031H97.6274V116.567H95.0552V107.525L92.9904 107.96V106.297V106.297ZM102.556 106.297L104.62 105.031H107.192V116.567H104.62V107.525L102.556 107.96V106.297ZM112.406 108.034C112.36 107.628 112.406 107.217 112.541 106.832C112.676 106.447 112.896 106.097 113.185 105.809C113.474 105.521 113.825 105.3 114.21 105.166C114.596 105.032 115.007 104.986 115.413 105.032H117.985C118.375 104.983 118.772 105.025 119.143 105.154C119.515 105.283 119.852 105.496 120.128 105.776C120.405 106.055 120.614 106.394 120.738 106.766C120.862 107.139 120.9 107.535 120.846 107.925V113.675C120.892 114.063 120.85 114.456 120.723 114.826C120.596 115.195 120.387 115.531 120.112 115.808C119.837 116.086 119.503 116.298 119.135 116.43C118.767 116.561 118.374 116.608 117.985 116.568H115.377C114.981 116.62 114.579 116.581 114.2 116.455C113.822 116.329 113.477 116.119 113.191 115.841C112.905 115.563 112.686 115.223 112.55 114.848C112.414 114.473 112.365 114.072 112.406 113.675V108.034V108.034ZM116.028 114.218H117.188C117.804 114.218 118.202 114.218 118.202 113.169V108.286C118.202 107.563 117.876 107.274 117.26 107.274H115.957C115.754 107.258 115.552 107.31 115.382 107.421C115.212 107.532 115.084 107.697 115.018 107.889C114.975 108.017 114.961 108.153 114.978 108.286V113.061C114.928 113.215 114.92 113.38 114.955 113.539C114.99 113.697 115.067 113.843 115.179 113.962C115.29 114.08 115.431 114.166 115.587 114.211C115.742 114.256 115.908 114.259 116.065 114.218H116.028V114.218ZM125.63 106.297L127.73 105.031H130.302V116.567H127.695V107.525L125.63 107.96V106.297ZM135.482 108.034C135.411 107.422 135.552 106.804 135.879 106.283C136.207 105.762 136.703 105.368 137.285 105.166C137.672 105.032 138.082 104.986 138.488 105.032H141.061C141.451 104.983 141.847 105.025 142.218 105.154C142.59 105.283 142.926 105.496 143.203 105.776C143.479 106.055 143.688 106.394 143.813 106.766C143.937 107.139 143.975 107.535 143.922 107.925V113.675C143.967 114.063 143.925 114.456 143.798 114.826C143.671 115.195 143.462 115.531 143.187 115.808C142.912 116.086 142.578 116.298 142.21 116.43C141.842 116.561 141.449 116.608 141.061 116.568H138.308C137.912 116.619 137.509 116.581 137.13 116.455C136.752 116.328 136.406 116.118 136.12 115.84C135.834 115.562 135.615 115.223 135.48 114.848C135.344 114.473 135.296 114.072 135.337 113.675L135.482 108.034V108.034ZM139.104 114.218H140.227C140.879 114.218 141.278 114.218 141.278 113.169V108.286C141.278 107.563 140.951 107.274 140.336 107.274H138.996C138.793 107.258 138.591 107.31 138.421 107.421C138.251 107.532 138.123 107.697 138.057 107.889C138.014 108.017 138 108.153 138.017 108.286V113.061C138.09 114.109 138.706 114.218 139.177 114.218H139.104V114.218ZM45.2866 87.5646C45.2352 87.1593 45.2761 86.7476 45.4062 86.3602C45.5362 85.9729 45.7521 85.62 46.0378 85.3278C46.3234 85.0356 46.6713 84.8118 47.0556 84.6729C47.4398 84.5341 47.8505 84.4839 48.2569 84.526H50.8643C51.2548 84.4776 51.6512 84.5197 52.0228 84.6489C52.3944 84.7781 52.7314 84.991 53.0076 85.2712C53.284 85.5502 53.4926 85.8889 53.6172 86.2613C53.7419 86.6337 53.7793 87.0298 53.7266 87.419V93.1697C53.7711 93.5575 53.7283 93.9504 53.6011 94.3195C53.4739 94.6886 53.2657 95.0246 52.9917 95.3027C52.7162 95.58 52.3822 95.7922 52.0141 95.9237C51.646 96.0552 51.2532 96.1027 50.8643 96.0626H48.2569C47.6601 96.1393 47.055 96.0107 46.5411 95.6979C46.0271 95.3851 45.6349 94.9067 45.4288 94.3414C45.2933 93.9666 45.2447 93.566 45.2866 93.1697V87.5646ZM48.9088 93.7123H50.068C50.7199 93.7123 51.0816 93.7123 51.0816 92.6998V87.89C51.0816 87.1664 50.7563 86.8775 50.1397 86.8775H48.836C48.7016 86.8649 48.5662 86.8832 48.4401 86.931C48.313 86.9772 48.1982 87.0517 48.1042 87.1489C48.0101 87.246 47.9394 87.3633 47.8974 87.4918C47.8553 87.62 47.8417 87.7559 47.8576 87.89V92.6634C47.8203 92.7789 47.8066 92.9006 47.8171 93.0214C47.8277 93.1423 47.8624 93.2598 47.9191 93.367C47.9758 93.4742 48.0535 93.5689 48.1475 93.6457C48.2414 93.7224 48.3498 93.7795 48.4662 93.8136C48.6221 93.8591 48.787 93.8613 48.9452 93.8204L48.9088 93.7123V93.7123ZM18.9495 87.3234C18.872 86.7126 19.005 86.0935 19.3266 85.5685C19.6482 85.0434 20.1392 84.6436 20.7185 84.435C21.1026 84.2955 21.5133 84.2446 21.9199 84.286H24.5284C24.9187 84.2387 25.3147 84.2812 25.6861 84.4101C26.0575 84.5391 26.3946 84.7511 26.6717 85.03C26.9474 85.3097 27.1554 85.6487 27.2798 86.0212C27.4043 86.3937 27.4418 86.7897 27.3895 87.179V92.9296C27.4582 93.5146 27.3263 94.1055 27.0155 94.6058C26.7047 95.1061 26.2334 95.4862 25.6786 95.6838C25.31 95.8158 24.9163 95.8635 24.5284 95.8226H21.9199C21.3232 95.8994 20.7182 95.7708 20.2044 95.458C19.6905 95.1451 19.2985 94.6667 19.0929 94.1014C18.9571 93.7266 18.9081 93.326 18.9495 92.9296V87.3234ZM22.5717 93.4723H23.7321C24.3839 93.4723 24.7457 93.4723 24.7457 92.4586V87.6488C24.7457 86.9264 24.4192 86.6363 23.8038 86.6363H22.5C22.3657 86.6247 22.2304 86.6432 22.104 86.6904C21.9777 86.7377 21.8635 86.8126 21.7698 86.9096C21.676 87.0066 21.6051 87.1233 21.5622 87.2512C21.5193 87.379 21.5054 87.5149 21.5217 87.6488V92.4234C21.4708 92.5775 21.4626 92.7425 21.4978 92.9009C21.5331 93.0593 21.6105 93.2052 21.7219 93.3232C21.8334 93.4414 21.9745 93.5276 22.1305 93.5728C22.2866 93.618 22.4519 93.6206 22.6093 93.5803L22.5729 93.4723H22.5717ZM58.6172 85.8275L60.7184 84.5249H63.2906V96.0615H60.682V87.0208L58.6172 87.4542V85.8275V85.8275ZM68.3951 87.5635C68.3437 87.1582 68.3845 86.7465 68.5146 86.3592C68.6447 85.9719 68.8606 85.6191 69.1463 85.327C69.4319 85.0349 69.7798 84.8111 70.1641 84.6724C70.5484 84.5337 70.9591 84.4837 71.3654 84.526H73.974C74.3611 84.4842 74.7527 84.5309 75.1191 84.6626C75.4856 84.7943 75.8173 85.0074 76.0894 85.286C76.3614 85.5647 76.5666 85.9014 76.6895 86.2709C76.8123 86.6404 76.8497 87.033 76.7987 87.419V93.1685C76.8447 93.5564 76.8026 93.9496 76.6756 94.3189C76.5485 94.6882 76.3398 95.0241 76.0649 95.3016C75.7902 95.58 75.4563 95.793 75.088 95.9247C74.7198 96.0565 74.3265 96.1036 73.9376 96.0626H71.3654C70.9696 96.1135 70.5673 96.0744 70.1887 95.9481C69.8101 95.8219 69.4649 95.6117 69.1789 95.3334C68.893 95.0554 68.6739 94.7161 68.5381 94.3411C68.4023 93.9661 68.3534 93.5652 68.3951 93.1685V87.5635V87.5635ZM72.0173 93.7112H73.1048C73.7567 93.7112 74.1548 93.7112 74.1548 92.6987V87.8888C74.1548 87.1653 73.8284 86.8763 73.2129 86.8763H71.8728C71.7381 86.8649 71.6026 86.8832 71.4758 86.9298C71.2847 87.0004 71.1233 87.1337 71.0177 87.3078C70.9121 87.482 70.8687 87.6868 70.8944 87.8888V92.6623C70.9672 93.6031 71.5827 93.8204 72.0537 93.8204L72.0173 93.7112V93.7112ZM81.9066 87.5646C81.8609 87.1572 81.9069 86.7448 82.0413 86.3575C82.1758 85.9702 82.3952 85.618 82.6836 85.3266C82.9719 85.0352 83.3219 84.812 83.7077 84.6735C84.0935 84.535 84.5055 84.4846 84.9133 84.526H87.5936C87.984 84.4776 88.3804 84.5197 88.752 84.6489C89.1237 84.7781 89.4606 84.991 89.7368 85.2712C90.013 85.5503 90.2214 85.8891 90.3458 86.2615C90.4703 86.6339 90.5075 87.0299 90.4547 87.419V93.1697C90.4993 93.5576 90.4563 93.9507 90.3288 94.3198C90.2013 94.6889 89.9926 95.0247 89.7179 95.3023C89.4433 95.58 89.1099 95.7925 88.7422 95.9241C88.3745 96.0556 87.982 96.103 87.5936 96.0626H84.9861C84.3894 96.1393 83.7843 96.0107 83.2703 95.6979C82.7563 95.3851 82.3641 94.9067 82.158 94.3414C82.0224 93.9666 81.9738 93.566 82.0158 93.1697L81.9066 87.5646ZM85.5288 93.7123H86.688C87.3399 93.7123 87.738 93.7123 87.738 92.6998V87.89C87.738 87.1664 87.4127 86.8775 86.7972 86.8775H85.456C85.3217 86.8649 85.1863 86.8832 85.0601 86.931C84.8693 87.0019 84.7081 87.1353 84.6026 87.3093C84.497 87.4834 84.4534 87.688 84.4788 87.89V92.6634C84.4275 92.8175 84.4191 92.9826 84.4543 93.1411C84.4896 93.2996 84.5672 93.4455 84.679 93.5633C84.7899 93.6818 84.9308 93.7683 85.0868 93.8135C85.2427 93.8588 85.408 93.8611 85.5652 93.8204L85.5288 93.7123V93.7123ZM95.1303 85.8275L97.2315 84.5249H99.8025V96.0615H97.1951V87.0208L95.1303 87.4542V85.8275V85.8275ZM104.693 85.8275L106.794 84.5249H109.329V96.0615H106.722V87.0208L104.657 87.4542L104.693 85.8275V85.8275ZM114.254 85.8275L116.318 84.5249H118.89V96.0615H116.318V87.0208L114.254 87.4542V85.8275V85.8275ZM123.818 85.8275L125.919 84.5249H128.49V96.0615H125.882V87.0208L123.818 87.4542V85.8275V85.8275ZM133.671 87.5646C133.619 87.1596 133.66 86.7481 133.79 86.3611C133.92 85.9741 134.136 85.6217 134.423 85.3303C134.708 85.0374 135.055 84.8129 135.439 84.6736C135.824 84.5343 136.234 84.4838 136.641 84.526H139.25C139.64 84.4777 140.036 84.5198 140.408 84.649C140.78 84.7782 141.116 84.9911 141.393 85.2712C141.669 85.5502 141.878 85.889 142.002 86.2614C142.127 86.6338 142.164 87.0299 142.111 87.419V93.1697C142.156 93.5575 142.114 93.9507 141.987 94.32C141.86 94.6893 141.652 95.0252 141.377 95.3027C141.101 95.58 140.767 95.7922 140.399 95.9237C140.031 96.0552 139.638 96.1027 139.25 96.0626H136.641C136.245 96.1137 135.843 96.0747 135.464 95.9486C135.086 95.8226 134.741 95.6127 134.454 95.3345C134.169 95.0564 133.95 94.717 133.814 94.3421C133.678 93.9671 133.629 93.5663 133.671 93.1697V87.5646V87.5646ZM137.293 93.7123H138.308C138.959 93.7123 139.358 93.7123 139.358 92.6998V87.89C139.358 87.1664 139.032 86.8775 138.417 86.8775H137.112C136.907 86.8591 136.702 86.9091 136.528 87.0199C136.354 87.1306 136.223 87.2958 136.153 87.4895C136.105 87.6173 136.087 87.7541 136.098 87.89V92.6634C136.243 93.6031 136.858 93.8204 137.329 93.8204L137.293 93.7123V93.7123ZM21.8857 127.96L23.9869 126.659H26.5227V138.196H23.9516V129.154L21.8857 129.625V127.96V127.96ZM31.7398 129.695C31.6947 129.288 31.7412 128.876 31.8759 128.489C32.0106 128.102 32.23 127.75 32.5182 127.459C32.8064 127.167 33.1561 126.944 33.5416 126.805C33.9271 126.667 34.3388 126.616 34.7465 126.657H37.3176C37.7082 126.608 38.1048 126.65 38.4766 126.779C38.8484 126.909 39.1856 127.122 39.462 127.402C39.7385 127.681 39.9471 128.019 40.0716 128.392C40.1961 128.764 40.2331 129.161 40.1798 129.55V135.3C40.2487 135.885 40.117 136.477 39.8062 136.977C39.4954 137.478 39.0239 137.858 38.4688 138.056C38.1002 138.186 37.7066 138.234 37.3187 138.193H34.709C34.1123 138.27 33.5073 138.142 32.9935 137.829C32.4797 137.516 32.0877 137.037 31.882 136.472C31.7461 136.097 31.6971 135.697 31.7387 135.3V129.695H31.7398ZM35.362 135.843H36.5223C37.1742 135.843 37.5724 135.662 37.5724 134.83V129.984C37.5724 129.224 37.2095 128.935 36.6304 128.935H35.2892C35.151 128.923 35.0118 128.941 34.8819 128.99C34.7529 129.04 34.6368 129.119 34.5425 129.22C34.4481 129.321 34.3779 129.442 34.337 129.575C34.297 129.707 34.2881 129.847 34.3108 129.984V134.721C34.2683 134.873 34.2664 135.034 34.3053 135.187C34.3441 135.34 34.4224 135.48 34.5322 135.594C34.6421 135.707 34.7798 135.79 34.9315 135.834C35.0833 135.877 35.2439 135.881 35.3972 135.843H35.362V135.843ZM58.6172 127.96L60.7184 126.659H63.2906V138.196H60.682V129.154L58.6172 129.625V127.96V127.96ZM68.3951 129.694C68.3437 129.289 68.3845 128.877 68.5146 128.49C68.6447 128.103 68.8606 127.75 69.1463 127.458C69.4319 127.166 69.7798 126.942 70.1641 126.803C70.5484 126.664 70.9591 126.614 71.3654 126.657H73.974C74.3611 126.615 74.7527 126.662 75.1191 126.793C75.4856 126.925 75.8173 127.138 76.0894 127.417C76.3614 127.695 76.5666 128.032 76.6895 128.402C76.8123 128.771 76.8497 129.164 76.7987 129.55V135.3C76.8678 135.885 76.7361 136.476 76.4252 136.977C76.1144 137.477 75.6428 137.857 75.0877 138.054C74.7195 138.186 74.3265 138.233 73.9376 138.193H71.3654C70.9696 138.244 70.5675 138.205 70.1889 138.079C69.8103 137.953 69.465 137.743 69.1789 137.465C68.8937 137.187 68.6751 136.847 68.5394 136.472C68.4037 136.098 68.3544 135.697 68.3951 135.3V129.694V129.694ZM72.0173 135.842H73.1048C73.7567 135.842 74.1548 135.661 74.1548 134.829V129.983C74.1548 129.224 73.8284 128.934 73.2129 128.934H71.8728C71.7363 128.929 71.6001 128.952 71.4735 129.004C71.2824 129.08 71.122 129.218 71.0173 129.395C70.9126 129.572 70.8694 129.779 70.8944 129.983V134.721C70.9672 135.734 71.5827 135.842 72.0537 135.842H72.0173V135.842ZM81.6176 127.96L83.6824 126.659H86.2546V138.196H83.6824V129.154L81.6176 129.625V127.96V127.96ZM91.218 127.96L93.3181 126.659H95.8902V138.196H93.2828V129.154L91.218 129.625V127.96V127.96ZM100.706 127.96L102.807 126.659H105.379V138.196H102.771V129.154L100.706 129.625V127.96V127.96ZM110.56 129.695C110.514 129.288 110.561 128.876 110.695 128.489C110.829 128.102 111.049 127.749 111.337 127.458C111.625 127.167 111.975 126.944 112.36 126.805C112.746 126.666 113.158 126.616 113.565 126.657H116.138C116.528 126.608 116.924 126.65 117.296 126.78C117.668 126.909 118.005 127.122 118.281 127.402C118.557 127.681 118.765 128.02 118.89 128.392C119.014 128.765 119.052 129.161 118.999 129.55V135.3C119.043 135.688 119 136.081 118.873 136.45C118.745 136.82 118.537 137.155 118.262 137.433C117.987 137.711 117.654 137.923 117.286 138.055C116.919 138.186 116.526 138.234 116.138 138.193H113.565C112.967 138.269 112.36 138.141 111.843 137.829C111.326 137.517 110.93 137.04 110.718 136.474C110.578 136.1 110.524 135.699 110.56 135.3V129.695V129.695ZM114.182 135.843H115.34C115.993 135.843 116.391 135.662 116.391 134.83V129.984C116.391 129.224 116.065 128.935 115.449 128.935H114.109C113.971 128.923 113.832 128.941 113.702 128.99C113.573 129.04 113.457 129.118 113.362 129.22C113.268 129.321 113.198 129.442 113.157 129.575C113.117 129.707 113.108 129.847 113.131 129.984V134.721C113.088 134.873 113.087 135.034 113.126 135.187C113.154 135.302 113.205 135.41 113.275 135.505C113.345 135.601 113.434 135.681 113.535 135.742C113.636 135.803 113.749 135.843 113.866 135.861C113.983 135.878 114.103 135.872 114.217 135.843H114.182V135.843ZM123.818 127.96L125.919 126.659H128.49V138.196H125.882V129.154L123.818 129.625V127.96V127.96ZM133.671 129.695C133.619 129.29 133.66 128.879 133.79 128.492C133.92 128.105 134.136 127.752 134.423 127.461C134.708 127.168 135.055 126.943 135.439 126.804C135.824 126.665 136.234 126.614 136.641 126.657H139.25C139.64 126.608 140.036 126.65 140.408 126.78C140.78 126.909 141.116 127.122 141.393 127.402C141.669 127.681 141.878 128.02 142.002 128.392C142.127 128.764 142.164 129.161 142.111 129.55V135.3C142.156 135.688 142.114 136.081 141.987 136.451C141.86 136.82 141.652 137.156 141.377 137.433C141.101 137.711 140.767 137.923 140.399 138.054C140.031 138.186 139.638 138.233 139.25 138.193H136.641C136.245 138.244 135.843 138.205 135.464 138.079C135.086 137.953 134.741 137.743 134.454 137.465C134.169 137.187 133.95 136.848 133.814 136.473C133.678 136.098 133.629 135.697 133.671 135.3V129.695V129.695ZM137.293 135.843H138.308C138.959 135.843 139.358 135.662 139.358 134.83V129.984C139.358 129.224 139.032 128.935 138.417 128.935H137.112C136.973 128.924 136.833 128.944 136.702 128.993C136.571 129.042 136.453 129.119 136.355 129.219C136.259 129.32 136.186 129.441 136.142 129.573C136.097 129.705 136.083 129.846 136.098 129.984V134.721C136.243 135.735 136.858 135.843 137.329 135.843H137.293ZM20.0382 148.428C19.9929 148.021 20.0393 147.609 20.1739 147.222C20.3085 146.835 20.5279 146.483 20.8162 146.191C21.1044 145.9 21.4542 145.677 21.8398 145.538C22.2254 145.4 22.6372 145.349 23.045 145.39H25.616C26.0099 145.341 26.4098 145.384 26.7845 145.515C27.1592 145.646 27.4986 145.862 27.7763 146.145C28.0532 146.429 28.2606 146.773 28.3824 147.15C28.5042 147.527 28.537 147.927 28.4782 148.319V154.034C28.5457 154.621 28.414 155.214 28.1041 155.717C27.7943 156.22 27.3242 156.605 26.7695 156.809C26.4015 156.945 26.0079 156.998 25.6171 156.963H23.0086C22.6111 157.008 22.2085 156.964 21.8304 156.833C21.4523 156.703 21.1083 156.489 20.8235 156.208C20.5387 155.927 20.3205 155.586 20.1848 155.21C20.0491 154.833 19.9994 154.432 20.0394 154.034V148.428H20.0382ZM23.6604 154.576H24.8208C25.4715 154.576 25.8333 154.576 25.8333 153.564V148.789C25.8333 148.067 25.5443 147.741 24.8925 147.741H23.5887C23.3805 147.721 23.1715 147.773 22.9978 147.89C22.824 148.007 22.6963 148.18 22.6366 148.381C22.5965 148.513 22.5876 148.653 22.6104 148.789V153.564C22.5891 153.708 22.6032 153.856 22.6516 153.994C22.6999 154.131 22.781 154.255 22.8879 154.355C22.9947 154.455 23.1242 154.527 23.2651 154.565C23.406 154.604 23.5542 154.608 23.6968 154.576H23.6604V154.576ZM33.2619 146.694L35.3631 145.391H37.9341V156.964H35.3267V148.068L33.2619 148.538V146.694ZM42.8248 146.694L44.9248 145.391H47.497V156.964H44.8884V148.068L42.8248 148.538V146.694ZM75.4597 146.694L77.5609 145.391H80.1319V156.964H77.5245V148.068L75.4597 148.538V146.694V146.694ZM85.349 148.43C85.2813 147.821 85.4195 147.207 85.7416 146.686C86.0637 146.165 86.5511 145.766 87.126 145.555C87.507 145.414 87.9145 145.358 88.3194 145.392H90.9279C91.3184 145.35 91.7134 145.398 92.0826 145.531C92.4518 145.665 92.7855 145.882 93.0581 146.165C93.3307 146.447 93.5351 146.789 93.6554 147.163C93.7758 147.536 93.8091 147.933 93.7526 148.322V154.036C93.7979 154.425 93.7555 154.82 93.6286 155.191C93.5016 155.561 93.2933 155.899 93.0189 156.179C92.7444 156.459 92.4115 156.675 92.0439 156.812C91.6753 156.947 91.2817 156.999 90.8915 156.965H88.3194C87.9219 157.01 87.5193 156.966 87.1411 156.836C86.763 156.705 86.4188 156.491 86.134 156.21C85.8492 155.93 85.6308 155.588 85.495 155.212C85.3591 154.836 85.3093 154.434 85.349 154.036V148.43V148.43ZM88.9712 154.578H90.0941C90.7459 154.578 91.1452 154.578 91.1452 153.566V148.791C91.1452 148.069 90.8187 147.742 90.2033 147.742H88.8632C88.7268 147.737 88.5908 147.761 88.4645 147.813C88.3381 147.864 88.2243 147.942 88.1305 148.042C88.0378 148.141 87.9678 148.26 87.9254 148.39C87.883 148.519 87.8691 148.656 87.8848 148.791V153.566C87.9212 154.469 88.5367 154.578 89.0076 154.578H88.9712V154.578ZM98.8583 148.428C98.8144 148.021 98.8614 147.61 98.996 147.223C99.1306 146.837 99.3493 146.485 99.6364 146.193C99.9254 145.903 100.275 145.68 100.661 145.541C101.046 145.402 101.457 145.351 101.865 145.39H104.437C104.831 145.341 105.231 145.384 105.605 145.515C105.98 145.646 106.319 145.862 106.596 146.145C106.874 146.429 107.082 146.772 107.203 147.15C107.325 147.527 107.358 147.927 107.298 148.319V154.034C107.343 154.423 107.301 154.818 107.174 155.189C107.047 155.561 106.839 155.899 106.565 156.179C106.291 156.46 105.958 156.676 105.59 156.812C105.222 156.947 104.828 156.999 104.437 156.963H101.829C101.431 157.009 101.028 156.965 100.649 156.834C100.271 156.703 99.9268 156.489 99.6421 156.207C99.3571 155.927 99.1387 155.586 99.003 155.21C98.8674 154.833 98.8179 154.431 98.8583 154.034V148.428ZM102.482 154.576H103.64C104.293 154.576 104.691 154.576 104.691 153.564V148.789C104.691 148.067 104.364 147.741 103.749 147.741H102.409C102.271 147.728 102.132 147.747 102.002 147.796C101.873 147.845 101.756 147.923 101.662 148.024C101.567 148.126 101.497 148.247 101.457 148.38C101.417 148.512 101.408 148.652 101.43 148.789V153.564C101.411 153.708 101.427 153.854 101.475 153.991C101.524 154.128 101.606 154.252 101.712 154.351C101.818 154.45 101.947 154.522 102.087 154.561C102.227 154.601 102.374 154.606 102.517 154.576H102.482ZM112.407 148.428C112.362 148.021 112.408 147.609 112.542 147.222C112.677 146.835 112.896 146.483 113.184 146.191C113.473 145.9 113.822 145.677 114.208 145.538C114.593 145.399 115.005 145.349 115.413 145.39H117.985C118.579 145.317 119.179 145.453 119.684 145.774C120.189 146.095 120.566 146.581 120.752 147.15C120.874 147.527 120.905 147.928 120.847 148.319V154.034C120.892 154.423 120.848 154.817 120.722 155.188C120.594 155.559 120.386 155.896 120.112 156.176C119.838 156.457 119.505 156.673 119.138 156.809C118.77 156.945 118.376 156.998 117.985 156.963H115.378C114.98 157.008 114.578 156.964 114.199 156.833C113.821 156.703 113.477 156.489 113.192 156.208C112.907 155.927 112.689 155.586 112.553 155.21C112.417 154.834 112.368 154.432 112.407 154.034V148.428V148.428ZM116.03 154.576H117.189C117.804 154.576 118.202 154.576 118.202 153.564V148.789C118.202 148.067 117.877 147.741 117.26 147.741H115.957C115.819 147.728 115.68 147.747 115.55 147.796C115.421 147.845 115.304 147.923 115.21 148.024C115.115 148.126 115.045 148.247 115.005 148.38C114.965 148.512 114.956 148.652 114.978 148.789V153.564C114.957 153.708 114.972 153.855 115.02 153.993C115.069 154.13 115.15 154.254 115.257 154.353C115.364 154.452 115.494 154.524 115.634 154.563C115.775 154.602 115.923 154.606 116.066 154.576H116.03ZM146.38 108.051C146.334 107.649 146.379 107.242 146.512 106.859C146.645 106.477 146.862 106.13 147.147 105.843C147.432 105.555 147.778 105.334 148.159 105.197C148.54 105.06 148.947 105.009 149.35 105.05H151.959C152.349 105.002 152.745 105.044 153.117 105.173C153.677 105.367 154.153 105.749 154.463 106.254C154.774 106.759 154.9 107.355 154.82 107.943V113.693C154.889 114.279 154.758 114.87 154.447 115.37C154.136 115.871 153.664 116.251 153.109 116.448C152.741 116.58 152.348 116.627 151.959 116.586H149.35C148.955 116.637 148.553 116.599 148.174 116.472C147.795 116.346 147.45 116.136 147.164 115.858C146.879 115.58 146.66 115.24 146.525 114.865C146.389 114.491 146.34 114.09 146.38 113.693V108.051V108.051ZM150.002 114.236H151.162C151.813 114.236 152.176 114.236 152.176 113.187V108.305C152.176 107.581 151.85 107.292 151.271 107.292H149.931C149.796 107.28 149.661 107.299 149.534 107.346C149.408 107.393 149.294 107.468 149.2 107.565C149.106 107.662 149.035 107.779 148.992 107.907C148.949 108.035 148.936 108.171 148.952 108.305V113.078C148.901 113.232 148.893 113.398 148.928 113.556C148.963 113.715 149.041 113.861 149.152 113.979C149.263 114.098 149.404 114.184 149.56 114.23C149.716 114.275 149.882 114.277 150.039 114.236H150.002V114.236ZM159.928 108.049C159.883 107.646 159.929 107.239 160.062 106.857C160.195 106.475 160.412 106.127 160.697 105.839C160.982 105.552 161.327 105.331 161.708 105.194C162.089 105.057 162.496 105.007 162.898 105.048H165.507C165.896 104.999 166.29 105.041 166.66 105.17C167.029 105.299 167.364 105.512 167.638 105.792C167.911 106.073 168.116 106.412 168.237 106.785C168.357 107.158 168.39 107.553 168.332 107.941V113.691C168.383 114.077 168.346 114.47 168.224 114.84C168.101 115.21 167.896 115.547 167.624 115.826C167.352 116.104 167.02 116.318 166.653 116.449C166.286 116.58 165.894 116.627 165.507 116.584H162.898C162.503 116.635 162.1 116.596 161.722 116.47C161.343 116.344 160.998 116.134 160.712 115.856C160.426 115.578 160.207 115.239 160.071 114.864C159.936 114.489 159.887 114.088 159.928 113.691V108.049V108.049ZM163.55 114.234H164.709C165.325 114.234 165.724 114.234 165.724 113.185V108.302C165.724 107.579 165.398 107.29 164.782 107.29H163.479C163.344 107.278 163.209 107.296 163.082 107.343C162.956 107.391 162.842 107.466 162.748 107.563C162.654 107.66 162.583 107.776 162.54 107.904C162.497 108.032 162.484 108.168 162.5 108.302V113.076C162.537 114.125 163.116 114.234 163.587 114.234H163.55ZM173.148 106.314L175.249 105.049H177.785V116.585H175.213V107.544L173.148 107.978V106.314V106.314ZM182.713 106.314L184.778 105.049H187.35V116.585H184.778V107.544L182.713 107.978V106.314ZM192.564 108.051C192.518 107.645 192.564 107.235 192.698 106.85C192.833 106.465 193.053 106.115 193.342 105.827C193.631 105.538 193.982 105.318 194.368 105.183C194.754 105.049 195.165 105.003 195.571 105.05H198.143C198.533 105.003 198.929 105.045 199.301 105.174C199.672 105.303 200.009 105.515 200.286 105.794C200.562 106.074 200.77 106.413 200.894 106.785C201.018 107.158 201.056 107.554 201.004 107.943V113.693C201.073 114.279 200.942 114.87 200.631 115.37C200.32 115.871 199.848 116.251 199.293 116.448C198.925 116.58 198.532 116.627 198.143 116.586H195.534C195.139 116.637 194.736 116.599 194.358 116.472C193.979 116.346 193.634 116.136 193.348 115.858C193.062 115.58 192.843 115.241 192.707 114.866C192.572 114.491 192.523 114.09 192.564 113.693V108.051V108.051ZM196.186 114.236H197.346C197.961 114.236 198.36 114.236 198.36 113.187V108.305C198.36 107.581 198.034 107.292 197.418 107.292H196.115C195.98 107.28 195.845 107.299 195.718 107.346C195.592 107.393 195.478 107.468 195.384 107.565C195.29 107.662 195.219 107.779 195.176 107.907C195.133 108.035 195.12 108.171 195.136 108.305V113.078C195.085 113.232 195.077 113.398 195.112 113.556C195.147 113.715 195.225 113.861 195.336 113.979C195.447 114.098 195.588 114.184 195.744 114.23C195.9 114.275 196.066 114.277 196.223 114.236H196.186V114.236ZM205.788 106.314L207.888 105.049H210.46V116.585H207.853V107.544L205.788 107.978V106.314V106.314ZM148.553 87.5817C148.501 87.1766 148.542 86.7651 148.672 86.3781C148.803 85.9912 149.019 85.6387 149.305 85.3474C149.59 85.0545 149.938 84.8299 150.322 84.6906C150.706 84.5513 151.117 84.5009 151.523 84.5431H154.132C154.519 84.5019 154.911 84.5489 155.278 84.6807C155.644 84.8125 155.976 85.0257 156.249 85.3042C156.521 85.5824 156.726 85.919 156.849 86.2884C156.971 86.6578 157.008 87.0503 156.957 87.4361V93.1867C157.002 93.5746 156.96 93.9677 156.833 94.337C156.706 94.7063 156.498 95.0422 156.223 95.3198C155.947 95.5971 155.613 95.8093 155.245 95.9408C154.877 96.0723 154.484 96.1197 154.095 96.0797H151.523C151.128 96.1307 150.725 96.0918 150.347 95.9657C149.968 95.8396 149.623 95.6297 149.337 95.3516C149.051 95.0734 148.832 94.7341 148.696 94.3591C148.561 93.9842 148.512 93.5833 148.553 93.1867V87.5817V87.5817ZM152.175 93.7294H153.263C153.915 93.7294 154.313 93.7294 154.313 92.7169V87.907C154.313 87.1835 153.986 86.8946 153.371 86.8946H152.031C151.896 86.8815 151.76 86.8993 151.633 86.9466C151.507 86.994 151.392 87.0695 151.299 87.1676C151.205 87.2645 151.134 87.3812 151.092 87.5092C151.049 87.6372 151.035 87.7732 151.052 87.907V92.6805C151.125 93.6213 151.741 93.8374 152.212 93.8374L152.175 93.7294V93.7294ZM162.064 87.5817C162.019 87.1744 162.065 86.762 162.2 86.3749C162.334 85.9878 162.554 85.6357 162.842 85.3444C163.13 85.0531 163.48 84.8301 163.866 84.6916C164.252 84.5532 164.663 84.5028 165.071 84.5442H167.751C168.142 84.4969 168.538 84.5393 168.909 84.6683C169.281 84.7972 169.618 85.0092 169.895 85.2882C170.171 85.5675 170.379 85.9065 170.504 86.2791C170.628 86.6517 170.666 87.0479 170.613 87.4372V93.1879C170.658 93.5758 170.616 93.9683 170.49 94.338C170.362 94.7074 170.153 95.0434 169.879 95.3211C169.604 95.5988 169.27 95.811 168.902 95.9421C168.534 96.0742 168.14 96.1217 167.751 96.0808H165.144C164.547 96.1575 163.942 96.0289 163.428 95.7161C162.914 95.4033 162.522 94.9249 162.316 94.3596C162.18 93.9848 162.132 93.5842 162.174 93.1879L162.064 87.5817ZM165.687 93.7305H166.846C167.498 93.7305 167.896 93.7305 167.896 92.7169V87.907C167.896 87.1846 167.571 86.8946 166.955 86.8946H165.614C165.479 86.8826 165.344 86.9009 165.218 86.9482C165.091 86.9954 164.977 87.0704 164.883 87.1676C164.79 87.2648 164.719 87.3815 164.677 87.5094C164.634 87.6374 164.62 87.7732 164.637 87.907V92.6816C164.587 92.8358 164.58 93.0004 164.616 93.1583C164.651 93.3162 164.729 93.4617 164.839 93.5797C164.95 93.6977 165.091 93.7839 165.246 93.8295C165.401 93.875 165.566 93.8781 165.723 93.8386L165.687 93.7305V93.7305ZM175.288 85.8445L177.389 84.5431H179.96V96.0797H177.353V87.0379L175.288 87.4725V85.8445ZM184.851 85.8445L186.952 84.5431H189.487V96.0797H186.879V87.0379L184.815 87.4725L184.851 85.8445V85.8445ZM194.412 85.8445L196.476 84.5431H199.047V96.0797H196.476V87.0379L194.412 87.4725V85.8445ZM148.553 129.712C148.501 129.307 148.542 128.896 148.672 128.509C148.803 128.122 149.019 127.769 149.305 127.478C149.59 127.185 149.938 126.961 150.322 126.821C150.706 126.682 151.117 126.632 151.523 126.674H154.132C154.519 126.633 154.911 126.68 155.278 126.811C155.644 126.943 155.976 127.156 156.249 127.435C156.522 127.713 156.727 128.05 156.85 128.419C156.972 128.789 157.009 129.182 156.957 129.568V135.317C157.003 135.705 156.961 136.098 156.833 136.468C156.706 136.837 156.498 137.173 156.223 137.45C155.948 137.729 155.614 137.941 155.246 138.073C154.877 138.205 154.484 138.251 154.095 138.21H151.523C151.128 138.261 150.725 138.223 150.347 138.096C149.968 137.97 149.623 137.76 149.337 137.482C149.051 137.204 148.832 136.865 148.696 136.49C148.56 136.115 148.511 135.714 148.553 135.317V129.712V129.712ZM152.175 135.86H153.263C153.915 135.86 154.313 135.679 154.313 134.848V130.001C154.313 129.242 153.986 128.952 153.371 128.952H152.031C151.894 128.946 151.758 128.969 151.632 129.021C151.506 129.072 151.392 129.151 151.299 129.25C151.206 129.35 151.135 129.469 151.093 129.599C151.05 129.728 151.036 129.866 151.052 130.001V134.739C151.125 135.752 151.741 135.86 152.212 135.86H152.175V135.86ZM161.776 127.979L163.84 126.677H166.412V138.214H163.84V129.172L161.776 129.642V127.979ZM171.377 127.979L173.477 126.677H176.049V138.214H173.441V129.172L171.377 129.642V127.979ZM190.719 129.712C190.65 129.099 190.791 128.48 191.118 127.956C191.444 127.432 191.938 127.033 192.52 126.825C192.905 126.686 193.317 126.635 193.724 126.675H196.297C196.687 126.626 197.083 126.668 197.455 126.797C197.827 126.926 198.164 127.139 198.44 127.419C198.716 127.698 198.925 128.037 199.049 128.41C199.174 128.782 199.211 129.179 199.158 129.568V135.319C199.204 135.706 199.161 136.1 199.034 136.469C198.907 136.838 198.699 137.174 198.424 137.452C198.149 137.729 197.815 137.941 197.446 138.073C197.078 138.204 196.685 138.252 196.297 138.211H193.724C193.126 138.287 192.519 138.159 192.002 137.847C191.485 137.535 191.089 137.058 190.877 136.493C190.737 136.118 190.683 135.717 190.719 135.319V129.712V129.712ZM194.341 135.861H195.499C196.151 135.861 196.55 135.68 196.55 134.849V130.002C196.55 129.242 196.224 128.954 195.608 128.954H194.268C194.13 128.94 193.991 128.959 193.861 129.008C193.732 129.057 193.615 129.136 193.521 129.237C193.426 129.338 193.356 129.46 193.316 129.593C193.276 129.726 193.267 129.866 193.29 130.002V134.739C193.248 134.891 193.247 135.052 193.285 135.205C193.324 135.357 193.402 135.497 193.512 135.611C193.621 135.725 193.759 135.808 193.91 135.852C194.062 135.896 194.223 135.899 194.376 135.861H194.341V135.861ZM203.977 127.979L206.078 126.677H208.649V138.214H206.041V129.172L203.977 129.642V127.979ZM146.019 146.711L148.121 145.409H150.693V156.982H148.084V148.085L146.019 148.556V146.711V146.711ZM155.618 146.711L157.719 145.409H160.29V156.982H157.682V148.085L155.618 148.556V146.711V146.711ZM165.507 148.448C165.462 148.044 165.507 147.636 165.64 147.252C165.773 146.868 165.989 146.518 166.274 146.228C166.558 145.938 166.903 145.714 167.284 145.572C167.665 145.431 168.072 145.376 168.477 145.41H171.085C171.476 145.367 171.872 145.413 172.242 145.547C172.612 145.681 172.946 145.898 173.219 146.182C173.492 146.464 173.697 146.805 173.817 147.18C173.937 147.554 173.969 147.951 173.911 148.34V154.054C173.955 154.443 173.913 154.837 173.786 155.208C173.659 155.579 173.451 155.916 173.177 156.196C172.902 156.477 172.569 156.693 172.201 156.829C171.834 156.965 171.44 157.018 171.049 156.983H168.477C168.079 157.028 167.677 156.983 167.298 156.852C166.92 156.722 166.575 156.508 166.29 156.228C166.005 155.947 165.787 155.606 165.652 155.23C165.516 154.854 165.467 154.452 165.507 154.054V148.448V148.448ZM169.129 154.597H170.252C170.904 154.597 171.303 154.595 171.303 153.583V148.81C171.303 148.086 170.977 147.761 170.361 147.761H169.021C168.885 147.754 168.749 147.778 168.622 147.829C168.496 147.881 168.382 147.959 168.289 148.059C168.196 148.159 168.126 148.277 168.083 148.407C168.041 148.537 168.027 148.674 168.043 148.81V153.583C168.079 154.487 168.695 154.597 169.166 154.597H169.129V154.597Z" fill="#D9D9D9"/>
<g filter="url(#filter0_d_208_6592)">
<path d="M59.9556 8.5498H29.0202C27.9615 8.5498 26.9462 8.97038 26.1975 9.71901C25.4489 10.4676 25.0283 11.483 25.0283 12.5417V77.4054C25.0283 78.4642 25.4489 79.4795 26.1975 80.2282C26.9462 80.9768 27.9615 81.3974 29.0202 81.3974H77.9174C78.9762 81.3974 79.9915 80.9768 80.7402 80.2282C81.4888 79.4795 81.9094 78.4642 81.9094 77.4054V30.5036L59.9556 8.5498Z" fill="white"/>
<path d="M81.9099 30.5036H63.948C62.8894 30.5036 61.8743 30.0832 61.1257 29.3348C60.3771 28.5864 59.9564 27.5714 59.9561 26.5128V8.5498L81.9099 30.5036Z" fill="#D7E8EF"/>
<path fill-rule="evenodd" clip-rule="evenodd" d="M41.4331 59.0047C41.5717 59.1443 41.7365 59.2552 41.9181 59.3308C42.0996 59.4065 42.2944 59.4454 42.4911 59.4454C42.6878 59.4454 42.8826 59.4065 43.0642 59.3308C43.2458 59.2552 43.4106 59.1443 43.5491 59.0047L64.5064 38.0497C64.7871 37.769 64.9448 37.3882 64.9448 36.9912C64.9448 36.5941 64.7871 36.2134 64.5064 35.9326C64.2256 35.6519 63.8448 35.4941 63.4478 35.4941C63.0508 35.4941 62.67 35.6519 62.3892 35.9326L58.2801 40.0417C56.7341 39.1316 54.9617 38.4877 52.9697 38.4877C45.8516 38.4877 41.3706 46.4044 41.184 46.7411C40.9303 47.195 40.9314 47.7468 41.1863 48.2007C41.2909 48.3873 42.7494 50.898 45.2169 53.1039L41.432 56.8898C41.2931 57.0287 41.183 57.1937 41.1079 57.3751C41.0328 57.5566 40.9942 57.7511 40.9943 57.9475C40.9944 58.1439 41.0332 58.3384 41.1085 58.5198C41.1838 58.7012 41.2941 58.8659 41.4331 59.0047V59.0047ZM62.8102 43.979L60.6783 46.1109C61.0946 46.6308 61.4359 47.1052 61.6805 47.4692C60.5429 49.1597 57.4144 53.1869 53.3554 53.4338L50.6388 56.1504C51.4005 56.3454 52.1834 56.4459 52.9697 56.4496C60.015 56.4496 64.561 48.5409 64.7521 48.2053C65.008 47.7502 65.0092 47.1928 64.7532 46.7377C64.6827 46.6115 64.0047 45.4192 62.8102 43.979V43.979ZM52.9697 41.4808C48.698 41.4808 45.4228 45.7241 44.259 47.4669C45.1371 48.7611 46.1727 49.9411 47.3419 50.9799L50.087 48.2348C50.0156 47.9854 49.9781 47.7275 49.9755 47.4681C49.9755 47.0749 50.053 46.6856 50.2035 46.3224C50.354 45.9592 50.5745 45.6292 50.8526 45.3513C51.1306 45.0733 51.4607 44.8529 51.824 44.7025C52.1873 44.5522 52.5766 44.4749 52.9697 44.475C53.2359 44.475 53.4908 44.5182 53.7365 44.5854L56.08 42.2418C55.121 41.7822 54.0801 41.4808 52.9697 41.4808V41.4808Z" fill="#D7E8EF"/>
</g>
<g filter="url(#filter1_d_208_6592)">
<path d="M166.891 73.3943H135.956C134.897 73.3943 133.882 73.8149 133.133 74.5635C132.385 75.3121 131.964 76.3275 131.964 77.3862V142.25C131.964 143.309 132.385 144.324 133.133 145.073C133.882 145.821 134.897 146.242 135.956 146.242H184.853C185.912 146.242 186.927 145.821 187.676 145.073C188.425 144.324 188.845 143.309 188.845 142.25V95.3481L166.891 73.3943Z" fill="white"/>
<path d="M188.845 95.3481H170.883C169.824 95.3481 168.809 94.9275 168.06 94.1789C167.311 93.4303 166.891 92.4149 166.891 91.3562V73.3943L188.845 95.3481Z" fill="#D7E8EF"/>
<path fill-rule="evenodd" clip-rule="evenodd" d="M148.369 123.849C148.507 123.989 148.672 124.1 148.854 124.175C149.036 124.251 149.231 124.29 149.427 124.29C149.624 124.29 149.819 124.251 150.001 124.175C150.182 124.1 150.347 123.989 150.486 123.849L171.442 102.893C171.723 102.612 171.88 102.232 171.88 101.835C171.88 101.438 171.722 101.057 171.441 100.777C171.161 100.496 170.78 100.339 170.383 100.339C169.986 100.339 169.605 100.497 169.325 100.777L165.216 104.886C163.67 103.977 161.897 103.332 159.905 103.332C152.787 103.332 148.306 111.249 148.118 111.586C147.866 112.04 147.867 112.591 148.122 113.045C148.227 113.232 149.685 115.743 152.154 117.949L148.368 121.735C148.229 121.873 148.119 122.038 148.044 122.22C147.968 122.401 147.93 122.596 147.93 122.792C147.93 122.989 147.969 123.183 148.044 123.364C148.119 123.546 148.23 123.711 148.369 123.849V123.849ZM169.746 108.824L167.614 110.956C168.03 111.475 168.372 111.95 168.616 112.314C167.479 114.004 164.35 118.032 160.291 118.278L157.574 120.995C158.336 121.19 159.119 121.291 159.905 121.294C166.951 121.294 171.497 113.386 171.688 113.05C171.944 112.595 171.945 112.037 171.689 111.582C171.618 111.456 170.94 110.264 169.746 108.824ZM159.905 106.325C155.634 106.325 152.358 110.57 151.195 112.312C152.073 113.606 153.108 114.786 154.278 115.825L157.023 113.079C156.951 112.83 156.914 112.573 156.911 112.314C156.911 111.52 157.227 110.758 157.788 110.197C158.35 109.635 159.111 109.32 159.905 109.32C160.172 109.32 160.426 109.363 160.672 109.43L163.016 107.086C162.057 106.627 161.016 106.325 159.905 106.325V106.325Z" fill="#D7E8EF"/>
</g>
<g filter="url(#filter2_d_208_6592)">
<path d="M104.359 28.0259C82.4904 36.8561 78.7511 39.6808 58.2056 48.1811C58.2056 49.3028 58.1749 55.4607 58.0202 83.8091C57.8336 121.65 97.5047 140.154 103.676 143.007C109.632 140.507 149.831 122.035 150.016 84.1936C150.172 55.8134 150.172 49.6555 150.203 48.5656C128.044 37.9152 124.984 36.5034 104.359 28.0259Z" fill="#175067"/>
<path d="M104.359 28.0259C82.4904 36.8561 78.7511 39.6808 58.2056 48.1811C58.2056 49.3028 58.1749 55.4607 58.0202 83.8091C57.8336 121.65 97.5047 140.154 103.676 143.007C109.632 140.507 149.831 122.035 150.016 84.1936C150.172 55.8134 150.172 49.6555 150.203 48.5656C128.044 37.9152 124.984 36.5034 104.359 28.0259Z" fill="url(#paint0_linear_208_6592)" fill-opacity="0.2"/>
</g>
<path d="M94.004 86.9198C93.7958 85.7945 94.6117 82.8801 95.163 81.4848C96.3861 78.3305 98.1469 75.4122 100.367 72.8597C100.305 73.0623 100.244 73.2648 100.187 73.4674C99.7345 75.16 99.5261 76.9088 99.5684 78.6604C99.8517 76.9808 100.377 75.351 101.127 73.8218C101.501 73.0794 101.928 72.3649 102.404 71.6839C102.88 71.0138 103.401 70.3765 103.962 69.7766C104.954 68.7446 106.091 67.8632 107.338 67.1603C108.769 66.3329 110.276 65.6453 111.839 65.1068C112.629 64.8359 113.435 64.616 114.253 64.4485H101.065C98.0124 64.453 95.0862 65.668 92.9282 67.827C90.7702 69.986 89.5566 72.9128 89.5536 75.9654V93.9976L94.004 86.9198Z" fill="white"/>
<path d="M120.644 64.8989L120.301 65.2027C120.188 65.3096 120.104 65.4052 120.002 65.5065L119.862 65.6584L119.732 65.8047L119.474 66.0972C119.316 66.2942 119.147 66.4854 119.001 66.6599C118.399 67.4307 117.876 68.1846 117.313 68.9104C116.227 70.4013 115.158 71.8529 113.971 73.2032C112.823 74.5675 111.499 75.7727 110.033 76.7871C109.288 77.2847 108.485 77.6891 107.642 77.9911C106.781 78.2953 105.876 78.4568 104.963 78.4694C105.895 78.6254 106.845 78.6254 107.777 78.4694C108.719 78.3172 109.64 78.0488 110.517 77.6704C110.815 77.541 111.079 77.406 111.394 77.2597C110.67 78.3053 109.875 79.2997 109.014 80.236C107.576 81.8435 105.626 82.9048 103.495 83.2404C102.75 83.3501 101.997 83.3934 101.245 83.3698C101.982 83.56 102.735 83.6842 103.495 83.7412C104.277 83.7886 105.062 83.749 105.836 83.623L106.201 83.5499C102.752 86.2617 100.209 86.5881 98.814 86.695H98.7409C97.9238 86.7866 97.1326 87.037 96.4116 87.432C96.9555 86.363 97.5368 85.3147 98.1557 84.2869C99.5202 82.0247 101.057 79.871 102.752 77.8449C103.6 76.8396 104.485 75.8607 105.408 74.908C106.348 73.9796 107.304 73.0682 108.317 72.213C110.34 70.4945 112.519 68.9687 114.826 67.6557C112.454 68.8782 110.202 70.3192 108.097 71.9598C107.045 72.7756 106.044 73.6477 105.059 74.5591C104.075 75.4706 103.152 76.4327 102.246 77.4229C100.454 79.4115 98.8173 81.5351 97.3512 83.7749C96.6141 84.9002 95.9165 86.0254 95.2695 87.2238C94.9488 87.7865 94.6393 88.4053 94.3355 89.013C94.133 89.4237 93.9417 89.8288 93.7729 90.2508C92.7827 92.2031 91.8993 94.341 91.8993 94.341C91.283 94.726 90.74 95.2175 90.2958 95.7926H108.705C111.947 95.7881 115.055 94.4979 117.347 92.2048C119.639 89.9118 120.928 86.8032 120.931 83.5611V64.6907L120.644 64.8989Z" fill="white"/>
</g>
<defs>
<filter id="filter0_d_208_6592" x="9.02832" y="0.549805" width="84.8815" height="100.848" filterUnits="userSpaceOnUse" color-interpolation-filters="sRGB">
<feFlood flood-opacity="0" result="BackgroundImageFix"/>
<feColorMatrix in="SourceAlpha" type="matrix" values="0 0 0 0 0 0 0 0 0 0 0 0 0 0 0 0 0 0 127 0" result="hardAlpha"/>
<feOffset dx="-2" dy="6"/>
<feGaussianBlur stdDeviation="7"/>
<feColorMatrix type="matrix" values="0 0 0 0 0.215686 0 0 0 0 0.231373 0 0 0 0 0.258824 0 0 0 0.15 0"/>
<feBlend mode="normal" in2="BackgroundImageFix" result="effect1_dropShadow_208_6592"/>
<feBlend mode="normal" in="SourceGraphic" in2="effect1_dropShadow_208_6592" result="shape"/>
</filter>
<filter id="filter1_d_208_6592" x="115.964" y="65.3943" width="84.881" height="100.848" filterUnits="userSpaceOnUse" color-interpolation-filters="sRGB">
<feFlood flood-opacity="0" result="BackgroundImageFix"/>
<feColorMatrix in="SourceAlpha" type="matrix" values="0 0 0 0 0 0 0 0 0 0 0 0 0 0 0 0 0 0 127 0" result="hardAlpha"/>
<feOffset dx="-2" dy="6"/>
<feGaussianBlur stdDeviation="7"/>
<feColorMatrix type="matrix" values="0 0 0 0 0.215686 0 0 0 0 0.231373 0 0 0 0 0.258824 0 0 0 0.15 0"/>
<feBlend mode="normal" in2="BackgroundImageFix" result="effect1_dropShadow_208_6592"/>
<feBlend mode="normal" in="SourceGraphic" in2="effect1_dropShadow_208_6592" result="shape"/>
</filter>
<filter id="filter2_d_208_6592" x="55.0195" y="25.0259" width="98.1832" height="120.982" filterUnits="userSpaceOnUse" color-interpolation-filters="sRGB">
<feFlood flood-opacity="0" result="BackgroundImageFix"/>
<feColorMatrix in="SourceAlpha" type="matrix" values="0 0 0 0 0 0 0 0 0 0 0 0 0 0 0 0 0 0 127 0" result="hardAlpha"/>
<feOffset/>
<feGaussianBlur stdDeviation="1.5"/>
<feColorMatrix type="matrix" values="0 0 0 0 0.215686 0 0 0 0 0.231373 0 0 0 0 0.258824 0 0 0 0.15 0"/>
<feBlend mode="normal" in2="BackgroundImageFix" result="effect1_dropShadow_208_6592"/>
<feBlend mode="normal" in="SourceGraphic" in2="effect1_dropShadow_208_6592" result="shape"/>
</filter>
<linearGradient id="paint0_linear_208_6592" x1="52.7177" y1="-28.1191" x2="104.111" y2="143.007" gradientUnits="userSpaceOnUse">
<stop stop-color="white"/>
<stop offset="1" stop-color="white" stop-opacity="0"/>
</linearGradient>
</defs>
</svg>
