<svg width="106" height="73" viewBox="0 0 106 73" fill="none" xmlns="http://www.w3.org/2000/svg">
<path fill-rule="evenodd" clip-rule="evenodd" d="M31.6287 13.4312L5.74791 13.2114C3.70067 13.2114 2.02588 14.5632 2.02222 16.2215L3.64633 52.9447C3.64633 54.52 5.2454 55.8083 7.19495 55.8083H38.0018V19.3721L36.4454 16.1037C35.7451 14.634 33.5776 13.4306 31.6287 13.4306V13.4312ZM70.2459 22.4554C70.2459 20.8008 68.5711 19.4502 66.5238 19.4502L38.0018 19.3714V55.8114H65.0786C67.0263 55.8114 68.6217 54.5261 68.6217 52.9472L70.2459 22.4554V22.4554Z" fill="#175067"/>
<path d="M68.813 53.7126L68.6219 57.337C68.6219 58.9153 67.0265 60.2012 65.0787 60.2012H38.0019V53.7126H68.813Z" fill="#FFB700"/>
<path d="M61.2142 21.8594H7.39268C6.58302 21.8594 5.80652 22.181 5.234 22.7535C4.66148 23.326 4.33984 24.1026 4.33984 24.9122V38.7483C4.33984 39.558 4.66148 40.3345 5.234 40.907C5.80652 41.4795 6.58302 41.8011 7.39268 41.8011H61.2142C62.0239 41.8011 62.8004 41.4795 63.3729 40.907C63.9454 40.3345 64.2671 39.558 64.2671 38.7483V24.9122C64.2671 24.1026 63.9454 23.326 63.3729 22.7535C62.8004 22.181 62.0239 21.8594 61.2142 21.8594V21.8594Z" fill="#CFCFCF"/>
<path d="M63.6968 24.9434H6.41514C5.60548 24.9434 4.82898 25.265 4.25646 25.8375C3.68394 26.41 3.3623 27.1865 3.3623 27.9962V41.8329C3.3623 42.6426 3.68394 43.4191 4.25646 43.9916C4.82898 44.5641 5.60548 44.8857 6.41514 44.8857H63.6968C64.5065 44.8857 65.283 44.5641 65.8555 43.9916C66.428 43.4191 66.7496 42.6426 66.7496 41.8329V27.9962C66.7496 27.1865 66.428 26.41 65.8555 25.8375C65.283 25.265 64.5065 24.9434 63.6968 24.9434V24.9434Z" fill="#F0F0F0"/>
<path d="M72.4178 28.3743H5.09654C4.28688 28.3743 3.51037 28.6959 2.93785 29.2684C2.36534 29.8409 2.0437 30.6174 2.0437 31.4271V46.822C2.0437 47.6316 2.36534 48.4081 2.93785 48.9806C3.51037 49.5532 4.28688 49.8748 5.09654 49.8748H72.4178C73.2274 49.8748 74.0039 49.5532 74.5764 48.9806C75.149 48.4081 75.4706 47.6316 75.4706 46.822V31.4271C75.4706 30.6174 75.149 29.8409 74.5764 29.2684C74.0039 28.6959 73.2274 28.3743 72.4178 28.3743V28.3743Z" fill="white"/>
<path d="M45.9464 7.10568C45.9464 3.73351 48.6799 1 52.0521 1H83.8016C87.1738 1 89.9073 3.73351 89.9073 7.10568V48.6243C89.9073 51.9965 87.1738 54.73 83.8016 54.73H52.0521C48.6799 54.73 45.9464 51.9965 45.9464 48.6243V7.10568Z" stroke="#D7E8EF" stroke-width="2" stroke-linecap="square" stroke-linejoin="round" stroke-dasharray="4 8"/>
<path fill-rule="evenodd" clip-rule="evenodd" d="M0 35.621C0 33.7673 1.87689 32.2519 4.17201 32.2519L36.1352 32.1621L68.1003 32.2519C70.3954 32.2519 72.2729 33.7673 72.2729 35.621L70.4516 69.7902C70.4516 71.5559 68.6645 72.9999 66.4817 72.9999H5.79124C3.60907 72.9999 1.82071 71.5559 1.82071 69.7902L0 35.621Z" fill="#D7E8EF"/>
<g filter="url(#filter0_d_208_6576)">
<path d="M83.6478 12.6008H64.7202C64.0725 12.6008 63.4513 12.8581 62.9933 13.3162C62.5353 13.7742 62.278 14.3954 62.278 15.0431V54.73C62.278 55.3777 62.5353 55.999 62.9933 56.457C63.4513 56.915 64.0725 57.1723 64.7202 57.1723H94.6381C95.2858 57.1723 95.907 56.915 96.365 56.457C96.823 55.999 97.0803 55.3777 97.0803 54.73V26.0333L83.6478 12.6008Z" fill="white"/>
<path d="M97.0804 26.0336H86.0902C85.4425 26.0336 84.8213 25.7763 84.3633 25.3182C83.9053 24.8602 83.6479 24.239 83.6479 23.5913V12.6011L97.0804 26.0336Z" fill="#175067"/>
<path d="M72.047 39.1608C71.445 39.9625 71.9512 41.2984 72.9629 41.2978H82.8718C83.9348 41.2965 84.4593 40.0681 83.7235 39.2878L78.1942 33.4251C77.671 32.8707 76.7826 32.911 76.3332 33.5094L72.047 39.1608Z" fill="#D9D9D9"/>
<path d="M78.8269 39.3904C78.2126 40.1896 78.6608 41.2984 79.6786 41.2978H87.064C88.1289 41.2966 88.6625 40.0871 87.9231 39.308L83.9215 35.0908C83.4019 34.5425 82.5239 34.5791 82.072 35.1671L78.8269 39.3904V39.3904ZM83.5612 30.4554C83.567 30.6949 83.5248 30.9331 83.4372 31.156C83.3496 31.379 83.2182 31.5822 83.0509 31.7536C82.8836 31.9251 82.6837 32.0614 82.463 32.1545C82.2422 32.2475 82.0051 32.2955 81.7655 32.2956C80.7563 32.2974 79.9222 31.4768 79.9033 30.4609C79.8975 30.2214 79.9397 29.9831 80.0273 29.7602C80.115 29.5372 80.2463 29.334 80.4136 29.1626C80.5809 28.9911 80.7808 28.8548 81.0016 28.7618C81.2223 28.6687 81.4594 28.6207 81.699 28.6206C82.7083 28.6194 83.5429 29.44 83.5612 30.4554Z" fill="#D9D9D9"/>
</g>
<path d="M103.193 55.0885L92.8075 50.232C92.374 50.0366 91.9185 50.0586 91.5937 50.2753C91.3116 50.5568 91.2029 51.0123 91.333 51.4678L94.4554 62.5246C94.5201 62.7847 94.6722 62.98 94.9103 63.1315C95.2144 63.3268 95.5612 63.3268 95.7779 63.1315L95.908 63.0014L96.8617 61.05V61.0287L97.4252 59.8796C97.4252 59.8796 97.4252 59.8576 97.4472 59.8362L97.4686 59.8142C97.4906 59.7709 97.5339 59.7062 97.5992 59.6195L99.7454 62.1564C100.222 62.698 100.981 62.85 101.588 62.5032C102.39 62.0263 102.586 61.0073 102 60.2917C101.285 59.4461 100.569 58.6004 99.8321 57.7334C99.9188 57.6901 100.005 57.6681 100.049 57.6467H100.071C100.092 57.6467 100.092 57.6467 100.114 57.6247L101.328 57.2566H101.35L103.431 56.6491C103.496 56.6277 103.539 56.5843 103.583 56.541C103.822 56.3456 103.865 56.0208 103.713 55.6734C103.619 55.4198 103.434 55.2108 103.193 55.0885V55.0885Z" fill="#FB8B24"/>
<defs>
<filter id="filter0_d_208_6576" x="50.278" y="6.60083" width="54.8025" height="64.5715" filterUnits="userSpaceOnUse" color-interpolation-filters="sRGB">
<feFlood flood-opacity="0" result="BackgroundImageFix"/>
<feColorMatrix in="SourceAlpha" type="matrix" values="0 0 0 0 0 0 0 0 0 0 0 0 0 0 0 0 0 0 127 0" result="hardAlpha"/>
<feOffset dx="-2" dy="4"/>
<feGaussianBlur stdDeviation="5"/>
<feColorMatrix type="matrix" values="0 0 0 0 0.215686 0 0 0 0 0.231373 0 0 0 0 0.258824 0 0 0 0.1 0"/>
<feBlend mode="normal" in2="BackgroundImageFix" result="effect1_dropShadow_208_6576"/>
<feBlend mode="normal" in="SourceGraphic" in2="effect1_dropShadow_208_6576" result="shape"/>
</filter>
</defs>
</svg>
