<svg width="48" height="48" viewBox="0 0 48 48" fill="none" xmlns="http://www.w3.org/2000/svg">
<rect x="2" y="2" width="44" height="44" rx="22" fill="#141522" stroke="white" stroke-width="4"/>
<path d="M24.844 29.764V29.12C24.844 27.692 25.908 26.852 27.28 25.872C28.904 24.724 30.836 23.296 30.836 20.3C30.836 16.576 28.316 14.168 24.144 14.168C20.084 14.168 17.144 16.996 17.144 21H20.7C20.7 18.844 22.072 17.36 24.06 17.36C26.02 17.36 27.196 18.62 27.196 20.524C27.196 22.148 26.048 23.1 24.788 24.108C23.304 25.256 21.736 26.572 21.736 29.12V29.764H24.844ZM23.416 35.364C24.648 35.364 25.684 34.328 25.684 33.152C25.684 31.92 24.648 30.912 23.416 30.912C22.156 30.912 21.148 31.92 21.148 33.152C21.148 34.356 22.156 35.364 23.416 35.364Z" fill="white"/>
</svg>
