<svg width="125" height="7" viewBox="0 0 125 7" fill="none" xmlns="http://www.w3.org/2000/svg">
<path d="M5.45616 0.832L6.25616 2.272L4.17616 3.024L6.25616 3.776L5.42416 5.264L3.69616 3.84L4.06416 6.048H2.40016L2.75216 3.84L1.04016 5.296L0.160156 3.76L2.24016 3.008L0.176156 2.288L0.992156 0.816L2.76816 2.224L2.40016 0H4.08016L3.69616 2.224L5.45616 0.832Z" fill="#303E49"/>
<path d="M13.5774 0.832L14.3774 2.272L12.2974 3.024L14.3774 3.776L13.5454 5.264L11.8174 3.84L12.1854 6.048H10.5214L10.8734 3.84L9.16141 5.296L8.28141 3.76L10.3614 3.008L8.29741 2.288L9.11341 0.816L10.8894 2.224L10.5214 0H12.2014L11.8174 2.224L13.5774 0.832Z" fill="#303E49"/>
<path d="M21.6987 0.832L22.4987 2.272L20.4187 3.024L22.4987 3.776L21.6667 5.264L19.9387 3.84L20.3067 6.048H18.6427L18.9947 3.84L17.2827 5.296L16.4027 3.76L18.4827 3.008L16.4187 2.288L17.2347 0.816L19.0107 2.224L18.6427 0H20.3227L19.9387 2.224L21.6987 0.832Z" fill="#303E49"/>
<path d="M29.8199 0.832L30.6199 2.272L28.5399 3.024L30.6199 3.776L29.7879 5.264L28.0599 3.84L28.4279 6.048H26.7639L27.1159 3.84L25.4039 5.296L24.5239 3.76L26.6039 3.008L24.5399 2.288L25.3559 0.816L27.1319 2.224L26.7639 0H28.4439L28.0599 2.224L29.8199 0.832Z" fill="#303E49"/>
<path d="M52.5512 0.832L53.3512 2.272L51.2712 3.024L53.3512 3.776L52.5192 5.264L50.7912 3.84L51.1592 6.048H49.4952L49.8472 3.84L48.1352 5.296L47.2552 3.76L49.3352 3.008L47.2712 2.288L48.0872 0.816L49.8632 2.224L49.4952 0H51.1752L50.7912 2.224L52.5512 0.832Z" fill="#303E49"/>
<path d="M60.6724 0.832L61.4724 2.272L59.3924 3.024L61.4724 3.776L60.6404 5.264L58.9124 3.84L59.2804 6.048H57.6164L57.9684 3.84L56.2564 5.296L55.3764 3.76L57.4564 3.008L55.3924 2.288L56.2084 0.816L57.9844 2.224L57.6164 0H59.2964L58.9124 2.224L60.6724 0.832Z" fill="#303E49"/>
<path d="M68.7937 0.832L69.5937 2.272L67.5137 3.024L69.5937 3.776L68.7617 5.264L67.0337 3.84L67.4017 6.048H65.7377L66.0897 3.84L64.3777 5.296L63.4977 3.76L65.5777 3.008L63.5137 2.288L64.3297 0.816L66.1057 2.224L65.7377 0H67.4177L67.0337 2.224L68.7937 0.832Z" fill="#303E49"/>
<path d="M76.9149 0.832L77.7149 2.272L75.6349 3.024L77.7149 3.776L76.8829 5.264L75.1549 3.84L75.5229 6.048H73.8589L74.2109 3.84L72.4989 5.296L71.6189 3.76L73.6989 3.008L71.6349 2.288L72.4509 0.816L74.2269 2.224L73.8589 0H75.5389L75.1549 2.224L76.9149 0.832Z" fill="#303E49"/>
<path d="M99.6462 0.832L100.446 2.272L98.3662 3.024L100.446 3.776L99.6142 5.264L97.8862 3.84L98.2542 6.048H96.5902L96.9422 3.84L95.2302 5.296L94.3502 3.76L96.4302 3.008L94.3662 2.288L95.1822 0.816L96.9582 2.224L96.5902 0H98.2702L97.8862 2.224L99.6462 0.832Z" fill="#303E49"/>
<path d="M107.767 0.832L108.567 2.272L106.487 3.024L108.567 3.776L107.735 5.264L106.007 3.84L106.375 6.048H104.711L105.063 3.84L103.351 5.296L102.471 3.76L104.551 3.008L102.487 2.288L103.303 0.816L105.079 2.224L104.711 0H106.391L106.007 2.224L107.767 0.832Z" fill="#303E49"/>
<path d="M115.889 0.832L116.689 2.272L114.609 3.024L116.689 3.776L115.857 5.264L114.129 3.84L114.497 6.048H112.833L113.185 3.84L111.473 5.296L110.593 3.76L112.673 3.008L110.609 2.288L111.425 0.816L113.201 2.224L112.833 0H114.513L114.129 2.224L115.889 0.832Z" fill="#303E49"/>
<path d="M124.01 0.832L124.81 2.272L122.73 3.024L124.81 3.776L123.978 5.264L122.25 3.84L122.618 6.048H120.954L121.306 3.84L119.594 5.296L118.714 3.76L120.794 3.008L118.73 2.288L119.546 0.816L121.322 2.224L120.954 0H122.634L122.25 2.224L124.01 0.832Z" fill="#303E49"/>
</svg>
