<svg width="57" height="36" viewBox="0 0 57 36" fill="none" xmlns="http://www.w3.org/2000/svg">
<path d="M32.3287 18.0002C32.3287 25.1385 26.542 30.9242 19.404 30.9242C12.266 30.9242 6.47998 25.1382 6.47998 18.0002C6.47998 10.8626 12.266 5.07617 19.404 5.07617C26.5418 5.07617 32.3287 10.8629 32.3287 18.0002Z" fill="#D9222A"/>
<path d="M36.7553 5.07568C33.416 5.07568 30.373 6.3426 28.0793 8.42131C27.612 8.84531 27.1758 9.30237 26.7743 9.78902H29.3855C29.743 10.2237 30.0721 10.6809 30.3708 11.1579H25.7891C25.5135 11.5987 25.2648 12.0557 25.0445 12.5265H31.115C31.3234 12.9718 31.506 13.4286 31.6623 13.8947H24.4973C24.3468 14.3436 24.2214 14.8005 24.1217 15.2633H32.0374C32.231 16.1626 32.3286 17.08 32.3284 17.9999C32.3284 19.4352 32.0941 20.816 31.6621 22.1054H24.4972C24.653 22.5718 24.8356 23.0287 25.0441 23.474H31.1148C30.8943 23.9449 30.6455 24.402 30.3699 24.8429H25.7889C26.0874 25.3196 26.4166 25.7765 26.7742 26.2106H29.3848C28.9838 26.6982 28.5475 27.1558 28.0795 27.5796C30.3732 29.6579 33.4159 30.9243 36.7555 30.9243C43.8935 30.9243 49.6802 25.1383 49.6802 18.0003C49.6802 10.863 43.8935 5.07626 36.7555 5.07626" fill="#EE9F2D"/>
<path d="M47.957 25.2045C47.957 24.9741 48.1437 24.7868 48.3743 24.7868C48.605 24.7868 48.7916 24.9741 48.7916 25.2045C48.7916 25.4348 48.605 25.6221 48.3743 25.6221C48.1437 25.6221 47.957 25.4348 47.957 25.2045ZM48.3743 25.5218C48.5496 25.5218 48.6916 25.3797 48.6917 25.2045C48.6917 25.0294 48.5498 24.8875 48.3748 24.8874H48.3743C48.1995 24.8872 48.0575 25.0287 48.0572 25.2035V25.2045C48.0571 25.3797 48.1989 25.5218 48.374 25.5219C48.3741 25.5218 48.3743 25.5218 48.3743 25.5218ZM48.318 25.3879H48.2325V25.021H48.3872C48.4196 25.021 48.4526 25.021 48.4812 25.0393C48.5109 25.0594 48.5277 25.0948 48.5277 25.1314C48.5277 25.1725 48.5034 25.2109 48.464 25.2259L48.5316 25.3879H48.4369L48.3808 25.2426H48.3181L48.318 25.3879ZM48.318 25.1798H48.3653C48.383 25.1798 48.4017 25.1814 48.4176 25.1726C48.4316 25.1636 48.4389 25.1468 48.4389 25.1306C48.4386 25.1155 48.4309 25.1017 48.4182 25.0933C48.4033 25.084 48.3796 25.086 48.3636 25.086H48.318V25.1798ZM16.386 19.4153C16.2386 19.3982 16.1739 19.3936 16.0728 19.3936C15.2774 19.3936 14.8748 19.6663 14.8748 20.2049C14.8748 20.5369 15.0713 20.7482 15.3779 20.7482C15.9495 20.7482 16.3613 20.2039 16.386 19.4153ZM17.4063 21.791H16.2438L16.2705 21.2384C15.9158 21.675 15.4428 21.8827 14.7998 21.8827C14.0393 21.8827 13.5179 21.2887 13.5179 20.4262C13.5179 19.1285 14.4248 18.3712 15.9815 18.3712C16.1405 18.3712 16.3446 18.3856 16.5533 18.4123C16.5968 18.2365 16.6082 18.1611 16.6082 18.0666C16.6082 17.7132 16.3637 17.5815 15.7082 17.5815C15.0218 17.5738 14.4557 17.7451 14.2232 17.8215C14.2379 17.733 14.4176 16.6221 14.4176 16.6221C15.1169 16.4172 15.578 16.34 16.097 16.34C17.3017 16.34 17.9399 16.881 17.9387 17.9033C17.9411 18.1773 17.8957 18.5153 17.825 18.9596C17.7033 19.7325 17.442 21.3875 17.4063 21.791ZM12.9309 21.791H11.5278L12.3315 16.7512L10.5369 21.791H9.58081L9.46258 16.78L8.61781 21.791H7.30438L8.40145 15.235H10.419L10.5414 18.9047L11.772 15.235H14.016L12.9309 21.791ZM38.4887 19.4153C38.3421 19.3982 38.277 19.3936 38.1761 19.3936C37.3812 19.3936 36.9785 19.6663 36.9785 20.2049C36.9785 20.5369 37.1747 20.7482 37.4812 20.7482C38.0529 20.7482 38.465 20.2039 38.4887 19.4153ZM39.51 21.791H38.3475L38.3738 21.2384C38.0191 21.675 37.5458 21.8827 36.9034 21.8827C36.1428 21.8827 35.6218 21.2887 35.6218 20.4262C35.6218 19.1285 36.5282 18.3712 38.0852 18.3712C38.2442 18.3712 38.4478 18.3856 38.6564 18.4123C38.6999 18.2365 38.7114 18.1611 38.7114 18.0666C38.7114 17.7132 38.4671 17.5815 37.8116 17.5815C37.1253 17.5738 36.5598 17.7451 36.3264 17.8215C36.341 17.733 36.5214 16.6221 36.5214 16.6221C37.2207 16.4172 37.6815 16.34 38.1999 16.34C39.4052 16.34 40.0434 16.881 40.0422 17.9033C40.0445 18.1773 39.9992 18.5153 39.9285 18.9596C39.8073 19.7325 39.5454 21.3875 39.51 21.791ZM23.6419 21.71C23.2579 21.8309 22.9586 21.8827 22.6339 21.8827C21.9166 21.8827 21.5252 21.4705 21.5252 20.7115C21.515 20.4759 21.6284 19.8561 21.7175 19.2904C21.7985 18.7924 22.3258 15.6523 22.3258 15.6523H23.7205L23.5576 16.4593H24.3999L24.2097 17.7406H23.3643C23.2023 18.7546 22.9716 20.0176 22.9689 20.185C22.9689 20.4597 23.1156 20.5798 23.4492 20.5798C23.6091 20.5798 23.7329 20.5634 23.8275 20.5294L23.6419 21.71ZM27.9181 21.6668C27.439 21.8133 26.9767 21.884 26.4868 21.8828C24.9256 21.8813 24.1118 21.0659 24.1118 19.5045C24.1118 17.682 25.1471 16.3403 26.5525 16.3403C27.7024 16.3403 28.4368 17.0915 28.4368 18.2696C28.4368 18.6605 28.3864 19.0421 28.2649 19.5809H25.4876C25.3936 20.3543 25.8886 20.6765 26.6998 20.6765C27.1991 20.6765 27.6494 20.5736 28.15 20.3408L27.9181 21.6668ZM27.1342 18.506C27.1419 18.3949 27.2822 17.5544 26.4853 17.5544C26.0409 17.5544 25.7233 17.8931 25.5939 18.506H27.1342ZM18.248 18.1448C18.248 18.8192 18.575 19.2843 19.3166 19.6335C19.8848 19.9005 19.9726 19.9798 19.9726 20.2217C19.9726 20.5541 19.7222 20.7042 19.1669 20.7042C18.7484 20.7042 18.359 20.6388 17.9099 20.4938C17.9099 20.4938 17.7254 21.6689 17.717 21.7251C18.0359 21.7948 18.3203 21.8591 19.177 21.8828C20.6576 21.8828 21.3413 21.3191 21.3413 20.1008C21.3413 19.3682 21.055 18.9383 20.3522 18.6152C19.7639 18.3452 19.6964 18.2849 19.6964 18.0359C19.6964 17.7476 19.9295 17.6006 20.3831 17.6006C20.6585 17.6006 21.0347 17.63 21.3911 17.6807L21.5909 16.4441C21.2276 16.3865 20.6768 16.3403 20.3561 16.3403C18.7864 16.3403 18.2431 17.1602 18.248 18.1448ZM34.7424 16.4804C35.1321 16.4804 35.4954 16.5828 35.9961 16.8348L36.2256 15.4118C36.0201 15.3311 35.2965 14.8574 34.6836 14.8574C33.7447 14.8574 32.9509 15.3233 32.3926 16.0922C31.5783 15.8225 31.2436 16.3676 30.8333 16.9106L30.4687 16.9955C30.4963 16.8168 30.5212 16.6391 30.5128 16.4594H29.2243C29.0482 18.1094 28.7363 19.7806 28.492 21.4328L28.4283 21.7911H29.832C30.0663 20.2688 30.1947 19.2941 30.2727 18.6345L30.8013 18.3404C30.8803 18.0468 31.1274 17.9474 31.6233 17.9595C31.5566 18.32 31.5233 18.686 31.5237 19.0527C31.5237 20.7969 32.4648 21.8829 33.9753 21.8829C34.3644 21.8829 34.6983 21.8316 35.2153 21.6915L35.4622 20.1969C34.9972 20.4259 34.6156 20.5336 34.27 20.5336C33.4543 20.5336 32.9607 19.9315 32.9607 18.9363C32.9607 17.4926 33.6948 16.4804 34.7424 16.4804Z" fill="black"/>
<path d="M13.3351 21.4012H11.9318L12.7361 16.3621L10.9414 21.4012H9.98503L9.86681 16.3909L9.02203 21.4012H7.70868L8.80574 14.8462H10.8233L10.88 18.9043L12.2411 14.8462H14.4203L13.3351 21.4012Z" fill="white"/>
<path d="M46.6215 15.2354L46.3103 17.1296C45.9267 16.6247 45.5145 16.2593 44.9703 16.2593C44.2623 16.2593 43.6179 16.796 43.1961 17.5859C42.6087 17.464 42.0011 17.2573 42.0011 17.2573L42.0008 17.2622C42.0482 16.8205 42.0671 16.5512 42.0629 16.4596H40.7741C40.5985 18.1097 40.2865 19.7809 40.0428 21.433L39.9785 21.7913H41.3819C41.5715 20.5604 41.7165 19.5384 41.8235 18.7276C42.3028 18.2945 42.5429 17.9165 43.0274 17.9417C42.8129 18.4604 42.6872 19.0579 42.6872 19.6709C42.6872 21.0038 43.3615 21.8831 44.3815 21.8831C44.8958 21.8831 45.2903 21.7058 45.6752 21.2948L45.6094 21.7904H46.9368L48.0054 15.2354L46.6215 15.2354ZM44.8668 20.5591C44.3891 20.5591 44.148 20.2057 44.148 19.5082C44.148 18.4602 44.5995 17.7172 45.236 17.7172C45.7181 17.7172 45.9791 18.0847 45.9791 18.7618C45.9792 19.8187 45.5204 20.5591 44.8668 20.5591Z" fill="black"/>
<path d="M16.7897 19.027C16.6426 19.01 16.5776 19.0054 16.4768 19.0054C15.6814 19.0054 15.2791 19.2781 15.2791 19.8166C15.2791 20.1481 15.4756 20.36 15.7816 20.36C16.3538 20.3599 16.7657 19.8157 16.7897 19.027ZM17.8105 21.4018H16.648L16.6744 20.8501C16.3201 21.286 15.8464 21.4945 15.2041 21.4945C14.4433 21.4945 13.9221 20.9005 13.9221 20.038C13.9221 18.7397 14.8287 17.983 16.3857 17.983C16.5447 17.983 16.7488 17.9974 16.9573 18.0241C17.0008 17.8483 17.0122 17.773 17.0122 17.6779C17.0122 17.3244 16.768 17.1934 16.1125 17.1934C15.4258 17.1856 14.86 17.3569 14.6272 17.4325C14.6419 17.3443 14.8216 16.2346 14.8216 16.2346C15.5206 16.0289 15.9823 15.9518 16.5007 15.9518C17.7057 15.9518 18.3441 16.493 18.343 17.5144C18.3451 17.7896 18.2995 18.1274 18.2289 18.571C18.1075 19.3432 17.846 20.9992 17.8105 21.4018ZM36.6298 15.0232L36.4001 16.4464C35.8997 16.1947 35.5361 16.0922 35.1468 16.0922C34.0991 16.0922 33.3648 17.1043 33.3648 18.5478C33.3648 19.5429 33.8585 20.1448 34.674 20.1448C35.0196 20.1448 35.4009 20.0374 35.8659 19.8082L35.6196 21.3022C35.1024 21.4431 34.7689 21.4945 34.3794 21.4945C32.8691 21.4945 31.9277 20.4084 31.9277 18.6642C31.9277 16.3206 33.228 14.6826 35.0877 14.6826C35.7002 14.6827 36.4241 14.9425 36.6298 15.0232ZM38.8937 19.027C38.7468 19.01 38.682 19.0054 38.5808 19.0054C37.7858 19.0054 37.3832 19.2781 37.3832 19.8166C37.3832 20.1481 37.5797 20.36 37.886 20.36C38.4575 20.3599 38.8697 19.8157 38.8937 19.027ZM39.9146 21.4018H38.7518L38.7785 20.8501C38.4239 21.286 37.9505 21.4945 37.3082 21.4945C36.5476 21.4945 36.0263 20.9005 36.0263 20.038C36.0263 18.7397 36.9332 17.983 38.4895 17.983C38.6489 17.983 38.8526 17.9974 39.0613 18.0241C39.1046 17.8483 39.1162 17.773 39.1162 17.6779C39.1162 17.3244 38.8719 17.1934 38.2166 17.1934C37.5302 17.1856 36.9641 17.3569 36.7312 17.4325C36.7459 17.3443 36.9259 16.2346 36.9259 16.2346C37.625 16.0289 38.0863 15.9518 38.6047 15.9518C39.81 15.9518 40.4481 16.493 40.4466 17.5144C40.449 17.7896 40.4037 18.1274 40.3329 18.571C40.2118 19.3432 39.9497 20.9992 39.9146 21.4018ZM24.0465 21.3211C23.6621 21.442 23.3628 21.4945 23.0385 21.4945C22.3212 21.4945 21.9297 21.0822 21.9297 20.3232C21.9198 20.0871 22.0333 19.4678 22.1223 18.9022C22.203 18.4035 22.7304 15.2637 22.7304 15.2637H24.1249L23.9622 16.071H24.6779L24.4874 17.3517H23.7692C23.6072 18.3664 23.3759 19.6284 23.3735 19.7961C23.3735 20.0719 23.5204 20.1908 23.8538 20.1908C24.0137 20.1908 24.1373 20.1753 24.2321 20.1411L24.0465 21.3211ZM28.3226 21.2785C27.8438 21.4248 27.3809 21.4953 26.8913 21.4945C25.33 21.493 24.5163 20.6776 24.5163 19.1161C24.5163 17.293 25.5516 15.9517 26.957 15.9517C28.1069 15.9517 28.8413 16.7026 28.8413 17.8813C28.8413 18.2725 28.7909 18.6541 28.6697 19.1926H25.8923C25.7983 19.9659 26.2933 20.2885 27.1046 20.2885C27.6036 20.2885 28.0541 20.1852 28.5545 19.9518L28.3226 21.2785ZM27.5385 18.1168C27.5468 18.0061 27.6868 17.1652 26.8895 17.1652C26.4455 17.1652 26.1278 17.5048 25.9985 18.1168H27.5385ZM18.6522 17.7564C18.6522 18.4309 18.9793 18.8953 19.7209 19.245C20.2891 19.5121 20.3769 19.5915 20.3769 19.8334C20.3769 20.1658 20.1261 20.3158 19.5714 20.3158C19.1526 20.3158 18.7632 20.2504 18.3138 20.1054C18.3138 20.1054 18.1299 21.2806 18.1214 21.3367C18.4398 21.4063 18.7244 21.4699 19.5812 21.4945C21.062 21.4945 21.7455 20.9308 21.7455 19.7128C21.7455 18.9798 21.4596 18.55 20.7564 18.2269C20.1684 17.9562 20.1003 17.8968 20.1003 17.6476C20.1003 17.3596 20.334 17.2113 20.7873 17.2113C21.0624 17.2113 21.4386 17.2416 21.7956 17.2923L21.9951 16.0554C21.6321 15.9978 21.0813 15.9517 20.7606 15.9517C19.1907 15.9517 18.6477 16.771 18.6522 17.7564ZM47.3406 21.4018H46.0131L46.0791 20.9055C45.6941 21.3171 45.2997 21.4945 44.7854 21.4945C43.7655 21.4945 43.0914 20.6151 43.0914 19.2822C43.0914 17.5088 44.1369 16.014 45.3744 16.014C45.9186 16.014 46.3305 16.2362 46.7139 16.7409L47.0253 14.8467H48.4092L47.3406 21.4018ZM45.2709 20.17C45.9243 20.17 46.3833 19.4296 46.3833 18.3733C46.3833 17.6962 46.122 17.3287 45.6399 17.3287C45.0037 17.3287 44.5516 18.0714 44.5516 19.1197C44.5516 19.8171 44.7933 20.17 45.2709 20.17ZM41.1783 16.0711C41.0025 17.7211 40.6906 19.3924 40.4466 21.0436L40.3824 21.4019H41.7858C42.2877 18.1421 42.4091 17.5054 43.1961 17.5852C43.3215 16.918 43.5548 16.3336 43.7288 16.0387C43.1411 15.9163 42.8129 16.2485 42.3833 16.8793C42.4172 16.6066 42.4793 16.3417 42.4669 16.0711L41.1783 16.0711ZM29.6281 16.0711C29.4519 17.7211 29.14 19.3924 28.896 21.0436L28.8321 21.4019H30.2361C30.7374 18.1421 30.8586 17.5054 31.6451 17.5852C31.7711 16.918 32.0045 16.3336 32.1779 16.0387C31.5908 15.9163 31.2622 16.2485 30.833 16.8793C30.8669 16.6066 30.9283 16.3417 30.9166 16.0711L29.6281 16.0711ZM47.9571 20.9844C47.9568 20.7541 48.1433 20.5672 48.3735 20.5669H48.3744C48.6046 20.5666 48.7915 20.7531 48.7917 20.9833V20.9844C48.7916 21.2149 48.6049 21.4017 48.3744 21.4018C48.1439 21.4017 47.9572 21.2149 47.9571 20.9844ZM48.3744 21.3016C48.5494 21.3017 48.6914 21.1598 48.6914 20.9848V20.9846C48.6916 20.8094 48.5497 20.6673 48.3747 20.6672H48.3744C48.1991 20.6673 48.0571 20.8093 48.057 20.9846C48.0572 21.1597 48.1992 21.3016 48.3744 21.3016ZM48.318 21.1669H48.2324V20.801H48.3874C48.4196 20.801 48.4529 20.8016 48.4808 20.8193C48.5108 20.8396 48.5278 20.8745 48.5278 20.911C48.5278 20.9524 48.5036 20.991 48.4639 21.0058L48.5317 21.1668H48.4366L48.3805 21.0221H48.3179L48.318 21.1669ZM48.318 20.9596H48.365C48.3827 20.9596 48.4019 20.9609 48.4175 20.9524C48.4316 20.9434 48.4388 20.9264 48.4388 20.91C48.4381 20.8949 48.4306 20.881 48.4181 20.8724C48.4034 20.864 48.3791 20.8663 48.3632 20.8663H48.3179L48.318 20.9596Z" fill="white"/>
</svg>
