<svg width="39" height="26" viewBox="0 0 39 26" fill="none" xmlns="http://www.w3.org/2000/svg">
<path d="M37.7487 25.85H0V0H38.4011V25.85H37.7487Z" fill="#1D5B99"/>
<path fill-rule="evenodd" clip-rule="evenodd" d="M37.7484 25.1975H0.65213V0.652344H37.7484V25.1975Z" fill="white"/>
<path fill-rule="evenodd" clip-rule="evenodd" d="M14.0602 16.9112L16.4694 8.9676H18.6191L16.2096 16.9112H14.0602ZM13.0993 8.96979L11.1655 12.3373C10.6735 13.2194 10.3855 13.6649 10.2472 14.2219H10.2177C10.252 13.5157 10.1534 12.648 10.1443 12.1577L9.93057 8.96979H6.31219L6.27527 9.18348C7.20477 9.18348 7.75605 9.65042 7.90769 10.6057L8.61301 16.9112H10.84L15.3431 8.96979H13.0993ZM29.8159 16.9112L29.7567 15.73L27.0729 15.7278L26.5236 16.9112H24.19L28.4217 8.98268H31.286L32.0025 16.9112H29.8159ZM29.5697 12.2255C29.5454 11.6383 29.5258 10.8417 29.5653 10.3592H29.5336C29.403 10.7536 28.841 11.9379 28.5938 12.5202L27.7941 14.2612H29.6787L29.5697 12.2255ZM20.8757 17.1369C19.3582 17.1369 18.351 16.6556 17.6321 16.2262L18.656 14.6626C19.3017 15.0236 19.8084 15.4403 20.9747 15.4403C21.3494 15.4403 21.7108 15.343 21.9162 14.9875C22.2149 14.4712 21.8472 14.1928 21.0077 13.7176L20.593 13.448C19.3482 12.5976 18.8096 11.7895 19.3956 10.3793C19.7708 9.47736 20.7595 8.79346 22.3915 8.79346C23.5163 8.79346 24.5715 9.28028 25.1859 9.75574L24.0088 11.1362C23.4088 10.6512 22.9117 10.4058 22.3428 10.4058C21.8891 10.4058 21.5443 10.5808 21.4253 10.8168C21.2013 11.2603 21.4978 11.5627 22.152 11.9687L22.6449 12.2825C24.1565 13.2358 24.5162 14.2352 24.1377 15.1693C23.4857 16.7781 22.2101 17.1369 20.8757 17.1369ZM32.6425 10.0442H32.5494V9.47737H32.7644C32.9014 9.47737 32.9709 9.52522 32.9709 9.64037C32.9709 9.74306 32.9082 9.78567 32.8232 9.79507L32.982 10.0442H32.8767L32.7303 9.80206H32.6425V10.0442ZM32.7465 9.72231C32.8164 9.72231 32.878 9.71553 32.878 9.63338C32.878 9.56498 32.8109 9.55668 32.7552 9.55668H32.6425V9.72231H32.7465ZM32.7438 10.2633C32.4493 10.2633 32.2398 10.0428 32.2398 9.75115C32.2398 9.44328 32.4722 9.2392 32.7438 9.2392C33.0119 9.2392 33.2449 9.44328 33.2449 9.75115C33.2449 10.0592 33.0119 10.2633 32.7438 10.2633ZM32.7438 9.32813C32.5218 9.32813 32.3494 9.50206 32.3494 9.75115C32.3494 9.98385 32.5 10.1742 32.7438 10.1742C32.9628 10.1742 33.1352 10.0015 33.1352 9.75115C33.1352 9.50206 32.9628 9.32813 32.7438 9.32813Z" fill="#1D5B99"/>
<path fill-rule="evenodd" clip-rule="evenodd" d="M36.8346 19.3784H1.63034V24.0886H36.8346V19.3784Z" fill="#E7A83A"/>
<path fill-rule="evenodd" clip-rule="evenodd" d="M36.7692 1.82666H1.56512V6.53711H36.7692V1.82666ZM35.9646 23.7533H35.8716V23.1865H36.0866C36.2236 23.1865 36.293 23.2343 36.293 23.3495C36.293 23.4519 36.2303 23.4945 36.1453 23.5039L36.3042 23.7533H36.1989L36.0525 23.5109H35.9646V23.7533ZM36.0689 23.4314C36.1388 23.4314 36.2004 23.4246 36.2004 23.3423C36.2004 23.2741 36.1333 23.2658 36.0776 23.2658H35.9649V23.4314H36.0689ZM36.0662 23.9722C35.7717 23.9722 35.5622 23.7519 35.5622 23.46C35.5622 23.1524 35.7951 22.9483 36.0662 22.9483C36.3348 22.9483 36.5673 23.1524 36.5673 23.46C36.5673 23.7681 36.3348 23.9722 36.0662 23.9722ZM36.0662 23.037C35.8442 23.037 35.6718 23.2111 35.6718 23.46C35.6718 23.6929 35.8224 23.883 36.0662 23.883C36.2852 23.883 36.4576 23.7106 36.4576 23.46C36.4576 23.2111 36.2852 23.037 36.0662 23.037Z" fill="#1D5B99"/>
</svg>
