<svg width="20" height="20" viewBox="0 0 20 20" fill="none" xmlns="http://www.w3.org/2000/svg">
<path d="M10 2C11.6575 2 13 3.3425 13 5C13 6.6575 11.6575 8 10 8C8.3425 8 7 6.6575 7 5C7 3.3425 8.3425 2 10 2ZM10 3.5C9.175 3.5 8.5 4.175 8.5 5C8.5 5.825 9.175 6.5 10 6.5C10.825 6.5 11.5 5.8325 11.5 5C11.5 4.1675 10.8325 3.5 10 3.5ZM10 8.75C12.0025 8.75 16 9.7475 16 11.75V14H4V11.75C4 9.7475 7.9975 8.75 10 8.75ZM10 10.175C7.7725 10.175 5.425 11.27 5.425 11.75V12.575H14.575V11.75C14.575 11.27 12.2275 10.175 10 10.175M10.75 15.5H9.25V17H10.75V15.5ZM13.75 15.5H12.25V17H13.75V15.5ZM7.75 15.5H6.25V17H7.75V15.5Z" fill="#175067"/>
</svg>
