<svg width="20" height="20" viewBox="0 0 20 20" fill="none" xmlns="http://www.w3.org/2000/svg">
<path d="M16.8696 4H2.78261C2.57512 4.00024 2.3762 4.08277 2.22949 4.22949C2.08277 4.3762 2.00024 4.57512 2 4.78261V15.2174C2.00024 15.4249 2.08277 15.6238 2.22949 15.7705C2.3762 15.9172 2.57512 15.9998 2.78261 16H16.8696C17.0771 15.9998 17.276 15.9172 17.4227 15.7705C17.5694 15.6238 17.6519 15.4249 17.6522 15.2174V4.78261C17.6519 4.57512 17.5694 4.3762 17.4227 4.22949C17.276 4.08277 17.0771 4.00024 16.8696 4V4ZM16.6087 5.04348V7.13043H3.04348V5.04348H16.6087ZM3.04348 14.9565V9.21739H16.6087V14.9565H3.04348Z" fill="#175067"/>
<path d="M4.34778 11.8262H6.43473V12.8697H4.34778V11.8262ZM7.47821 11.8262H9.56517V12.8697H7.47821V11.8262Z" fill="#175067"/>
</svg>
