<svg width="20" height="20" viewBox="0 0 20 20" fill="none" xmlns="http://www.w3.org/2000/svg">
<path d="M7.60012 4H5.20012C4.53738 4 4.00012 4.53726 4.00012 5.2V14.8C4.00012 15.4627 4.53738 16 5.20012 16H7.60012C8.26286 16 8.80012 15.4627 8.80012 14.8V5.2C8.80012 4.53726 8.26286 4 7.60012 4Z" stroke="#175067" stroke-linecap="round" stroke-linejoin="round"/>
<path d="M14.8001 4H12.4001C11.7373 4 11.2001 4.53726 11.2001 5.2V7.6C11.2001 8.26274 11.7373 8.8 12.4001 8.8H14.8001C15.4628 8.8 16.0001 8.26274 16.0001 7.6V5.2C16.0001 4.53726 15.4628 4 14.8001 4Z" stroke="#175067" stroke-linecap="round" stroke-linejoin="round"/>
<path d="M14.8001 11.2H12.4001C11.7373 11.2 11.2001 11.7372 11.2001 12.4V14.8C11.2001 15.4627 11.7373 16 12.4001 16H14.8001C15.4628 16 16.0001 15.4627 16.0001 14.8V12.4C16.0001 11.7372 15.4628 11.2 14.8001 11.2Z" stroke="#175067" stroke-linecap="round" stroke-linejoin="round"/>
</svg>
