<svg width="20" height="20" viewBox="0 0 20 20" fill="none" xmlns="http://www.w3.org/2000/svg">
<path d="M15.8569 7.85718H12.4283C12.201 7.85718 11.983 7.94748 11.8222 8.10823C11.6615 8.26897 11.5712 8.48699 11.5712 8.71432V15.1429C11.5712 15.3702 11.6615 15.5882 11.8222 15.749C11.983 15.9097 12.201 16 12.4283 16H15.8569C16.0842 16 16.3022 15.9097 16.463 15.749C16.6237 15.5882 16.714 15.3702 16.714 15.1429V8.71432C16.714 8.48699 16.6237 8.26897 16.463 8.10823C16.3022 7.94748 16.0842 7.85718 15.8569 7.85718ZM15.8569 8.71432V13.4286H12.4283V8.71432H15.8569ZM12.4283 15.1429V14.1143H15.8569V15.1429H12.4283Z" fill="#175067"/>
<path d="M10.7143 11.7143H3.85714V4.85714H14.1429V7H15V4.85714C15 4.62981 14.9097 4.4118 14.7489 4.25105C14.5882 4.09031 14.3702 4 14.1429 4H3.85714C3.62981 4 3.4118 4.09031 3.25105 4.25105C3.09031 4.4118 3 4.62981 3 4.85714V11.7143C3 11.9416 3.09031 12.1596 3.25105 12.3204C3.4118 12.4811 3.62981 12.5714 3.85714 12.5714H10.7143V11.7143Z" fill="#175067"/>
<path d="M10.714 13.4285H5.99974C5.88607 13.4285 5.77707 13.4736 5.69669 13.554C5.61632 13.6344 5.57117 13.7434 5.57117 13.857C5.57117 13.9707 5.61632 14.0797 5.69669 14.1601C5.77707 14.2405 5.88607 14.2856 5.99974 14.2856H10.714V13.4285Z" fill="#175067"/>
</svg>
