<svg width="20" height="20" viewBox="0 0 20 20" fill="none" xmlns="http://www.w3.org/2000/svg">
<path d="M13.666 4C13.7445 3.99994 13.822 4.01838 13.892 4.05382C13.9621 4.08927 14.0228 4.14071 14.0693 4.204L14.106 4.262L16.2813 8.28067L16.3067 8.34267L16.3147 8.36933L16.328 8.43733L16.332 8.5C16.332 8.54505 16.326 8.5899 16.314 8.63333L16.2827 8.71667L16.2573 8.76267C16.2426 8.78669 16.2259 8.80943 16.2073 8.83067L16.2473 8.77867L16.2307 8.802L10.064 15.8053C10.0128 15.8734 9.94448 15.9268 9.866 15.96L9.80067 15.982L9.74867 15.9933L9.66667 16L9.6 15.996L9.52133 15.9787C9.4806 15.967 9.44159 15.9499 9.40533 15.928L9.39933 15.9233C9.36769 15.9039 9.33858 15.8806 9.31267 15.854L3.11933 8.82333L3.102 8.802L3.07533 8.76267C3.03756 8.70167 3.01345 8.63321 3.00467 8.562L3 8.5L3.002 8.456L3.01067 8.39667C3.01482 8.37725 3.02016 8.3581 3.02667 8.33933L3.04133 8.3L3.06 8.262L5.22667 4.262C5.26402 4.19297 5.3171 4.13371 5.38161 4.089C5.44612 4.0443 5.52025 4.01541 5.598 4.00467L5.666 4H13.666ZM11.6647 9H7.66533L9.66533 14.1247L11.6647 9ZM6.59267 9H4.606L8.17333 13.0493L6.59267 9ZM14.7247 9H12.7387L11.16 13.0467L14.7247 9ZM7.64733 5H5.96333L4.338 8H6.68733L7.64733 5ZM10.634 5H8.69733L7.73667 8H11.5933L10.6333 5H10.634ZM13.3673 5H11.684L12.644 8H14.992L13.368 5H13.3673Z" fill="#175067"/>
</svg>
