<svg width="20" height="20" viewBox="0 0 20 20" fill="none" xmlns="http://www.w3.org/2000/svg">
<path d="M6.16667 4H13.8333C14.3868 3.99996 14.9192 4.2117 15.3215 4.59178C15.7238 4.97186 15.9653 5.49146 15.9967 6.044L16 6.16667V13.8333C16 14.3868 15.7883 14.9192 15.4082 15.3215C15.0281 15.7238 14.5085 15.9653 13.956 15.9967L13.8333 16H6.16667C5.61324 16 5.08078 15.7883 4.67851 15.4082C4.27624 15.0281 4.03467 14.5085 4.00333 13.956L4 13.8333V6.16667C3.99996 5.61324 4.2117 5.08078 4.59178 4.67851C4.97186 4.27624 5.49146 4.03467 6.044 4.00333L6.16667 4ZM7.55 11.6667H5V13.8333C5.00001 14.1261 5.11011 14.4082 5.30845 14.6236C5.50679 14.839 5.77887 14.9719 6.07067 14.996L6.16667 15H13.8333C14.1262 15 14.4084 14.8898 14.6238 14.6913C14.8392 14.4928 14.9721 14.2206 14.996 13.9287L15 13.8333V11.6667H12.45C12.3391 12.2089 12.0516 12.699 11.6324 13.0603C11.2132 13.4216 10.686 13.6337 10.1333 13.6633L10 13.6667C9.44574 13.6666 8.90719 13.4825 8.46893 13.1432C8.03068 12.8039 7.71753 12.3286 7.57867 11.792L7.55 11.6667V11.6667ZM13.8333 5H6.16667C5.87387 5.00001 5.59179 5.11011 5.37641 5.30845C5.16102 5.50679 5.02809 5.77887 5.004 6.07067L5 6.16667V10.6667H8C8.12083 10.6667 8.23756 10.7104 8.32862 10.7898C8.41968 10.8693 8.4789 10.979 8.49533 11.0987L8.5 11.1667C8.49928 11.5561 8.65003 11.9305 8.92037 12.2108C9.19071 12.4911 9.55946 12.6552 9.94864 12.6685C10.3378 12.6819 10.7169 12.5433 11.0058 12.2822C11.2947 12.0211 11.4707 11.6579 11.4967 11.2693L11.5 11.1667C11.5 11.0458 11.5438 10.9291 11.6232 10.838C11.7026 10.747 11.8123 10.6878 11.932 10.6713L12 10.6667H15V6.16667C15 5.87377 14.8898 5.59159 14.6913 5.37619C14.4928 5.1608 14.2206 5.02793 13.9287 5.004L13.8333 5ZM6.5 8.33333H13.5C13.6267 8.33337 13.7486 8.3815 13.8412 8.46798C13.9338 8.55447 13.99 8.67287 13.9987 8.79925C14.0073 8.92564 13.9677 9.05059 13.8877 9.14887C13.8078 9.24714 13.6935 9.3114 13.568 9.32867L13.5 9.33333H6.5C6.37332 9.33329 6.25137 9.28517 6.15881 9.19868C6.06624 9.1122 6.00995 8.9938 6.00132 8.86741C5.99268 8.74103 6.03234 8.61607 6.11229 8.5178C6.19223 8.41953 6.3065 8.35527 6.432 8.338L6.5 8.33333H13.5H6.5ZM6.5 6.33333H13.5C13.6267 6.33337 13.7486 6.3815 13.8412 6.46798C13.9338 6.55447 13.99 6.67287 13.9987 6.79925C14.0073 6.92564 13.9677 7.05059 13.8877 7.14887C13.8078 7.24714 13.6935 7.3114 13.568 7.32867L13.5 7.33333H6.5C6.37332 7.33329 6.25137 7.28517 6.15881 7.19869C6.06624 7.1122 6.00995 6.9938 6.00132 6.86741C5.99268 6.74103 6.03234 6.61607 6.11229 6.5178C6.19223 6.41953 6.3065 6.35527 6.432 6.338L6.5 6.33333H13.5H6.5Z" fill="#175067"/>
</svg>
