<svg width="20" height="20" viewBox="0 0 20 20" fill="none" xmlns="http://www.w3.org/2000/svg">
<path d="M16.6619 5.66809H9.99343C9.20474 5.62866 7.65495 4 6.76372 4H2.85968C2.63168 4 2.41301 4.09057 2.25179 4.25179C2.09057 4.41302 2 4.63168 2 4.85968V4.8794V7.75419H17.3796V6.40552C17.3817 6.31075 17.3651 6.21649 17.3307 6.12813C17.2964 6.03977 17.245 5.95905 17.1794 5.89056C17.1139 5.82208 17.0355 5.76719 16.9487 5.72902C16.8619 5.69084 16.7685 5.67014 16.6737 5.66809H16.6619Z" stroke="#175067" stroke-linecap="round" stroke-linejoin="round"/>
<path d="M17.3796 7.75024H2.00004V15.1324C1.999 15.2453 2.0202 15.3573 2.06245 15.462C2.10469 15.5667 2.16715 15.6621 2.24624 15.7426C2.32534 15.8232 2.41953 15.8874 2.52344 15.9316C2.62734 15.9757 2.73893 15.999 2.85183 16H16.5199C16.7479 16 16.9666 15.9094 17.1278 15.7482C17.289 15.587 17.3796 15.3683 17.3796 15.1403V15.1324V7.75024Z" stroke="#175067" stroke-linecap="round" stroke-linejoin="round"/>
<path d="M13.1704 9.0481C13.9143 9.0481 14.6276 9.34358 15.1536 9.86954C15.6796 10.3955 15.975 11.1089 15.975 11.8527C15.975 12.4074 15.8106 12.9496 15.5024 13.4109C15.1942 13.8721 14.7562 14.2315 14.2437 14.4438C13.7312 14.6561 13.1673 14.7116 12.6233 14.6034C12.0793 14.4952 11.5795 14.2281 11.1873 13.8359C10.7951 13.4436 10.528 12.9439 10.4197 12.3998C10.3115 11.8558 10.3671 11.2919 10.5793 10.7794C10.7916 10.2669 11.1511 9.82893 11.6123 9.52076C12.0735 9.21258 12.6158 9.0481 13.1704 9.0481V9.0481ZM13.1704 10.2942C13.4625 10.2903 13.7458 10.3945 13.9657 10.5868C14.1856 10.779 14.3267 11.0458 14.3619 11.3358C14.3971 11.6258 14.3238 11.9185 14.1562 12.1578C13.9886 12.397 13.7385 12.5659 13.454 12.6319V13.3796C13.4503 13.4522 13.4188 13.5207 13.3661 13.5708C13.3134 13.6209 13.2435 13.6489 13.1708 13.649C13.0981 13.6491 13.0281 13.6213 12.9753 13.5713C12.9225 13.5213 12.8908 13.453 12.8869 13.3804V12.6319C12.6028 12.5655 12.3531 12.3966 12.1859 12.1574C12.0187 11.9183 11.9456 11.6258 11.9808 11.3362C12.0159 11.0465 12.1568 10.78 12.3763 10.5878C12.5959 10.3956 12.8787 10.2912 13.1704 10.2946V10.2942Z" stroke="#175067" stroke-linecap="round" stroke-linejoin="round"/>
</svg>
