<svg width="20" height="20" viewBox="0 0 20 20" fill="none" xmlns="http://www.w3.org/2000/svg">
<path d="M16 14.1537V13.2307H15.0303C14.9708 12.9417 14.8561 12.667 14.6925 12.4216L15.3801 11.7339L14.7275 11.0813L14.0398 11.769C13.7944 11.6054 13.5197 11.4906 13.2308 11.4311V10.4614H12.3077V11.4311C12.0188 11.4906 11.7441 11.6054 11.4986 11.769L10.8109 11.0813L10.1583 11.7339L10.846 12.4216C10.6824 12.667 10.5677 12.9417 10.5081 13.2307H9.53845V14.1537H10.5081C10.5677 14.4426 10.6824 14.7174 10.846 14.9628L10.1583 15.6505L10.8109 16.3031L11.4986 15.6154C11.7441 15.779 12.0188 15.8937 12.3077 15.9533V16.923H13.2308V15.9533C13.5197 15.8937 13.7944 15.779 14.0398 15.6154L14.7275 16.3031L15.3801 15.6505L14.6925 14.9628C14.8561 14.7174 14.9708 14.4426 15.0303 14.1537H16ZM12.7692 15.0768C12.4954 15.0768 12.2277 14.9956 12 14.8435C11.7723 14.6913 11.5948 14.4751 11.49 14.2221C11.3852 13.9691 11.3578 13.6907 11.4112 13.4221C11.4646 13.1535 11.5965 12.9068 11.7902 12.7131C11.9838 12.5195 12.2305 12.3876 12.4991 12.3342C12.7677 12.2808 13.0461 12.3082 13.2991 12.413C13.5521 12.5178 13.7683 12.6952 13.9205 12.9229C14.0726 13.1506 14.1538 13.4183 14.1538 13.6922C14.1535 14.0593 14.0075 14.4113 13.7479 14.6709C13.4883 14.9304 13.1363 15.0764 12.7692 15.0768Z" fill="#175067"/>
<path d="M8.61539 15.3848L7.12277 14.5886C6.45786 14.2349 5.9018 13.7069 5.51427 13.0611C5.12674 12.4153 4.92236 11.6762 4.92308 10.9231V4.92308H14.1538V9.53846H15.0769V4.92308C15.0767 4.67834 14.9794 4.44369 14.8063 4.27063C14.6332 4.09758 14.3986 4.00024 14.1538 4H4.92308C4.67834 4.00024 4.44369 4.09758 4.27064 4.27063C4.09758 4.44369 4.00025 4.67834 4 4.92308V10.9231C3.99897 11.8435 4.24864 12.7469 4.72221 13.5362C5.19577 14.3255 5.87535 14.971 6.688 15.4032L8.61539 16.4311V15.3848Z" fill="#175067"/>
</svg>
