<svg width="40" height="40" viewBox="0 0 40 40" fill="none" xmlns="http://www.w3.org/2000/svg">
<path d="M19.3337 30C20.8425 30 22.105 28.9249 22.3949 27.5H16.2712C16.5624 28.9249 17.8237 30 19.3337 30V30Z" fill="#051F61"/>
<path d="M25.6464 22.0801C25.625 22.0801 25.604 22.0838 25.5826 22.0838C21.9064 22.0838 18.9163 19.0925 18.9163 15.4175C18.9163 13.9737 19.3826 12.6389 20.1663 11.5463V10.8337C20.1663 10.3726 19.7937 10 19.3338 10C18.8739 10 18.5 10.3726 18.5 10.8337V11.7337C15.6775 12.1399 13.5 14.5676 13.5 17.5V19.8237C13.5 21.4725 12.7777 23.0289 11.51 24.1013C11.1862 24.3787 11 24.7825 11 25.2088C11 26.0127 11.6537 26.6676 12.4587 26.6676H26.2088C27.0127 26.6676 27.6676 26.0139 27.6676 25.2088C27.6676 24.7825 27.4814 24.3787 27.15 24.0949C26.4914 23.5389 25.9851 22.8477 25.6464 22.0801V22.0801Z" fill="#051F61"/>
<path d="M25.5838 10C22.5976 10 20.1675 12.4301 20.1675 15.4163C20.1675 18.4024 22.5976 20.8326 25.5838 20.8326C28.5699 20.8326 31.0001 18.4037 31.0001 15.4163C31.0001 12.4289 28.5699 10 25.5838 10ZM26.4163 17.2913C26.4163 17.6361 26.1361 17.9163 25.7913 17.9163C25.4461 17.9163 25.1663 17.6361 25.1663 17.2913V14.5825H24.75C24.4052 14.5825 24.125 14.3024 24.125 13.9575C24.125 13.6124 24.4052 13.3325 24.75 13.3325H25.7913C26.1361 13.3325 26.4163 13.6124 26.4163 13.9575V17.2913Z" fill="#EB5757"/>
</svg>
