<svg width="40" height="40" viewBox="0 0 40 40" fill="none" xmlns="http://www.w3.org/2000/svg">
<path d="M32.5 40H7.5C3.35754 40 0 36.6425 0 32.5V7.5C0 3.35754 3.35754 0 7.5 0H32.5C36.6425 0 40 3.35754 40 7.5V32.5C40 36.6425 36.6425 40 32.5 40Z" fill="white"/>
<path d="M19.3339 29.9999C20.8427 29.9999 22.1053 28.9248 22.3952 27.4999H16.2715C16.5626 28.9248 17.8239 29.9999 19.3339 29.9999V29.9999Z" fill="#051F61"/>
<path d="M25.6464 22.0801C25.625 22.0801 25.604 22.0838 25.5826 22.0838C21.9064 22.0838 18.9163 19.0925 18.9163 15.4175C18.9163 13.9737 19.3826 12.6389 20.1663 11.5463V10.8337C20.1663 10.3726 19.7937 10 19.3338 10C18.8739 10 18.5 10.3726 18.5 10.8337V11.7337C15.6775 12.1399 13.5 14.5676 13.5 17.5V19.8237C13.5 21.4725 12.7777 23.0289 11.51 24.1013C11.1862 24.3787 11 24.7825 11 25.2088C11 26.0127 11.6537 26.6676 12.4587 26.6676H26.2088C27.0127 26.6676 27.6676 26.0139 27.6676 25.2088C27.6676 24.7825 27.4814 24.3787 27.15 24.0949C26.4914 23.5389 25.9851 22.8477 25.6464 22.0801V22.0801Z" fill="#051F61"/>
<circle cx="25.415" cy="15.415" r="5.415" fill="#EB5757"/>
</svg>
