<svg width="28" height="28" viewBox="0 0 28 28" fill="none" xmlns="http://www.w3.org/2000/svg">
<path d="M19.2193 6.30913L21.6903 8.77896M20.8083 4.1333L14.1268 10.8148C13.7816 11.1595 13.5462 11.5988 13.4502 12.0771L12.833 15.1665L15.9223 14.5481C16.4007 14.4525 16.8393 14.218 17.1847 13.8726L23.8662 7.19113C24.067 6.99035 24.2262 6.75199 24.3349 6.48966C24.4435 6.22733 24.4995 5.94616 24.4995 5.66221C24.4995 5.37827 24.4435 5.0971 24.3349 4.83477C24.2262 4.57244 24.067 4.33408 23.8662 4.1333C23.6654 3.93252 23.427 3.77325 23.1647 3.66459C22.9024 3.55593 22.6212 3.5 22.3373 3.5C22.0533 3.5 21.7721 3.55593 21.5098 3.66459C21.2475 3.77325 21.0091 3.93252 20.8083 4.1333V4.1333Z" stroke="#175067" stroke-width="2" stroke-linecap="round" stroke-linejoin="round"/>
<path d="M22.1665 17.4997V20.9997C22.1665 21.6185 21.9207 22.212 21.4831 22.6496C21.0455 23.0872 20.452 23.333 19.8332 23.333H6.99984C6.381 23.333 5.78751 23.0872 5.34992 22.6496C4.91234 22.212 4.6665 21.6185 4.6665 20.9997V8.16634C4.6665 7.5475 4.91234 6.95401 5.34992 6.51643C5.78751 6.07884 6.381 5.83301 6.99984 5.83301H10.4998" stroke="#175067" stroke-width="2" stroke-linecap="round" stroke-linejoin="round"/>
</svg>
