<svg width="20" height="18" viewBox="0 0 20 18" fill="none" xmlns="http://www.w3.org/2000/svg">
<path d="M0.666992 1.99967C0.666992 1.69026 0.789909 1.39351 1.0087 1.17472C1.22749 0.955924 1.52424 0.833008 1.83366 0.833008H18.167C18.4764 0.833008 18.7732 0.955924 18.992 1.17472C19.2107 1.39351 19.3337 1.69026 19.3337 1.99967C19.3337 2.30909 19.2107 2.60584 18.992 2.82463C18.7732 3.04342 18.4764 3.16634 18.167 3.16634H1.83366C1.52424 3.16634 1.22749 3.04342 1.0087 2.82463C0.789909 2.60584 0.666992 2.30909 0.666992 1.99967ZM0.666992 15.9997C0.666992 15.6903 0.789909 15.3935 1.0087 15.1747C1.22749 14.9559 1.52424 14.833 1.83366 14.833H18.167C18.4764 14.833 18.7732 14.9559 18.992 15.1747C19.2107 15.3935 19.3337 15.6903 19.3337 15.9997C19.3337 16.3091 19.2107 16.6058 18.992 16.8246C18.7732 17.0434 18.4764 17.1663 18.167 17.1663H1.83366C1.52424 17.1663 1.22749 17.0434 1.0087 16.8246C0.789909 16.6058 0.666992 16.3091 0.666992 15.9997ZM1.83366 7.83301C1.52424 7.83301 1.22749 7.95592 1.0087 8.17472C0.789909 8.39351 0.666992 8.69026 0.666992 8.99967C0.666992 9.30909 0.789909 9.60584 1.0087 9.82463C1.22749 10.0434 1.52424 10.1663 1.83366 10.1663H11.167C11.4764 10.1663 11.7732 10.0434 11.9919 9.82463C12.2107 9.60584 12.3337 9.30909 12.3337 8.99967C12.3337 8.69026 12.2107 8.39351 11.9919 8.17472C11.7732 7.95592 11.4764 7.83301 11.167 7.83301H1.83366Z" fill="#175067"/>
</svg>
