<svg width="24" height="24" viewBox="0 0 24 24" fill="none" xmlns="http://www.w3.org/2000/svg">
<rect width="24" height="24" rx="12" fill="#141522"/>
<path d="M12.4242 14.88V14.558C12.4242 13.844 12.9562 13.424 13.6422 12.934C14.4542 12.36 15.4202 11.646 15.4202 10.148C15.4202 8.28603 14.1602 7.08203 12.0742 7.08203C10.0442 7.08203 8.57422 8.49603 8.57422 10.498H10.3522C10.3522 9.42003 11.0382 8.67803 12.0322 8.67803C13.0122 8.67803 13.6002 9.30803 13.6002 10.26C13.6002 11.072 13.0262 11.548 12.3962 12.052C11.6542 12.626 10.8702 13.284 10.8702 14.558V14.88H12.4242ZM11.7102 17.68C12.3262 17.68 12.8442 17.162 12.8442 16.574C12.8442 15.958 12.3262 15.454 11.7102 15.454C11.0802 15.454 10.5762 15.958 10.5762 16.574C10.5762 17.176 11.0802 17.68 11.7102 17.68Z" fill="white"/>
</svg>
