<svg width="177" height="64" viewBox="0 0 177 64" fill="none" xmlns="http://www.w3.org/2000/svg">
<path d="M50.6328 17.0332H55.2129V40.3861H50.6328V17.0332Z" fill="#175067"/>
<path d="M73.3 35.0551C72.9922 36.9767 72.2273 38.4318 70.968 39.4206C69.7087 40.4094 67.9457 40.9131 65.5904 40.9131C62.7546 40.9131 60.6232 40.128 59.196 38.5578C57.7688 36.9875 57.0536 34.7628 57.0505 31.8835C57.0294 30.5755 57.241 29.2742 57.6755 28.0403C58.0534 26.9747 58.649 25.9994 59.4245 25.1766C60.1805 24.391 61.1012 23.7825 62.1203 23.395C63.23 22.9816 64.4063 22.776 65.5904 22.7886C68.2053 22.7886 70.1736 23.5411 71.4951 25.046C72.8165 26.551 73.4757 28.5798 73.4726 31.1326V32.9609H61.6539C61.6263 34.1234 61.9965 35.2604 62.7033 36.1838C63.3563 36.958 64.3373 37.3451 65.6463 37.3451C67.456 37.3451 68.5241 36.5818 68.8505 35.0551H73.3ZM69.0791 29.9526C69.1401 28.9611 68.8309 27.9822 68.2116 27.2055C67.6332 26.5525 66.7377 26.226 65.5158 26.226C64.9666 26.2143 64.4207 26.3142 63.9113 26.5199C63.4721 26.7026 63.0764 26.976 62.75 27.3221C62.4312 27.663 62.181 28.062 62.0131 28.4974C61.8368 28.9633 61.7375 29.4548 61.7192 29.9526H69.0791Z" fill="#175067"/>
<path d="M80.0816 41.468C80.1454 41.8357 80.2733 42.1893 80.4594 42.5128C80.62 42.7723 80.8449 42.986 81.1123 43.1331C81.4185 43.2965 81.7521 43.4024 82.0964 43.4456C82.5602 43.5069 83.0278 43.535 83.4957 43.5295C84.1922 43.5708 84.8857 43.4087 85.4919 43.0631C85.9615 42.756 86.3312 42.3183 86.5553 41.8038C86.7949 41.2312 86.9383 40.6229 86.9797 40.0035C87.031 39.3272 87.059 38.6323 87.059 37.9094V37.387C86.5139 38.1916 85.7635 38.8358 84.8855 39.2526C83.9495 39.692 82.9251 39.9106 81.8912 39.8916C79.4939 39.8916 77.7013 39.1142 76.5136 37.5596C75.3258 36.0049 74.7304 33.9232 74.7273 31.3144C74.7168 30.1491 74.8883 28.9894 75.2356 27.877C75.5427 26.8931 76.0368 25.9778 76.6908 25.1812C77.3256 24.4244 78.1227 23.8203 79.0228 23.4135C80.0041 22.9762 81.0689 22.7581 82.1431 22.7745C83.0582 22.7749 83.9644 22.9539 84.8109 23.3016C85.7606 23.7172 86.5795 24.383 87.1802 25.2278V23.3156H91.6297V37.998C91.6412 39.2938 91.4844 40.5857 91.1633 41.8412C90.9109 42.8862 90.4333 43.8635 89.7641 44.7049C89.0946 45.5085 88.2263 46.1228 87.2455 46.4865C86.0347 46.921 84.7537 47.1266 83.4677 47.0929C82.2861 47.112 81.1062 46.9962 79.951 46.7477C79.0877 46.566 78.2705 46.2106 77.549 45.703C76.9241 45.2431 76.4226 44.6359 76.0892 43.9353C75.7327 43.1551 75.5074 42.3215 75.4222 41.468H80.0816ZM87.0776 31.2631C87.1053 30.4212 86.9902 29.5807 86.7372 28.7772C86.5596 28.2263 86.2507 27.7269 85.837 27.322C85.4878 26.993 85.0584 26.7615 84.5917 26.6504C84.1429 26.541 83.6824 26.4862 83.2205 26.4871C82.7341 26.4846 82.2516 26.5732 81.7979 26.7483C81.3404 26.9292 80.9349 27.2209 80.6179 27.5972C80.2529 28.0409 79.9801 28.5531 79.8157 29.1037C79.6056 29.8149 79.5064 30.5543 79.5219 31.2958C79.5219 33.1054 79.867 34.3834 80.5526 35.1389C80.8734 35.5023 81.2695 35.7915 81.7132 35.9864C82.157 36.1813 82.6379 36.2773 83.1225 36.2676C83.661 36.2712 84.1965 36.1877 84.7083 36.0204C85.1853 35.8651 85.6175 35.5962 85.9676 35.2369C86.3405 34.8371 86.6193 34.359 86.7838 33.8377C86.9951 33.1554 87.0943 32.4435 87.0776 31.7295V31.2631Z" fill="#175067"/>
<path d="M104.176 38.2264C103.526 38.969 102.759 39.5994 101.904 40.092C100.897 40.6107 99.7716 40.8582 98.6394 40.8103C97.9032 40.814 97.1702 40.7151 96.4613 40.5165C95.805 40.3323 95.1937 40.0147 94.6657 39.5837C94.1411 39.1556 93.7215 38.6132 93.439 37.9979C93.1126 37.273 92.9532 36.484 92.9726 35.6892C92.9279 34.6718 93.2018 33.6658 93.7562 32.8115C94.2817 32.0657 94.9921 31.4694 95.8177 31.0811C96.7228 30.6489 97.6858 30.3504 98.6767 30.1949C99.7436 30.0222 100.82 29.9132 101.9 29.8685L104.092 29.7705V28.9217C104.092 27.8738 103.803 27.154 103.224 26.7622C102.619 26.3625 101.906 26.1574 101.181 26.1745C99.3717 26.1745 98.3363 26.8602 98.0751 28.2314L93.8774 27.8396C94.1884 26.0517 94.9735 24.7598 96.2328 23.9638C97.4921 23.1678 99.1929 22.7698 101.335 22.7698C102.465 22.7406 103.592 22.8982 104.67 23.2362C105.506 23.5033 106.264 23.969 106.881 24.5934C107.447 25.2017 107.861 25.9353 108.089 26.7342C108.351 27.6546 108.479 28.6083 108.467 29.5653V40.3859H104.148L104.176 38.2264ZM104.078 32.7648L102.049 32.8628C101.264 32.8852 100.483 32.9836 99.7168 33.1566C99.2337 33.2651 98.774 33.4594 98.3596 33.7303C98.0704 33.927 97.8476 34.2067 97.7206 34.5325C97.6095 34.8582 97.5543 35.2004 97.5573 35.5446C97.5454 35.7991 97.5927 36.0528 97.6955 36.2859C97.7983 36.519 97.9538 36.725 98.1497 36.8878C98.6189 37.2387 99.1972 37.4122 99.7821 37.3776C100.804 37.424 101.814 37.1376 102.66 36.5614C103.078 36.2512 103.424 35.8552 103.677 35.4C103.954 34.8598 104.089 34.2578 104.068 33.651L104.078 32.7648Z" fill="#175067"/>
<path d="M110.747 17.033H115.327V25.3723C115.92 24.5447 116.708 23.876 117.62 23.4254C118.533 22.9747 119.543 22.7559 120.56 22.7884C122.939 22.7884 124.718 23.5953 125.896 25.209C127.074 26.8228 127.661 29.0367 127.654 31.8506C127.669 33.1 127.499 34.3447 127.151 35.5445C126.849 36.5853 126.348 37.5578 125.677 38.4083C125.053 39.2005 124.255 39.8388 123.345 40.2739C122.372 40.725 121.31 40.9498 120.239 40.9315C119.329 40.9317 118.429 40.7526 117.589 40.4045C116.646 39.9851 115.825 39.3337 115.201 38.5109V40.3858H110.752L110.747 17.033ZM115.295 31.9905C115.271 32.8882 115.365 33.7852 115.574 34.6584C115.729 35.2666 116.04 35.8243 116.475 36.2768C116.848 36.6347 117.303 36.8971 117.799 37.0417C118.242 37.1622 118.698 37.2234 119.156 37.2236C119.65 37.2248 120.139 37.1248 120.593 36.9298C121.064 36.7254 121.475 36.4044 121.787 35.997C122.16 35.5047 122.433 34.9436 122.589 34.3459C122.801 33.5458 122.9 32.7201 122.883 31.8926C122.9 31.0447 122.808 30.1982 122.608 29.374C122.46 28.7793 122.199 28.2187 121.838 27.723C121.541 27.3142 121.14 26.9922 120.677 26.7901C120.233 26.6093 119.757 26.5159 119.278 26.515C118.777 26.5034 118.278 26.5807 117.804 26.7435C117.363 26.9122 116.955 27.1551 116.596 27.4618C116.146 27.8951 115.813 28.4361 115.63 29.0335C115.4 29.819 115.294 30.6359 115.318 31.4542L115.295 31.9905Z" fill="#175067"/>
<path d="M129.521 17.0332H134.101V40.3861H129.521V17.0332Z" fill="#175067"/>
<path d="M152.192 35.0551C151.881 36.9767 151.104 38.4318 149.86 39.4206C148.617 40.4094 146.824 40.9069 144.483 40.9131C141.647 40.9131 139.515 40.128 138.088 38.5578C136.661 36.9875 135.946 34.7628 135.943 31.8835C135.922 30.5755 136.133 29.2742 136.568 28.0403C136.946 26.9747 137.541 25.9994 138.317 25.1766C139.073 24.391 139.994 23.7825 141.013 23.395C142.122 22.9816 143.299 22.776 144.483 22.7886C147.101 22.7886 149.069 23.5411 150.387 25.046C151.706 26.551 152.368 28.5798 152.374 31.1326V32.9609H140.546C140.519 34.1234 140.889 35.2604 141.596 36.1838C142.249 36.958 143.23 37.3451 144.539 37.3451C146.348 37.3451 147.416 36.5818 147.743 35.0551H152.192ZM147.971 29.9526C148.032 28.9611 147.723 27.9822 147.104 27.2055C146.526 26.5525 145.627 26.226 144.408 26.226C143.859 26.2143 143.313 26.3142 142.804 26.5199C142.366 26.7045 141.972 26.9795 141.647 27.3268C141.328 27.6676 141.078 28.0667 140.91 28.5021C140.734 28.968 140.635 29.4595 140.616 29.9573L147.971 29.9526Z" fill="#175067"/>
<path d="M20.5917 35.5308C20.4192 34.598 21.0954 32.182 21.5525 31.0253C22.5664 28.4105 24.0261 25.9913 25.8668 23.8753C25.8155 24.0432 25.7641 24.2111 25.7175 24.379C25.3422 25.7822 25.1694 27.2319 25.2045 28.684C25.4393 27.2916 25.8744 25.9406 26.4964 24.6729C26.8063 24.0574 27.1601 23.4651 27.5551 22.9006C27.9497 22.3451 28.3814 21.8168 28.8471 21.3194C29.6692 20.4639 30.612 19.7333 31.6455 19.1507C32.8317 18.4648 34.0812 17.8947 35.3767 17.4483C36.0313 17.2237 36.6997 17.0414 37.3776 16.9026H26.4451C23.9146 16.9063 21.4888 17.9135 19.6999 19.7033C17.911 21.4931 16.9049 23.9193 16.9025 26.4499V41.3982L20.5917 35.5308Z" fill="#EFB86E"/>
<path d="M42.6755 17.2754L42.391 17.5272C42.2978 17.6158 42.2278 17.6951 42.1438 17.7791L42.0272 17.905L41.92 18.0263L41.7054 18.2688C41.5748 18.432 41.4349 18.5906 41.3137 18.7352C40.8146 19.3742 40.3808 19.9992 39.9144 20.6008C39.0143 21.8368 38.1281 23.0401 37.144 24.1595C36.1925 25.2904 35.0946 26.2896 33.8792 27.1305C33.2617 27.543 32.596 27.8782 31.897 28.1286C31.1834 28.3807 30.4335 28.5146 29.6769 28.525C30.4488 28.6544 31.2369 28.6544 32.0089 28.525C32.7905 28.3989 33.5534 28.1764 34.2803 27.8627C34.5275 27.7555 34.7467 27.6435 35.0079 27.5223C34.4076 28.389 33.7484 29.2133 33.035 29.9895C31.8423 31.3221 30.2261 32.2019 28.4596 32.4801C27.8421 32.5711 27.2178 32.607 26.5939 32.5874C27.2055 32.745 27.8298 32.848 28.4596 32.8952C29.1079 32.9346 29.7587 32.9017 30.3998 32.7973L30.703 32.7367C27.8439 34.9847 25.7358 35.2552 24.5791 35.3439H24.5184C23.8411 35.4198 23.1852 35.6274 22.5875 35.9548C23.0384 35.0687 23.5203 34.1996 24.0334 33.3477C25.1645 31.4723 26.4385 29.6869 27.8439 28.0073C28.5466 27.174 29.2804 26.3625 30.0453 25.5727C30.8242 24.8031 31.6171 24.0476 32.4566 23.3386C34.1338 21.914 35.9404 20.6492 37.8529 19.5607C35.8867 20.5742 34.0193 21.7687 32.2747 23.1287C31.4026 23.805 30.5724 24.5279 29.7561 25.2835C28.9399 26.0391 28.175 26.8366 27.4241 27.6575C25.9384 29.306 24.5818 31.0664 23.3664 32.9232C22.7554 33.856 22.1771 34.7888 21.6407 35.7823C21.3749 36.2487 21.1184 36.7617 20.8665 37.2654C20.6986 37.6059 20.54 37.9417 20.4001 38.2915C19.5792 39.91 18.847 41.6823 18.847 41.6823C18.336 42.0014 17.8859 42.4088 17.5177 42.8856H32.7785C35.4661 42.8819 38.0425 41.8123 39.9425 39.9114C41.8425 38.0105 42.911 35.4336 42.9134 32.746V17.1028L42.6755 17.2754Z" fill="#175067"/>
<path d="M154.525 23.4558H153.592V22.7888H156.26V23.4558H155.327V25.7645H154.483L154.525 23.4558Z" fill="#175067"/>
<path d="M159.277 25.764V24.1876L158.507 25.4609H158.129L157.369 24.2202V25.7547H156.571V22.7791H157.266L158.311 24.4954L159.333 22.7791H160.023V25.7547L159.277 25.764Z" fill="#175067"/>
</svg>
