<svg width="24" height="24" viewBox="0 0 24 24" fill="none" xmlns="http://www.w3.org/2000/svg">
<path d="M0.799805 3.9998C0.799805 3.15111 1.13695 2.33718 1.73706 1.73706C2.33718 1.13695 3.15111 0.799805 3.9998 0.799805H19.9998C20.8485 0.799805 21.6624 1.13695 22.2625 1.73706C22.8627 2.33718 23.1998 3.15111 23.1998 3.9998V19.9998C23.1998 20.8485 22.8627 21.6624 22.2625 22.2625C21.6624 22.8627 20.8485 23.1998 19.9998 23.1998H3.9998C3.15111 23.1998 2.33718 22.8627 1.73706 22.2625C1.13695 21.6624 0.799805 20.8485 0.799805 19.9998V3.9998ZM3.9998 2.3998C3.57546 2.3998 3.16849 2.56838 2.86843 2.86843C2.56838 3.16849 2.3998 3.57546 2.3998 3.9998V19.9998C2.3998 20.4242 2.56838 20.8311 2.86843 21.1312C3.16849 21.4312 3.57546 21.5998 3.9998 21.5998H19.9998C20.4242 21.5998 20.8311 21.4312 21.1312 21.1312C21.4312 20.8311 21.5998 20.4242 21.5998 19.9998V3.9998C21.5998 3.57546 21.4312 3.16849 21.1312 2.86843C20.8311 2.56838 20.4242 2.3998 19.9998 2.3998H3.9998ZM11.9998 5.5998C12.212 5.5998 12.4155 5.68409 12.5655 5.83412C12.7155 5.98415 12.7998 6.18763 12.7998 6.3998V11.1998H17.5998C17.812 11.1998 18.0155 11.2841 18.1655 11.4341C18.3155 11.5841 18.3998 11.7876 18.3998 11.9998C18.3998 12.212 18.3155 12.4155 18.1655 12.5655C18.0155 12.7155 17.812 12.7998 17.5998 12.7998H12.7998V17.5998C12.7998 17.812 12.7155 18.0155 12.5655 18.1655C12.4155 18.3155 12.212 18.3998 11.9998 18.3998C11.7876 18.3998 11.5841 18.3155 11.4341 18.1655C11.2841 18.0155 11.1998 17.812 11.1998 17.5998V12.7998H6.3998C6.18763 12.7998 5.98415 12.7155 5.83412 12.5655C5.68409 12.4155 5.5998 12.212 5.5998 11.9998C5.5998 11.7876 5.68409 11.5841 5.83412 11.4341C5.98415 11.2841 6.18763 11.1998 6.3998 11.1998H11.1998V6.3998C11.1998 6.18763 11.2841 5.98415 11.4341 5.83412C11.5841 5.68409 11.7876 5.5998 11.9998 5.5998Z" fill="#737373"/>
</svg>
